%TF.GenerationSoftware,KiCad,Pcbnew,(6.0.0)*%
%TF.CreationDate,2022-03-25T10:48:22+03:00*%
%TF.ProjectId,Ringturnpage,52696e67-7475-4726-9e70-6167652e6b69,rev?*%
%TF.SameCoordinates,Original*%
%TF.FileFunction,Legend,Top*%
%TF.FilePolarity,Positive*%
%FSLAX46Y46*%
G04 Gerber Fmt 4.6, Leading zero omitted, Abs format (unit mm)*
G04 Created by KiCad (PCBNEW (6.0.0)) date 2022-03-25 10:48:22*
%MOMM*%
%LPD*%
G01*
G04 APERTURE LIST*
%ADD10C,0.150000*%
%ADD11C,0.200000*%
%ADD12C,0.120000*%
%ADD13C,0.100000*%
G04 APERTURE END LIST*
D10*
X135760000Y-100660000D02*
X135530000Y-100660000D01*
X135530000Y-94670000D02*
X138890000Y-94670000D01*
X150505000Y-97550000D02*
X149920000Y-97540000D01*
X153660000Y-97540000D02*
X154450000Y-97540000D01*
X138890000Y-95870000D02*
X138880000Y-100660000D01*
X135530000Y-100660000D02*
X135530000Y-94670000D01*
X138890000Y-100660000D02*
X135760000Y-100660000D01*
D11*
X147620476Y-97150000D02*
X147544285Y-97111904D01*
X147430000Y-97111904D01*
X147315714Y-97150000D01*
X147239523Y-97226190D01*
X147201428Y-97302380D01*
X147163333Y-97454761D01*
X147163333Y-97569047D01*
X147201428Y-97721428D01*
X147239523Y-97797619D01*
X147315714Y-97873809D01*
X147430000Y-97911904D01*
X147506190Y-97911904D01*
X147620476Y-97873809D01*
X147658571Y-97835714D01*
X147658571Y-97569047D01*
X147506190Y-97569047D01*
X148001428Y-97911904D02*
X148001428Y-97111904D01*
X148458571Y-97911904D01*
X148458571Y-97111904D01*
X148839523Y-97911904D02*
X148839523Y-97111904D01*
X149030000Y-97111904D01*
X149144285Y-97150000D01*
X149220476Y-97226190D01*
X149258571Y-97302380D01*
X149296666Y-97454761D01*
X149296666Y-97569047D01*
X149258571Y-97721428D01*
X149220476Y-97797619D01*
X149144285Y-97873809D01*
X149030000Y-97911904D01*
X148839523Y-97911904D01*
X138729523Y-95242857D02*
X138996190Y-95242857D01*
X139110476Y-95661904D02*
X138729523Y-95661904D01*
X138729523Y-94861904D01*
X139110476Y-94861904D01*
X139453333Y-95661904D02*
X139453333Y-94861904D01*
X139910476Y-95661904D01*
X139910476Y-94861904D01*
X142996666Y-97911904D02*
X142730000Y-97530952D01*
X142539523Y-97911904D02*
X142539523Y-97111904D01*
X142844285Y-97111904D01*
X142920476Y-97150000D01*
X142958571Y-97188095D01*
X142996666Y-97264285D01*
X142996666Y-97378571D01*
X142958571Y-97454761D01*
X142920476Y-97492857D01*
X142844285Y-97530952D01*
X142539523Y-97530952D01*
X143263333Y-97111904D02*
X143796666Y-97911904D01*
X143796666Y-97111904D02*
X143263333Y-97911904D01*
X150954285Y-97492857D02*
X151068571Y-97530952D01*
X151106666Y-97569047D01*
X151144761Y-97645238D01*
X151144761Y-97759523D01*
X151106666Y-97835714D01*
X151068571Y-97873809D01*
X150992380Y-97911904D01*
X150687619Y-97911904D01*
X150687619Y-97111904D01*
X150954285Y-97111904D01*
X151030476Y-97150000D01*
X151068571Y-97188095D01*
X151106666Y-97264285D01*
X151106666Y-97340476D01*
X151068571Y-97416666D01*
X151030476Y-97454761D01*
X150954285Y-97492857D01*
X150687619Y-97492857D01*
X151640000Y-97111904D02*
X151792380Y-97111904D01*
X151868571Y-97150000D01*
X151944761Y-97226190D01*
X151982857Y-97378571D01*
X151982857Y-97645238D01*
X151944761Y-97797619D01*
X151868571Y-97873809D01*
X151792380Y-97911904D01*
X151640000Y-97911904D01*
X151563809Y-97873809D01*
X151487619Y-97797619D01*
X151449523Y-97645238D01*
X151449523Y-97378571D01*
X151487619Y-97226190D01*
X151563809Y-97150000D01*
X151640000Y-97111904D01*
X152478095Y-97111904D02*
X152630476Y-97111904D01*
X152706666Y-97150000D01*
X152782857Y-97226190D01*
X152820952Y-97378571D01*
X152820952Y-97645238D01*
X152782857Y-97797619D01*
X152706666Y-97873809D01*
X152630476Y-97911904D01*
X152478095Y-97911904D01*
X152401904Y-97873809D01*
X152325714Y-97797619D01*
X152287619Y-97645238D01*
X152287619Y-97378571D01*
X152325714Y-97226190D01*
X152401904Y-97150000D01*
X152478095Y-97111904D01*
X153049523Y-97111904D02*
X153506666Y-97111904D01*
X153278095Y-97911904D02*
X153278095Y-97111904D01*
X139669523Y-97111904D02*
X140164761Y-97111904D01*
X139898095Y-97416666D01*
X140012380Y-97416666D01*
X140088571Y-97454761D01*
X140126666Y-97492857D01*
X140164761Y-97569047D01*
X140164761Y-97759523D01*
X140126666Y-97835714D01*
X140088571Y-97873809D01*
X140012380Y-97911904D01*
X139783809Y-97911904D01*
X139707619Y-97873809D01*
X139669523Y-97835714D01*
X140393333Y-97111904D02*
X140660000Y-97911904D01*
X140926666Y-97111904D01*
X141117142Y-97111904D02*
X141612380Y-97111904D01*
X141345714Y-97416666D01*
X141460000Y-97416666D01*
X141536190Y-97454761D01*
X141574285Y-97492857D01*
X141612380Y-97569047D01*
X141612380Y-97759523D01*
X141574285Y-97835714D01*
X141536190Y-97873809D01*
X141460000Y-97911904D01*
X141231428Y-97911904D01*
X141155238Y-97873809D01*
X141117142Y-97835714D01*
X145090476Y-97121904D02*
X145547619Y-97121904D01*
X145319047Y-97921904D02*
X145319047Y-97121904D01*
X145738095Y-97121904D02*
X146271428Y-97921904D01*
X146271428Y-97121904D02*
X145738095Y-97921904D01*
D12*
%TO.C,R9*%
X138533641Y-93730000D02*
X138226359Y-93730000D01*
X138533641Y-94490000D02*
X138226359Y-94490000D01*
D13*
%TO.C,D1*%
X135397500Y-92080000D02*
G75*
G03*
X135397500Y-92080000I-50000J0D01*
G01*
%TO.C,D3*%
X135400000Y-94110000D02*
G75*
G03*
X135400000Y-94110000I-50000J0D01*
G01*
D12*
%TO.C,J2*%
X141950000Y-100795000D02*
X154710000Y-100795000D01*
X141950000Y-98135000D02*
X154710000Y-98135000D01*
X141950000Y-100795000D02*
X141950000Y-98135000D01*
X140680000Y-100795000D02*
X139350000Y-100795000D01*
X139350000Y-100795000D02*
X139350000Y-99465000D01*
X154710000Y-100795000D02*
X154710000Y-98135000D01*
%TO.C,R7*%
X138610000Y-91406359D02*
X138610000Y-91713641D01*
X137850000Y-91406359D02*
X137850000Y-91713641D01*
%TO.C,R8*%
X138526141Y-93460000D02*
X138218859Y-93460000D01*
X138526141Y-92700000D02*
X138218859Y-92700000D01*
D13*
%TO.C,D2*%
X135392500Y-93100000D02*
G75*
G03*
X135392500Y-93100000I-50000J0D01*
G01*
D11*
%TO.C,IC1*%
X139960000Y-87050000D02*
X139960000Y-87050000D01*
X140560000Y-85450000D02*
X153770000Y-85450000D01*
X140560000Y-85350000D02*
X140560000Y-96650000D01*
X153760000Y-96650000D02*
X153760000Y-85350000D01*
X140160000Y-87050000D02*
X140160000Y-87050000D01*
X140560000Y-85350000D02*
X140560000Y-80050000D01*
X140560000Y-96650000D02*
X153760000Y-96650000D01*
X153760000Y-80050000D02*
X153760000Y-85350000D01*
X140560000Y-80050000D02*
X153760000Y-80050000D01*
X139960000Y-87050000D02*
G75*
G03*
X140160000Y-87050000I100000J0D01*
G01*
X140160000Y-87050000D02*
G75*
G03*
X139960000Y-87050000I-100000J0D01*
G01*
D12*
%TO.C,J3*%
X138490000Y-98995000D02*
X138490000Y-100325000D01*
X138490000Y-97725000D02*
X135830000Y-97725000D01*
X135830000Y-97725000D02*
X135830000Y-95125000D01*
X138490000Y-97725000D02*
X138490000Y-95125000D01*
X138490000Y-100325000D02*
X137160000Y-100325000D01*
X138490000Y-95125000D02*
X135830000Y-95125000D01*
%TD*%
M02*
