%TF.GenerationSoftware,KiCad,Pcbnew,(6.0.0)*%
%TF.CreationDate,2022-03-25T10:48:22+03:00*%
%TF.ProjectId,Ringturnpage,52696e67-7475-4726-9e70-6167652e6b69,rev?*%
%TF.SameCoordinates,Original*%
%TF.FileFunction,Copper,L1,Top*%
%TF.FilePolarity,Positive*%
%FSLAX46Y46*%
G04 Gerber Fmt 4.6, Leading zero omitted, Abs format (unit mm)*
G04 Created by KiCad (PCBNEW (6.0.0)) date 2022-03-25 10:48:22*
%MOMM*%
%LPD*%
G01*
G04 APERTURE LIST*
G04 Aperture macros list*
%AMRoundRect*
0 Rectangle with rounded corners*
0 $1 Rounding radius*
0 $2 $3 $4 $5 $6 $7 $8 $9 X,Y pos of 4 corners*
0 Add a 4 corners polygon primitive as box body*
4,1,4,$2,$3,$4,$5,$6,$7,$8,$9,$2,$3,0*
0 Add four circle primitives for the rounded corners*
1,1,$1+$1,$2,$3*
1,1,$1+$1,$4,$5*
1,1,$1+$1,$6,$7*
1,1,$1+$1,$8,$9*
0 Add four rect primitives between the rounded corners*
20,1,$1+$1,$2,$3,$4,$5,0*
20,1,$1+$1,$4,$5,$6,$7,0*
20,1,$1+$1,$6,$7,$8,$9,0*
20,1,$1+$1,$8,$9,$2,$3,0*%
G04 Aperture macros list end*
%TA.AperFunction,SMDPad,CuDef*%
%ADD10RoundRect,0.135000X0.135000X0.185000X-0.135000X0.185000X-0.135000X-0.185000X0.135000X-0.185000X0*%
%TD*%
%TA.AperFunction,SMDPad,CuDef*%
%ADD11RoundRect,0.147500X-0.147500X-0.172500X0.147500X-0.172500X0.147500X0.172500X-0.147500X0.172500X0*%
%TD*%
%TA.AperFunction,ComponentPad*%
%ADD12R,1.700000X1.700000*%
%TD*%
%TA.AperFunction,ComponentPad*%
%ADD13O,1.700000X1.700000*%
%TD*%
%TA.AperFunction,SMDPad,CuDef*%
%ADD14RoundRect,0.135000X-0.185000X0.135000X-0.185000X-0.135000X0.185000X-0.135000X0.185000X0.135000X0*%
%TD*%
%TA.AperFunction,SMDPad,CuDef*%
%ADD15R,0.800000X0.400000*%
%TD*%
%TA.AperFunction,SMDPad,CuDef*%
%ADD16R,0.400000X0.800000*%
%TD*%
%TA.AperFunction,SMDPad,CuDef*%
%ADD17R,1.450000X1.450000*%
%TD*%
%TA.AperFunction,SMDPad,CuDef*%
%ADD18R,0.700000X0.700000*%
%TD*%
%TA.AperFunction,ComponentPad*%
%ADD19RoundRect,0.250000X0.625000X-0.350000X0.625000X0.350000X-0.625000X0.350000X-0.625000X-0.350000X0*%
%TD*%
%TA.AperFunction,ComponentPad*%
%ADD20O,1.750000X1.200000*%
%TD*%
%TA.AperFunction,ComponentPad*%
%ADD21C,1.400000*%
%TD*%
%TA.AperFunction,ViaPad*%
%ADD22C,0.600000*%
%TD*%
%TA.AperFunction,Conductor*%
%ADD23C,0.600000*%
%TD*%
%TA.AperFunction,Conductor*%
%ADD24C,0.400000*%
%TD*%
%TA.AperFunction,Conductor*%
%ADD25C,0.250000*%
%TD*%
G04 APERTURE END LIST*
D10*
%TO.P,R9,1*%
%TO.N,/ACTION_LED*%
X138890000Y-94110000D03*
%TO.P,R9,2*%
%TO.N,Net-(D3-Pad2)*%
X137870000Y-94110000D03*
%TD*%
D11*
%TO.P,D1,1,K*%
%TO.N,GND*%
X135952500Y-92080000D03*
%TO.P,D1,2,A*%
%TO.N,Net-(D1-Pad2)*%
X136922500Y-92080000D03*
%TD*%
%TO.P,D3,1,K*%
%TO.N,GND*%
X135955000Y-94110000D03*
%TO.P,D3,2,A*%
%TO.N,Net-(D3-Pad2)*%
X136925000Y-94110000D03*
%TD*%
D12*
%TO.P,J2,1,Pin_1*%
%TO.N,+3V3*%
X140680000Y-99465000D03*
D13*
%TO.P,J2,2,Pin_2*%
%TO.N,/RX*%
X143220000Y-99465000D03*
%TO.P,J2,3,Pin_3*%
%TO.N,/TX*%
X145760000Y-99465000D03*
%TO.P,J2,4,Pin_4*%
%TO.N,GND*%
X148300000Y-99465000D03*
%TO.P,J2,5,Pin_5*%
X150840000Y-99465000D03*
%TO.P,J2,6,Pin_6*%
%TO.N,/BOOT*%
X153380000Y-99465000D03*
%TD*%
D14*
%TO.P,R7,1*%
%TO.N,/LOW_LED*%
X138230000Y-91050000D03*
%TO.P,R7,2*%
%TO.N,Net-(D1-Pad2)*%
X138230000Y-92070000D03*
%TD*%
D10*
%TO.P,R8,1*%
%TO.N,/FULL_LED*%
X138882500Y-93080000D03*
%TO.P,R8,2*%
%TO.N,Net-(D2-Pad2)*%
X137862500Y-93080000D03*
%TD*%
D11*
%TO.P,D2,1,K*%
%TO.N,GND*%
X135947500Y-93100000D03*
%TO.P,D2,2,A*%
%TO.N,Net-(D2-Pad2)*%
X136917500Y-93100000D03*
%TD*%
D15*
%TO.P,IC1,1,GND_1*%
%TO.N,GND*%
X141260000Y-87050000D03*
%TO.P,IC1,2,GND_2*%
X141260000Y-87850000D03*
%TO.P,IC1,3,3V3*%
%TO.N,+3V3*%
X141260000Y-88650000D03*
%TO.P,IC1,4,NC_1*%
%TO.N,unconnected-(IC1-Pad4)*%
X141260000Y-89450000D03*
%TO.P,IC1,5,IO2*%
%TO.N,/LOW_LED*%
X141260000Y-90250000D03*
%TO.P,IC1,6,IO3*%
%TO.N,/FULL_LED*%
X141260000Y-91050000D03*
%TO.P,IC1,7,NC_2*%
%TO.N,unconnected-(IC1-Pad7)*%
X141260000Y-91850000D03*
%TO.P,IC1,8,EN*%
%TO.N,/EN*%
X141260000Y-92650000D03*
%TO.P,IC1,9,NC_3*%
%TO.N,unconnected-(IC1-Pad9)*%
X141260000Y-93450000D03*
%TO.P,IC1,10,NC_4*%
%TO.N,unconnected-(IC1-Pad10)*%
X141260000Y-94250000D03*
%TO.P,IC1,11,GND_3*%
%TO.N,GND*%
X141260000Y-95050000D03*
D16*
%TO.P,IC1,12,IO0*%
%TO.N,/BATTERY*%
X142360000Y-95950000D03*
%TO.P,IC1,13,IO1*%
%TO.N,/STATUS*%
X143160000Y-95950000D03*
%TO.P,IC1,14,GND_4*%
%TO.N,GND*%
X143960000Y-95950000D03*
%TO.P,IC1,15,NC_5*%
%TO.N,unconnected-(IC1-Pad15)*%
X144760000Y-95950000D03*
%TO.P,IC1,16,IO10*%
%TO.N,unconnected-(IC1-Pad16)*%
X145560000Y-95950000D03*
%TO.P,IC1,17,NC_6*%
%TO.N,unconnected-(IC1-Pad17)*%
X146360000Y-95950000D03*
%TO.P,IC1,18,IO4*%
%TO.N,/ACTION_LED*%
X147160000Y-95950000D03*
%TO.P,IC1,19,IO5*%
%TO.N,/BUTTON*%
X147960000Y-95950000D03*
%TO.P,IC1,20,IO6*%
%TO.N,unconnected-(IC1-Pad20)*%
X148760000Y-95950000D03*
%TO.P,IC1,21,IO7*%
%TO.N,unconnected-(IC1-Pad21)*%
X149560000Y-95950000D03*
%TO.P,IC1,22,IO8*%
%TO.N,unconnected-(IC1-Pad22)*%
X150360000Y-95950000D03*
%TO.P,IC1,23,IO9*%
%TO.N,/BOOT*%
X151160000Y-95950000D03*
%TO.P,IC1,24,NC_7*%
%TO.N,unconnected-(IC1-Pad24)*%
X151960000Y-95950000D03*
D15*
%TO.P,IC1,25,NC_8*%
%TO.N,unconnected-(IC1-Pad25)*%
X153060000Y-95050000D03*
%TO.P,IC1,26,IO18*%
%TO.N,/CHARGING*%
X153060000Y-94250000D03*
%TO.P,IC1,27,IO19*%
%TO.N,unconnected-(IC1-Pad27)*%
X153060000Y-93450000D03*
%TO.P,IC1,28,NC_9*%
%TO.N,unconnected-(IC1-Pad28)*%
X153060000Y-92650000D03*
%TO.P,IC1,29,NC_10*%
%TO.N,unconnected-(IC1-Pad29)*%
X153060000Y-91850000D03*
%TO.P,IC1,30,RXD0*%
%TO.N,/RX*%
X153060000Y-91050000D03*
%TO.P,IC1,31,TXD0*%
%TO.N,/TX*%
X153060000Y-90250000D03*
%TO.P,IC1,32,NC_11*%
%TO.N,unconnected-(IC1-Pad32)*%
X153060000Y-89450000D03*
%TO.P,IC1,33,NC_12*%
%TO.N,unconnected-(IC1-Pad33)*%
X153060000Y-88650000D03*
%TO.P,IC1,34,NC_13*%
%TO.N,unconnected-(IC1-Pad34)*%
X153060000Y-87850000D03*
%TO.P,IC1,35,NC_14*%
%TO.N,unconnected-(IC1-Pad35)*%
X153060000Y-87050000D03*
D16*
%TO.P,IC1,36,GND_5*%
%TO.N,GND*%
X151960000Y-86150000D03*
%TO.P,IC1,37,GND_6*%
X151160000Y-86150000D03*
%TO.P,IC1,38,GND_7*%
X150360000Y-86150000D03*
%TO.P,IC1,39,GND_8*%
X149560000Y-86150000D03*
%TO.P,IC1,40,GND_9*%
X148760000Y-86150000D03*
%TO.P,IC1,41,GND_10*%
X147960000Y-86150000D03*
%TO.P,IC1,42,GND_11*%
X147160000Y-86150000D03*
%TO.P,IC1,43,GND_12*%
X146360000Y-86150000D03*
%TO.P,IC1,44,GND_13*%
X145560000Y-86150000D03*
%TO.P,IC1,45,GND_14*%
X144760000Y-86150000D03*
%TO.P,IC1,46,GND_15*%
X143960000Y-86150000D03*
%TO.P,IC1,47,GND_16*%
X143160000Y-86150000D03*
%TO.P,IC1,48,GND_17*%
X142360000Y-86150000D03*
D17*
%TO.P,IC1,49,GND_18*%
X147160000Y-91050000D03*
%TO.P,IC1,50,GND_19*%
X149135000Y-89075000D03*
%TO.P,IC1,51,GND_20*%
X147160000Y-89075000D03*
%TO.P,IC1,52,GND_21*%
X145185000Y-89075000D03*
%TO.P,IC1,53,GND_22*%
X145185000Y-91050000D03*
%TO.P,IC1,54,GND_23*%
X145185000Y-93025000D03*
%TO.P,IC1,55,GND_24*%
X147160000Y-93025000D03*
%TO.P,IC1,56,GND_25*%
X149135000Y-93025000D03*
%TO.P,IC1,57,GND_26*%
X149135000Y-91050000D03*
D18*
%TO.P,IC1,58,GND_27*%
X141210000Y-86100000D03*
%TO.P,IC1,59,GND_28*%
X141210000Y-96000000D03*
%TO.P,IC1,60,GND_29*%
X153110000Y-96000000D03*
%TO.P,IC1,61,GND_30*%
X153110000Y-86100000D03*
%TD*%
D12*
%TO.P,J3,1,Pin_1*%
%TO.N,GND*%
X137160000Y-98995000D03*
D13*
%TO.P,J3,2,Pin_2*%
%TO.N,/EN*%
X137160000Y-96455000D03*
%TD*%
D19*
%TO.P,J4,1,Pin_1*%
%TO.N,+BATT*%
X138100000Y-84160000D03*
D20*
%TO.P,J4,2,Pin_2*%
%TO.N,GND*%
X138100000Y-82160000D03*
%TD*%
D21*
%TO.P,J5,1,Pin_1*%
%TO.N,+3V3*%
X136305000Y-90385000D03*
%TO.P,J5,2,Pin_2*%
%TO.N,/BUTTON*%
X136305000Y-87845000D03*
%TD*%
D22*
%TO.N,GND*%
X142340000Y-90300000D03*
X138950000Y-87100000D03*
X152520000Y-96820000D03*
X138270500Y-95350000D03*
X137170000Y-85370000D03*
X135560000Y-94910000D03*
X142710000Y-87610000D03*
X150970000Y-89900000D03*
X145250000Y-94820000D03*
X135720000Y-98990000D03*
X148410000Y-86950000D03*
%TO.N,+3V3*%
X143900000Y-93500000D03*
X143910000Y-92100000D03*
X139960000Y-89040000D03*
%TO.N,/EN*%
X140355627Y-94195129D03*
%TO.N,/BOOT*%
X151470000Y-96870000D03*
%TO.N,/BATTERY*%
X140031942Y-92498058D03*
%TO.N,/STATUS*%
X142650000Y-88700000D03*
%TO.N,/CHARGING*%
X151100000Y-93750000D03*
%TO.N,/BUTTON*%
X139260000Y-88090000D03*
X147910000Y-94680000D03*
%TD*%
D23*
%TO.N,GND*%
X145185000Y-91050000D02*
X145185000Y-93025000D01*
D24*
X153110000Y-96230000D02*
X152520000Y-96820000D01*
D23*
X149135000Y-89075000D02*
X149135000Y-91050000D01*
D25*
X142025489Y-87965489D02*
X142025489Y-89985489D01*
D23*
X149135000Y-91050000D02*
X149135000Y-93025000D01*
D24*
X153110000Y-96000000D02*
X153110000Y-96230000D01*
D23*
X147160000Y-93025000D02*
X147160000Y-91050000D01*
X145185000Y-89075000D02*
X147160000Y-89075000D01*
D25*
X141910000Y-87850000D02*
X142025489Y-87965489D01*
X141260000Y-87850000D02*
X141910000Y-87850000D01*
X142025489Y-89985489D02*
X142340000Y-90300000D01*
D23*
X147160000Y-91050000D02*
X147160000Y-89075000D01*
X145185000Y-93025000D02*
X147160000Y-93025000D01*
X147160000Y-91050000D02*
X149135000Y-91050000D01*
X149135000Y-93025000D02*
X147160000Y-93025000D01*
X145185000Y-91050000D02*
X145185000Y-89075000D01*
X147160000Y-89075000D02*
X149135000Y-89075000D01*
X147160000Y-91050000D02*
X145185000Y-91050000D01*
D24*
%TO.N,+3V3*%
X136325000Y-90525000D02*
X137330000Y-89520000D01*
X139480000Y-89520000D02*
X139960000Y-89040000D01*
X137330000Y-89520000D02*
X139480000Y-89520000D01*
X140350000Y-88650000D02*
X141260000Y-88650000D01*
X143910000Y-92100000D02*
X143910000Y-93490000D01*
X143910000Y-93490000D02*
X143900000Y-93500000D01*
X139960000Y-89040000D02*
X140350000Y-88650000D01*
%TO.N,/EN*%
X140355627Y-94195129D02*
X140355627Y-93174373D01*
X140355627Y-93174373D02*
X140880000Y-92650000D01*
X140880000Y-92650000D02*
X141260000Y-92650000D01*
%TO.N,/BOOT*%
X151160000Y-95950000D02*
X151160000Y-96560000D01*
X151160000Y-96560000D02*
X151470000Y-96870000D01*
%TO.N,/BATTERY*%
X141959511Y-96749511D02*
X142360000Y-96349022D01*
X139656116Y-92873884D02*
X139656116Y-95945138D01*
X139656116Y-95945138D02*
X140460489Y-96749511D01*
X140460489Y-96749511D02*
X141959511Y-96749511D01*
X142360000Y-96349022D02*
X142360000Y-95950000D01*
X140031942Y-92498058D02*
X139656116Y-92873884D01*
%TO.N,/STATUS*%
X143160000Y-95950000D02*
X143160000Y-89210000D01*
X143160000Y-89210000D02*
X142650000Y-88700000D01*
%TO.N,/CHARGING*%
X151600000Y-94250000D02*
X153060000Y-94250000D01*
X151100000Y-93750000D02*
X151600000Y-94250000D01*
%TO.N,/BUTTON*%
X139260000Y-88090000D02*
X139015000Y-87845000D01*
X147960000Y-95950000D02*
X147960000Y-94730000D01*
X147960000Y-94730000D02*
X147910000Y-94680000D01*
X139015000Y-87845000D02*
X136305000Y-87845000D01*
%TO.N,/FULL_LED*%
X140593979Y-91050000D02*
X141260000Y-91050000D01*
X138882500Y-92761479D02*
X140593979Y-91050000D01*
X138882500Y-93080000D02*
X138882500Y-92761479D01*
%TO.N,/RX*%
X153859511Y-91250489D02*
X153859511Y-96749511D01*
X153659022Y-91050000D02*
X153859511Y-91250489D01*
X153060000Y-91050000D02*
X153659022Y-91050000D01*
X145034520Y-97600480D02*
X143230000Y-99405000D01*
X153859511Y-96749511D02*
X153008542Y-97600480D01*
X153008542Y-97600480D02*
X145034520Y-97600480D01*
%TO.N,/TX*%
X153890000Y-90250000D02*
X154590000Y-90950000D01*
X153060000Y-90250000D02*
X153890000Y-90250000D01*
X147025000Y-98200000D02*
X145760000Y-99465000D01*
X154590000Y-97390000D02*
X153780000Y-98200000D01*
X154590000Y-90950000D02*
X154590000Y-97390000D01*
X153780000Y-98200000D02*
X147025000Y-98200000D01*
%TO.N,Net-(D1-Pad2)*%
X136922500Y-92080000D02*
X138220000Y-92080000D01*
X138220000Y-92080000D02*
X138230000Y-92070000D01*
%TO.N,Net-(D2-Pad2)*%
X136917500Y-93100000D02*
X137842500Y-93100000D01*
%TO.N,Net-(D3-Pad2)*%
X137870000Y-94110000D02*
X136925000Y-94110000D01*
%TO.N,/LOW_LED*%
X139030000Y-90250000D02*
X138230000Y-91050000D01*
X141260000Y-90250000D02*
X139030000Y-90250000D01*
%TO.N,/ACTION_LED*%
X142840489Y-96749511D02*
X142240000Y-97350000D01*
X138970000Y-94190000D02*
X138890000Y-94110000D01*
X138970000Y-96106871D02*
X138970000Y-94190000D01*
X142240000Y-97350000D02*
X140213129Y-97350000D01*
X146959511Y-96749511D02*
X142840489Y-96749511D01*
X147160000Y-96549022D02*
X146959511Y-96749511D01*
X147160000Y-95950000D02*
X147160000Y-96549022D01*
X140213129Y-97350000D02*
X138970000Y-96106871D01*
%TD*%
%TA.AperFunction,Conductor*%
%TO.N,GND*%
G36*
X136148621Y-91846002D02*
G01*
X136195114Y-91899658D01*
X136206500Y-91952000D01*
X136206500Y-92925015D01*
X136203621Y-92951798D01*
X136201500Y-92961548D01*
X136201500Y-93223885D01*
X136203896Y-93232045D01*
X136209000Y-93267543D01*
X136209000Y-94916048D01*
X136212973Y-94929579D01*
X136220871Y-94930714D01*
X136357287Y-94891082D01*
X136371724Y-94884834D01*
X136500627Y-94808601D01*
X136513065Y-94798952D01*
X136618954Y-94693063D01*
X136630469Y-94678219D01*
X136688027Y-94636655D01*
X136739142Y-94629779D01*
X136739997Y-94629841D01*
X136744514Y-94630500D01*
X137105486Y-94630500D01*
X137110036Y-94629830D01*
X137110039Y-94629830D01*
X137138377Y-94625658D01*
X137173884Y-94620431D01*
X137277880Y-94569372D01*
X137299733Y-94547481D01*
X137362014Y-94513403D01*
X137388904Y-94510500D01*
X137423841Y-94510500D01*
X137491962Y-94530502D01*
X137512936Y-94547405D01*
X137539596Y-94574065D01*
X137549588Y-94578725D01*
X137549589Y-94578725D01*
X137634012Y-94618092D01*
X137646827Y-94624068D01*
X137687887Y-94629474D01*
X137690595Y-94629830D01*
X137695684Y-94630500D01*
X138044316Y-94630500D01*
X138049406Y-94629830D01*
X138052113Y-94629474D01*
X138093173Y-94624068D01*
X138105989Y-94618092D01*
X138190411Y-94578725D01*
X138190412Y-94578725D01*
X138200404Y-94574065D01*
X138284065Y-94490404D01*
X138284753Y-94491092D01*
X138332247Y-94453131D01*
X138402867Y-94445823D01*
X138466226Y-94477856D01*
X138474579Y-94487496D01*
X138475935Y-94490404D01*
X138532595Y-94547064D01*
X138566621Y-94609376D01*
X138569500Y-94636159D01*
X138569500Y-96170304D01*
X138572564Y-96179735D01*
X138572565Y-96179739D01*
X138576297Y-96191224D01*
X138580913Y-96210449D01*
X138584354Y-96232175D01*
X138588855Y-96241008D01*
X138588856Y-96241012D01*
X138594341Y-96251777D01*
X138601905Y-96270037D01*
X138608704Y-96290961D01*
X138621639Y-96308764D01*
X138631965Y-96325616D01*
X138641950Y-96345213D01*
X138664513Y-96367776D01*
X138664516Y-96367780D01*
X139952220Y-97655484D01*
X139952224Y-97655487D01*
X139974787Y-97678050D01*
X139983627Y-97682554D01*
X139994384Y-97688035D01*
X140011236Y-97698361D01*
X140029039Y-97711296D01*
X140049963Y-97718095D01*
X140068223Y-97725659D01*
X140078988Y-97731144D01*
X140078992Y-97731145D01*
X140087825Y-97735646D01*
X140097616Y-97737197D01*
X140097617Y-97737197D01*
X140109551Y-97739087D01*
X140128776Y-97743703D01*
X140140261Y-97747435D01*
X140140265Y-97747436D01*
X140149696Y-97750500D01*
X142303433Y-97750500D01*
X142312864Y-97747436D01*
X142312868Y-97747435D01*
X142324353Y-97743703D01*
X142343578Y-97739087D01*
X142355512Y-97737197D01*
X142355513Y-97737197D01*
X142365304Y-97735646D01*
X142374137Y-97731145D01*
X142374141Y-97731144D01*
X142384906Y-97725659D01*
X142403166Y-97718095D01*
X142424090Y-97711296D01*
X142441893Y-97698361D01*
X142458745Y-97688035D01*
X142469502Y-97682554D01*
X142478342Y-97678050D01*
X142500905Y-97655487D01*
X142500909Y-97655484D01*
X142969477Y-97186916D01*
X143031789Y-97152890D01*
X143058572Y-97150011D01*
X144614406Y-97150011D01*
X144682527Y-97170013D01*
X144729020Y-97223669D01*
X144739124Y-97293943D01*
X144709630Y-97358523D01*
X144703501Y-97365106D01*
X143642829Y-98425778D01*
X143580517Y-98459804D01*
X143516475Y-98457048D01*
X143432254Y-98430977D01*
X143426129Y-98430333D01*
X143426128Y-98430333D01*
X143233498Y-98410087D01*
X143233496Y-98410087D01*
X143227369Y-98409443D01*
X143140529Y-98417346D01*
X143028342Y-98427555D01*
X143028339Y-98427556D01*
X143022203Y-98428114D01*
X142824572Y-98486280D01*
X142642002Y-98581726D01*
X142637201Y-98585586D01*
X142637198Y-98585588D01*
X142593774Y-98620502D01*
X142481447Y-98710815D01*
X142349024Y-98868630D01*
X142346056Y-98874028D01*
X142346053Y-98874033D01*
X142339315Y-98886290D01*
X142249776Y-99049162D01*
X142187484Y-99245532D01*
X142186798Y-99251649D01*
X142186797Y-99251653D01*
X142185063Y-99267115D01*
X142164520Y-99450262D01*
X142165036Y-99456406D01*
X142180902Y-99645342D01*
X142181759Y-99655553D01*
X142183458Y-99661478D01*
X142229395Y-99821678D01*
X142238544Y-99853586D01*
X142241359Y-99859063D01*
X142241360Y-99859066D01*
X142329897Y-100031341D01*
X142332712Y-100036818D01*
X142460677Y-100198270D01*
X142465370Y-100202264D01*
X142465371Y-100202265D01*
X142539541Y-100265388D01*
X142617564Y-100331791D01*
X142622942Y-100334797D01*
X142622944Y-100334798D01*
X142655511Y-100352999D01*
X142797398Y-100432297D01*
X142881280Y-100459552D01*
X142987471Y-100494056D01*
X142987475Y-100494057D01*
X142993329Y-100495959D01*
X143197894Y-100520351D01*
X143204029Y-100519879D01*
X143204031Y-100519879D01*
X143276625Y-100514293D01*
X143403300Y-100504546D01*
X143409230Y-100502890D01*
X143409232Y-100502890D01*
X143595797Y-100450800D01*
X143595796Y-100450800D01*
X143601725Y-100449145D01*
X143607214Y-100446372D01*
X143607220Y-100446370D01*
X143780116Y-100359033D01*
X143785610Y-100356258D01*
X143793463Y-100350123D01*
X143943101Y-100233213D01*
X143947951Y-100229424D01*
X144001293Y-100167627D01*
X144078540Y-100078134D01*
X144078540Y-100078133D01*
X144082564Y-100073472D01*
X144103387Y-100036818D01*
X144121056Y-100005714D01*
X144184323Y-99894344D01*
X144249351Y-99698863D01*
X144275171Y-99494474D01*
X144275583Y-99465000D01*
X144255480Y-99259970D01*
X144204445Y-99090934D01*
X144203904Y-99019939D01*
X144235972Y-98965421D01*
X145163508Y-98037885D01*
X145225820Y-98003859D01*
X145252603Y-98000980D01*
X146353438Y-98000980D01*
X146421559Y-98020982D01*
X146468052Y-98074638D01*
X146478156Y-98144912D01*
X146448662Y-98209492D01*
X146442533Y-98216075D01*
X146221011Y-98437597D01*
X146158699Y-98471623D01*
X146094657Y-98468867D01*
X146056476Y-98457048D01*
X145972254Y-98430977D01*
X145966129Y-98430333D01*
X145966128Y-98430333D01*
X145773498Y-98410087D01*
X145773496Y-98410087D01*
X145767369Y-98409443D01*
X145680529Y-98417346D01*
X145568342Y-98427555D01*
X145568339Y-98427556D01*
X145562203Y-98428114D01*
X145364572Y-98486280D01*
X145182002Y-98581726D01*
X145177201Y-98585586D01*
X145177198Y-98585588D01*
X145133774Y-98620502D01*
X145021447Y-98710815D01*
X144889024Y-98868630D01*
X144886056Y-98874028D01*
X144886053Y-98874033D01*
X144879315Y-98886290D01*
X144789776Y-99049162D01*
X144727484Y-99245532D01*
X144726798Y-99251649D01*
X144726797Y-99251653D01*
X144725063Y-99267115D01*
X144704520Y-99450262D01*
X144705036Y-99456406D01*
X144720902Y-99645342D01*
X144721759Y-99655553D01*
X144723458Y-99661478D01*
X144769395Y-99821678D01*
X144778544Y-99853586D01*
X144781359Y-99859063D01*
X144781360Y-99859066D01*
X144869897Y-100031341D01*
X144872712Y-100036818D01*
X145000677Y-100198270D01*
X145005370Y-100202264D01*
X145005371Y-100202265D01*
X145079541Y-100265388D01*
X145157564Y-100331791D01*
X145162942Y-100334797D01*
X145162944Y-100334798D01*
X145195511Y-100352999D01*
X145337398Y-100432297D01*
X145421280Y-100459552D01*
X145527471Y-100494056D01*
X145527475Y-100494057D01*
X145533329Y-100495959D01*
X145737894Y-100520351D01*
X145744029Y-100519879D01*
X145744031Y-100519879D01*
X145816625Y-100514293D01*
X145943300Y-100504546D01*
X145949230Y-100502890D01*
X145949232Y-100502890D01*
X146135797Y-100450800D01*
X146135796Y-100450800D01*
X146141725Y-100449145D01*
X146147214Y-100446372D01*
X146147220Y-100446370D01*
X146320116Y-100359033D01*
X146325610Y-100356258D01*
X146333463Y-100350123D01*
X146483101Y-100233213D01*
X146487951Y-100229424D01*
X146541293Y-100167627D01*
X146618540Y-100078134D01*
X146618540Y-100078133D01*
X146622564Y-100073472D01*
X146643387Y-100036818D01*
X146661056Y-100005714D01*
X146724323Y-99894344D01*
X146733271Y-99867444D01*
X146748496Y-99821678D01*
X146788978Y-99763354D01*
X146854566Y-99736175D01*
X146924437Y-99748770D01*
X146976406Y-99797141D01*
X146990971Y-99833751D01*
X146998564Y-99867444D01*
X147001645Y-99877275D01*
X147081770Y-100074603D01*
X147086413Y-100083794D01*
X147197694Y-100265388D01*
X147203777Y-100273699D01*
X147343213Y-100434667D01*
X147350580Y-100441883D01*
X147513397Y-100577056D01*
X147553032Y-100635959D01*
X147554530Y-100706939D01*
X147517415Y-100767462D01*
X147453471Y-100798311D01*
X147432912Y-100800000D01*
X135326000Y-100800000D01*
X135257879Y-100779998D01*
X135211386Y-100726342D01*
X135200000Y-100674000D01*
X135200000Y-99889669D01*
X135802001Y-99889669D01*
X135802371Y-99896490D01*
X135807895Y-99947352D01*
X135811521Y-99962604D01*
X135856676Y-100083054D01*
X135865214Y-100098649D01*
X135941715Y-100200724D01*
X135954276Y-100213285D01*
X136056351Y-100289786D01*
X136071946Y-100298324D01*
X136192394Y-100343478D01*
X136207649Y-100347105D01*
X136258514Y-100352631D01*
X136265328Y-100353000D01*
X136887885Y-100353000D01*
X136903124Y-100348525D01*
X136904329Y-100347135D01*
X136906000Y-100339452D01*
X136906000Y-100334884D01*
X137414000Y-100334884D01*
X137418475Y-100350123D01*
X137419865Y-100351328D01*
X137427548Y-100352999D01*
X138054669Y-100352999D01*
X138061490Y-100352629D01*
X138112352Y-100347105D01*
X138127604Y-100343479D01*
X138150894Y-100334748D01*
X139629500Y-100334748D01*
X139630707Y-100340816D01*
X139634331Y-100359033D01*
X139641133Y-100393231D01*
X139685448Y-100459552D01*
X139751769Y-100503867D01*
X139763938Y-100506288D01*
X139763939Y-100506288D01*
X139804184Y-100514293D01*
X139810252Y-100515500D01*
X141549748Y-100515500D01*
X141555816Y-100514293D01*
X141596061Y-100506288D01*
X141596062Y-100506288D01*
X141608231Y-100503867D01*
X141674552Y-100459552D01*
X141718867Y-100393231D01*
X141725670Y-100359033D01*
X141729293Y-100340816D01*
X141730500Y-100334748D01*
X141730500Y-98595252D01*
X141727241Y-98578869D01*
X141721288Y-98548939D01*
X141721288Y-98548938D01*
X141718867Y-98536769D01*
X141674552Y-98470448D01*
X141608231Y-98426133D01*
X141596062Y-98423712D01*
X141596061Y-98423712D01*
X141555816Y-98415707D01*
X141549748Y-98414500D01*
X139810252Y-98414500D01*
X139804184Y-98415707D01*
X139763939Y-98423712D01*
X139763938Y-98423712D01*
X139751769Y-98426133D01*
X139685448Y-98470448D01*
X139641133Y-98536769D01*
X139638712Y-98548938D01*
X139638712Y-98548939D01*
X139632759Y-98578869D01*
X139629500Y-98595252D01*
X139629500Y-100334748D01*
X138150894Y-100334748D01*
X138248054Y-100298324D01*
X138263649Y-100289786D01*
X138365724Y-100213285D01*
X138378285Y-100200724D01*
X138454786Y-100098649D01*
X138463324Y-100083054D01*
X138508478Y-99962606D01*
X138512105Y-99947351D01*
X138517631Y-99896486D01*
X138518000Y-99889672D01*
X138518000Y-99267115D01*
X138513525Y-99251876D01*
X138512135Y-99250671D01*
X138504452Y-99249000D01*
X137432115Y-99249000D01*
X137416876Y-99253475D01*
X137415671Y-99254865D01*
X137414000Y-99262548D01*
X137414000Y-100334884D01*
X136906000Y-100334884D01*
X136906000Y-99267115D01*
X136901525Y-99251876D01*
X136900135Y-99250671D01*
X136892452Y-99249000D01*
X135820116Y-99249000D01*
X135804877Y-99253475D01*
X135803672Y-99254865D01*
X135802001Y-99262548D01*
X135802001Y-99889669D01*
X135200000Y-99889669D01*
X135200000Y-98722885D01*
X135802000Y-98722885D01*
X135806475Y-98738124D01*
X135807865Y-98739329D01*
X135815548Y-98741000D01*
X138499884Y-98741000D01*
X138515123Y-98736525D01*
X138516328Y-98735135D01*
X138517999Y-98727452D01*
X138517999Y-98100331D01*
X138517629Y-98093510D01*
X138512105Y-98042648D01*
X138508479Y-98027396D01*
X138463324Y-97906946D01*
X138454786Y-97891351D01*
X138378285Y-97789276D01*
X138365724Y-97776715D01*
X138263649Y-97700214D01*
X138248054Y-97691676D01*
X138127606Y-97646522D01*
X138112351Y-97642895D01*
X138061486Y-97637369D01*
X138054672Y-97637000D01*
X137678932Y-97637000D01*
X137610811Y-97616998D01*
X137564318Y-97563342D01*
X137554214Y-97493068D01*
X137583708Y-97428488D01*
X137622121Y-97398534D01*
X137720116Y-97349033D01*
X137725610Y-97346258D01*
X137887951Y-97219424D01*
X137904735Y-97199980D01*
X138018540Y-97068134D01*
X138018540Y-97068133D01*
X138022564Y-97063472D01*
X138026782Y-97056048D01*
X138097445Y-96931658D01*
X138124323Y-96884344D01*
X138189351Y-96688863D01*
X138215171Y-96484474D01*
X138215583Y-96455000D01*
X138195480Y-96249970D01*
X138135935Y-96052749D01*
X138039218Y-95870849D01*
X137943786Y-95753838D01*
X137912906Y-95715975D01*
X137912903Y-95715972D01*
X137909011Y-95711200D01*
X137781034Y-95605328D01*
X137755025Y-95583811D01*
X137755021Y-95583809D01*
X137750275Y-95579882D01*
X137613091Y-95505707D01*
X137574474Y-95484827D01*
X137569055Y-95481897D01*
X137372254Y-95420977D01*
X137366129Y-95420333D01*
X137366128Y-95420333D01*
X137173498Y-95400087D01*
X137173496Y-95400087D01*
X137167369Y-95399443D01*
X137097845Y-95405770D01*
X136968342Y-95417555D01*
X136968339Y-95417556D01*
X136962203Y-95418114D01*
X136764572Y-95476280D01*
X136582002Y-95571726D01*
X136577201Y-95575586D01*
X136577198Y-95575588D01*
X136566971Y-95583811D01*
X136421447Y-95700815D01*
X136289024Y-95858630D01*
X136286056Y-95864028D01*
X136286053Y-95864033D01*
X136268943Y-95895157D01*
X136189776Y-96039162D01*
X136127484Y-96235532D01*
X136126798Y-96241649D01*
X136126797Y-96241653D01*
X136112650Y-96367780D01*
X136104520Y-96440262D01*
X136105036Y-96446406D01*
X136120737Y-96633379D01*
X136121759Y-96645553D01*
X136123458Y-96651478D01*
X136168894Y-96809931D01*
X136178544Y-96843586D01*
X136181359Y-96849063D01*
X136181360Y-96849066D01*
X136266224Y-97014194D01*
X136272712Y-97026818D01*
X136400677Y-97188270D01*
X136405370Y-97192264D01*
X136405371Y-97192265D01*
X136524843Y-97293943D01*
X136557564Y-97321791D01*
X136635067Y-97365106D01*
X136699315Y-97401013D01*
X136749020Y-97451707D01*
X136763428Y-97521226D01*
X136737964Y-97587499D01*
X136680713Y-97629484D01*
X136637844Y-97637001D01*
X136265331Y-97637001D01*
X136258510Y-97637371D01*
X136207648Y-97642895D01*
X136192396Y-97646521D01*
X136071946Y-97691676D01*
X136056351Y-97700214D01*
X135954276Y-97776715D01*
X135941715Y-97789276D01*
X135865214Y-97891351D01*
X135856676Y-97906946D01*
X135811522Y-98027394D01*
X135807895Y-98042649D01*
X135802369Y-98093514D01*
X135802000Y-98100328D01*
X135802000Y-98722885D01*
X135200000Y-98722885D01*
X135200000Y-94903392D01*
X135220002Y-94835271D01*
X135273658Y-94788778D01*
X135343932Y-94778674D01*
X135403231Y-94803836D01*
X135409372Y-94808600D01*
X135538276Y-94884834D01*
X135552713Y-94891082D01*
X135683605Y-94929109D01*
X135697705Y-94929069D01*
X135701000Y-94921799D01*
X135701000Y-93986115D01*
X135698604Y-93977955D01*
X135693500Y-93942457D01*
X135693500Y-92254985D01*
X135696379Y-92228202D01*
X135698500Y-92218452D01*
X135698500Y-91952000D01*
X135718502Y-91883879D01*
X135772158Y-91837386D01*
X135824500Y-91826000D01*
X136080500Y-91826000D01*
X136148621Y-91846002D01*
G37*
%TD.AperFunction*%
%TA.AperFunction,Conductor*%
G36*
X151036121Y-99231002D02*
G01*
X151082614Y-99284658D01*
X151094000Y-99337000D01*
X151094000Y-99593000D01*
X151073998Y-99661121D01*
X151020342Y-99707614D01*
X150968000Y-99719000D01*
X148172000Y-99719000D01*
X148103879Y-99698998D01*
X148057386Y-99645342D01*
X148046000Y-99593000D01*
X148046000Y-99337000D01*
X148066002Y-99268879D01*
X148119658Y-99222386D01*
X148172000Y-99211000D01*
X150968000Y-99211000D01*
X151036121Y-99231002D01*
G37*
%TD.AperFunction*%
%TA.AperFunction,Conductor*%
G36*
X152192113Y-96550048D02*
G01*
X152255869Y-96555754D01*
X152310560Y-96597439D01*
X152391715Y-96705724D01*
X152404276Y-96718285D01*
X152506351Y-96794786D01*
X152521946Y-96803324D01*
X152642394Y-96848478D01*
X152657649Y-96852105D01*
X152708514Y-96857631D01*
X152715328Y-96858000D01*
X152880439Y-96858000D01*
X152948560Y-96878002D01*
X152995053Y-96931658D01*
X153005157Y-97001932D01*
X152975663Y-97066512D01*
X152969534Y-97073095D01*
X152879554Y-97163075D01*
X152817242Y-97197101D01*
X152790459Y-97199980D01*
X152066599Y-97199980D01*
X151998478Y-97179978D01*
X151951985Y-97126322D01*
X151941881Y-97056048D01*
X151946565Y-97035669D01*
X151947797Y-97031810D01*
X151951710Y-97023733D01*
X151953951Y-97010416D01*
X151974689Y-96887149D01*
X151975496Y-96882354D01*
X151975647Y-96870000D01*
X151955323Y-96728082D01*
X151951606Y-96719907D01*
X151949254Y-96711863D01*
X151949334Y-96640866D01*
X151987784Y-96581183D01*
X152052398Y-96551762D01*
X152070190Y-96550500D01*
X152179748Y-96550500D01*
X152185816Y-96549293D01*
X152191979Y-96548686D01*
X152192113Y-96550048D01*
G37*
%TD.AperFunction*%
%TA.AperFunction,Conductor*%
G36*
X142098161Y-88448549D02*
G01*
X142148392Y-88498723D01*
X142163522Y-88568088D01*
X142162338Y-88578554D01*
X142149847Y-88658782D01*
X142144391Y-88693823D01*
X142145555Y-88702725D01*
X142145555Y-88702728D01*
X142151266Y-88746396D01*
X142162980Y-88835979D01*
X142166597Y-88844199D01*
X142212751Y-88949091D01*
X142220720Y-88967203D01*
X142226497Y-88974076D01*
X142226498Y-88974077D01*
X142270068Y-89025910D01*
X142312970Y-89076948D01*
X142432313Y-89156390D01*
X142440885Y-89159068D01*
X142440887Y-89159069D01*
X142481110Y-89171635D01*
X142559329Y-89196072D01*
X142610850Y-89227243D01*
X142722595Y-89338988D01*
X142756621Y-89401300D01*
X142759500Y-89428083D01*
X142759500Y-95231723D01*
X142739498Y-95299844D01*
X142685842Y-95346337D01*
X142608921Y-95355302D01*
X142585821Y-95350707D01*
X142585811Y-95350706D01*
X142579748Y-95349500D01*
X142286219Y-95349500D01*
X142218098Y-95329498D01*
X142171605Y-95275842D01*
X142165323Y-95258998D01*
X142163525Y-95252876D01*
X142162135Y-95251671D01*
X142154452Y-95250000D01*
X141482115Y-95250000D01*
X141466876Y-95254475D01*
X141465671Y-95255865D01*
X141464000Y-95263548D01*
X141464000Y-96128000D01*
X141443998Y-96196121D01*
X141390342Y-96242614D01*
X141338000Y-96254000D01*
X141082000Y-96254000D01*
X141013879Y-96233998D01*
X140967386Y-96180342D01*
X140956000Y-96128000D01*
X140956000Y-95268115D01*
X140951525Y-95252876D01*
X140950135Y-95251671D01*
X140942452Y-95250000D01*
X140370116Y-95250000D01*
X140354877Y-95254475D01*
X140353672Y-95255865D01*
X140352001Y-95263548D01*
X140352001Y-95294669D01*
X140352371Y-95301490D01*
X140357895Y-95352352D01*
X140361521Y-95367603D01*
X140375829Y-95405770D01*
X140381012Y-95476577D01*
X140375829Y-95494230D01*
X140361522Y-95532394D01*
X140357895Y-95547649D01*
X140352369Y-95598514D01*
X140352000Y-95605328D01*
X140352000Y-95770439D01*
X140331998Y-95838560D01*
X140278342Y-95885053D01*
X140208068Y-95895157D01*
X140143488Y-95865663D01*
X140136905Y-95859534D01*
X140093521Y-95816150D01*
X140059495Y-95753838D01*
X140056616Y-95727055D01*
X140056616Y-94797482D01*
X140076618Y-94729361D01*
X140130274Y-94682868D01*
X140200548Y-94672764D01*
X140220189Y-94677215D01*
X140229104Y-94680000D01*
X140263574Y-94690769D01*
X140322630Y-94730175D01*
X140351008Y-94795254D01*
X140352000Y-94811036D01*
X140352000Y-94831885D01*
X140356475Y-94847124D01*
X140357865Y-94848329D01*
X140365548Y-94850000D01*
X142149884Y-94850000D01*
X142165123Y-94845525D01*
X142166328Y-94844135D01*
X142167999Y-94836452D01*
X142167999Y-94805331D01*
X142167629Y-94798510D01*
X142162105Y-94747648D01*
X142158479Y-94732396D01*
X142113324Y-94611946D01*
X142104786Y-94596351D01*
X142028285Y-94494276D01*
X142015724Y-94481715D01*
X141910935Y-94403180D01*
X141868420Y-94346321D01*
X141860500Y-94302354D01*
X141860500Y-94030252D01*
X141854312Y-93999142D01*
X141851288Y-93983939D01*
X141851288Y-93983938D01*
X141848867Y-93971769D01*
X141841973Y-93961452D01*
X141841972Y-93961449D01*
X141814278Y-93920003D01*
X141793062Y-93852251D01*
X141814278Y-93779997D01*
X141841972Y-93738551D01*
X141841973Y-93738548D01*
X141848867Y-93728231D01*
X141860500Y-93669748D01*
X141860500Y-93230252D01*
X141859234Y-93223885D01*
X141851288Y-93183939D01*
X141851288Y-93183938D01*
X141848867Y-93171769D01*
X141841973Y-93161452D01*
X141841972Y-93161449D01*
X141814278Y-93120003D01*
X141793062Y-93052251D01*
X141814278Y-92979997D01*
X141841972Y-92938551D01*
X141841973Y-92938548D01*
X141848867Y-92928231D01*
X141860500Y-92869748D01*
X141860500Y-92430252D01*
X141848867Y-92371769D01*
X141841973Y-92361452D01*
X141841972Y-92361449D01*
X141814278Y-92320003D01*
X141793062Y-92252251D01*
X141814278Y-92179997D01*
X141841972Y-92138551D01*
X141841973Y-92138548D01*
X141848867Y-92128231D01*
X141852098Y-92111991D01*
X141859293Y-92075816D01*
X141860500Y-92069748D01*
X141860500Y-91630252D01*
X141856025Y-91607753D01*
X141851288Y-91583939D01*
X141851288Y-91583938D01*
X141848867Y-91571769D01*
X141841973Y-91561452D01*
X141841972Y-91561449D01*
X141814278Y-91520003D01*
X141793062Y-91452251D01*
X141814278Y-91379997D01*
X141841972Y-91338551D01*
X141841973Y-91338548D01*
X141848867Y-91328231D01*
X141853355Y-91305671D01*
X141859293Y-91275816D01*
X141860500Y-91269748D01*
X141860500Y-90830252D01*
X141853375Y-90794432D01*
X141851288Y-90783939D01*
X141851288Y-90783938D01*
X141848867Y-90771769D01*
X141841973Y-90761452D01*
X141841972Y-90761449D01*
X141814278Y-90720003D01*
X141793062Y-90652251D01*
X141814278Y-90579997D01*
X141841972Y-90538551D01*
X141841973Y-90538548D01*
X141848867Y-90528231D01*
X141860500Y-90469748D01*
X141860500Y-90030252D01*
X141856669Y-90010993D01*
X141851288Y-89983939D01*
X141851288Y-89983938D01*
X141848867Y-89971769D01*
X141841973Y-89961452D01*
X141841972Y-89961449D01*
X141814278Y-89920003D01*
X141793062Y-89852251D01*
X141814278Y-89779997D01*
X141841972Y-89738551D01*
X141841973Y-89738548D01*
X141848867Y-89728231D01*
X141860500Y-89669748D01*
X141860500Y-89230252D01*
X141857369Y-89214509D01*
X141851288Y-89183939D01*
X141851288Y-89183938D01*
X141848867Y-89171769D01*
X141841973Y-89161452D01*
X141841972Y-89161449D01*
X141814278Y-89120003D01*
X141793062Y-89052251D01*
X141814278Y-88979997D01*
X141841972Y-88938551D01*
X141841973Y-88938548D01*
X141848867Y-88928231D01*
X141860500Y-88869748D01*
X141860500Y-88597646D01*
X141880502Y-88529525D01*
X141910935Y-88496820D01*
X141962273Y-88458344D01*
X142028779Y-88433496D01*
X142098161Y-88448549D01*
G37*
%TD.AperFunction*%
%TA.AperFunction,Conductor*%
G36*
X139242121Y-80110002D02*
G01*
X139288614Y-80163658D01*
X139300000Y-80216000D01*
X139300000Y-81216584D01*
X139279998Y-81284705D01*
X139226342Y-81331198D01*
X139156068Y-81341302D01*
X139086870Y-81307602D01*
X139069175Y-81290662D01*
X139059804Y-81283262D01*
X138892259Y-81175079D01*
X138881655Y-81169583D01*
X138696688Y-81095039D01*
X138685230Y-81091645D01*
X138488072Y-81053143D01*
X138479209Y-81052066D01*
X138476500Y-81052000D01*
X138372115Y-81052000D01*
X138356876Y-81056475D01*
X138355671Y-81057865D01*
X138354000Y-81065548D01*
X138354000Y-82288000D01*
X138333998Y-82356121D01*
X138280342Y-82402614D01*
X138228000Y-82414000D01*
X136764598Y-82414000D01*
X136751067Y-82417973D01*
X136749712Y-82427399D01*
X136771194Y-82516537D01*
X136775083Y-82527832D01*
X136857629Y-82709382D01*
X136863576Y-82719724D01*
X136978968Y-82882397D01*
X136986761Y-82891425D01*
X137130831Y-83029342D01*
X137140196Y-83036738D01*
X137307741Y-83144921D01*
X137318341Y-83150415D01*
X137322628Y-83152143D01*
X137378333Y-83196160D01*
X137401397Y-83263306D01*
X137384498Y-83332262D01*
X137333001Y-83381136D01*
X137317278Y-83387889D01*
X137261816Y-83407366D01*
X137254246Y-83412958D01*
X137254243Y-83412959D01*
X137169794Y-83475335D01*
X137152850Y-83487850D01*
X137147258Y-83495421D01*
X137077959Y-83589243D01*
X137077958Y-83589246D01*
X137072366Y-83596816D01*
X137027481Y-83724631D01*
X137024500Y-83756166D01*
X137024500Y-84563834D01*
X137027481Y-84595369D01*
X137072366Y-84723184D01*
X137077958Y-84730754D01*
X137077959Y-84730757D01*
X137140335Y-84815206D01*
X137152850Y-84832150D01*
X137160421Y-84837742D01*
X137254243Y-84907041D01*
X137254246Y-84907042D01*
X137261816Y-84912634D01*
X137389631Y-84957519D01*
X137397277Y-84958242D01*
X137397278Y-84958242D01*
X137403248Y-84958806D01*
X137421166Y-84960500D01*
X138778834Y-84960500D01*
X138796752Y-84958806D01*
X138802722Y-84958242D01*
X138802723Y-84958242D01*
X138810369Y-84957519D01*
X138938184Y-84912634D01*
X138945754Y-84907042D01*
X138945757Y-84907041D01*
X139039579Y-84837742D01*
X139047150Y-84832150D01*
X139052742Y-84824579D01*
X139052745Y-84824576D01*
X139072649Y-84797628D01*
X139129210Y-84754717D01*
X139199991Y-84749197D01*
X139262521Y-84782821D01*
X139296946Y-84844913D01*
X139300000Y-84872487D01*
X139300000Y-85370000D01*
X140278091Y-85370000D01*
X140346212Y-85390002D01*
X140392705Y-85443658D01*
X140402809Y-85513932D01*
X140396073Y-85540230D01*
X140361522Y-85632394D01*
X140357895Y-85647649D01*
X140352369Y-85698514D01*
X140352000Y-85705328D01*
X140352000Y-85827885D01*
X140356475Y-85843124D01*
X140357865Y-85844329D01*
X140365548Y-85846000D01*
X141988460Y-85846000D01*
X142056581Y-85866002D01*
X142103074Y-85919658D01*
X142109356Y-85936503D01*
X142112474Y-85947124D01*
X142113865Y-85948329D01*
X142121548Y-85950000D01*
X152193885Y-85950000D01*
X152209124Y-85945525D01*
X152211292Y-85943024D01*
X152244117Y-85882906D01*
X152306429Y-85848880D01*
X152333214Y-85846000D01*
X153949884Y-85846000D01*
X153965123Y-85841525D01*
X153966328Y-85840135D01*
X153967999Y-85832452D01*
X153967999Y-85705331D01*
X153967629Y-85698510D01*
X153962105Y-85647648D01*
X153958479Y-85632397D01*
X153923927Y-85540230D01*
X153918744Y-85469423D01*
X153952665Y-85407054D01*
X154014920Y-85372924D01*
X154041909Y-85370000D01*
X154674000Y-85370000D01*
X154742121Y-85390002D01*
X154788614Y-85443658D01*
X154800000Y-85496000D01*
X154800000Y-90289417D01*
X154779998Y-90357538D01*
X154726342Y-90404031D01*
X154656068Y-90414135D01*
X154591488Y-90384641D01*
X154584904Y-90378512D01*
X154429356Y-90222963D01*
X154150909Y-89944516D01*
X154150895Y-89944503D01*
X154128342Y-89921950D01*
X154108746Y-89911965D01*
X154091893Y-89901639D01*
X154074090Y-89888704D01*
X154053166Y-89881905D01*
X154034906Y-89874341D01*
X154024141Y-89868856D01*
X154024137Y-89868855D01*
X154015304Y-89864354D01*
X154005513Y-89862803D01*
X154005512Y-89862803D01*
X153993578Y-89860913D01*
X153974353Y-89856297D01*
X153962868Y-89852565D01*
X153962864Y-89852564D01*
X153953433Y-89849500D01*
X153778277Y-89849500D01*
X153710156Y-89829498D01*
X153663663Y-89775842D01*
X153654698Y-89698921D01*
X153659293Y-89675821D01*
X153659294Y-89675811D01*
X153660500Y-89669748D01*
X153660500Y-89230252D01*
X153657369Y-89214509D01*
X153651288Y-89183939D01*
X153651288Y-89183938D01*
X153648867Y-89171769D01*
X153641973Y-89161452D01*
X153641972Y-89161449D01*
X153614278Y-89120003D01*
X153593062Y-89052251D01*
X153614278Y-88979997D01*
X153641972Y-88938551D01*
X153641973Y-88938548D01*
X153648867Y-88928231D01*
X153660500Y-88869748D01*
X153660500Y-88430252D01*
X153648867Y-88371769D01*
X153641973Y-88361452D01*
X153641972Y-88361449D01*
X153614278Y-88320003D01*
X153593062Y-88252251D01*
X153614278Y-88179997D01*
X153641972Y-88138551D01*
X153641973Y-88138548D01*
X153648867Y-88128231D01*
X153651532Y-88114836D01*
X153659293Y-88075816D01*
X153660500Y-88069748D01*
X153660500Y-87630252D01*
X153654186Y-87598510D01*
X153651288Y-87583939D01*
X153651288Y-87583938D01*
X153648867Y-87571769D01*
X153641973Y-87561452D01*
X153641972Y-87561449D01*
X153614278Y-87520003D01*
X153593062Y-87452251D01*
X153614278Y-87379997D01*
X153641972Y-87338551D01*
X153641973Y-87338548D01*
X153648867Y-87328231D01*
X153660500Y-87269748D01*
X153660500Y-86997646D01*
X153680502Y-86929525D01*
X153710935Y-86896820D01*
X153815724Y-86818285D01*
X153828285Y-86805724D01*
X153904786Y-86703649D01*
X153913324Y-86688054D01*
X153958478Y-86567606D01*
X153962105Y-86552351D01*
X153967631Y-86501486D01*
X153968000Y-86494672D01*
X153968000Y-86372115D01*
X153963525Y-86356876D01*
X153962135Y-86355671D01*
X153954452Y-86354000D01*
X152230388Y-86354000D01*
X152203605Y-86351121D01*
X152198452Y-86350000D01*
X152178115Y-86350000D01*
X152162876Y-86354475D01*
X152161671Y-86355865D01*
X152160000Y-86363548D01*
X152160000Y-87039884D01*
X152164475Y-87055123D01*
X152165865Y-87056328D01*
X152173548Y-87057999D01*
X152204669Y-87057999D01*
X152211490Y-87057629D01*
X152262352Y-87052105D01*
X152277606Y-87048479D01*
X152289273Y-87044105D01*
X152360080Y-87038923D01*
X152422448Y-87072846D01*
X152456576Y-87135102D01*
X152459500Y-87162088D01*
X152459500Y-87269748D01*
X152471133Y-87328231D01*
X152478027Y-87338548D01*
X152478028Y-87338551D01*
X152505722Y-87379997D01*
X152526938Y-87447749D01*
X152505722Y-87520003D01*
X152478028Y-87561449D01*
X152478027Y-87561452D01*
X152471133Y-87571769D01*
X152468712Y-87583938D01*
X152468712Y-87583939D01*
X152465814Y-87598510D01*
X152459500Y-87630252D01*
X152459500Y-88069748D01*
X152460707Y-88075816D01*
X152468469Y-88114836D01*
X152471133Y-88128231D01*
X152478027Y-88138548D01*
X152478028Y-88138551D01*
X152505722Y-88179997D01*
X152526938Y-88247749D01*
X152505722Y-88320003D01*
X152478028Y-88361449D01*
X152478027Y-88361452D01*
X152471133Y-88371769D01*
X152459500Y-88430252D01*
X152459500Y-88869748D01*
X152471133Y-88928231D01*
X152478027Y-88938548D01*
X152478028Y-88938551D01*
X152505722Y-88979997D01*
X152526938Y-89047749D01*
X152505722Y-89120003D01*
X152478028Y-89161449D01*
X152478027Y-89161452D01*
X152471133Y-89171769D01*
X152468712Y-89183938D01*
X152468712Y-89183939D01*
X152462631Y-89214509D01*
X152459500Y-89230252D01*
X152459500Y-89669748D01*
X152471133Y-89728231D01*
X152478027Y-89738548D01*
X152478028Y-89738551D01*
X152505722Y-89779997D01*
X152526938Y-89847749D01*
X152505722Y-89920003D01*
X152478028Y-89961449D01*
X152478027Y-89961452D01*
X152471133Y-89971769D01*
X152468712Y-89983938D01*
X152468712Y-89983939D01*
X152463331Y-90010993D01*
X152459500Y-90030252D01*
X152459500Y-90469748D01*
X152471133Y-90528231D01*
X152478027Y-90538548D01*
X152478028Y-90538551D01*
X152505722Y-90579997D01*
X152526938Y-90647749D01*
X152505722Y-90720003D01*
X152478028Y-90761449D01*
X152478027Y-90761452D01*
X152471133Y-90771769D01*
X152468712Y-90783938D01*
X152468712Y-90783939D01*
X152466625Y-90794432D01*
X152459500Y-90830252D01*
X152459500Y-91269748D01*
X152460707Y-91275816D01*
X152466646Y-91305671D01*
X152471133Y-91328231D01*
X152478027Y-91338548D01*
X152478028Y-91338551D01*
X152505722Y-91379997D01*
X152526938Y-91447749D01*
X152505722Y-91520003D01*
X152478028Y-91561449D01*
X152478027Y-91561452D01*
X152471133Y-91571769D01*
X152468712Y-91583938D01*
X152468712Y-91583939D01*
X152463975Y-91607753D01*
X152459500Y-91630252D01*
X152459500Y-92069748D01*
X152460707Y-92075816D01*
X152467903Y-92111991D01*
X152471133Y-92128231D01*
X152478027Y-92138548D01*
X152478028Y-92138551D01*
X152505722Y-92179997D01*
X152526938Y-92247749D01*
X152505722Y-92320003D01*
X152478028Y-92361449D01*
X152478027Y-92361452D01*
X152471133Y-92371769D01*
X152459500Y-92430252D01*
X152459500Y-92869748D01*
X152471133Y-92928231D01*
X152478027Y-92938548D01*
X152478028Y-92938551D01*
X152505722Y-92979997D01*
X152526938Y-93047749D01*
X152505722Y-93120003D01*
X152478028Y-93161449D01*
X152478027Y-93161452D01*
X152471133Y-93171769D01*
X152468712Y-93183938D01*
X152468712Y-93183939D01*
X152460766Y-93223885D01*
X152459500Y-93230252D01*
X152459500Y-93669748D01*
X152460706Y-93675811D01*
X152460707Y-93675821D01*
X152465302Y-93698921D01*
X152458973Y-93769634D01*
X152415418Y-93825701D01*
X152341723Y-93849500D01*
X151818083Y-93849500D01*
X151749962Y-93829498D01*
X151728988Y-93812595D01*
X151625175Y-93708782D01*
X151591149Y-93646470D01*
X151589547Y-93637579D01*
X151585323Y-93608082D01*
X151525984Y-93477572D01*
X151500379Y-93447856D01*
X151438260Y-93375763D01*
X151438257Y-93375760D01*
X151432400Y-93368963D01*
X151312095Y-93290985D01*
X151174739Y-93249907D01*
X151165763Y-93249852D01*
X151165762Y-93249852D01*
X151105555Y-93249484D01*
X151031376Y-93249031D01*
X150893529Y-93288428D01*
X150772280Y-93364930D01*
X150677377Y-93472388D01*
X150616447Y-93602163D01*
X150615066Y-93611036D01*
X150614495Y-93612902D01*
X150575451Y-93672198D01*
X150510547Y-93700973D01*
X150440389Y-93690090D01*
X150387253Y-93643004D01*
X150368000Y-93576064D01*
X150368000Y-93297115D01*
X150363525Y-93281876D01*
X150362135Y-93280671D01*
X150354452Y-93279000D01*
X149407115Y-93279000D01*
X149391876Y-93283475D01*
X149390671Y-93284865D01*
X149389000Y-93292548D01*
X149389000Y-94239884D01*
X149393475Y-94255123D01*
X149394865Y-94256328D01*
X149402548Y-94257999D01*
X149904669Y-94257999D01*
X149911490Y-94257629D01*
X149962352Y-94252105D01*
X149977604Y-94248479D01*
X150098054Y-94203324D01*
X150113649Y-94194786D01*
X150215724Y-94118285D01*
X150228285Y-94105724D01*
X150304786Y-94003649D01*
X150313324Y-93988054D01*
X150358480Y-93867600D01*
X150362515Y-93850632D01*
X150397732Y-93788986D01*
X150460687Y-93756166D01*
X150531392Y-93762592D01*
X150587399Y-93806224D01*
X150610033Y-93863442D01*
X150612980Y-93885979D01*
X150616597Y-93894199D01*
X150662846Y-93999307D01*
X150670720Y-94017203D01*
X150762970Y-94126948D01*
X150770447Y-94131925D01*
X150841213Y-94179031D01*
X150882313Y-94206390D01*
X150890885Y-94209068D01*
X150890887Y-94209069D01*
X150957456Y-94229866D01*
X151009329Y-94246072D01*
X151060850Y-94277243D01*
X151339091Y-94555484D01*
X151339095Y-94555487D01*
X151361658Y-94578050D01*
X151370497Y-94582554D01*
X151370499Y-94582555D01*
X151381258Y-94588037D01*
X151398114Y-94598365D01*
X151415911Y-94611296D01*
X151436832Y-94618094D01*
X151455092Y-94625658D01*
X151465859Y-94631144D01*
X151465863Y-94631145D01*
X151474696Y-94635646D01*
X151484487Y-94637197D01*
X151484488Y-94637197D01*
X151496422Y-94639087D01*
X151515647Y-94643703D01*
X151527132Y-94647435D01*
X151527136Y-94647436D01*
X151536567Y-94650500D01*
X152341723Y-94650500D01*
X152409844Y-94670502D01*
X152456337Y-94724158D01*
X152465302Y-94801079D01*
X152460707Y-94824179D01*
X152460706Y-94824189D01*
X152459500Y-94830252D01*
X152459500Y-95177300D01*
X152439498Y-95245421D01*
X152409064Y-95278127D01*
X152404275Y-95281716D01*
X152391715Y-95294276D01*
X152374287Y-95317530D01*
X152317428Y-95360045D01*
X152246609Y-95365071D01*
X152241929Y-95363604D01*
X152238231Y-95361133D01*
X152226780Y-95358855D01*
X152226776Y-95358854D01*
X152185816Y-95350707D01*
X152179748Y-95349500D01*
X151740252Y-95349500D01*
X151734184Y-95350707D01*
X151693939Y-95358712D01*
X151693938Y-95358712D01*
X151681769Y-95361133D01*
X151671452Y-95368027D01*
X151671449Y-95368028D01*
X151630003Y-95395722D01*
X151562251Y-95416938D01*
X151489997Y-95395722D01*
X151448551Y-95368028D01*
X151448548Y-95368027D01*
X151438231Y-95361133D01*
X151426062Y-95358712D01*
X151426061Y-95358712D01*
X151385816Y-95350707D01*
X151379748Y-95349500D01*
X150940252Y-95349500D01*
X150934184Y-95350707D01*
X150893939Y-95358712D01*
X150893938Y-95358712D01*
X150881769Y-95361133D01*
X150871452Y-95368027D01*
X150871449Y-95368028D01*
X150830003Y-95395722D01*
X150762251Y-95416938D01*
X150689997Y-95395722D01*
X150648551Y-95368028D01*
X150648548Y-95368027D01*
X150638231Y-95361133D01*
X150626062Y-95358712D01*
X150626061Y-95358712D01*
X150585816Y-95350707D01*
X150579748Y-95349500D01*
X150140252Y-95349500D01*
X150134184Y-95350707D01*
X150093939Y-95358712D01*
X150093938Y-95358712D01*
X150081769Y-95361133D01*
X150071452Y-95368027D01*
X150071449Y-95368028D01*
X150030003Y-95395722D01*
X149962251Y-95416938D01*
X149889997Y-95395722D01*
X149848551Y-95368028D01*
X149848548Y-95368027D01*
X149838231Y-95361133D01*
X149826062Y-95358712D01*
X149826061Y-95358712D01*
X149785816Y-95350707D01*
X149779748Y-95349500D01*
X149340252Y-95349500D01*
X149334184Y-95350707D01*
X149293939Y-95358712D01*
X149293938Y-95358712D01*
X149281769Y-95361133D01*
X149271452Y-95368027D01*
X149271449Y-95368028D01*
X149230003Y-95395722D01*
X149162251Y-95416938D01*
X149089997Y-95395722D01*
X149048551Y-95368028D01*
X149048548Y-95368027D01*
X149038231Y-95361133D01*
X149026062Y-95358712D01*
X149026061Y-95358712D01*
X148985816Y-95350707D01*
X148979748Y-95349500D01*
X148540252Y-95349500D01*
X148534189Y-95350706D01*
X148534179Y-95350707D01*
X148511079Y-95355302D01*
X148440366Y-95348973D01*
X148384299Y-95305418D01*
X148360500Y-95231723D01*
X148360500Y-94927066D01*
X148373106Y-94872132D01*
X148391710Y-94833733D01*
X148415496Y-94692354D01*
X148415647Y-94680000D01*
X148401692Y-94582555D01*
X148396596Y-94546968D01*
X148396595Y-94546965D01*
X148395323Y-94538082D01*
X148377190Y-94498199D01*
X148348978Y-94436151D01*
X148338992Y-94365860D01*
X148368592Y-94301329D01*
X148428382Y-94263045D01*
X148463679Y-94258000D01*
X148862885Y-94258000D01*
X148878124Y-94253525D01*
X148879329Y-94252135D01*
X148881000Y-94244452D01*
X148881000Y-93297115D01*
X148876525Y-93281876D01*
X148875135Y-93280671D01*
X148867452Y-93279000D01*
X147432115Y-93279000D01*
X147416876Y-93283475D01*
X147415671Y-93284865D01*
X147414000Y-93292548D01*
X147414000Y-94239884D01*
X147418475Y-94255123D01*
X147444170Y-94277388D01*
X147442766Y-94279008D01*
X147451212Y-94283620D01*
X147485235Y-94345934D01*
X147480167Y-94416750D01*
X147476168Y-94426261D01*
X147471525Y-94436151D01*
X147426447Y-94532163D01*
X147418601Y-94582555D01*
X147406367Y-94661133D01*
X147404391Y-94673823D01*
X147405555Y-94682725D01*
X147405555Y-94682728D01*
X147407441Y-94697149D01*
X147422980Y-94815979D01*
X147480720Y-94947203D01*
X147486496Y-94954074D01*
X147529951Y-95005770D01*
X147558472Y-95070786D01*
X147559500Y-95086846D01*
X147559500Y-95231723D01*
X147539498Y-95299844D01*
X147485842Y-95346337D01*
X147408921Y-95355302D01*
X147385821Y-95350707D01*
X147385811Y-95350706D01*
X147379748Y-95349500D01*
X146940252Y-95349500D01*
X146934184Y-95350707D01*
X146893939Y-95358712D01*
X146893938Y-95358712D01*
X146881769Y-95361133D01*
X146871452Y-95368027D01*
X146871449Y-95368028D01*
X146830003Y-95395722D01*
X146762251Y-95416938D01*
X146689997Y-95395722D01*
X146648551Y-95368028D01*
X146648548Y-95368027D01*
X146638231Y-95361133D01*
X146626062Y-95358712D01*
X146626061Y-95358712D01*
X146585816Y-95350707D01*
X146579748Y-95349500D01*
X146140252Y-95349500D01*
X146134184Y-95350707D01*
X146093939Y-95358712D01*
X146093938Y-95358712D01*
X146081769Y-95361133D01*
X146071452Y-95368027D01*
X146071449Y-95368028D01*
X146030003Y-95395722D01*
X145962251Y-95416938D01*
X145889997Y-95395722D01*
X145848551Y-95368028D01*
X145848548Y-95368027D01*
X145838231Y-95361133D01*
X145826062Y-95358712D01*
X145826061Y-95358712D01*
X145785816Y-95350707D01*
X145779748Y-95349500D01*
X145340252Y-95349500D01*
X145334184Y-95350707D01*
X145293939Y-95358712D01*
X145293938Y-95358712D01*
X145281769Y-95361133D01*
X145271452Y-95368027D01*
X145271449Y-95368028D01*
X145230003Y-95395722D01*
X145162251Y-95416938D01*
X145089997Y-95395722D01*
X145048551Y-95368028D01*
X145048548Y-95368027D01*
X145038231Y-95361133D01*
X145026062Y-95358712D01*
X145026061Y-95358712D01*
X144985816Y-95350707D01*
X144979748Y-95349500D01*
X144707646Y-95349500D01*
X144639525Y-95329498D01*
X144606820Y-95299065D01*
X144528285Y-95194276D01*
X144515724Y-95181715D01*
X144413649Y-95105214D01*
X144398054Y-95096676D01*
X144277606Y-95051522D01*
X144262351Y-95047895D01*
X144211486Y-95042369D01*
X144204672Y-95042000D01*
X144178115Y-95042000D01*
X144162876Y-95046475D01*
X144161671Y-95047865D01*
X144160000Y-95055548D01*
X144160000Y-96024000D01*
X144139998Y-96092121D01*
X144086342Y-96138614D01*
X144034000Y-96150000D01*
X143886000Y-96150000D01*
X143817879Y-96129998D01*
X143771386Y-96076342D01*
X143760000Y-96024000D01*
X143760000Y-95060116D01*
X143755525Y-95044877D01*
X143754135Y-95043672D01*
X143746452Y-95042001D01*
X143715331Y-95042001D01*
X143708518Y-95042370D01*
X143700101Y-95043284D01*
X143630219Y-95030752D01*
X143578206Y-94982428D01*
X143560500Y-94918020D01*
X143560500Y-94089703D01*
X143580502Y-94021582D01*
X143634158Y-93975089D01*
X143704432Y-93964985D01*
X143724066Y-93969434D01*
X143819157Y-93999142D01*
X143828129Y-93999306D01*
X143828132Y-93999307D01*
X143952942Y-94001595D01*
X144020684Y-94022843D01*
X144051458Y-94052009D01*
X144091715Y-94105724D01*
X144104276Y-94118285D01*
X144206351Y-94194786D01*
X144221946Y-94203324D01*
X144342394Y-94248478D01*
X144357649Y-94252105D01*
X144408514Y-94257631D01*
X144415328Y-94258000D01*
X144912885Y-94258000D01*
X144928124Y-94253525D01*
X144929329Y-94252135D01*
X144931000Y-94244452D01*
X144931000Y-94239884D01*
X145439000Y-94239884D01*
X145443475Y-94255123D01*
X145444865Y-94256328D01*
X145452548Y-94257999D01*
X145954669Y-94257999D01*
X145961490Y-94257629D01*
X146012352Y-94252105D01*
X146027606Y-94248478D01*
X146128271Y-94210741D01*
X146199078Y-94205558D01*
X146216729Y-94210741D01*
X146317391Y-94248478D01*
X146332649Y-94252105D01*
X146383514Y-94257631D01*
X146390328Y-94258000D01*
X146887885Y-94258000D01*
X146903124Y-94253525D01*
X146904329Y-94252135D01*
X146906000Y-94244452D01*
X146906000Y-93297115D01*
X146901525Y-93281876D01*
X146900135Y-93280671D01*
X146892452Y-93279000D01*
X145457115Y-93279000D01*
X145441876Y-93283475D01*
X145440671Y-93284865D01*
X145439000Y-93292548D01*
X145439000Y-94239884D01*
X144931000Y-94239884D01*
X144931000Y-92752885D01*
X145439000Y-92752885D01*
X145443475Y-92768124D01*
X145444865Y-92769329D01*
X145452548Y-92771000D01*
X146887885Y-92771000D01*
X146903124Y-92766525D01*
X146904329Y-92765135D01*
X146906000Y-92757452D01*
X146906000Y-92752885D01*
X147414000Y-92752885D01*
X147418475Y-92768124D01*
X147419865Y-92769329D01*
X147427548Y-92771000D01*
X148862885Y-92771000D01*
X148878124Y-92766525D01*
X148879329Y-92765135D01*
X148881000Y-92757452D01*
X148881000Y-92752885D01*
X149389000Y-92752885D01*
X149393475Y-92768124D01*
X149394865Y-92769329D01*
X149402548Y-92771000D01*
X150349884Y-92771000D01*
X150365123Y-92766525D01*
X150366328Y-92765135D01*
X150367999Y-92757452D01*
X150367999Y-92255331D01*
X150367629Y-92248510D01*
X150362105Y-92197648D01*
X150358478Y-92182394D01*
X150320741Y-92081729D01*
X150315558Y-92010922D01*
X150320741Y-91993271D01*
X150358478Y-91892609D01*
X150362105Y-91877351D01*
X150367631Y-91826486D01*
X150368000Y-91819672D01*
X150368000Y-91322115D01*
X150363525Y-91306876D01*
X150362135Y-91305671D01*
X150354452Y-91304000D01*
X149407115Y-91304000D01*
X149391876Y-91308475D01*
X149390671Y-91309865D01*
X149389000Y-91317548D01*
X149389000Y-92752885D01*
X148881000Y-92752885D01*
X148881000Y-91322115D01*
X148876525Y-91306876D01*
X148875135Y-91305671D01*
X148867452Y-91304000D01*
X147432115Y-91304000D01*
X147416876Y-91308475D01*
X147415671Y-91309865D01*
X147414000Y-91317548D01*
X147414000Y-92752885D01*
X146906000Y-92752885D01*
X146906000Y-91322115D01*
X146901525Y-91306876D01*
X146900135Y-91305671D01*
X146892452Y-91304000D01*
X145457115Y-91304000D01*
X145441876Y-91308475D01*
X145440671Y-91309865D01*
X145439000Y-91317548D01*
X145439000Y-92752885D01*
X144931000Y-92752885D01*
X144931000Y-91322115D01*
X144926525Y-91306876D01*
X144925135Y-91305671D01*
X144917452Y-91304000D01*
X143970116Y-91304000D01*
X143954877Y-91308475D01*
X143953672Y-91309865D01*
X143952001Y-91317548D01*
X143952001Y-91475245D01*
X143931999Y-91543366D01*
X143878343Y-91589859D01*
X143846606Y-91599063D01*
X143841376Y-91599031D01*
X143765810Y-91620628D01*
X143722917Y-91632887D01*
X143721125Y-91633399D01*
X143650130Y-91632887D01*
X143590682Y-91594073D01*
X143561656Y-91529281D01*
X143560500Y-91512250D01*
X143560500Y-90777885D01*
X143952000Y-90777885D01*
X143956475Y-90793124D01*
X143957865Y-90794329D01*
X143965548Y-90796000D01*
X144912885Y-90796000D01*
X144928124Y-90791525D01*
X144929329Y-90790135D01*
X144931000Y-90782452D01*
X144931000Y-90777885D01*
X145439000Y-90777885D01*
X145443475Y-90793124D01*
X145444865Y-90794329D01*
X145452548Y-90796000D01*
X146887885Y-90796000D01*
X146903124Y-90791525D01*
X146904329Y-90790135D01*
X146906000Y-90782452D01*
X146906000Y-90777885D01*
X147414000Y-90777885D01*
X147418475Y-90793124D01*
X147419865Y-90794329D01*
X147427548Y-90796000D01*
X148862885Y-90796000D01*
X148878124Y-90791525D01*
X148879329Y-90790135D01*
X148881000Y-90782452D01*
X148881000Y-90777885D01*
X149389000Y-90777885D01*
X149393475Y-90793124D01*
X149394865Y-90794329D01*
X149402548Y-90796000D01*
X150349884Y-90796000D01*
X150365123Y-90791525D01*
X150366328Y-90790135D01*
X150367999Y-90782452D01*
X150367999Y-90280331D01*
X150367629Y-90273510D01*
X150362105Y-90222648D01*
X150358478Y-90207394D01*
X150320741Y-90106729D01*
X150315558Y-90035922D01*
X150320741Y-90018271D01*
X150358478Y-89917609D01*
X150362105Y-89902351D01*
X150367631Y-89851486D01*
X150368000Y-89844672D01*
X150368000Y-89347115D01*
X150363525Y-89331876D01*
X150362135Y-89330671D01*
X150354452Y-89329000D01*
X149407115Y-89329000D01*
X149391876Y-89333475D01*
X149390671Y-89334865D01*
X149389000Y-89342548D01*
X149389000Y-90777885D01*
X148881000Y-90777885D01*
X148881000Y-89347115D01*
X148876525Y-89331876D01*
X148875135Y-89330671D01*
X148867452Y-89329000D01*
X147432115Y-89329000D01*
X147416876Y-89333475D01*
X147415671Y-89334865D01*
X147414000Y-89342548D01*
X147414000Y-90777885D01*
X146906000Y-90777885D01*
X146906000Y-89347115D01*
X146901525Y-89331876D01*
X146900135Y-89330671D01*
X146892452Y-89329000D01*
X145457115Y-89329000D01*
X145441876Y-89333475D01*
X145440671Y-89334865D01*
X145439000Y-89342548D01*
X145439000Y-90777885D01*
X144931000Y-90777885D01*
X144931000Y-89347115D01*
X144926525Y-89331876D01*
X144925135Y-89330671D01*
X144917452Y-89329000D01*
X143970116Y-89329000D01*
X143954877Y-89333475D01*
X143953672Y-89334865D01*
X143952001Y-89342548D01*
X143952001Y-89844669D01*
X143952371Y-89851490D01*
X143957895Y-89902352D01*
X143961522Y-89917606D01*
X143999259Y-90018271D01*
X144004442Y-90089078D01*
X143999259Y-90106729D01*
X143961522Y-90207391D01*
X143957895Y-90222649D01*
X143952369Y-90273514D01*
X143952000Y-90280328D01*
X143952000Y-90777885D01*
X143560500Y-90777885D01*
X143560500Y-89146567D01*
X143557436Y-89137136D01*
X143557435Y-89137132D01*
X143553703Y-89125647D01*
X143549087Y-89106422D01*
X143547197Y-89094488D01*
X143547197Y-89094487D01*
X143545646Y-89084696D01*
X143541145Y-89075863D01*
X143541144Y-89075859D01*
X143535659Y-89065094D01*
X143528093Y-89046830D01*
X143521296Y-89025910D01*
X143508361Y-89008107D01*
X143498035Y-88991255D01*
X143492554Y-88980498D01*
X143488050Y-88971658D01*
X143465487Y-88949095D01*
X143465484Y-88949091D01*
X143319278Y-88802885D01*
X143952000Y-88802885D01*
X143956475Y-88818124D01*
X143957865Y-88819329D01*
X143965548Y-88821000D01*
X144912885Y-88821000D01*
X144928124Y-88816525D01*
X144929329Y-88815135D01*
X144931000Y-88807452D01*
X144931000Y-88802885D01*
X145439000Y-88802885D01*
X145443475Y-88818124D01*
X145444865Y-88819329D01*
X145452548Y-88821000D01*
X146887885Y-88821000D01*
X146903124Y-88816525D01*
X146904329Y-88815135D01*
X146906000Y-88807452D01*
X146906000Y-88802885D01*
X147414000Y-88802885D01*
X147418475Y-88818124D01*
X147419865Y-88819329D01*
X147427548Y-88821000D01*
X148862885Y-88821000D01*
X148878124Y-88816525D01*
X148879329Y-88815135D01*
X148881000Y-88807452D01*
X148881000Y-88802885D01*
X149389000Y-88802885D01*
X149393475Y-88818124D01*
X149394865Y-88819329D01*
X149402548Y-88821000D01*
X150349884Y-88821000D01*
X150365123Y-88816525D01*
X150366328Y-88815135D01*
X150367999Y-88807452D01*
X150367999Y-88305331D01*
X150367629Y-88298510D01*
X150362105Y-88247648D01*
X150358479Y-88232396D01*
X150313324Y-88111946D01*
X150304786Y-88096351D01*
X150228285Y-87994276D01*
X150215724Y-87981715D01*
X150113649Y-87905214D01*
X150098054Y-87896676D01*
X149977606Y-87851522D01*
X149962351Y-87847895D01*
X149911486Y-87842369D01*
X149904672Y-87842000D01*
X149407115Y-87842000D01*
X149391876Y-87846475D01*
X149390671Y-87847865D01*
X149389000Y-87855548D01*
X149389000Y-88802885D01*
X148881000Y-88802885D01*
X148881000Y-87860116D01*
X148876525Y-87844877D01*
X148875135Y-87843672D01*
X148867452Y-87842001D01*
X148365331Y-87842001D01*
X148358510Y-87842371D01*
X148307648Y-87847895D01*
X148292394Y-87851522D01*
X148191729Y-87889259D01*
X148120922Y-87894442D01*
X148103271Y-87889259D01*
X148002609Y-87851522D01*
X147987351Y-87847895D01*
X147936486Y-87842369D01*
X147929672Y-87842000D01*
X147432115Y-87842000D01*
X147416876Y-87846475D01*
X147415671Y-87847865D01*
X147414000Y-87855548D01*
X147414000Y-88802885D01*
X146906000Y-88802885D01*
X146906000Y-87860116D01*
X146901525Y-87844877D01*
X146900135Y-87843672D01*
X146892452Y-87842001D01*
X146390331Y-87842001D01*
X146383510Y-87842371D01*
X146332648Y-87847895D01*
X146317394Y-87851522D01*
X146216729Y-87889259D01*
X146145922Y-87894442D01*
X146128271Y-87889259D01*
X146027609Y-87851522D01*
X146012351Y-87847895D01*
X145961486Y-87842369D01*
X145954672Y-87842000D01*
X145457115Y-87842000D01*
X145441876Y-87846475D01*
X145440671Y-87847865D01*
X145439000Y-87855548D01*
X145439000Y-88802885D01*
X144931000Y-88802885D01*
X144931000Y-87860116D01*
X144926525Y-87844877D01*
X144925135Y-87843672D01*
X144917452Y-87842001D01*
X144415331Y-87842001D01*
X144408510Y-87842371D01*
X144357648Y-87847895D01*
X144342396Y-87851521D01*
X144221946Y-87896676D01*
X144206351Y-87905214D01*
X144104276Y-87981715D01*
X144091715Y-87994276D01*
X144015214Y-88096351D01*
X144006676Y-88111946D01*
X143961522Y-88232394D01*
X143957895Y-88247649D01*
X143952369Y-88298514D01*
X143952000Y-88305328D01*
X143952000Y-88802885D01*
X143319278Y-88802885D01*
X143175175Y-88658782D01*
X143141149Y-88596470D01*
X143139547Y-88587579D01*
X143135323Y-88558082D01*
X143130158Y-88546721D01*
X143093887Y-88466948D01*
X143075984Y-88427572D01*
X143038387Y-88383939D01*
X142988260Y-88325763D01*
X142988257Y-88325760D01*
X142982400Y-88318963D01*
X142862095Y-88240985D01*
X142724739Y-88199907D01*
X142715763Y-88199852D01*
X142715762Y-88199852D01*
X142655555Y-88199484D01*
X142581376Y-88199031D01*
X142443529Y-88238428D01*
X142435942Y-88243215D01*
X142435940Y-88243216D01*
X142349639Y-88297668D01*
X142281354Y-88317102D01*
X142213403Y-88296533D01*
X142167358Y-88242492D01*
X142157840Y-88172136D01*
X142159821Y-88161961D01*
X142162105Y-88152354D01*
X142167631Y-88101486D01*
X142168000Y-88094672D01*
X142168000Y-88068115D01*
X142163525Y-88052876D01*
X142162135Y-88051671D01*
X142154452Y-88050000D01*
X140370116Y-88050000D01*
X140354877Y-88054475D01*
X140353672Y-88055865D01*
X140352001Y-88063548D01*
X140352001Y-88094669D01*
X140352370Y-88101488D01*
X140354599Y-88122006D01*
X140342070Y-88191889D01*
X140293748Y-88243903D01*
X140268233Y-88255458D01*
X140265611Y-88256309D01*
X140246427Y-88260911D01*
X140234493Y-88262801D01*
X140234485Y-88262803D01*
X140224696Y-88264354D01*
X140215865Y-88268854D01*
X140215861Y-88268855D01*
X140205093Y-88274342D01*
X140186832Y-88281906D01*
X140165910Y-88288704D01*
X140153572Y-88297668D01*
X140148116Y-88301632D01*
X140131259Y-88311962D01*
X140120493Y-88317448D01*
X140120492Y-88317449D01*
X140111658Y-88321950D01*
X140089091Y-88344517D01*
X139918940Y-88514667D01*
X139864469Y-88546721D01*
X139820091Y-88559404D01*
X139749096Y-88558891D01*
X139689649Y-88520077D01*
X139660623Y-88455285D01*
X139671235Y-88385086D01*
X139676553Y-88375678D01*
X139679200Y-88372754D01*
X139721406Y-88285641D01*
X139737795Y-88251814D01*
X139737795Y-88251813D01*
X139741710Y-88243733D01*
X139765496Y-88102354D01*
X139765647Y-88090000D01*
X139756919Y-88029054D01*
X139746596Y-87956968D01*
X139746595Y-87956965D01*
X139745323Y-87948082D01*
X139685984Y-87817572D01*
X139667598Y-87796234D01*
X139598260Y-87715763D01*
X139598257Y-87715760D01*
X139592400Y-87708963D01*
X139473484Y-87631885D01*
X140352000Y-87631885D01*
X140356475Y-87647124D01*
X140357865Y-87648329D01*
X140365548Y-87650000D01*
X141041885Y-87650000D01*
X141057124Y-87645525D01*
X141058329Y-87644135D01*
X141060000Y-87636452D01*
X141060000Y-87631885D01*
X141460000Y-87631885D01*
X141464475Y-87647124D01*
X141465865Y-87648329D01*
X141473548Y-87650000D01*
X142149884Y-87650000D01*
X142165123Y-87645525D01*
X142166328Y-87644135D01*
X142167999Y-87636452D01*
X142167999Y-87605331D01*
X142167629Y-87598510D01*
X142162105Y-87547648D01*
X142158479Y-87532397D01*
X142144171Y-87494230D01*
X142138988Y-87423423D01*
X142144171Y-87405770D01*
X142158478Y-87367606D01*
X142162105Y-87352351D01*
X142167631Y-87301486D01*
X142168000Y-87294672D01*
X142168000Y-87268115D01*
X142163525Y-87252876D01*
X142162135Y-87251671D01*
X142154452Y-87250000D01*
X141478115Y-87250000D01*
X141462876Y-87254475D01*
X141461671Y-87255865D01*
X141460000Y-87263548D01*
X141460000Y-87631885D01*
X141060000Y-87631885D01*
X141060000Y-87268115D01*
X141055525Y-87252876D01*
X141054135Y-87251671D01*
X141046452Y-87250000D01*
X140370116Y-87250000D01*
X140354877Y-87254475D01*
X140353672Y-87255865D01*
X140352001Y-87263548D01*
X140352001Y-87294669D01*
X140352371Y-87301490D01*
X140357895Y-87352352D01*
X140361521Y-87367603D01*
X140375829Y-87405770D01*
X140381012Y-87476577D01*
X140375829Y-87494230D01*
X140361522Y-87532394D01*
X140357895Y-87547649D01*
X140352369Y-87598514D01*
X140352000Y-87605328D01*
X140352000Y-87631885D01*
X139473484Y-87631885D01*
X139472095Y-87630985D01*
X139353188Y-87595424D01*
X139300196Y-87563803D01*
X139275909Y-87539516D01*
X139275905Y-87539513D01*
X139253342Y-87516950D01*
X139233746Y-87506965D01*
X139216893Y-87496639D01*
X139199090Y-87483704D01*
X139178166Y-87476905D01*
X139159906Y-87469341D01*
X139149141Y-87463856D01*
X139149137Y-87463855D01*
X139140304Y-87459354D01*
X139130513Y-87457803D01*
X139130512Y-87457803D01*
X139118578Y-87455913D01*
X139099353Y-87451297D01*
X139087868Y-87447565D01*
X139087864Y-87447564D01*
X139078433Y-87444500D01*
X137186325Y-87444500D01*
X137118204Y-87424498D01*
X137077206Y-87381500D01*
X137060378Y-87352352D01*
X137037533Y-87312784D01*
X136997313Y-87268115D01*
X136915286Y-87177015D01*
X136915284Y-87177014D01*
X136910871Y-87172112D01*
X136757730Y-87060849D01*
X136710642Y-87039884D01*
X142560000Y-87039884D01*
X142564475Y-87055123D01*
X142565865Y-87056328D01*
X142573548Y-87057999D01*
X142604669Y-87057999D01*
X142611490Y-87057629D01*
X142662352Y-87052105D01*
X142677603Y-87048479D01*
X142715770Y-87034171D01*
X142786577Y-87028988D01*
X142804230Y-87034171D01*
X142842394Y-87048478D01*
X142857649Y-87052105D01*
X142908514Y-87057631D01*
X142915328Y-87058000D01*
X142941885Y-87058000D01*
X142957124Y-87053525D01*
X142958329Y-87052135D01*
X142960000Y-87044452D01*
X142960000Y-87039884D01*
X143360000Y-87039884D01*
X143364475Y-87055123D01*
X143365865Y-87056328D01*
X143373548Y-87057999D01*
X143404669Y-87057999D01*
X143411490Y-87057629D01*
X143462352Y-87052105D01*
X143477603Y-87048479D01*
X143515770Y-87034171D01*
X143586577Y-87028988D01*
X143604230Y-87034171D01*
X143642394Y-87048478D01*
X143657649Y-87052105D01*
X143708514Y-87057631D01*
X143715328Y-87058000D01*
X143741885Y-87058000D01*
X143757124Y-87053525D01*
X143758329Y-87052135D01*
X143760000Y-87044452D01*
X143760000Y-87039884D01*
X144160000Y-87039884D01*
X144164475Y-87055123D01*
X144165865Y-87056328D01*
X144173548Y-87057999D01*
X144204669Y-87057999D01*
X144211490Y-87057629D01*
X144262352Y-87052105D01*
X144277603Y-87048479D01*
X144315770Y-87034171D01*
X144386577Y-87028988D01*
X144404230Y-87034171D01*
X144442394Y-87048478D01*
X144457649Y-87052105D01*
X144508514Y-87057631D01*
X144515328Y-87058000D01*
X144541885Y-87058000D01*
X144557124Y-87053525D01*
X144558329Y-87052135D01*
X144560000Y-87044452D01*
X144560000Y-87039884D01*
X144960000Y-87039884D01*
X144964475Y-87055123D01*
X144965865Y-87056328D01*
X144973548Y-87057999D01*
X145004669Y-87057999D01*
X145011490Y-87057629D01*
X145062352Y-87052105D01*
X145077603Y-87048479D01*
X145115770Y-87034171D01*
X145186577Y-87028988D01*
X145204230Y-87034171D01*
X145242394Y-87048478D01*
X145257649Y-87052105D01*
X145308514Y-87057631D01*
X145315328Y-87058000D01*
X145341885Y-87058000D01*
X145357124Y-87053525D01*
X145358329Y-87052135D01*
X145360000Y-87044452D01*
X145360000Y-87039884D01*
X145760000Y-87039884D01*
X145764475Y-87055123D01*
X145765865Y-87056328D01*
X145773548Y-87057999D01*
X145804669Y-87057999D01*
X145811490Y-87057629D01*
X145862352Y-87052105D01*
X145877603Y-87048479D01*
X145915770Y-87034171D01*
X145986577Y-87028988D01*
X146004230Y-87034171D01*
X146042394Y-87048478D01*
X146057649Y-87052105D01*
X146108514Y-87057631D01*
X146115328Y-87058000D01*
X146141885Y-87058000D01*
X146157124Y-87053525D01*
X146158329Y-87052135D01*
X146160000Y-87044452D01*
X146160000Y-87039884D01*
X146560000Y-87039884D01*
X146564475Y-87055123D01*
X146565865Y-87056328D01*
X146573548Y-87057999D01*
X146604669Y-87057999D01*
X146611490Y-87057629D01*
X146662352Y-87052105D01*
X146677603Y-87048479D01*
X146715770Y-87034171D01*
X146786577Y-87028988D01*
X146804230Y-87034171D01*
X146842394Y-87048478D01*
X146857649Y-87052105D01*
X146908514Y-87057631D01*
X146915328Y-87058000D01*
X146941885Y-87058000D01*
X146957124Y-87053525D01*
X146958329Y-87052135D01*
X146960000Y-87044452D01*
X146960000Y-87039884D01*
X147360000Y-87039884D01*
X147364475Y-87055123D01*
X147365865Y-87056328D01*
X147373548Y-87057999D01*
X147404669Y-87057999D01*
X147411490Y-87057629D01*
X147462352Y-87052105D01*
X147477603Y-87048479D01*
X147515770Y-87034171D01*
X147586577Y-87028988D01*
X147604230Y-87034171D01*
X147642394Y-87048478D01*
X147657649Y-87052105D01*
X147708514Y-87057631D01*
X147715328Y-87058000D01*
X147741885Y-87058000D01*
X147757124Y-87053525D01*
X147758329Y-87052135D01*
X147760000Y-87044452D01*
X147760000Y-87039884D01*
X148160000Y-87039884D01*
X148164475Y-87055123D01*
X148165865Y-87056328D01*
X148173548Y-87057999D01*
X148204669Y-87057999D01*
X148211490Y-87057629D01*
X148262352Y-87052105D01*
X148277603Y-87048479D01*
X148315770Y-87034171D01*
X148386577Y-87028988D01*
X148404230Y-87034171D01*
X148442394Y-87048478D01*
X148457649Y-87052105D01*
X148508514Y-87057631D01*
X148515328Y-87058000D01*
X148541885Y-87058000D01*
X148557124Y-87053525D01*
X148558329Y-87052135D01*
X148560000Y-87044452D01*
X148560000Y-87039884D01*
X148960000Y-87039884D01*
X148964475Y-87055123D01*
X148965865Y-87056328D01*
X148973548Y-87057999D01*
X149004669Y-87057999D01*
X149011490Y-87057629D01*
X149062352Y-87052105D01*
X149077603Y-87048479D01*
X149115770Y-87034171D01*
X149186577Y-87028988D01*
X149204230Y-87034171D01*
X149242394Y-87048478D01*
X149257649Y-87052105D01*
X149308514Y-87057631D01*
X149315328Y-87058000D01*
X149341885Y-87058000D01*
X149357124Y-87053525D01*
X149358329Y-87052135D01*
X149360000Y-87044452D01*
X149360000Y-87039884D01*
X149760000Y-87039884D01*
X149764475Y-87055123D01*
X149765865Y-87056328D01*
X149773548Y-87057999D01*
X149804669Y-87057999D01*
X149811490Y-87057629D01*
X149862352Y-87052105D01*
X149877603Y-87048479D01*
X149915770Y-87034171D01*
X149986577Y-87028988D01*
X150004230Y-87034171D01*
X150042394Y-87048478D01*
X150057649Y-87052105D01*
X150108514Y-87057631D01*
X150115328Y-87058000D01*
X150141885Y-87058000D01*
X150157124Y-87053525D01*
X150158329Y-87052135D01*
X150160000Y-87044452D01*
X150160000Y-87039884D01*
X150560000Y-87039884D01*
X150564475Y-87055123D01*
X150565865Y-87056328D01*
X150573548Y-87057999D01*
X150604669Y-87057999D01*
X150611490Y-87057629D01*
X150662352Y-87052105D01*
X150677603Y-87048479D01*
X150715770Y-87034171D01*
X150786577Y-87028988D01*
X150804230Y-87034171D01*
X150842394Y-87048478D01*
X150857649Y-87052105D01*
X150908514Y-87057631D01*
X150915328Y-87058000D01*
X150941885Y-87058000D01*
X150957124Y-87053525D01*
X150958329Y-87052135D01*
X150960000Y-87044452D01*
X150960000Y-87039884D01*
X151360000Y-87039884D01*
X151364475Y-87055123D01*
X151365865Y-87056328D01*
X151373548Y-87057999D01*
X151404669Y-87057999D01*
X151411490Y-87057629D01*
X151462352Y-87052105D01*
X151477603Y-87048479D01*
X151515770Y-87034171D01*
X151586577Y-87028988D01*
X151604230Y-87034171D01*
X151642394Y-87048478D01*
X151657649Y-87052105D01*
X151708514Y-87057631D01*
X151715328Y-87058000D01*
X151741885Y-87058000D01*
X151757124Y-87053525D01*
X151758329Y-87052135D01*
X151760000Y-87044452D01*
X151760000Y-86368115D01*
X151755525Y-86352876D01*
X151754135Y-86351671D01*
X151746452Y-86350000D01*
X151378115Y-86350000D01*
X151362876Y-86354475D01*
X151361671Y-86355865D01*
X151360000Y-86363548D01*
X151360000Y-87039884D01*
X150960000Y-87039884D01*
X150960000Y-86368115D01*
X150955525Y-86352876D01*
X150954135Y-86351671D01*
X150946452Y-86350000D01*
X150578115Y-86350000D01*
X150562876Y-86354475D01*
X150561671Y-86355865D01*
X150560000Y-86363548D01*
X150560000Y-87039884D01*
X150160000Y-87039884D01*
X150160000Y-86368115D01*
X150155525Y-86352876D01*
X150154135Y-86351671D01*
X150146452Y-86350000D01*
X149778115Y-86350000D01*
X149762876Y-86354475D01*
X149761671Y-86355865D01*
X149760000Y-86363548D01*
X149760000Y-87039884D01*
X149360000Y-87039884D01*
X149360000Y-86368115D01*
X149355525Y-86352876D01*
X149354135Y-86351671D01*
X149346452Y-86350000D01*
X148978115Y-86350000D01*
X148962876Y-86354475D01*
X148961671Y-86355865D01*
X148960000Y-86363548D01*
X148960000Y-87039884D01*
X148560000Y-87039884D01*
X148560000Y-86368115D01*
X148555525Y-86352876D01*
X148554135Y-86351671D01*
X148546452Y-86350000D01*
X148178115Y-86350000D01*
X148162876Y-86354475D01*
X148161671Y-86355865D01*
X148160000Y-86363548D01*
X148160000Y-87039884D01*
X147760000Y-87039884D01*
X147760000Y-86368115D01*
X147755525Y-86352876D01*
X147754135Y-86351671D01*
X147746452Y-86350000D01*
X147378115Y-86350000D01*
X147362876Y-86354475D01*
X147361671Y-86355865D01*
X147360000Y-86363548D01*
X147360000Y-87039884D01*
X146960000Y-87039884D01*
X146960000Y-86368115D01*
X146955525Y-86352876D01*
X146954135Y-86351671D01*
X146946452Y-86350000D01*
X146578115Y-86350000D01*
X146562876Y-86354475D01*
X146561671Y-86355865D01*
X146560000Y-86363548D01*
X146560000Y-87039884D01*
X146160000Y-87039884D01*
X146160000Y-86368115D01*
X146155525Y-86352876D01*
X146154135Y-86351671D01*
X146146452Y-86350000D01*
X145778115Y-86350000D01*
X145762876Y-86354475D01*
X145761671Y-86355865D01*
X145760000Y-86363548D01*
X145760000Y-87039884D01*
X145360000Y-87039884D01*
X145360000Y-86368115D01*
X145355525Y-86352876D01*
X145354135Y-86351671D01*
X145346452Y-86350000D01*
X144978115Y-86350000D01*
X144962876Y-86354475D01*
X144961671Y-86355865D01*
X144960000Y-86363548D01*
X144960000Y-87039884D01*
X144560000Y-87039884D01*
X144560000Y-86368115D01*
X144555525Y-86352876D01*
X144554135Y-86351671D01*
X144546452Y-86350000D01*
X144178115Y-86350000D01*
X144162876Y-86354475D01*
X144161671Y-86355865D01*
X144160000Y-86363548D01*
X144160000Y-87039884D01*
X143760000Y-87039884D01*
X143760000Y-86368115D01*
X143755525Y-86352876D01*
X143754135Y-86351671D01*
X143746452Y-86350000D01*
X143378115Y-86350000D01*
X143362876Y-86354475D01*
X143361671Y-86355865D01*
X143360000Y-86363548D01*
X143360000Y-87039884D01*
X142960000Y-87039884D01*
X142960000Y-86368115D01*
X142955525Y-86352876D01*
X142954135Y-86351671D01*
X142946452Y-86350000D01*
X142578115Y-86350000D01*
X142562876Y-86354475D01*
X142561671Y-86355865D01*
X142560000Y-86363548D01*
X142560000Y-87039884D01*
X136710642Y-87039884D01*
X136584803Y-86983856D01*
X136486788Y-86963022D01*
X136406103Y-86945872D01*
X136406099Y-86945872D01*
X136399646Y-86944500D01*
X136210354Y-86944500D01*
X136203901Y-86945872D01*
X136203897Y-86945872D01*
X136123212Y-86963022D01*
X136025197Y-86983856D01*
X135852270Y-87060849D01*
X135699129Y-87172112D01*
X135694716Y-87177014D01*
X135694714Y-87177015D01*
X135612687Y-87268115D01*
X135572467Y-87312784D01*
X135569164Y-87318505D01*
X135489832Y-87455913D01*
X135477821Y-87476716D01*
X135466212Y-87512446D01*
X135445833Y-87575164D01*
X135405759Y-87633770D01*
X135340363Y-87661407D01*
X135270406Y-87649300D01*
X135218100Y-87601294D01*
X135200000Y-87536228D01*
X135200000Y-86831885D01*
X140352000Y-86831885D01*
X140356475Y-86847124D01*
X140357865Y-86848329D01*
X140365548Y-86850000D01*
X140937885Y-86850000D01*
X140953124Y-86845525D01*
X140954329Y-86844135D01*
X140956000Y-86836452D01*
X140956000Y-86831885D01*
X141464000Y-86831885D01*
X141468475Y-86847124D01*
X141469865Y-86848329D01*
X141477548Y-86850000D01*
X142141885Y-86850000D01*
X142157124Y-86845525D01*
X142158329Y-86844135D01*
X142160000Y-86836452D01*
X142160000Y-86368115D01*
X142155525Y-86352876D01*
X142154135Y-86351671D01*
X142146452Y-86350000D01*
X142122197Y-86350000D01*
X142094377Y-86354000D01*
X141482115Y-86354000D01*
X141466876Y-86358475D01*
X141465671Y-86359865D01*
X141464000Y-86367548D01*
X141464000Y-86831885D01*
X140956000Y-86831885D01*
X140956000Y-86372115D01*
X140951525Y-86356876D01*
X140950135Y-86355671D01*
X140942452Y-86354000D01*
X140370116Y-86354000D01*
X140354877Y-86358475D01*
X140353672Y-86359865D01*
X140352001Y-86367548D01*
X140352001Y-86494669D01*
X140352371Y-86501490D01*
X140357895Y-86552352D01*
X140361521Y-86567603D01*
X140375829Y-86605770D01*
X140381012Y-86676577D01*
X140375829Y-86694230D01*
X140361522Y-86732394D01*
X140357895Y-86747649D01*
X140352369Y-86798514D01*
X140352000Y-86805328D01*
X140352000Y-86831885D01*
X135200000Y-86831885D01*
X135200000Y-81891716D01*
X136745352Y-81891716D01*
X136746820Y-81902008D01*
X136760385Y-81906000D01*
X137827885Y-81906000D01*
X137843124Y-81901525D01*
X137844329Y-81900135D01*
X137846000Y-81892452D01*
X137846000Y-81070115D01*
X137841525Y-81054876D01*
X137840135Y-81053671D01*
X137832452Y-81052000D01*
X137775168Y-81052000D01*
X137769192Y-81052285D01*
X137620506Y-81066471D01*
X137608772Y-81068730D01*
X137417401Y-81124872D01*
X137406325Y-81129302D01*
X137229022Y-81220619D01*
X137218976Y-81227069D01*
X137062143Y-81350262D01*
X137053494Y-81358499D01*
X136922788Y-81509123D01*
X136915853Y-81518847D01*
X136815990Y-81691467D01*
X136811016Y-81702331D01*
X136745593Y-81890727D01*
X136745352Y-81891716D01*
X135200000Y-81891716D01*
X135200000Y-80216000D01*
X135220002Y-80147879D01*
X135273658Y-80101386D01*
X135326000Y-80090000D01*
X139174000Y-80090000D01*
X139242121Y-80110002D01*
G37*
%TD.AperFunction*%
%TD*%
M02*
