%TF.GenerationSoftware,KiCad,Pcbnew,(6.0.0)*%
%TF.CreationDate,2022-03-25T10:48:22+03:00*%
%TF.ProjectId,Ringturnpage,52696e67-7475-4726-9e70-6167652e6b69,rev?*%
%TF.SameCoordinates,Original*%
%TF.FileFunction,Paste,Bot*%
%TF.FilePolarity,Positive*%
%FSLAX46Y46*%
G04 Gerber Fmt 4.6, Leading zero omitted, Abs format (unit mm)*
G04 Created by KiCad (PCBNEW (6.0.0)) date 2022-03-25 10:48:22*
%MOMM*%
%LPD*%
G01*
G04 APERTURE LIST*
G04 Aperture macros list*
%AMRoundRect*
0 Rectangle with rounded corners*
0 $1 Rounding radius*
0 $2 $3 $4 $5 $6 $7 $8 $9 X,Y pos of 4 corners*
0 Add a 4 corners polygon primitive as box body*
4,1,4,$2,$3,$4,$5,$6,$7,$8,$9,$2,$3,0*
0 Add four circle primitives for the rounded corners*
1,1,$1+$1,$2,$3*
1,1,$1+$1,$4,$5*
1,1,$1+$1,$6,$7*
1,1,$1+$1,$8,$9*
0 Add four rect primitives between the rounded corners*
20,1,$1+$1,$2,$3,$4,$5,0*
20,1,$1+$1,$4,$5,$6,$7,0*
20,1,$1+$1,$6,$7,$8,$9,0*
20,1,$1+$1,$8,$9,$2,$3,0*%
G04 Aperture macros list end*
%ADD10RoundRect,0.135000X-0.185000X0.135000X-0.185000X-0.135000X0.185000X-0.135000X0.185000X0.135000X0*%
%ADD11RoundRect,0.135000X-0.135000X-0.185000X0.135000X-0.185000X0.135000X0.185000X-0.135000X0.185000X0*%
%ADD12RoundRect,0.140000X0.140000X0.170000X-0.140000X0.170000X-0.140000X-0.170000X0.140000X-0.170000X0*%
%ADD13R,1.380000X0.450000*%
%ADD14R,1.300000X1.650000*%
%ADD15R,1.550000X1.425000*%
%ADD16R,1.900000X1.800000*%
%ADD17R,1.900000X1.000000*%
%ADD18RoundRect,0.150000X-0.512500X-0.150000X0.512500X-0.150000X0.512500X0.150000X-0.512500X0.150000X0*%
%ADD19RoundRect,0.140000X-0.140000X-0.170000X0.140000X-0.170000X0.140000X0.170000X-0.140000X0.170000X0*%
%ADD20RoundRect,0.140000X-0.170000X0.140000X-0.170000X-0.140000X0.170000X-0.140000X0.170000X0.140000X0*%
%ADD21RoundRect,0.140000X0.170000X-0.140000X0.170000X0.140000X-0.170000X0.140000X-0.170000X-0.140000X0*%
%ADD22R,1.500000X2.000000*%
%ADD23R,3.800000X2.000000*%
%ADD24RoundRect,0.135000X0.135000X0.185000X-0.135000X0.185000X-0.135000X-0.185000X0.135000X-0.185000X0*%
G04 APERTURE END LIST*
D10*
%TO.C,R1*%
X145310000Y-87550000D03*
X145310000Y-88570000D03*
%TD*%
D11*
%TO.C,R5*%
X150850000Y-94570000D03*
X151870000Y-94570000D03*
%TD*%
D12*
%TO.C,C2*%
X147330000Y-88510000D03*
X146370000Y-88510000D03*
%TD*%
D11*
%TO.C,R2*%
X136080000Y-92490000D03*
X137100000Y-92490000D03*
%TD*%
D12*
%TO.C,C9*%
X140180000Y-89870000D03*
X139220000Y-89870000D03*
%TD*%
D11*
%TO.C,R3*%
X138040000Y-92490000D03*
X139060000Y-92490000D03*
%TD*%
D13*
%TO.C,J1*%
X149600000Y-88160000D03*
X149600000Y-88810000D03*
X149600000Y-89460000D03*
X149600000Y-90110000D03*
X149600000Y-90760000D03*
D14*
X152260000Y-92835000D03*
D15*
X149685000Y-86972500D03*
D14*
X152260000Y-86085000D03*
D16*
X152260000Y-88310000D03*
D17*
X152260000Y-91010000D03*
D15*
X149685000Y-91947500D03*
%TD*%
D18*
%TO.C,U1*%
X141520000Y-88140000D03*
X141520000Y-87190000D03*
X141520000Y-86240000D03*
X143795000Y-86240000D03*
X143795000Y-88140000D03*
%TD*%
D19*
%TO.C,C8*%
X139230000Y-90850000D03*
X140190000Y-90850000D03*
%TD*%
D11*
%TO.C,R4*%
X148800000Y-94560000D03*
X149820000Y-94560000D03*
%TD*%
D20*
%TO.C,C5*%
X140270000Y-96240000D03*
X140270000Y-97200000D03*
%TD*%
%TO.C,C3*%
X140060000Y-86750000D03*
X140060000Y-87710000D03*
%TD*%
D12*
%TO.C,C4*%
X140360000Y-95180000D03*
X139400000Y-95180000D03*
%TD*%
D21*
%TO.C,C7*%
X153550000Y-97470000D03*
X153550000Y-96510000D03*
%TD*%
D22*
%TO.C,U2*%
X142250000Y-90330000D03*
D23*
X144550000Y-96630000D03*
D22*
X144550000Y-90330000D03*
X146850000Y-90330000D03*
%TD*%
D24*
%TO.C,R6*%
X137210000Y-94010000D03*
X136190000Y-94010000D03*
%TD*%
D12*
%TO.C,C1*%
X147890000Y-86060000D03*
X146930000Y-86060000D03*
%TD*%
D21*
%TO.C,C6*%
X139250000Y-97190000D03*
X139250000Y-96230000D03*
%TD*%
M02*
