%TF.GenerationSoftware,KiCad,Pcbnew,(6.0.0)*%
%TF.CreationDate,2022-03-25T10:48:22+03:00*%
%TF.ProjectId,Ringturnpage,52696e67-7475-4726-9e70-6167652e6b69,rev?*%
%TF.SameCoordinates,Original*%
%TF.FileFunction,Legend,Bot*%
%TF.FilePolarity,Positive*%
%FSLAX46Y46*%
G04 Gerber Fmt 4.6, Leading zero omitted, Abs format (unit mm)*
G04 Created by KiCad (PCBNEW (6.0.0)) date 2022-03-25 10:48:22*
%MOMM*%
%LPD*%
G01*
G04 APERTURE LIST*
%ADD10C,0.200000*%
%ADD11C,0.120000*%
%ADD12C,0.150000*%
G04 APERTURE END LIST*
D10*
X140904761Y-84137142D02*
X140295238Y-84137142D01*
X140600000Y-84441904D02*
X140600000Y-83832380D01*
X137977142Y-91059523D02*
X137939047Y-90945238D01*
X137900952Y-90907142D01*
X137824761Y-90869047D01*
X137710476Y-90869047D01*
X137634285Y-90907142D01*
X137596190Y-90945238D01*
X137558095Y-91021428D01*
X137558095Y-91326190D01*
X138358095Y-91326190D01*
X138358095Y-91059523D01*
X138320000Y-90983333D01*
X138281904Y-90945238D01*
X138205714Y-90907142D01*
X138129523Y-90907142D01*
X138053333Y-90945238D01*
X138015238Y-90983333D01*
X137977142Y-91059523D01*
X137977142Y-91326190D01*
X138358095Y-90526190D02*
X137710476Y-90526190D01*
X137634285Y-90488095D01*
X137596190Y-90450000D01*
X137558095Y-90373809D01*
X137558095Y-90221428D01*
X137596190Y-90145238D01*
X137634285Y-90107142D01*
X137710476Y-90069047D01*
X138358095Y-90069047D01*
X138358095Y-89802380D02*
X138358095Y-89345238D01*
X137558095Y-89573809D02*
X138358095Y-89573809D01*
X138358095Y-89192857D02*
X138358095Y-88735714D01*
X137558095Y-88964285D02*
X138358095Y-88964285D01*
X138358095Y-88316666D02*
X138358095Y-88164285D01*
X138320000Y-88088095D01*
X138243809Y-88011904D01*
X138091428Y-87973809D01*
X137824761Y-87973809D01*
X137672380Y-88011904D01*
X137596190Y-88088095D01*
X137558095Y-88164285D01*
X137558095Y-88316666D01*
X137596190Y-88392857D01*
X137672380Y-88469047D01*
X137824761Y-88507142D01*
X138091428Y-88507142D01*
X138243809Y-88469047D01*
X138320000Y-88392857D01*
X138358095Y-88316666D01*
X137558095Y-87630952D02*
X138358095Y-87630952D01*
X137558095Y-87173809D01*
X138358095Y-87173809D01*
X140577142Y-81855238D02*
X140577142Y-82464761D01*
X141647142Y-84750000D02*
X141609047Y-84635714D01*
X141570952Y-84597619D01*
X141494761Y-84559523D01*
X141380476Y-84559523D01*
X141304285Y-84597619D01*
X141266190Y-84635714D01*
X141228095Y-84711904D01*
X141228095Y-85016666D01*
X142028095Y-85016666D01*
X142028095Y-84750000D01*
X141990000Y-84673809D01*
X141951904Y-84635714D01*
X141875714Y-84597619D01*
X141799523Y-84597619D01*
X141723333Y-84635714D01*
X141685238Y-84673809D01*
X141647142Y-84750000D01*
X141647142Y-85016666D01*
X141456666Y-84254761D02*
X141456666Y-83873809D01*
X141228095Y-84330952D02*
X142028095Y-84064285D01*
X141228095Y-83797619D01*
X142028095Y-83645238D02*
X142028095Y-83188095D01*
X141228095Y-83416666D02*
X142028095Y-83416666D01*
X142028095Y-83035714D02*
X142028095Y-82578571D01*
X141228095Y-82807142D02*
X142028095Y-82807142D01*
X141647142Y-82311904D02*
X141647142Y-82045238D01*
X141228095Y-81930952D02*
X141228095Y-82311904D01*
X142028095Y-82311904D01*
X142028095Y-81930952D01*
X141228095Y-81130952D02*
X141609047Y-81397619D01*
X141228095Y-81588095D02*
X142028095Y-81588095D01*
X142028095Y-81283333D01*
X141990000Y-81207142D01*
X141951904Y-81169047D01*
X141875714Y-81130952D01*
X141761428Y-81130952D01*
X141685238Y-81169047D01*
X141647142Y-81207142D01*
X141609047Y-81283333D01*
X141609047Y-81588095D01*
X141609047Y-80635714D02*
X141228095Y-80635714D01*
X142028095Y-80902380D02*
X141609047Y-80635714D01*
X142028095Y-80369047D01*
D11*
%TO.C,R1*%
X144930000Y-87906359D02*
X144930000Y-88213641D01*
X145690000Y-87906359D02*
X145690000Y-88213641D01*
%TO.C,R5*%
X151206359Y-94950000D02*
X151513641Y-94950000D01*
X151206359Y-94190000D02*
X151513641Y-94190000D01*
%TO.C,C2*%
X146957836Y-88870000D02*
X146742164Y-88870000D01*
X146957836Y-88150000D02*
X146742164Y-88150000D01*
%TO.C,R2*%
X136436359Y-92110000D02*
X136743641Y-92110000D01*
X136436359Y-92870000D02*
X136743641Y-92870000D01*
%TO.C,C9*%
X139807836Y-90230000D02*
X139592164Y-90230000D01*
X139807836Y-89510000D02*
X139592164Y-89510000D01*
%TO.C,R3*%
X138396359Y-92110000D02*
X138703641Y-92110000D01*
X138396359Y-92870000D02*
X138703641Y-92870000D01*
%TO.C,J1*%
X153400000Y-93270000D02*
X153660000Y-93270000D01*
X149350000Y-93270000D02*
X149350000Y-92890000D01*
X151120000Y-85650000D02*
X149350000Y-85650000D01*
X149350000Y-85650000D02*
X149350000Y-86030000D01*
X149350000Y-93270000D02*
X151120000Y-93270000D01*
X153660000Y-85650000D02*
X153400000Y-85650000D01*
%TO.C,U1*%
X142657500Y-88750000D02*
X140857500Y-88750000D01*
X142657500Y-85630000D02*
X141857500Y-85630000D01*
X142657500Y-88750000D02*
X143457500Y-88750000D01*
X142657500Y-85630000D02*
X143457500Y-85630000D01*
%TO.C,C8*%
X139602164Y-91210000D02*
X139817836Y-91210000D01*
X139602164Y-90490000D02*
X139817836Y-90490000D01*
%TO.C,R4*%
X149156359Y-94940000D02*
X149463641Y-94940000D01*
X149156359Y-94180000D02*
X149463641Y-94180000D01*
%TO.C,C5*%
X139910000Y-96612164D02*
X139910000Y-96827836D01*
X140630000Y-96612164D02*
X140630000Y-96827836D01*
%TO.C,J4*%
X139300000Y-80710000D02*
X139300000Y-82660000D01*
X139300000Y-83660000D02*
X139300000Y-85610000D01*
X135190000Y-86220000D02*
X135190000Y-80100000D01*
X139300000Y-85610000D02*
X135800000Y-85610000D01*
X139910000Y-83660000D02*
X139300000Y-83660000D01*
X138600000Y-86220000D02*
X138600000Y-85610000D01*
X135800000Y-83160000D02*
X136300000Y-83160000D01*
X140070000Y-86380000D02*
X138865000Y-86380000D01*
X136300000Y-83060000D02*
X135800000Y-83060000D01*
X135800000Y-80710000D02*
X139300000Y-80710000D01*
X137300000Y-80100000D02*
X137300000Y-80710000D01*
X140070000Y-85270000D02*
X140070000Y-86380000D01*
X139910000Y-86220000D02*
X135190000Y-86220000D01*
X140110000Y-84460000D02*
X140110000Y-84760000D01*
X139300000Y-82660000D02*
X139910000Y-82660000D01*
X139910000Y-80100000D02*
X139910000Y-86220000D01*
X135800000Y-85610000D02*
X135800000Y-80710000D01*
X135190000Y-80100000D02*
X139910000Y-80100000D01*
X135800000Y-83260000D02*
X136300000Y-83260000D01*
X140110000Y-84760000D02*
X139910000Y-84760000D01*
X139910000Y-84460000D02*
X140110000Y-84460000D01*
X140010000Y-84460000D02*
X140010000Y-84760000D01*
X136300000Y-83260000D02*
X136300000Y-83060000D01*
X137300000Y-86220000D02*
X137300000Y-85610000D01*
X138600000Y-80100000D02*
X138600000Y-80710000D01*
%TO.C,C3*%
X139700000Y-87122164D02*
X139700000Y-87337836D01*
X140420000Y-87122164D02*
X140420000Y-87337836D01*
%TO.C,C4*%
X139987836Y-94820000D02*
X139772164Y-94820000D01*
X139987836Y-95540000D02*
X139772164Y-95540000D01*
%TO.C,C7*%
X153910000Y-97097836D02*
X153910000Y-96882164D01*
X153190000Y-97097836D02*
X153190000Y-96882164D01*
%TO.C,U2*%
X147960000Y-91630000D02*
X147960000Y-95390000D01*
X147960000Y-95390000D02*
X146700000Y-95390000D01*
X141140000Y-95390000D02*
X142400000Y-95390000D01*
X141140000Y-89380000D02*
X141140000Y-95390000D01*
D12*
%TO.C,J5*%
X136705000Y-86815000D02*
X135905000Y-86815000D01*
X135405000Y-87315000D02*
X135405000Y-90915000D01*
X135405000Y-90915000D02*
X135905000Y-91415000D01*
X136705000Y-91415000D02*
X137205000Y-90915000D01*
X135905000Y-91415000D02*
X136705000Y-91415000D01*
X137205000Y-87315000D02*
X136705000Y-86815000D01*
X137205000Y-90915000D02*
X137205000Y-87315000D01*
X135905000Y-86815000D02*
X135405000Y-87315000D01*
D11*
%TO.C,R6*%
X136853641Y-93630000D02*
X136546359Y-93630000D01*
X136853641Y-94390000D02*
X136546359Y-94390000D01*
%TO.C,C1*%
X147517836Y-85700000D02*
X147302164Y-85700000D01*
X147517836Y-86420000D02*
X147302164Y-86420000D01*
%TO.C,C6*%
X138890000Y-96817836D02*
X138890000Y-96602164D01*
X139610000Y-96817836D02*
X139610000Y-96602164D01*
%TD*%
M02*
