%TF.GenerationSoftware,KiCad,Pcbnew,(6.0.0)*%
%TF.CreationDate,2022-03-25T10:48:22+03:00*%
%TF.ProjectId,Ringturnpage,52696e67-7475-4726-9e70-6167652e6b69,rev?*%
%TF.SameCoordinates,Original*%
%TF.FileFunction,Copper,L2,Bot*%
%TF.FilePolarity,Positive*%
%FSLAX46Y46*%
G04 Gerber Fmt 4.6, Leading zero omitted, Abs format (unit mm)*
G04 Created by KiCad (PCBNEW (6.0.0)) date 2022-03-25 10:48:22*
%MOMM*%
%LPD*%
G01*
G04 APERTURE LIST*
G04 Aperture macros list*
%AMRoundRect*
0 Rectangle with rounded corners*
0 $1 Rounding radius*
0 $2 $3 $4 $5 $6 $7 $8 $9 X,Y pos of 4 corners*
0 Add a 4 corners polygon primitive as box body*
4,1,4,$2,$3,$4,$5,$6,$7,$8,$9,$2,$3,0*
0 Add four circle primitives for the rounded corners*
1,1,$1+$1,$2,$3*
1,1,$1+$1,$4,$5*
1,1,$1+$1,$6,$7*
1,1,$1+$1,$8,$9*
0 Add four rect primitives between the rounded corners*
20,1,$1+$1,$2,$3,$4,$5,0*
20,1,$1+$1,$4,$5,$6,$7,0*
20,1,$1+$1,$6,$7,$8,$9,0*
20,1,$1+$1,$8,$9,$2,$3,0*%
G04 Aperture macros list end*
%TA.AperFunction,ComponentPad*%
%ADD10R,1.700000X1.700000*%
%TD*%
%TA.AperFunction,ComponentPad*%
%ADD11O,1.700000X1.700000*%
%TD*%
%TA.AperFunction,SMDPad,CuDef*%
%ADD12RoundRect,0.135000X-0.185000X0.135000X-0.185000X-0.135000X0.185000X-0.135000X0.185000X0.135000X0*%
%TD*%
%TA.AperFunction,SMDPad,CuDef*%
%ADD13RoundRect,0.135000X-0.135000X-0.185000X0.135000X-0.185000X0.135000X0.185000X-0.135000X0.185000X0*%
%TD*%
%TA.AperFunction,SMDPad,CuDef*%
%ADD14RoundRect,0.140000X0.140000X0.170000X-0.140000X0.170000X-0.140000X-0.170000X0.140000X-0.170000X0*%
%TD*%
%TA.AperFunction,SMDPad,CuDef*%
%ADD15R,1.380000X0.450000*%
%TD*%
%TA.AperFunction,SMDPad,CuDef*%
%ADD16R,1.300000X1.650000*%
%TD*%
%TA.AperFunction,SMDPad,CuDef*%
%ADD17R,1.550000X1.425000*%
%TD*%
%TA.AperFunction,SMDPad,CuDef*%
%ADD18R,1.900000X1.800000*%
%TD*%
%TA.AperFunction,SMDPad,CuDef*%
%ADD19R,1.900000X1.000000*%
%TD*%
%TA.AperFunction,SMDPad,CuDef*%
%ADD20RoundRect,0.150000X-0.512500X-0.150000X0.512500X-0.150000X0.512500X0.150000X-0.512500X0.150000X0*%
%TD*%
%TA.AperFunction,SMDPad,CuDef*%
%ADD21RoundRect,0.140000X-0.140000X-0.170000X0.140000X-0.170000X0.140000X0.170000X-0.140000X0.170000X0*%
%TD*%
%TA.AperFunction,SMDPad,CuDef*%
%ADD22RoundRect,0.140000X-0.170000X0.140000X-0.170000X-0.140000X0.170000X-0.140000X0.170000X0.140000X0*%
%TD*%
%TA.AperFunction,ComponentPad*%
%ADD23RoundRect,0.250000X0.625000X-0.350000X0.625000X0.350000X-0.625000X0.350000X-0.625000X-0.350000X0*%
%TD*%
%TA.AperFunction,ComponentPad*%
%ADD24O,1.750000X1.200000*%
%TD*%
%TA.AperFunction,SMDPad,CuDef*%
%ADD25RoundRect,0.140000X0.170000X-0.140000X0.170000X0.140000X-0.170000X0.140000X-0.170000X-0.140000X0*%
%TD*%
%TA.AperFunction,SMDPad,CuDef*%
%ADD26R,1.500000X2.000000*%
%TD*%
%TA.AperFunction,SMDPad,CuDef*%
%ADD27R,3.800000X2.000000*%
%TD*%
%TA.AperFunction,ComponentPad*%
%ADD28C,1.400000*%
%TD*%
%TA.AperFunction,SMDPad,CuDef*%
%ADD29RoundRect,0.135000X0.135000X0.185000X-0.135000X0.185000X-0.135000X-0.185000X0.135000X-0.185000X0*%
%TD*%
%TA.AperFunction,ViaPad*%
%ADD30C,0.600000*%
%TD*%
%TA.AperFunction,Conductor*%
%ADD31C,0.200000*%
%TD*%
%TA.AperFunction,Conductor*%
%ADD32C,0.400000*%
%TD*%
G04 APERTURE END LIST*
D10*
%TO.P,J2,1,Pin_1*%
%TO.N,+3V3*%
X140680000Y-99465000D03*
D11*
%TO.P,J2,2,Pin_2*%
%TO.N,/RX*%
X143220000Y-99465000D03*
%TO.P,J2,3,Pin_3*%
%TO.N,/TX*%
X145760000Y-99465000D03*
%TO.P,J2,4,Pin_4*%
%TO.N,GND*%
X148300000Y-99465000D03*
%TO.P,J2,5,Pin_5*%
X150840000Y-99465000D03*
%TO.P,J2,6,Pin_6*%
%TO.N,/BOOT*%
X153380000Y-99465000D03*
%TD*%
D10*
%TO.P,J3,1,Pin_1*%
%TO.N,GND*%
X137160000Y-98995000D03*
D11*
%TO.P,J3,2,Pin_2*%
%TO.N,/EN*%
X137160000Y-96455000D03*
%TD*%
D12*
%TO.P,R1,1*%
%TO.N,GND*%
X145310000Y-87550000D03*
%TO.P,R1,2*%
%TO.N,Net-(R1-Pad2)*%
X145310000Y-88570000D03*
%TD*%
D13*
%TO.P,R5,1*%
%TO.N,/CHARGING*%
X150850000Y-94570000D03*
%TO.P,R5,2*%
%TO.N,GND*%
X151870000Y-94570000D03*
%TD*%
D14*
%TO.P,C2,1*%
%TO.N,+BATT*%
X147330000Y-88510000D03*
%TO.P,C2,2*%
%TO.N,GND*%
X146370000Y-88510000D03*
%TD*%
D13*
%TO.P,R2,1*%
%TO.N,+BATT*%
X136080000Y-92490000D03*
%TO.P,R2,2*%
%TO.N,/BATTERY*%
X137100000Y-92490000D03*
%TD*%
D14*
%TO.P,C9,1*%
%TO.N,+3V3*%
X140180000Y-89870000D03*
%TO.P,C9,2*%
%TO.N,GND*%
X139220000Y-89870000D03*
%TD*%
D13*
%TO.P,R3,1*%
%TO.N,/BATTERY*%
X138040000Y-92490000D03*
%TO.P,R3,2*%
%TO.N,GND*%
X139060000Y-92490000D03*
%TD*%
D15*
%TO.P,J1,1,VBUS*%
%TO.N,+5V*%
X149600000Y-88160000D03*
%TO.P,J1,2,D-*%
%TO.N,unconnected-(J1-Pad2)*%
X149600000Y-88810000D03*
%TO.P,J1,3,D+*%
%TO.N,unconnected-(J1-Pad3)*%
X149600000Y-89460000D03*
%TO.P,J1,4,ID*%
%TO.N,unconnected-(J1-Pad4)*%
X149600000Y-90110000D03*
%TO.P,J1,5,GND*%
%TO.N,GND*%
X149600000Y-90760000D03*
D16*
%TO.P,J1,6,Shield*%
X152260000Y-92835000D03*
D17*
X149685000Y-86972500D03*
D16*
X152260000Y-86085000D03*
D18*
X152260000Y-88310000D03*
D19*
X152260000Y-91010000D03*
D17*
X149685000Y-91947500D03*
%TD*%
D20*
%TO.P,U1,1,STAT*%
%TO.N,/STATUS*%
X141520000Y-88140000D03*
%TO.P,U1,2,VSS*%
%TO.N,GND*%
X141520000Y-87190000D03*
%TO.P,U1,3,VBAT*%
%TO.N,+BATT*%
X141520000Y-86240000D03*
%TO.P,U1,4,VDD*%
%TO.N,+5V*%
X143795000Y-86240000D03*
%TO.P,U1,5,PROG*%
%TO.N,Net-(R1-Pad2)*%
X143795000Y-88140000D03*
%TD*%
D21*
%TO.P,C8,1*%
%TO.N,GND*%
X139230000Y-90850000D03*
%TO.P,C8,2*%
%TO.N,+3V3*%
X140190000Y-90850000D03*
%TD*%
D13*
%TO.P,R4,1*%
%TO.N,+5V*%
X148800000Y-94560000D03*
%TO.P,R4,2*%
%TO.N,/CHARGING*%
X149820000Y-94560000D03*
%TD*%
D22*
%TO.P,C5,1*%
%TO.N,/EN*%
X140270000Y-96240000D03*
%TO.P,C5,2*%
%TO.N,GND*%
X140270000Y-97200000D03*
%TD*%
D23*
%TO.P,J4,1,Pin_1*%
%TO.N,+BATT*%
X138100000Y-84160000D03*
D24*
%TO.P,J4,2,Pin_2*%
%TO.N,GND*%
X138100000Y-82160000D03*
%TD*%
D22*
%TO.P,C3,1*%
%TO.N,+BATT*%
X140060000Y-86750000D03*
%TO.P,C3,2*%
%TO.N,GND*%
X140060000Y-87710000D03*
%TD*%
D14*
%TO.P,C4,1*%
%TO.N,+3V3*%
X140360000Y-95180000D03*
%TO.P,C4,2*%
%TO.N,GND*%
X139400000Y-95180000D03*
%TD*%
D25*
%TO.P,C7,1*%
%TO.N,/BOOT*%
X153550000Y-97470000D03*
%TO.P,C7,2*%
%TO.N,GND*%
X153550000Y-96510000D03*
%TD*%
D26*
%TO.P,U2,1,GND*%
%TO.N,GND*%
X142250000Y-90330000D03*
D27*
%TO.P,U2,2,VO*%
%TO.N,+3V3*%
X144550000Y-96630000D03*
D26*
X144550000Y-90330000D03*
%TO.P,U2,3,VI*%
%TO.N,+BATT*%
X146850000Y-90330000D03*
%TD*%
D28*
%TO.P,J5,1,Pin_1*%
%TO.N,+3V3*%
X136305000Y-90385000D03*
%TO.P,J5,2,Pin_2*%
%TO.N,/BUTTON*%
X136305000Y-87845000D03*
%TD*%
D29*
%TO.P,R6,1*%
%TO.N,+3V3*%
X137210000Y-94010000D03*
%TO.P,R6,2*%
%TO.N,/EN*%
X136190000Y-94010000D03*
%TD*%
D14*
%TO.P,C1,1*%
%TO.N,GND*%
X147890000Y-86060000D03*
%TO.P,C1,2*%
%TO.N,+5V*%
X146930000Y-86060000D03*
%TD*%
D25*
%TO.P,C6,1*%
%TO.N,GND*%
X139250000Y-97190000D03*
%TO.P,C6,2*%
%TO.N,/EN*%
X139250000Y-96230000D03*
%TD*%
D30*
%TO.N,GND*%
X142340000Y-90300000D03*
X138950000Y-87100000D03*
X152520000Y-96820000D03*
X138270500Y-95350000D03*
X137170000Y-85370000D03*
X135560000Y-94910000D03*
X142710000Y-87610000D03*
X150970000Y-89900000D03*
X145250000Y-94820000D03*
X135720000Y-98990000D03*
X148410000Y-86950000D03*
%TO.N,+3V3*%
X143900000Y-93500000D03*
X143910000Y-92100000D03*
X139960000Y-89040000D03*
%TO.N,/EN*%
X140355627Y-94195129D03*
%TO.N,/BOOT*%
X151470000Y-96870000D03*
%TO.N,/BATTERY*%
X140031942Y-92498058D03*
%TO.N,/STATUS*%
X142650000Y-88700000D03*
%TO.N,/CHARGING*%
X151100000Y-93750000D03*
%TO.N,/BUTTON*%
X139260000Y-88090000D03*
X147910000Y-94680000D03*
%TD*%
D31*
%TO.N,GND*%
X138310000Y-93240000D02*
X139060000Y-92490000D01*
X136128734Y-93240000D02*
X138310000Y-93240000D01*
D32*
X145410000Y-87550000D02*
X145310000Y-87550000D01*
X141520000Y-87190000D02*
X142290000Y-87190000D01*
D31*
X135560000Y-94910000D02*
X135560000Y-93808734D01*
D32*
X148772500Y-86060000D02*
X149685000Y-86972500D01*
X140060000Y-87710000D02*
X140069758Y-87710000D01*
X142290000Y-87190000D02*
X142710000Y-87610000D01*
D31*
X135560000Y-93808734D02*
X136128734Y-93240000D01*
D32*
X149600000Y-90760000D02*
X152010000Y-90760000D01*
X147890000Y-86060000D02*
X148772500Y-86060000D01*
X152010000Y-90760000D02*
X152260000Y-91010000D01*
X140589758Y-87190000D02*
X141520000Y-87190000D01*
X146370000Y-88510000D02*
X145410000Y-87550000D01*
X140069758Y-87710000D02*
X140589758Y-87190000D01*
%TO.N,+5V*%
X148510489Y-94270489D02*
X148800000Y-94560000D01*
X145014520Y-85765480D02*
X146635480Y-85765480D01*
X149600000Y-88160000D02*
X148535978Y-88160000D01*
X148535978Y-88160000D02*
X148510489Y-88185489D01*
X146635480Y-85765480D02*
X146930000Y-86060000D01*
X148585978Y-88160000D02*
X146930000Y-86504022D01*
X144540000Y-86240000D02*
X145014520Y-85765480D01*
X143795000Y-86240000D02*
X144540000Y-86240000D01*
X149600000Y-88160000D02*
X148585978Y-88160000D01*
X146930000Y-86504022D02*
X146930000Y-86060000D01*
X148510489Y-88185489D02*
X148510489Y-94270489D01*
%TO.N,+BATT*%
X138100000Y-84160000D02*
X138100000Y-84790000D01*
X140060000Y-86750000D02*
X140570000Y-86240000D01*
X138100000Y-84790000D02*
X140060000Y-86750000D01*
X136080000Y-92490000D02*
X136080000Y-92434075D01*
X142640000Y-85910000D02*
X142640000Y-86524638D01*
X147330000Y-88020000D02*
X147330000Y-88510000D01*
X143054882Y-86939520D02*
X144535118Y-86939520D01*
X142640000Y-86524638D02*
X143054882Y-86939520D01*
X142380000Y-85650000D02*
X142640000Y-85910000D01*
X144535118Y-86939520D02*
X144594158Y-86880480D01*
X147330000Y-89850000D02*
X146850000Y-90330000D01*
X136080000Y-92434075D02*
X138100000Y-90414075D01*
X144594158Y-86880480D02*
X146190480Y-86880480D01*
X138100000Y-90414075D02*
X138100000Y-84160000D01*
X146190480Y-86880480D02*
X147330000Y-88020000D01*
X139590000Y-85650000D02*
X142380000Y-85650000D01*
X147330000Y-88510000D02*
X147330000Y-89850000D01*
X138100000Y-84160000D02*
X139590000Y-85650000D01*
X140570000Y-86240000D02*
X141520000Y-86240000D01*
%TO.N,+3V3*%
X141280000Y-92756872D02*
X140190000Y-91666872D01*
X144550000Y-91460000D02*
X143910000Y-92100000D01*
X140065879Y-93495618D02*
X140985618Y-93495618D01*
X139628017Y-93933480D02*
X140065879Y-93495618D01*
X140979520Y-99165480D02*
X140979520Y-95799520D01*
X140190000Y-89880000D02*
X140180000Y-89870000D01*
X144550000Y-96630000D02*
X141810000Y-96630000D01*
X140680000Y-99465000D02*
X140979520Y-99165480D01*
X139960000Y-89650000D02*
X140180000Y-89870000D01*
X141280000Y-94260000D02*
X141280000Y-93790000D01*
X137210000Y-94010000D02*
X137286520Y-93933480D01*
X137286520Y-93933480D02*
X139628017Y-93933480D01*
X140360000Y-95180000D02*
X141280000Y-94260000D01*
X140985618Y-93495618D02*
X141280000Y-93790000D01*
X141280000Y-93790000D02*
X141280000Y-92756872D01*
X140190000Y-91666872D02*
X140190000Y-90850000D01*
X143900000Y-93500000D02*
X143900000Y-95980000D01*
X141810000Y-96630000D02*
X140360000Y-95180000D01*
X143900000Y-95980000D02*
X144550000Y-96630000D01*
X139960000Y-89040000D02*
X139960000Y-89650000D01*
X144550000Y-90330000D02*
X144550000Y-91460000D01*
X140190000Y-90850000D02*
X140190000Y-89880000D01*
%TO.N,/EN*%
X137160000Y-96455000D02*
X136270000Y-95565000D01*
X138150000Y-94460000D02*
X137160000Y-95450000D01*
X136270000Y-95565000D02*
X136270000Y-94090000D01*
X137160000Y-95450000D02*
X137160000Y-96455000D01*
X136270000Y-94090000D02*
X136190000Y-94010000D01*
X140270000Y-96240000D02*
X139260000Y-96240000D01*
X139250000Y-96230000D02*
X137385000Y-96230000D01*
X140355627Y-94195129D02*
X140090756Y-94460000D01*
X140090756Y-94460000D02*
X138150000Y-94460000D01*
X137385000Y-96230000D02*
X137160000Y-96455000D01*
X139260000Y-96240000D02*
X139250000Y-96230000D01*
%TO.N,/BOOT*%
X153390000Y-97630000D02*
X153550000Y-97470000D01*
X151470000Y-96870000D02*
X151470000Y-97555000D01*
X151470000Y-97555000D02*
X153380000Y-99465000D01*
X153390000Y-99405000D02*
X153390000Y-97630000D01*
%TO.N,/BATTERY*%
X138040000Y-92490000D02*
X138040000Y-92434075D01*
X138703595Y-91770480D02*
X139445759Y-91770480D01*
X137100000Y-92490000D02*
X138040000Y-92490000D01*
X140031942Y-92356663D02*
X140031942Y-92498058D01*
X139445759Y-91770480D02*
X140031942Y-92356663D01*
X138040000Y-92434075D02*
X138703595Y-91770480D01*
%TO.N,/STATUS*%
X141520000Y-88140000D02*
X142090000Y-88140000D01*
X142090000Y-88140000D02*
X142650000Y-88700000D01*
%TO.N,/CHARGING*%
X150850000Y-94570000D02*
X150850000Y-94000000D01*
X149820000Y-94560000D02*
X150840000Y-94560000D01*
X150850000Y-94000000D02*
X151100000Y-93750000D01*
%TO.N,/BUTTON*%
X142170489Y-92799511D02*
X145999511Y-92799511D01*
X140290000Y-88380000D02*
X141000000Y-89090000D01*
X141000000Y-91629022D02*
X142170489Y-92799511D01*
X147880000Y-94680000D02*
X147910000Y-94680000D01*
X141000000Y-89090000D02*
X141000000Y-91629022D01*
X139550000Y-88380000D02*
X140290000Y-88380000D01*
X139260000Y-88090000D02*
X139550000Y-88380000D01*
X145999511Y-92799511D02*
X147880000Y-94680000D01*
%TO.N,Net-(R1-Pad2)*%
X143795000Y-88140000D02*
X144225000Y-88570000D01*
X144225000Y-88570000D02*
X145310000Y-88570000D01*
%TD*%
%TA.AperFunction,Conductor*%
%TO.N,GND*%
G36*
X154742121Y-85390002D02*
G01*
X154788614Y-85443658D01*
X154800000Y-85496000D01*
X154800000Y-100674000D01*
X154779998Y-100742121D01*
X154726342Y-100788614D01*
X154674000Y-100800000D01*
X151700692Y-100800000D01*
X151632571Y-100779998D01*
X151586078Y-100726342D01*
X151575974Y-100656068D01*
X151605468Y-100591488D01*
X151627524Y-100571421D01*
X151715328Y-100508792D01*
X151723200Y-100502139D01*
X151874052Y-100351812D01*
X151880730Y-100343965D01*
X152005003Y-100171020D01*
X152010313Y-100162183D01*
X152104670Y-99971267D01*
X152108469Y-99961672D01*
X152149593Y-99826319D01*
X152188534Y-99766955D01*
X152253388Y-99738068D01*
X152323564Y-99748830D01*
X152376782Y-99795823D01*
X152391270Y-99828217D01*
X152398544Y-99853586D01*
X152401359Y-99859063D01*
X152401360Y-99859066D01*
X152489897Y-100031341D01*
X152492712Y-100036818D01*
X152620677Y-100198270D01*
X152625370Y-100202264D01*
X152625371Y-100202265D01*
X152699541Y-100265388D01*
X152777564Y-100331791D01*
X152782942Y-100334797D01*
X152782944Y-100334798D01*
X152815511Y-100352999D01*
X152957398Y-100432297D01*
X153041280Y-100459552D01*
X153147471Y-100494056D01*
X153147475Y-100494057D01*
X153153329Y-100495959D01*
X153357894Y-100520351D01*
X153364029Y-100519879D01*
X153364031Y-100519879D01*
X153436625Y-100514293D01*
X153563300Y-100504546D01*
X153569230Y-100502890D01*
X153569232Y-100502890D01*
X153755797Y-100450800D01*
X153755796Y-100450800D01*
X153761725Y-100449145D01*
X153767214Y-100446372D01*
X153767220Y-100446370D01*
X153940116Y-100359033D01*
X153945610Y-100356258D01*
X153953463Y-100350123D01*
X154103101Y-100233213D01*
X154107951Y-100229424D01*
X154161293Y-100167627D01*
X154238540Y-100078134D01*
X154238540Y-100078133D01*
X154242564Y-100073472D01*
X154263387Y-100036818D01*
X154281056Y-100005714D01*
X154344323Y-99894344D01*
X154409351Y-99698863D01*
X154435171Y-99494474D01*
X154435583Y-99465000D01*
X154415480Y-99259970D01*
X154355935Y-99062749D01*
X154259218Y-98880849D01*
X154183036Y-98787441D01*
X154132906Y-98725975D01*
X154132903Y-98725972D01*
X154129011Y-98721200D01*
X154111786Y-98706950D01*
X153975025Y-98593811D01*
X153975021Y-98593809D01*
X153970275Y-98589882D01*
X153872045Y-98536769D01*
X153856571Y-98528402D01*
X153806162Y-98478407D01*
X153790500Y-98417566D01*
X153790500Y-98033097D01*
X153810502Y-97964976D01*
X153863250Y-97918902D01*
X153908323Y-97897884D01*
X153908324Y-97897883D01*
X153918316Y-97893224D01*
X154003224Y-97808316D01*
X154018969Y-97774552D01*
X154049898Y-97708224D01*
X154049898Y-97708223D01*
X154053972Y-97699487D01*
X154060500Y-97649901D01*
X154060499Y-97290100D01*
X154059961Y-97286012D01*
X154059700Y-97282031D01*
X154075204Y-97212748D01*
X154108203Y-97174231D01*
X154125929Y-97160481D01*
X154230484Y-97055926D01*
X154240124Y-97043499D01*
X154315396Y-96916220D01*
X154321643Y-96901784D01*
X154356619Y-96781395D01*
X154356579Y-96767295D01*
X154349309Y-96764000D01*
X152756442Y-96764000D01*
X152742911Y-96767973D01*
X152741776Y-96775871D01*
X152778357Y-96901784D01*
X152784604Y-96916220D01*
X152859876Y-97043499D01*
X152869516Y-97055926D01*
X152974071Y-97160481D01*
X152991796Y-97174230D01*
X153033362Y-97231786D01*
X153040299Y-97282030D01*
X153040038Y-97286013D01*
X153039500Y-97290099D01*
X153039500Y-97397889D01*
X153028024Y-97445691D01*
X153028703Y-97445912D01*
X153024170Y-97459865D01*
X153021907Y-97466830D01*
X153014341Y-97485094D01*
X153008856Y-97495859D01*
X153008855Y-97495863D01*
X153004354Y-97504696D01*
X153002803Y-97514487D01*
X153002803Y-97514488D01*
X153000913Y-97526422D01*
X152996297Y-97545647D01*
X152992565Y-97557132D01*
X152992564Y-97557136D01*
X152989500Y-97566567D01*
X152989500Y-98203917D01*
X152969498Y-98272038D01*
X152915842Y-98318531D01*
X152845568Y-98328635D01*
X152780988Y-98299141D01*
X152774405Y-98293012D01*
X151907405Y-97426012D01*
X151873379Y-97363700D01*
X151870500Y-97336917D01*
X151870500Y-97216724D01*
X151889946Y-97153116D01*
X151889200Y-97152754D01*
X151891522Y-97147961D01*
X151940546Y-97046776D01*
X151947795Y-97031814D01*
X151947795Y-97031813D01*
X151951710Y-97023733D01*
X151975496Y-96882354D01*
X151975647Y-96870000D01*
X151960939Y-96767295D01*
X151956596Y-96736968D01*
X151956595Y-96736965D01*
X151955323Y-96728082D01*
X151944446Y-96704158D01*
X151920493Y-96651478D01*
X151895984Y-96597572D01*
X151877598Y-96576234D01*
X151808260Y-96495763D01*
X151808257Y-96495760D01*
X151802400Y-96488963D01*
X151682095Y-96410985D01*
X151544739Y-96369907D01*
X151535763Y-96369852D01*
X151535762Y-96369852D01*
X151475555Y-96369484D01*
X151401376Y-96369031D01*
X151263529Y-96408428D01*
X151142280Y-96484930D01*
X151047377Y-96592388D01*
X150986447Y-96722163D01*
X150979420Y-96767295D01*
X150966689Y-96849066D01*
X150964391Y-96863823D01*
X150965555Y-96872725D01*
X150965555Y-96872728D01*
X150973398Y-96932705D01*
X150982980Y-97005979D01*
X151040720Y-97137203D01*
X151046495Y-97144073D01*
X151050471Y-97150461D01*
X151069500Y-97217043D01*
X151069500Y-97618433D01*
X151072564Y-97627864D01*
X151072565Y-97627868D01*
X151076297Y-97639353D01*
X151080913Y-97658578D01*
X151084354Y-97680304D01*
X151088855Y-97689137D01*
X151088856Y-97689141D01*
X151094341Y-97699906D01*
X151101905Y-97718166D01*
X151108704Y-97739090D01*
X151121639Y-97756893D01*
X151131965Y-97773745D01*
X151141950Y-97793342D01*
X151164513Y-97815905D01*
X151164516Y-97815909D01*
X151279496Y-97930889D01*
X151313522Y-97993201D01*
X151308457Y-98064016D01*
X151265910Y-98120852D01*
X151199390Y-98145663D01*
X151168304Y-98144031D01*
X151111836Y-98133972D01*
X151098540Y-98135432D01*
X151094000Y-98149989D01*
X151094000Y-99593000D01*
X151073998Y-99661121D01*
X151020342Y-99707614D01*
X150968000Y-99719000D01*
X148172000Y-99719000D01*
X148103879Y-99698998D01*
X148057386Y-99645342D01*
X148046000Y-99593000D01*
X148046000Y-99192885D01*
X148554000Y-99192885D01*
X148558475Y-99208124D01*
X148559865Y-99209329D01*
X148567548Y-99211000D01*
X150567885Y-99211000D01*
X150583124Y-99206525D01*
X150584329Y-99205135D01*
X150586000Y-99197452D01*
X150586000Y-98148102D01*
X150582082Y-98134758D01*
X150567806Y-98132771D01*
X150529324Y-98138660D01*
X150519288Y-98141051D01*
X150316868Y-98207212D01*
X150307359Y-98211209D01*
X150118463Y-98309542D01*
X150109738Y-98315036D01*
X149939433Y-98442905D01*
X149931726Y-98449748D01*
X149784590Y-98603717D01*
X149778104Y-98611727D01*
X149673193Y-98765521D01*
X149618282Y-98810524D01*
X149547757Y-98818695D01*
X149484010Y-98787441D01*
X149463313Y-98762957D01*
X149382427Y-98637926D01*
X149376136Y-98629757D01*
X149232806Y-98472240D01*
X149225273Y-98465215D01*
X149058139Y-98333222D01*
X149049552Y-98327517D01*
X148863117Y-98224599D01*
X148853705Y-98220369D01*
X148652959Y-98149280D01*
X148642988Y-98146646D01*
X148571837Y-98133972D01*
X148558540Y-98135432D01*
X148554000Y-98149989D01*
X148554000Y-99192885D01*
X148046000Y-99192885D01*
X148046000Y-98148102D01*
X148042082Y-98134758D01*
X148027806Y-98132771D01*
X147989324Y-98138660D01*
X147979288Y-98141051D01*
X147776868Y-98207212D01*
X147767359Y-98211209D01*
X147578463Y-98309542D01*
X147569738Y-98315036D01*
X147399433Y-98442905D01*
X147391726Y-98449748D01*
X147244590Y-98603717D01*
X147238104Y-98611727D01*
X147118098Y-98787649D01*
X147113000Y-98796623D01*
X147023338Y-98989783D01*
X147019775Y-98999470D01*
X146991012Y-99103185D01*
X146953533Y-99163483D01*
X146889405Y-99193946D01*
X146818986Y-99184903D01*
X146764636Y-99139224D01*
X146748973Y-99105933D01*
X146748143Y-99103185D01*
X146735935Y-99062749D01*
X146639218Y-98880849D01*
X146563036Y-98787441D01*
X146512906Y-98725975D01*
X146512903Y-98725972D01*
X146509011Y-98721200D01*
X146491786Y-98706950D01*
X146355025Y-98593811D01*
X146355021Y-98593809D01*
X146350275Y-98589882D01*
X146169055Y-98491897D01*
X145972254Y-98430977D01*
X145966129Y-98430333D01*
X145966128Y-98430333D01*
X145773498Y-98410087D01*
X145773496Y-98410087D01*
X145767369Y-98409443D01*
X145680529Y-98417346D01*
X145568342Y-98427555D01*
X145568339Y-98427556D01*
X145562203Y-98428114D01*
X145364572Y-98486280D01*
X145182002Y-98581726D01*
X145177201Y-98585586D01*
X145177198Y-98585588D01*
X145144688Y-98611727D01*
X145021447Y-98710815D01*
X144889024Y-98868630D01*
X144886056Y-98874028D01*
X144886053Y-98874033D01*
X144879315Y-98886290D01*
X144789776Y-99049162D01*
X144727484Y-99245532D01*
X144726798Y-99251649D01*
X144726797Y-99251653D01*
X144725063Y-99267115D01*
X144704520Y-99450262D01*
X144705036Y-99456406D01*
X144720902Y-99645342D01*
X144721759Y-99655553D01*
X144723458Y-99661478D01*
X144769395Y-99821678D01*
X144778544Y-99853586D01*
X144781359Y-99859063D01*
X144781360Y-99859066D01*
X144869897Y-100031341D01*
X144872712Y-100036818D01*
X145000677Y-100198270D01*
X145005370Y-100202264D01*
X145005371Y-100202265D01*
X145079541Y-100265388D01*
X145157564Y-100331791D01*
X145162942Y-100334797D01*
X145162944Y-100334798D01*
X145195511Y-100352999D01*
X145337398Y-100432297D01*
X145421280Y-100459552D01*
X145527471Y-100494056D01*
X145527475Y-100494057D01*
X145533329Y-100495959D01*
X145737894Y-100520351D01*
X145744029Y-100519879D01*
X145744031Y-100519879D01*
X145816625Y-100514293D01*
X145943300Y-100504546D01*
X145949230Y-100502890D01*
X145949232Y-100502890D01*
X146135797Y-100450800D01*
X146135796Y-100450800D01*
X146141725Y-100449145D01*
X146147214Y-100446372D01*
X146147220Y-100446370D01*
X146320116Y-100359033D01*
X146325610Y-100356258D01*
X146333463Y-100350123D01*
X146483101Y-100233213D01*
X146487951Y-100229424D01*
X146541293Y-100167627D01*
X146618540Y-100078134D01*
X146618540Y-100078133D01*
X146622564Y-100073472D01*
X146643387Y-100036818D01*
X146661056Y-100005714D01*
X146724323Y-99894344D01*
X146733271Y-99867444D01*
X146748496Y-99821678D01*
X146788978Y-99763354D01*
X146854566Y-99736175D01*
X146924437Y-99748770D01*
X146976406Y-99797141D01*
X146990971Y-99833751D01*
X146998564Y-99867444D01*
X147001645Y-99877275D01*
X147081770Y-100074603D01*
X147086413Y-100083794D01*
X147197694Y-100265388D01*
X147203777Y-100273699D01*
X147343213Y-100434667D01*
X147350580Y-100441883D01*
X147513397Y-100577056D01*
X147553032Y-100635959D01*
X147554530Y-100706939D01*
X147517415Y-100767462D01*
X147453471Y-100798311D01*
X147432912Y-100800000D01*
X135326000Y-100800000D01*
X135257879Y-100779998D01*
X135211386Y-100726342D01*
X135200000Y-100674000D01*
X135200000Y-99889669D01*
X135802001Y-99889669D01*
X135802371Y-99896490D01*
X135807895Y-99947352D01*
X135811521Y-99962604D01*
X135856676Y-100083054D01*
X135865214Y-100098649D01*
X135941715Y-100200724D01*
X135954276Y-100213285D01*
X136056351Y-100289786D01*
X136071946Y-100298324D01*
X136192394Y-100343478D01*
X136207649Y-100347105D01*
X136258514Y-100352631D01*
X136265328Y-100353000D01*
X136887885Y-100353000D01*
X136903124Y-100348525D01*
X136904329Y-100347135D01*
X136906000Y-100339452D01*
X136906000Y-100334884D01*
X137414000Y-100334884D01*
X137418475Y-100350123D01*
X137419865Y-100351328D01*
X137427548Y-100352999D01*
X138054669Y-100352999D01*
X138061490Y-100352629D01*
X138112352Y-100347105D01*
X138127604Y-100343479D01*
X138248054Y-100298324D01*
X138263649Y-100289786D01*
X138365724Y-100213285D01*
X138378285Y-100200724D01*
X138454786Y-100098649D01*
X138463324Y-100083054D01*
X138508478Y-99962606D01*
X138512105Y-99947351D01*
X138517631Y-99896486D01*
X138518000Y-99889672D01*
X138518000Y-99267115D01*
X138513525Y-99251876D01*
X138512135Y-99250671D01*
X138504452Y-99249000D01*
X137432115Y-99249000D01*
X137416876Y-99253475D01*
X137415671Y-99254865D01*
X137414000Y-99262548D01*
X137414000Y-100334884D01*
X136906000Y-100334884D01*
X136906000Y-99267115D01*
X136901525Y-99251876D01*
X136900135Y-99250671D01*
X136892452Y-99249000D01*
X135820116Y-99249000D01*
X135804877Y-99253475D01*
X135803672Y-99254865D01*
X135802001Y-99262548D01*
X135802001Y-99889669D01*
X135200000Y-99889669D01*
X135200000Y-90693772D01*
X135220002Y-90625651D01*
X135273658Y-90579158D01*
X135343932Y-90569054D01*
X135408512Y-90598548D01*
X135445833Y-90654836D01*
X135477821Y-90753284D01*
X135572467Y-90917216D01*
X135576885Y-90922123D01*
X135576886Y-90922124D01*
X135581386Y-90927121D01*
X135699129Y-91057888D01*
X135704468Y-91061767D01*
X135776203Y-91113885D01*
X135852270Y-91169151D01*
X136025197Y-91246144D01*
X136109204Y-91264000D01*
X136203897Y-91284128D01*
X136203901Y-91284128D01*
X136210354Y-91285500D01*
X136357992Y-91285500D01*
X136426113Y-91305502D01*
X136472606Y-91359158D01*
X136482710Y-91429432D01*
X136453216Y-91494012D01*
X136447093Y-91500589D01*
X136015086Y-91932596D01*
X135952774Y-91966621D01*
X135925991Y-91969500D01*
X135905684Y-91969500D01*
X135856827Y-91975932D01*
X135749596Y-92025935D01*
X135665935Y-92109596D01*
X135661275Y-92119588D01*
X135661275Y-92119589D01*
X135632002Y-92182366D01*
X135615932Y-92216827D01*
X135609500Y-92265684D01*
X135609500Y-92714316D01*
X135615932Y-92763173D01*
X135620006Y-92771909D01*
X135620006Y-92771910D01*
X135645146Y-92825823D01*
X135665935Y-92870404D01*
X135749596Y-92954065D01*
X135759588Y-92958725D01*
X135759589Y-92958725D01*
X135842099Y-92997200D01*
X135856827Y-93004068D01*
X135905684Y-93010500D01*
X136254316Y-93010500D01*
X136303173Y-93004068D01*
X136317902Y-92997200D01*
X136400411Y-92958725D01*
X136400412Y-92958725D01*
X136410404Y-92954065D01*
X136494065Y-92870404D01*
X136494753Y-92871092D01*
X136542247Y-92833131D01*
X136612867Y-92825823D01*
X136676226Y-92857856D01*
X136684579Y-92867496D01*
X136685935Y-92870404D01*
X136769596Y-92954065D01*
X136779588Y-92958725D01*
X136779589Y-92958725D01*
X136862099Y-92997200D01*
X136876827Y-93004068D01*
X136925684Y-93010500D01*
X137274316Y-93010500D01*
X137323173Y-93004068D01*
X137337902Y-92997200D01*
X137420411Y-92958725D01*
X137420412Y-92958725D01*
X137430404Y-92954065D01*
X137457064Y-92927405D01*
X137519376Y-92893379D01*
X137546159Y-92890500D01*
X137593841Y-92890500D01*
X137661962Y-92910502D01*
X137682936Y-92927405D01*
X137709596Y-92954065D01*
X137719588Y-92958725D01*
X137719589Y-92958725D01*
X137802099Y-92997200D01*
X137816827Y-93004068D01*
X137865684Y-93010500D01*
X138214316Y-93010500D01*
X138263173Y-93004068D01*
X138265580Y-93002946D01*
X138332806Y-93003080D01*
X138392455Y-93041583D01*
X138405519Y-93059766D01*
X138408852Y-93065402D01*
X138418503Y-93077843D01*
X138522159Y-93181499D01*
X138534595Y-93191146D01*
X138660778Y-93265770D01*
X138675217Y-93272019D01*
X138723282Y-93285983D01*
X138783117Y-93324196D01*
X138812795Y-93388692D01*
X138802892Y-93458995D01*
X138756552Y-93512783D01*
X138688129Y-93532980D01*
X137540556Y-93532980D01*
X137487305Y-93521174D01*
X137441913Y-93500007D01*
X137441910Y-93500006D01*
X137433173Y-93495932D01*
X137384316Y-93489500D01*
X137035684Y-93489500D01*
X136986827Y-93495932D01*
X136978091Y-93500006D01*
X136978090Y-93500006D01*
X136907378Y-93532980D01*
X136879596Y-93545935D01*
X136795935Y-93629596D01*
X136795247Y-93628908D01*
X136747753Y-93666869D01*
X136677133Y-93674177D01*
X136613774Y-93642144D01*
X136605421Y-93632504D01*
X136604065Y-93629596D01*
X136520404Y-93545935D01*
X136492622Y-93532980D01*
X136421910Y-93500006D01*
X136421909Y-93500006D01*
X136413173Y-93495932D01*
X136364316Y-93489500D01*
X136015684Y-93489500D01*
X135966827Y-93495932D01*
X135958091Y-93500006D01*
X135958090Y-93500006D01*
X135887378Y-93532980D01*
X135859596Y-93545935D01*
X135775935Y-93629596D01*
X135771275Y-93639588D01*
X135771275Y-93639589D01*
X135764680Y-93653733D01*
X135725932Y-93736827D01*
X135719500Y-93785684D01*
X135719500Y-94234316D01*
X135725932Y-94283173D01*
X135730006Y-94291909D01*
X135730006Y-94291910D01*
X135758857Y-94353780D01*
X135775935Y-94390404D01*
X135832595Y-94447064D01*
X135866621Y-94509376D01*
X135869500Y-94536159D01*
X135869500Y-95628433D01*
X135872564Y-95637864D01*
X135872565Y-95637868D01*
X135876297Y-95649353D01*
X135880913Y-95668578D01*
X135884354Y-95690304D01*
X135888855Y-95699137D01*
X135888856Y-95699141D01*
X135894341Y-95709906D01*
X135901905Y-95728166D01*
X135908704Y-95749090D01*
X135921639Y-95766893D01*
X135931965Y-95783745D01*
X135941950Y-95803342D01*
X135964513Y-95825905D01*
X135964516Y-95825909D01*
X136132713Y-95994106D01*
X136166739Y-96056418D01*
X136163720Y-96121299D01*
X136127484Y-96235532D01*
X136126798Y-96241649D01*
X136126797Y-96241653D01*
X136107256Y-96415871D01*
X136104520Y-96440262D01*
X136105036Y-96446406D01*
X136117295Y-96592388D01*
X136121759Y-96645553D01*
X136123458Y-96651478D01*
X136146271Y-96731035D01*
X136178544Y-96843586D01*
X136181359Y-96849063D01*
X136181360Y-96849066D01*
X136268739Y-97019087D01*
X136272712Y-97026818D01*
X136400677Y-97188270D01*
X136405370Y-97192264D01*
X136405371Y-97192265D01*
X136429439Y-97212748D01*
X136557564Y-97321791D01*
X136678012Y-97389107D01*
X136699315Y-97401013D01*
X136749020Y-97451707D01*
X136763428Y-97521226D01*
X136737964Y-97587499D01*
X136680713Y-97629484D01*
X136637844Y-97637001D01*
X136265331Y-97637001D01*
X136258510Y-97637371D01*
X136207648Y-97642895D01*
X136192396Y-97646521D01*
X136071946Y-97691676D01*
X136056351Y-97700214D01*
X135954276Y-97776715D01*
X135941715Y-97789276D01*
X135865214Y-97891351D01*
X135856676Y-97906946D01*
X135811522Y-98027394D01*
X135807895Y-98042649D01*
X135802369Y-98093514D01*
X135802000Y-98100328D01*
X135802000Y-98722885D01*
X135806475Y-98738124D01*
X135807865Y-98739329D01*
X135815548Y-98741000D01*
X138499884Y-98741000D01*
X138515123Y-98736525D01*
X138516328Y-98735135D01*
X138517999Y-98727452D01*
X138517999Y-98100331D01*
X138517629Y-98093510D01*
X138512105Y-98042648D01*
X138508479Y-98027396D01*
X138497803Y-97998918D01*
X138492620Y-97928111D01*
X138526541Y-97865742D01*
X138588796Y-97831612D01*
X138659620Y-97836559D01*
X138679924Y-97846234D01*
X138813780Y-97925396D01*
X138828216Y-97931643D01*
X138971641Y-97973312D01*
X138979609Y-97974768D01*
X138993031Y-97971948D01*
X138996000Y-97960487D01*
X138996000Y-97958424D01*
X139504000Y-97958424D01*
X139508344Y-97973219D01*
X139518775Y-97975063D01*
X139528359Y-97973312D01*
X139671784Y-97931643D01*
X139686217Y-97925397D01*
X139687401Y-97924697D01*
X139688451Y-97924431D01*
X139693497Y-97922247D01*
X139693849Y-97923061D01*
X139756216Y-97907235D01*
X139815684Y-97924694D01*
X139833780Y-97935396D01*
X139848216Y-97941643D01*
X139991641Y-97983312D01*
X139999609Y-97984768D01*
X140013031Y-97981948D01*
X140016000Y-97970487D01*
X140016000Y-97472115D01*
X140011525Y-97456876D01*
X140010135Y-97455671D01*
X140002452Y-97454000D01*
X139522115Y-97454000D01*
X139506876Y-97458475D01*
X139505671Y-97459865D01*
X139504000Y-97467548D01*
X139504000Y-97958424D01*
X138996000Y-97958424D01*
X138996000Y-97462115D01*
X138991525Y-97446876D01*
X138990135Y-97445671D01*
X138982452Y-97444000D01*
X138456442Y-97444000D01*
X138442911Y-97447973D01*
X138441776Y-97455871D01*
X138476891Y-97576736D01*
X138476688Y-97647732D01*
X138438135Y-97707348D01*
X138373470Y-97736657D01*
X138303225Y-97726353D01*
X138280330Y-97712716D01*
X138263648Y-97700214D01*
X138248054Y-97691676D01*
X138127606Y-97646522D01*
X138112351Y-97642895D01*
X138061486Y-97637369D01*
X138054672Y-97637000D01*
X137678932Y-97637000D01*
X137610811Y-97616998D01*
X137564318Y-97563342D01*
X137554214Y-97493068D01*
X137583708Y-97428488D01*
X137622121Y-97398534D01*
X137640783Y-97389107D01*
X137725610Y-97346258D01*
X137887951Y-97219424D01*
X137926961Y-97174231D01*
X138018540Y-97068134D01*
X138018540Y-97068133D01*
X138022564Y-97063472D01*
X138043387Y-97026818D01*
X138079894Y-96962553D01*
X138124323Y-96884344D01*
X138134101Y-96854950D01*
X138180082Y-96716728D01*
X138220564Y-96658403D01*
X138286152Y-96631224D01*
X138299640Y-96630500D01*
X138359267Y-96630500D01*
X138427388Y-96650502D01*
X138473881Y-96704158D01*
X138483985Y-96774432D01*
X138480264Y-96791653D01*
X138443381Y-96918605D01*
X138443421Y-96932705D01*
X138450691Y-96936000D01*
X140062030Y-96936000D01*
X140088813Y-96938879D01*
X140121548Y-96946000D01*
X140398000Y-96946000D01*
X140466121Y-96966002D01*
X140512614Y-97019658D01*
X140524000Y-97072000D01*
X140524000Y-97968424D01*
X140528475Y-97983663D01*
X140535532Y-97989778D01*
X140573916Y-98049504D01*
X140579020Y-98085003D01*
X140579020Y-98288500D01*
X140559018Y-98356621D01*
X140505362Y-98403114D01*
X140453020Y-98414500D01*
X139810252Y-98414500D01*
X139804184Y-98415707D01*
X139763939Y-98423712D01*
X139763938Y-98423712D01*
X139751769Y-98426133D01*
X139685448Y-98470448D01*
X139641133Y-98536769D01*
X139629500Y-98595252D01*
X139629500Y-100334748D01*
X139630707Y-100340816D01*
X139634331Y-100359033D01*
X139641133Y-100393231D01*
X139685448Y-100459552D01*
X139751769Y-100503867D01*
X139763938Y-100506288D01*
X139763939Y-100506288D01*
X139804184Y-100514293D01*
X139810252Y-100515500D01*
X141549748Y-100515500D01*
X141555816Y-100514293D01*
X141596061Y-100506288D01*
X141596062Y-100506288D01*
X141608231Y-100503867D01*
X141674552Y-100459552D01*
X141718867Y-100393231D01*
X141725670Y-100359033D01*
X141729293Y-100340816D01*
X141730500Y-100334748D01*
X141730500Y-99450262D01*
X142164520Y-99450262D01*
X142165036Y-99456406D01*
X142180902Y-99645342D01*
X142181759Y-99655553D01*
X142183458Y-99661478D01*
X142229395Y-99821678D01*
X142238544Y-99853586D01*
X142241359Y-99859063D01*
X142241360Y-99859066D01*
X142329897Y-100031341D01*
X142332712Y-100036818D01*
X142460677Y-100198270D01*
X142465370Y-100202264D01*
X142465371Y-100202265D01*
X142539541Y-100265388D01*
X142617564Y-100331791D01*
X142622942Y-100334797D01*
X142622944Y-100334798D01*
X142655511Y-100352999D01*
X142797398Y-100432297D01*
X142881280Y-100459552D01*
X142987471Y-100494056D01*
X142987475Y-100494057D01*
X142993329Y-100495959D01*
X143197894Y-100520351D01*
X143204029Y-100519879D01*
X143204031Y-100519879D01*
X143276625Y-100514293D01*
X143403300Y-100504546D01*
X143409230Y-100502890D01*
X143409232Y-100502890D01*
X143595797Y-100450800D01*
X143595796Y-100450800D01*
X143601725Y-100449145D01*
X143607214Y-100446372D01*
X143607220Y-100446370D01*
X143780116Y-100359033D01*
X143785610Y-100356258D01*
X143793463Y-100350123D01*
X143943101Y-100233213D01*
X143947951Y-100229424D01*
X144001293Y-100167627D01*
X144078540Y-100078134D01*
X144078540Y-100078133D01*
X144082564Y-100073472D01*
X144103387Y-100036818D01*
X144121056Y-100005714D01*
X144184323Y-99894344D01*
X144249351Y-99698863D01*
X144275171Y-99494474D01*
X144275583Y-99465000D01*
X144255480Y-99259970D01*
X144195935Y-99062749D01*
X144099218Y-98880849D01*
X144023036Y-98787441D01*
X143972906Y-98725975D01*
X143972903Y-98725972D01*
X143969011Y-98721200D01*
X143951786Y-98706950D01*
X143815025Y-98593811D01*
X143815021Y-98593809D01*
X143810275Y-98589882D01*
X143629055Y-98491897D01*
X143432254Y-98430977D01*
X143426129Y-98430333D01*
X143426128Y-98430333D01*
X143233498Y-98410087D01*
X143233496Y-98410087D01*
X143227369Y-98409443D01*
X143140529Y-98417346D01*
X143028342Y-98427555D01*
X143028339Y-98427556D01*
X143022203Y-98428114D01*
X142824572Y-98486280D01*
X142642002Y-98581726D01*
X142637201Y-98585586D01*
X142637198Y-98585588D01*
X142604688Y-98611727D01*
X142481447Y-98710815D01*
X142349024Y-98868630D01*
X142346056Y-98874028D01*
X142346053Y-98874033D01*
X142339315Y-98886290D01*
X142249776Y-99049162D01*
X142187484Y-99245532D01*
X142186798Y-99251649D01*
X142186797Y-99251653D01*
X142185063Y-99267115D01*
X142164520Y-99450262D01*
X141730500Y-99450262D01*
X141730500Y-98595252D01*
X141718867Y-98536769D01*
X141674552Y-98470448D01*
X141608231Y-98426133D01*
X141596062Y-98423712D01*
X141596061Y-98423712D01*
X141555816Y-98415707D01*
X141549748Y-98414500D01*
X141506020Y-98414500D01*
X141437899Y-98394498D01*
X141391406Y-98340842D01*
X141380020Y-98288500D01*
X141380020Y-97064188D01*
X141400022Y-96996067D01*
X141453678Y-96949574D01*
X141523952Y-96939470D01*
X141571330Y-96958699D01*
X141571660Y-96958051D01*
X141580496Y-96962553D01*
X141591258Y-96968037D01*
X141608114Y-96978365D01*
X141625911Y-96991296D01*
X141646832Y-96998094D01*
X141665092Y-97005658D01*
X141675859Y-97011144D01*
X141675863Y-97011145D01*
X141684696Y-97015646D01*
X141694487Y-97017197D01*
X141694488Y-97017197D01*
X141706422Y-97019087D01*
X141725647Y-97023703D01*
X141737132Y-97027435D01*
X141737136Y-97027436D01*
X141746567Y-97030500D01*
X142323500Y-97030500D01*
X142391621Y-97050502D01*
X142438114Y-97104158D01*
X142449500Y-97156500D01*
X142449500Y-97649748D01*
X142461133Y-97708231D01*
X142505448Y-97774552D01*
X142571769Y-97818867D01*
X142583938Y-97821288D01*
X142583939Y-97821288D01*
X142624184Y-97829293D01*
X142630252Y-97830500D01*
X146469748Y-97830500D01*
X146475816Y-97829293D01*
X146516061Y-97821288D01*
X146516062Y-97821288D01*
X146528231Y-97818867D01*
X146594552Y-97774552D01*
X146638867Y-97708231D01*
X146650500Y-97649748D01*
X146650500Y-96238605D01*
X152743381Y-96238605D01*
X152743421Y-96252705D01*
X152750691Y-96256000D01*
X153277885Y-96256000D01*
X153293124Y-96251525D01*
X153294329Y-96250135D01*
X153296000Y-96242452D01*
X153296000Y-96237885D01*
X153804000Y-96237885D01*
X153808475Y-96253124D01*
X153809865Y-96254329D01*
X153817548Y-96256000D01*
X154343558Y-96256000D01*
X154357089Y-96252027D01*
X154358224Y-96244129D01*
X154321643Y-96118216D01*
X154315396Y-96103780D01*
X154240124Y-95976501D01*
X154230484Y-95964074D01*
X154125926Y-95859516D01*
X154113499Y-95849876D01*
X153986220Y-95774604D01*
X153971784Y-95768357D01*
X153828359Y-95726688D01*
X153820391Y-95725232D01*
X153806969Y-95728052D01*
X153804000Y-95739513D01*
X153804000Y-96237885D01*
X153296000Y-96237885D01*
X153296000Y-95741576D01*
X153291656Y-95726781D01*
X153281225Y-95724937D01*
X153271641Y-95726688D01*
X153128216Y-95768357D01*
X153113780Y-95774604D01*
X152986501Y-95849876D01*
X152974074Y-95859516D01*
X152869516Y-95964074D01*
X152859876Y-95976501D01*
X152784604Y-96103780D01*
X152778357Y-96118216D01*
X152743381Y-96238605D01*
X146650500Y-96238605D01*
X146650500Y-95610252D01*
X146638867Y-95551769D01*
X146594552Y-95485448D01*
X146528231Y-95441133D01*
X146516062Y-95438712D01*
X146516061Y-95438712D01*
X146475816Y-95430707D01*
X146469748Y-95429500D01*
X144426500Y-95429500D01*
X144358379Y-95409498D01*
X144311886Y-95355842D01*
X144300500Y-95303500D01*
X144300500Y-93846724D01*
X144319946Y-93783116D01*
X144319200Y-93782754D01*
X144321522Y-93777961D01*
X144357030Y-93704672D01*
X144377795Y-93661814D01*
X144377795Y-93661813D01*
X144381710Y-93653733D01*
X144405496Y-93512354D01*
X144405647Y-93500000D01*
X144389707Y-93388692D01*
X144386596Y-93366968D01*
X144386595Y-93366965D01*
X144385323Y-93358082D01*
X144384964Y-93357293D01*
X144385038Y-93290378D01*
X144423488Y-93230695D01*
X144488102Y-93201274D01*
X144505895Y-93200011D01*
X145781428Y-93200011D01*
X145849549Y-93220013D01*
X145870523Y-93236916D01*
X147391132Y-94757525D01*
X147422313Y-94810882D01*
X147422980Y-94815979D01*
X147426595Y-94824195D01*
X147426596Y-94824198D01*
X147443478Y-94862564D01*
X147480720Y-94947203D01*
X147486497Y-94954076D01*
X147486498Y-94954077D01*
X147533633Y-95010151D01*
X147572970Y-95056948D01*
X147692313Y-95136390D01*
X147829157Y-95179142D01*
X147838129Y-95179306D01*
X147838132Y-95179307D01*
X147903463Y-95180504D01*
X147972499Y-95181770D01*
X147981533Y-95179307D01*
X148102158Y-95146421D01*
X148102160Y-95146420D01*
X148110817Y-95144060D01*
X148232991Y-95069045D01*
X148239012Y-95062393D01*
X148239018Y-95062388D01*
X148277906Y-95019425D01*
X148338449Y-94982343D01*
X148409429Y-94983881D01*
X148452632Y-95010151D01*
X148452774Y-95009948D01*
X148455922Y-95012152D01*
X148460416Y-95014885D01*
X148469596Y-95024065D01*
X148479588Y-95028725D01*
X148479589Y-95028725D01*
X148565779Y-95068916D01*
X148576827Y-95074068D01*
X148625684Y-95080500D01*
X148974316Y-95080500D01*
X149023173Y-95074068D01*
X149034222Y-95068916D01*
X149120411Y-95028725D01*
X149120412Y-95028725D01*
X149130404Y-95024065D01*
X149214065Y-94940404D01*
X149214753Y-94941092D01*
X149262247Y-94903131D01*
X149332867Y-94895823D01*
X149396226Y-94927856D01*
X149404579Y-94937496D01*
X149405935Y-94940404D01*
X149489596Y-95024065D01*
X149499588Y-95028725D01*
X149499589Y-95028725D01*
X149585779Y-95068916D01*
X149596827Y-95074068D01*
X149645684Y-95080500D01*
X149994316Y-95080500D01*
X150043173Y-95074068D01*
X150054222Y-95068916D01*
X150140411Y-95028725D01*
X150140412Y-95028725D01*
X150150404Y-95024065D01*
X150177064Y-94997405D01*
X150239376Y-94963379D01*
X150266159Y-94960500D01*
X150393841Y-94960500D01*
X150461962Y-94980502D01*
X150482936Y-94997405D01*
X150519596Y-95034065D01*
X150529588Y-95038725D01*
X150529589Y-95038725D01*
X150618022Y-95079962D01*
X150626827Y-95084068D01*
X150675684Y-95090500D01*
X151024316Y-95090500D01*
X151073173Y-95084068D01*
X151075580Y-95082946D01*
X151142806Y-95083080D01*
X151202455Y-95121583D01*
X151215519Y-95139766D01*
X151218852Y-95145402D01*
X151228503Y-95157843D01*
X151332159Y-95261499D01*
X151344595Y-95271146D01*
X151470778Y-95345770D01*
X151485217Y-95352019D01*
X151598605Y-95384961D01*
X151612705Y-95384921D01*
X151616000Y-95377651D01*
X151616000Y-95371900D01*
X152124000Y-95371900D01*
X152127973Y-95385431D01*
X152135871Y-95386566D01*
X152254783Y-95352019D01*
X152269222Y-95345770D01*
X152395405Y-95271146D01*
X152407841Y-95261499D01*
X152511499Y-95157841D01*
X152521146Y-95145405D01*
X152595770Y-95019222D01*
X152602019Y-95004783D01*
X152643338Y-94862564D01*
X152645637Y-94849977D01*
X152646260Y-94842057D01*
X152643090Y-94826970D01*
X152631626Y-94824000D01*
X152142115Y-94824000D01*
X152126876Y-94828475D01*
X152125671Y-94829865D01*
X152124000Y-94837548D01*
X152124000Y-95371900D01*
X151616000Y-95371900D01*
X151616000Y-94442000D01*
X151636002Y-94373879D01*
X151689658Y-94327386D01*
X151742000Y-94316000D01*
X152629566Y-94316000D01*
X152644361Y-94311656D01*
X152649216Y-94284185D01*
X152650808Y-94284466D01*
X152661321Y-94234410D01*
X152711161Y-94183848D01*
X152772339Y-94167999D01*
X152954669Y-94167999D01*
X152961490Y-94167629D01*
X153012352Y-94162105D01*
X153027604Y-94158479D01*
X153148054Y-94113324D01*
X153163649Y-94104786D01*
X153265724Y-94028285D01*
X153278285Y-94015724D01*
X153354786Y-93913649D01*
X153363324Y-93898054D01*
X153408478Y-93777606D01*
X153412105Y-93762351D01*
X153417631Y-93711486D01*
X153418000Y-93704672D01*
X153418000Y-93107115D01*
X153413525Y-93091876D01*
X153412135Y-93090671D01*
X153404452Y-93089000D01*
X152132000Y-93089000D01*
X152063879Y-93068998D01*
X152017386Y-93015342D01*
X152006000Y-92963000D01*
X152006000Y-92562885D01*
X152514000Y-92562885D01*
X152518475Y-92578124D01*
X152519865Y-92579329D01*
X152527548Y-92581000D01*
X153399884Y-92581000D01*
X153415123Y-92576525D01*
X153416328Y-92575135D01*
X153417999Y-92567452D01*
X153417999Y-92052026D01*
X153438001Y-91983905D01*
X153468434Y-91951200D01*
X153565724Y-91878285D01*
X153578285Y-91865724D01*
X153654786Y-91763649D01*
X153663324Y-91748054D01*
X153708478Y-91627606D01*
X153712105Y-91612351D01*
X153717631Y-91561486D01*
X153718000Y-91554672D01*
X153718000Y-91282115D01*
X153713525Y-91266876D01*
X153712135Y-91265671D01*
X153704452Y-91264000D01*
X152532115Y-91264000D01*
X152516876Y-91268475D01*
X152515671Y-91269865D01*
X152514000Y-91277548D01*
X152514000Y-92562885D01*
X152006000Y-92562885D01*
X152006000Y-90737885D01*
X152514000Y-90737885D01*
X152518475Y-90753124D01*
X152519865Y-90754329D01*
X152527548Y-90756000D01*
X153699884Y-90756000D01*
X153715123Y-90751525D01*
X153716328Y-90750135D01*
X153717999Y-90742452D01*
X153717999Y-90465331D01*
X153717629Y-90458510D01*
X153712105Y-90407648D01*
X153708479Y-90392396D01*
X153663324Y-90271946D01*
X153654786Y-90256351D01*
X153578285Y-90154276D01*
X153565724Y-90141715D01*
X153463649Y-90065214D01*
X153448054Y-90056676D01*
X153327606Y-90011522D01*
X153312351Y-90007895D01*
X153261486Y-90002369D01*
X153254672Y-90002000D01*
X152532115Y-90002000D01*
X152516876Y-90006475D01*
X152515671Y-90007865D01*
X152514000Y-90015548D01*
X152514000Y-90737885D01*
X152006000Y-90737885D01*
X152006000Y-90020116D01*
X152001525Y-90004877D01*
X152000135Y-90003672D01*
X151992452Y-90002001D01*
X151265331Y-90002001D01*
X151258510Y-90002371D01*
X151207648Y-90007895D01*
X151192396Y-90011521D01*
X151071946Y-90056676D01*
X151056351Y-90065214D01*
X150954276Y-90141715D01*
X150941715Y-90154276D01*
X150891458Y-90221334D01*
X150834599Y-90263849D01*
X150763781Y-90268875D01*
X150701487Y-90234815D01*
X150689806Y-90221334D01*
X150658286Y-90179277D01*
X150645724Y-90166715D01*
X150540935Y-90088180D01*
X150498420Y-90031321D01*
X150490500Y-89987354D01*
X150490500Y-89865252D01*
X150479426Y-89809579D01*
X150479426Y-89760421D01*
X150490500Y-89704748D01*
X150490500Y-89215252D01*
X150479426Y-89159579D01*
X150479426Y-89110421D01*
X150490500Y-89054748D01*
X150490500Y-88577548D01*
X150802000Y-88577548D01*
X150802001Y-89254669D01*
X150802371Y-89261490D01*
X150807895Y-89312352D01*
X150811521Y-89327604D01*
X150856676Y-89448054D01*
X150865214Y-89463649D01*
X150941715Y-89565724D01*
X150954276Y-89578285D01*
X151056351Y-89654786D01*
X151071946Y-89663324D01*
X151192394Y-89708478D01*
X151207649Y-89712105D01*
X151258514Y-89717631D01*
X151265328Y-89718000D01*
X151987885Y-89718000D01*
X152003124Y-89713525D01*
X152004329Y-89712135D01*
X152006000Y-89704452D01*
X152006000Y-89699884D01*
X152514000Y-89699884D01*
X152518475Y-89715123D01*
X152519865Y-89716328D01*
X152527548Y-89717999D01*
X153254669Y-89717999D01*
X153261490Y-89717629D01*
X153312352Y-89712105D01*
X153327604Y-89708479D01*
X153448054Y-89663324D01*
X153463649Y-89654786D01*
X153565724Y-89578285D01*
X153578285Y-89565724D01*
X153654786Y-89463649D01*
X153663324Y-89448054D01*
X153708478Y-89327606D01*
X153712105Y-89312351D01*
X153717631Y-89261486D01*
X153718000Y-89254672D01*
X153718000Y-88582115D01*
X153713525Y-88566876D01*
X153712135Y-88565671D01*
X153704452Y-88564000D01*
X152532115Y-88564000D01*
X152516876Y-88568475D01*
X152515671Y-88569865D01*
X152514000Y-88577548D01*
X152514000Y-89699884D01*
X152006000Y-89699884D01*
X152006000Y-88582115D01*
X152001525Y-88566876D01*
X152000135Y-88565671D01*
X151992452Y-88564000D01*
X150820115Y-88564000D01*
X150804876Y-88568475D01*
X150803671Y-88569865D01*
X150802000Y-88577548D01*
X150490500Y-88577548D01*
X150490500Y-88565252D01*
X150479426Y-88509579D01*
X150479426Y-88460421D01*
X150490500Y-88404748D01*
X150490500Y-88303461D01*
X150510502Y-88235340D01*
X150564158Y-88188847D01*
X150572270Y-88185479D01*
X150698061Y-88138321D01*
X150713641Y-88129792D01*
X150762000Y-88093548D01*
X150762451Y-88094150D01*
X150802718Y-88063970D01*
X150846818Y-88056000D01*
X151987885Y-88056000D01*
X152003124Y-88051525D01*
X152004329Y-88050135D01*
X152006000Y-88042452D01*
X152006000Y-88037885D01*
X152514000Y-88037885D01*
X152518475Y-88053124D01*
X152519865Y-88054329D01*
X152527548Y-88056000D01*
X153699884Y-88056000D01*
X153715123Y-88051525D01*
X153716328Y-88050135D01*
X153717999Y-88042452D01*
X153717999Y-87365331D01*
X153717629Y-87358510D01*
X153712105Y-87307648D01*
X153708479Y-87292396D01*
X153663324Y-87171946D01*
X153654786Y-87156351D01*
X153578285Y-87054276D01*
X153565724Y-87041715D01*
X153468435Y-86968801D01*
X153425920Y-86911942D01*
X153418000Y-86867975D01*
X153418000Y-86357115D01*
X153413525Y-86341876D01*
X153412135Y-86340671D01*
X153404452Y-86339000D01*
X152532115Y-86339000D01*
X152516876Y-86343475D01*
X152515671Y-86344865D01*
X152514000Y-86352548D01*
X152514000Y-88037885D01*
X152006000Y-88037885D01*
X152006000Y-85957000D01*
X152026002Y-85888879D01*
X152079658Y-85842386D01*
X152132000Y-85831000D01*
X153399884Y-85831000D01*
X153415123Y-85826525D01*
X153416328Y-85825135D01*
X153417999Y-85817452D01*
X153417999Y-85496000D01*
X153438001Y-85427879D01*
X153491657Y-85381386D01*
X153543999Y-85370000D01*
X154674000Y-85370000D01*
X154742121Y-85390002D01*
G37*
%TD.AperFunction*%
%TA.AperFunction,Conductor*%
G36*
X138571457Y-94880502D02*
G01*
X138593063Y-94898040D01*
X138617581Y-94922909D01*
X138629513Y-94926000D01*
X139528000Y-94926000D01*
X139596121Y-94946002D01*
X139642614Y-94999658D01*
X139654000Y-95052000D01*
X139654000Y-95308000D01*
X139633998Y-95376121D01*
X139580342Y-95422614D01*
X139528000Y-95434000D01*
X138631576Y-95434000D01*
X138616781Y-95438344D01*
X138614937Y-95448775D01*
X138616688Y-95458359D01*
X138658357Y-95601784D01*
X138664605Y-95616222D01*
X138678289Y-95639360D01*
X138695749Y-95708176D01*
X138673233Y-95775508D01*
X138617889Y-95819977D01*
X138569836Y-95829500D01*
X138065323Y-95829500D01*
X137997202Y-95809498D01*
X137967680Y-95783135D01*
X137912910Y-95715980D01*
X137912907Y-95715977D01*
X137909011Y-95711200D01*
X137904264Y-95707273D01*
X137904261Y-95707270D01*
X137772820Y-95598532D01*
X137733082Y-95539699D01*
X137731461Y-95468721D01*
X137764040Y-95412353D01*
X138278987Y-94897405D01*
X138341300Y-94863380D01*
X138368083Y-94860500D01*
X138503336Y-94860500D01*
X138571457Y-94880502D01*
G37*
%TD.AperFunction*%
%TA.AperFunction,Conductor*%
G36*
X150780121Y-90555002D02*
G01*
X150826614Y-90608658D01*
X150838000Y-90661000D01*
X150838000Y-90859000D01*
X150817998Y-90927121D01*
X150764342Y-90973614D01*
X150712000Y-90985000D01*
X149957115Y-90985000D01*
X149941876Y-90989475D01*
X149940671Y-90990865D01*
X149939000Y-90998548D01*
X149939000Y-93149884D01*
X149943475Y-93165123D01*
X149944865Y-93166328D01*
X149952548Y-93167999D01*
X150504669Y-93167999D01*
X150511490Y-93167629D01*
X150562352Y-93162105D01*
X150577604Y-93158479D01*
X150698056Y-93113323D01*
X150707118Y-93108362D01*
X150711333Y-93107440D01*
X150716603Y-93102572D01*
X150815724Y-93028285D01*
X150828285Y-93015724D01*
X150875175Y-92953159D01*
X150932034Y-92910644D01*
X151002853Y-92905618D01*
X151065146Y-92939678D01*
X151099136Y-93002009D01*
X151102001Y-93028724D01*
X151102001Y-93133812D01*
X151081999Y-93201933D01*
X151028343Y-93248426D01*
X151010626Y-93254961D01*
X150936968Y-93276013D01*
X150893529Y-93288428D01*
X150859402Y-93309961D01*
X150851356Y-93312250D01*
X150834864Y-93325443D01*
X150772280Y-93364930D01*
X150677377Y-93472388D01*
X150616447Y-93602163D01*
X150612283Y-93628908D01*
X150610787Y-93638515D01*
X150580543Y-93702748D01*
X150575382Y-93708225D01*
X150544516Y-93739091D01*
X150544513Y-93739095D01*
X150521950Y-93761658D01*
X150517446Y-93770498D01*
X150511965Y-93781255D01*
X150501639Y-93798107D01*
X150488704Y-93815910D01*
X150481907Y-93836830D01*
X150474341Y-93855094D01*
X150468856Y-93865859D01*
X150468855Y-93865863D01*
X150464354Y-93874696D01*
X150462803Y-93884487D01*
X150462803Y-93884488D01*
X150460913Y-93896422D01*
X150456297Y-93915647D01*
X150452565Y-93927132D01*
X150452564Y-93927136D01*
X150449500Y-93936567D01*
X150449500Y-94033500D01*
X150429498Y-94101621D01*
X150375842Y-94148114D01*
X150323500Y-94159500D01*
X150266159Y-94159500D01*
X150198038Y-94139498D01*
X150177064Y-94122595D01*
X150150404Y-94095935D01*
X150043173Y-94045932D01*
X149994316Y-94039500D01*
X149645684Y-94039500D01*
X149596827Y-94045932D01*
X149489596Y-94095935D01*
X149405935Y-94179596D01*
X149405247Y-94178908D01*
X149357753Y-94216869D01*
X149287133Y-94224177D01*
X149223774Y-94192144D01*
X149215421Y-94182504D01*
X149214065Y-94179596D01*
X149130404Y-94095935D01*
X149023173Y-94045932D01*
X149013614Y-94044674D01*
X149004362Y-94041977D01*
X149005279Y-94038832D01*
X148955624Y-94016871D01*
X148916527Y-93957609D01*
X148910989Y-93920664D01*
X148910989Y-93294000D01*
X148930991Y-93225879D01*
X148984647Y-93179386D01*
X149036989Y-93168000D01*
X149412885Y-93168000D01*
X149428124Y-93163525D01*
X149429329Y-93162135D01*
X149431000Y-93154452D01*
X149431000Y-91551115D01*
X149426526Y-91535876D01*
X149418488Y-91528912D01*
X149380104Y-91469186D01*
X149375000Y-91433687D01*
X149375000Y-90661500D01*
X149395002Y-90593379D01*
X149448658Y-90546886D01*
X149501000Y-90535500D01*
X150309748Y-90535500D01*
X150311422Y-90535167D01*
X150314826Y-90535000D01*
X150712000Y-90535000D01*
X150780121Y-90555002D01*
G37*
%TD.AperFunction*%
%TA.AperFunction,Conductor*%
G36*
X139256121Y-92190982D02*
G01*
X139302614Y-92244638D01*
X139314000Y-92296980D01*
X139314000Y-92618000D01*
X139293998Y-92686121D01*
X139240342Y-92732614D01*
X139188000Y-92744000D01*
X138932000Y-92744000D01*
X138863879Y-92723998D01*
X138817386Y-92670342D01*
X138806000Y-92618000D01*
X138806000Y-92296980D01*
X138826002Y-92228859D01*
X138879658Y-92182366D01*
X138932000Y-92170980D01*
X139188000Y-92170980D01*
X139256121Y-92190982D01*
G37*
%TD.AperFunction*%
%TA.AperFunction,Conductor*%
G36*
X142446121Y-90096002D02*
G01*
X142492614Y-90149658D01*
X142504000Y-90202000D01*
X142504000Y-91819884D01*
X142508475Y-91835123D01*
X142509865Y-91836328D01*
X142517548Y-91837999D01*
X143044669Y-91837999D01*
X143051490Y-91837629D01*
X143102352Y-91832105D01*
X143117604Y-91828479D01*
X143238060Y-91783322D01*
X143259681Y-91771484D01*
X143329038Y-91756314D01*
X143395586Y-91781049D01*
X143438197Y-91837837D01*
X143443342Y-91908647D01*
X143434247Y-91935549D01*
X143426447Y-91952163D01*
X143425066Y-91961035D01*
X143410899Y-92052026D01*
X143404391Y-92093823D01*
X143405555Y-92102725D01*
X143405555Y-92102728D01*
X143407760Y-92119589D01*
X143422980Y-92235979D01*
X143425157Y-92240927D01*
X143424234Y-92310118D01*
X143385057Y-92369327D01*
X143320089Y-92397957D01*
X143303822Y-92399011D01*
X142388571Y-92399011D01*
X142320450Y-92379009D01*
X142299476Y-92362106D01*
X141971499Y-92034129D01*
X141937473Y-91971817D01*
X141942538Y-91901002D01*
X141970851Y-91863180D01*
X141968896Y-91861486D01*
X141994329Y-91832135D01*
X141996000Y-91824452D01*
X141996000Y-90202000D01*
X142016002Y-90133879D01*
X142069658Y-90087386D01*
X142122000Y-90076000D01*
X142378000Y-90076000D01*
X142446121Y-90096002D01*
G37*
%TD.AperFunction*%
%TA.AperFunction,Conductor*%
G36*
X138709012Y-85965859D02*
G01*
X138715595Y-85971988D01*
X139512596Y-86768989D01*
X139546622Y-86831301D01*
X139549501Y-86858084D01*
X139549501Y-86929900D01*
X139550039Y-86933988D01*
X139550300Y-86937969D01*
X139534796Y-87007252D01*
X139501797Y-87045769D01*
X139484071Y-87059519D01*
X139379516Y-87164074D01*
X139369876Y-87176501D01*
X139294604Y-87303780D01*
X139288357Y-87318216D01*
X139246688Y-87461641D01*
X139244384Y-87474253D01*
X139243227Y-87488954D01*
X139217942Y-87555296D01*
X139160803Y-87597435D01*
X139152244Y-87600215D01*
X139053529Y-87628428D01*
X138932280Y-87704930D01*
X138837377Y-87812388D01*
X138776447Y-87942163D01*
X138774171Y-87956782D01*
X138755841Y-88074513D01*
X138754391Y-88083823D01*
X138755555Y-88092725D01*
X138755555Y-88092728D01*
X138759585Y-88123544D01*
X138772980Y-88225979D01*
X138830720Y-88357203D01*
X138836497Y-88364076D01*
X138836498Y-88364077D01*
X138917190Y-88460072D01*
X138922970Y-88466948D01*
X139042313Y-88546390D01*
X139050885Y-88549068D01*
X139050887Y-88549069D01*
X139083271Y-88559186D01*
X139169329Y-88586072D01*
X139220850Y-88617243D01*
X139289091Y-88685484D01*
X139289095Y-88685487D01*
X139311658Y-88708050D01*
X139320498Y-88712554D01*
X139331255Y-88718035D01*
X139348107Y-88728361D01*
X139365910Y-88741296D01*
X139386834Y-88748095D01*
X139405083Y-88755653D01*
X139409875Y-88758094D01*
X139461495Y-88806837D01*
X139478569Y-88875750D01*
X139475775Y-88892058D01*
X139476447Y-88892163D01*
X139464764Y-88967203D01*
X139454391Y-89033823D01*
X139455555Y-89042725D01*
X139455555Y-89042728D01*
X139472936Y-89175643D01*
X139474000Y-89191980D01*
X139474000Y-89973885D01*
X139478896Y-89990559D01*
X139484000Y-90026057D01*
X139484000Y-91243980D01*
X139463998Y-91312101D01*
X139410342Y-91358594D01*
X139358000Y-91369980D01*
X139102000Y-91369980D01*
X139033879Y-91349978D01*
X138987386Y-91296322D01*
X138976000Y-91243980D01*
X138976000Y-91122115D01*
X138971525Y-91106876D01*
X138970135Y-91105671D01*
X138962452Y-91104000D01*
X138461576Y-91104000D01*
X138446781Y-91108344D01*
X138444937Y-91118775D01*
X138446688Y-91128359D01*
X138488357Y-91271784D01*
X138497753Y-91293497D01*
X138495668Y-91294399D01*
X138510291Y-91352047D01*
X138487770Y-91419377D01*
X138465212Y-91442389D01*
X138465253Y-91442430D01*
X138442690Y-91464993D01*
X138442686Y-91464996D01*
X137975087Y-91932595D01*
X137912775Y-91966621D01*
X137885992Y-91969500D01*
X137865684Y-91969500D01*
X137816827Y-91975932D01*
X137709596Y-92025935D01*
X137682936Y-92052595D01*
X137620624Y-92086621D01*
X137593841Y-92089500D01*
X137546159Y-92089500D01*
X137478038Y-92069498D01*
X137457064Y-92052595D01*
X137430404Y-92025935D01*
X137337151Y-91982450D01*
X137283867Y-91935534D01*
X137264406Y-91867257D01*
X137284948Y-91799297D01*
X137301307Y-91779161D01*
X138405483Y-90674984D01*
X138428050Y-90652417D01*
X138430944Y-90646737D01*
X138485611Y-90604584D01*
X138531322Y-90596000D01*
X138947885Y-90596000D01*
X138963124Y-90591525D01*
X138964329Y-90590135D01*
X138966000Y-90582452D01*
X138966000Y-89076442D01*
X138962027Y-89062911D01*
X138954129Y-89061776D01*
X138828216Y-89098357D01*
X138813780Y-89104604D01*
X138690639Y-89177429D01*
X138621823Y-89194888D01*
X138554491Y-89172371D01*
X138510022Y-89117027D01*
X138500500Y-89068975D01*
X138500500Y-86061083D01*
X138520502Y-85992962D01*
X138574158Y-85946469D01*
X138644432Y-85936365D01*
X138709012Y-85965859D01*
G37*
%TD.AperFunction*%
%TA.AperFunction,Conductor*%
G36*
X139272121Y-80110002D02*
G01*
X139318614Y-80163658D01*
X139330000Y-80216000D01*
X139330000Y-81245303D01*
X139309998Y-81313424D01*
X139256342Y-81359917D01*
X139186068Y-81370021D01*
X139116869Y-81336321D01*
X139069169Y-81290658D01*
X139059804Y-81283262D01*
X138892259Y-81175079D01*
X138881655Y-81169583D01*
X138696688Y-81095039D01*
X138685230Y-81091645D01*
X138488072Y-81053143D01*
X138479209Y-81052066D01*
X138476500Y-81052000D01*
X138372115Y-81052000D01*
X138356876Y-81056475D01*
X138355671Y-81057865D01*
X138354000Y-81065548D01*
X138354000Y-82288000D01*
X138333998Y-82356121D01*
X138280342Y-82402614D01*
X138228000Y-82414000D01*
X136764598Y-82414000D01*
X136751067Y-82417973D01*
X136749712Y-82427399D01*
X136771194Y-82516537D01*
X136775083Y-82527832D01*
X136857629Y-82709382D01*
X136863576Y-82719724D01*
X136978968Y-82882397D01*
X136986761Y-82891425D01*
X137130831Y-83029342D01*
X137140196Y-83036738D01*
X137307741Y-83144921D01*
X137318341Y-83150415D01*
X137322628Y-83152143D01*
X137378333Y-83196160D01*
X137401397Y-83263306D01*
X137384498Y-83332262D01*
X137333001Y-83381136D01*
X137317278Y-83387889D01*
X137261816Y-83407366D01*
X137254246Y-83412958D01*
X137254243Y-83412959D01*
X137169794Y-83475335D01*
X137152850Y-83487850D01*
X137147258Y-83495421D01*
X137077959Y-83589243D01*
X137077958Y-83589246D01*
X137072366Y-83596816D01*
X137027481Y-83724631D01*
X137024500Y-83756166D01*
X137024500Y-84563834D01*
X137027481Y-84595369D01*
X137072366Y-84723184D01*
X137077958Y-84730754D01*
X137077959Y-84730757D01*
X137140335Y-84815206D01*
X137152850Y-84832150D01*
X137160421Y-84837742D01*
X137254243Y-84907041D01*
X137254246Y-84907042D01*
X137261816Y-84912634D01*
X137389631Y-84957519D01*
X137397277Y-84958242D01*
X137397278Y-84958242D01*
X137403248Y-84958806D01*
X137421166Y-84960500D01*
X137573500Y-84960500D01*
X137641621Y-84980502D01*
X137688114Y-85034158D01*
X137699500Y-85086500D01*
X137699500Y-90195993D01*
X137679498Y-90264114D01*
X137662595Y-90285088D01*
X137420689Y-90526994D01*
X137358377Y-90561020D01*
X137287562Y-90555955D01*
X137230726Y-90513408D01*
X137205915Y-90446888D01*
X137206284Y-90424734D01*
X137210460Y-90385000D01*
X137194675Y-90234815D01*
X137191364Y-90203307D01*
X137191364Y-90203305D01*
X137190674Y-90196744D01*
X137132179Y-90016716D01*
X137126267Y-90006475D01*
X137040836Y-89858505D01*
X137037533Y-89852784D01*
X136976500Y-89785000D01*
X136915286Y-89717015D01*
X136915284Y-89717014D01*
X136910871Y-89712112D01*
X136757730Y-89600849D01*
X136584803Y-89523856D01*
X136486788Y-89503022D01*
X136406103Y-89485872D01*
X136406099Y-89485872D01*
X136399646Y-89484500D01*
X136210354Y-89484500D01*
X136203901Y-89485872D01*
X136203897Y-89485872D01*
X136123212Y-89503022D01*
X136025197Y-89523856D01*
X135852270Y-89600849D01*
X135699129Y-89712112D01*
X135694716Y-89717014D01*
X135694714Y-89717015D01*
X135633500Y-89785000D01*
X135572467Y-89852784D01*
X135569164Y-89858505D01*
X135483734Y-90006475D01*
X135477821Y-90016716D01*
X135475779Y-90023001D01*
X135445833Y-90115164D01*
X135405759Y-90173770D01*
X135340363Y-90201407D01*
X135270406Y-90189300D01*
X135218100Y-90141294D01*
X135200000Y-90076228D01*
X135200000Y-88153772D01*
X135220002Y-88085651D01*
X135273658Y-88039158D01*
X135343932Y-88029054D01*
X135408512Y-88058548D01*
X135445833Y-88114836D01*
X135450693Y-88129792D01*
X135477821Y-88213284D01*
X135481124Y-88219006D01*
X135481125Y-88219007D01*
X135527944Y-88300100D01*
X135572467Y-88377216D01*
X135576885Y-88382123D01*
X135576886Y-88382124D01*
X135657744Y-88471925D01*
X135699129Y-88517888D01*
X135704468Y-88521767D01*
X135731509Y-88541413D01*
X135852270Y-88629151D01*
X136025197Y-88706144D01*
X136123212Y-88726978D01*
X136203897Y-88744128D01*
X136203901Y-88744128D01*
X136210354Y-88745500D01*
X136399646Y-88745500D01*
X136406099Y-88744128D01*
X136406103Y-88744128D01*
X136486788Y-88726978D01*
X136584803Y-88706144D01*
X136757730Y-88629151D01*
X136878492Y-88541413D01*
X136905532Y-88521767D01*
X136910871Y-88517888D01*
X136952257Y-88471925D01*
X137033114Y-88382124D01*
X137033115Y-88382123D01*
X137037533Y-88377216D01*
X137082056Y-88300100D01*
X137128875Y-88219007D01*
X137128876Y-88219006D01*
X137132179Y-88213284D01*
X137190674Y-88033256D01*
X137192204Y-88018704D01*
X137209770Y-87851565D01*
X137210460Y-87845000D01*
X137206151Y-87804000D01*
X137191364Y-87663307D01*
X137191364Y-87663305D01*
X137190674Y-87656744D01*
X137132179Y-87476716D01*
X137123476Y-87461641D01*
X137044682Y-87325166D01*
X137037533Y-87312784D01*
X137009866Y-87282057D01*
X136915286Y-87177015D01*
X136915284Y-87177014D01*
X136910871Y-87172112D01*
X136757730Y-87060849D01*
X136584803Y-86983856D01*
X136486788Y-86963022D01*
X136406103Y-86945872D01*
X136406099Y-86945872D01*
X136399646Y-86944500D01*
X136210354Y-86944500D01*
X136203901Y-86945872D01*
X136203897Y-86945872D01*
X136123212Y-86963022D01*
X136025197Y-86983856D01*
X135852270Y-87060849D01*
X135699129Y-87172112D01*
X135694716Y-87177014D01*
X135694714Y-87177015D01*
X135600134Y-87282057D01*
X135572467Y-87312784D01*
X135565318Y-87325166D01*
X135486525Y-87461641D01*
X135477821Y-87476716D01*
X135475779Y-87483001D01*
X135445833Y-87575164D01*
X135405759Y-87633770D01*
X135340363Y-87661407D01*
X135270406Y-87649300D01*
X135218100Y-87601294D01*
X135200000Y-87536228D01*
X135200000Y-81891716D01*
X136745352Y-81891716D01*
X136746820Y-81902008D01*
X136760385Y-81906000D01*
X137827885Y-81906000D01*
X137843124Y-81901525D01*
X137844329Y-81900135D01*
X137846000Y-81892452D01*
X137846000Y-81070115D01*
X137841525Y-81054876D01*
X137840135Y-81053671D01*
X137832452Y-81052000D01*
X137775168Y-81052000D01*
X137769192Y-81052285D01*
X137620506Y-81066471D01*
X137608772Y-81068730D01*
X137417401Y-81124872D01*
X137406325Y-81129302D01*
X137229022Y-81220619D01*
X137218976Y-81227069D01*
X137062143Y-81350262D01*
X137053494Y-81358499D01*
X136922788Y-81509123D01*
X136915853Y-81518847D01*
X136815990Y-81691467D01*
X136811016Y-81702331D01*
X136745593Y-81890727D01*
X136745352Y-81891716D01*
X135200000Y-81891716D01*
X135200000Y-80216000D01*
X135220002Y-80147879D01*
X135273658Y-80101386D01*
X135326000Y-80090000D01*
X139204000Y-80090000D01*
X139272121Y-80110002D01*
G37*
%TD.AperFunction*%
%TA.AperFunction,Conductor*%
G36*
X142867475Y-87298406D02*
G01*
X142870793Y-87300816D01*
X142891714Y-87307614D01*
X142909974Y-87315178D01*
X142920741Y-87320664D01*
X142920745Y-87320665D01*
X142929578Y-87325166D01*
X142939369Y-87326717D01*
X142939370Y-87326717D01*
X142951304Y-87328607D01*
X142970529Y-87333223D01*
X142982014Y-87336955D01*
X142982018Y-87336956D01*
X142991449Y-87340020D01*
X144598551Y-87340020D01*
X144607982Y-87336956D01*
X144607986Y-87336955D01*
X144619471Y-87333223D01*
X144638696Y-87328607D01*
X144650630Y-87326717D01*
X144650631Y-87326717D01*
X144660422Y-87325166D01*
X144669255Y-87320665D01*
X144669259Y-87320664D01*
X144680024Y-87315179D01*
X144698288Y-87307614D01*
X144715048Y-87302168D01*
X144753986Y-87296000D01*
X145438000Y-87296000D01*
X145506121Y-87316002D01*
X145552614Y-87369658D01*
X145564000Y-87422000D01*
X145564000Y-87678000D01*
X145543998Y-87746121D01*
X145490342Y-87792614D01*
X145438000Y-87804000D01*
X144669450Y-87804000D01*
X144601329Y-87783998D01*
X144580432Y-87767173D01*
X144521221Y-87708065D01*
X144521220Y-87708065D01*
X144513850Y-87700707D01*
X144409018Y-87649464D01*
X144378527Y-87645016D01*
X144345244Y-87640160D01*
X144345240Y-87640160D01*
X144340718Y-87639500D01*
X143249282Y-87639500D01*
X143244732Y-87640170D01*
X143244729Y-87640170D01*
X143190074Y-87648216D01*
X143190073Y-87648216D01*
X143180388Y-87649642D01*
X143152556Y-87663307D01*
X143084993Y-87696478D01*
X143084991Y-87696479D01*
X143075645Y-87701068D01*
X142993207Y-87783650D01*
X142988634Y-87793006D01*
X142988633Y-87793007D01*
X142976626Y-87817572D01*
X142941964Y-87888482D01*
X142932000Y-87956782D01*
X142932000Y-88092695D01*
X142911998Y-88160816D01*
X142858342Y-88207309D01*
X142788068Y-88217413D01*
X142769901Y-88213413D01*
X142759655Y-88210349D01*
X142743191Y-88205425D01*
X142690196Y-88173803D01*
X142498818Y-87982425D01*
X142464792Y-87920113D01*
X142469857Y-87849298D01*
X142498818Y-87804235D01*
X142550949Y-87752104D01*
X142560589Y-87739678D01*
X142637148Y-87610221D01*
X142643393Y-87595790D01*
X142685769Y-87449935D01*
X142688070Y-87437333D01*
X142690307Y-87408915D01*
X142690352Y-87407757D01*
X142690412Y-87407580D01*
X142690500Y-87406457D01*
X142690782Y-87406479D01*
X142713011Y-87340473D01*
X142768448Y-87296121D01*
X142839065Y-87288781D01*
X142867475Y-87298406D01*
G37*
%TD.AperFunction*%
%TA.AperFunction,Conductor*%
G36*
X141716121Y-86956002D02*
G01*
X141762614Y-87009658D01*
X141774000Y-87062000D01*
X141774000Y-87318000D01*
X141753998Y-87386121D01*
X141700342Y-87432614D01*
X141648000Y-87444000D01*
X140435500Y-87444000D01*
X140367379Y-87423998D01*
X140320886Y-87370342D01*
X140309500Y-87318000D01*
X140309500Y-87308900D01*
X140329502Y-87240779D01*
X140382250Y-87194705D01*
X140418323Y-87177884D01*
X140418324Y-87177883D01*
X140428316Y-87173224D01*
X140513224Y-87088316D01*
X140550327Y-87008749D01*
X140597243Y-86955465D01*
X140664521Y-86936000D01*
X141648000Y-86936000D01*
X141716121Y-86956002D01*
G37*
%TD.AperFunction*%
%TA.AperFunction,Conductor*%
G36*
X151044121Y-85390002D02*
G01*
X151090614Y-85443658D01*
X151102000Y-85496000D01*
X151102000Y-85891275D01*
X151081998Y-85959396D01*
X151028342Y-86005889D01*
X150958068Y-86015993D01*
X150893488Y-85986499D01*
X150875174Y-85966840D01*
X150828285Y-85904276D01*
X150815724Y-85891715D01*
X150713649Y-85815214D01*
X150698054Y-85806676D01*
X150577606Y-85761522D01*
X150562351Y-85757895D01*
X150511486Y-85752369D01*
X150504672Y-85752000D01*
X149957115Y-85752000D01*
X149941876Y-85756475D01*
X149940671Y-85757865D01*
X149939000Y-85765548D01*
X149939000Y-87100500D01*
X149918998Y-87168621D01*
X149865342Y-87215114D01*
X149813000Y-87226500D01*
X148420115Y-87226500D01*
X148398501Y-87232847D01*
X148349500Y-87264337D01*
X148278503Y-87264337D01*
X148224907Y-87232536D01*
X148077674Y-87085303D01*
X148043648Y-87022991D01*
X148048713Y-86952176D01*
X148091260Y-86895340D01*
X148132787Y-86877215D01*
X148132175Y-86875109D01*
X148281784Y-86831643D01*
X148296220Y-86825396D01*
X148346408Y-86795715D01*
X148381148Y-86758509D01*
X148442258Y-86722369D01*
X148473243Y-86718500D01*
X149412885Y-86718500D01*
X149428124Y-86714025D01*
X149429329Y-86712635D01*
X149431000Y-86704952D01*
X149431000Y-85770116D01*
X149426525Y-85754877D01*
X149425135Y-85753672D01*
X149417452Y-85752001D01*
X148865331Y-85752001D01*
X148858510Y-85752371D01*
X148807648Y-85757895D01*
X148792219Y-85761563D01*
X148721319Y-85757860D01*
X148663676Y-85716413D01*
X148642078Y-85674134D01*
X148631642Y-85638214D01*
X148625396Y-85623780D01*
X148587759Y-85560139D01*
X148570300Y-85491323D01*
X148592817Y-85423991D01*
X148648162Y-85379522D01*
X148696213Y-85370000D01*
X150976000Y-85370000D01*
X151044121Y-85390002D01*
G37*
%TD.AperFunction*%
%TD*%
M02*
