M48
; DRILL file {KiCad (6.0.0)} date Fri Mar 25 10:47:25 2022
; FORMAT={-:-/ absolute / inch / decimal}
; #@! TF.CreationDate,2022-03-25T10:47:25+03:00
; #@! TF.GenerationSoftware,Kicad,Pcbnew,(6.0.0)
; #@! TF.FileFunction,Plated,1,2,PTH
FMAT,2
INCH
; #@! TA.AperFunction,Plated,PTH,ViaDrill
T1C0.0118
; #@! TA.AperFunction,Plated,PTH,ComponentDrill
T2C0.0394
%
G90
G05
T1
X7.1267Y-4.6632
X7.1342Y-4.4128
X7.2314Y-4.3585
X7.2612Y-4.7335
X7.3153Y-4.7321
X7.3189Y-4.4164
X7.3389Y-4.4365
X7.3417Y-4.351
X7.4094Y-4.7561
X7.4263Y-4.4894
X7.4503Y-4.6734
X7.5011Y-4.5564
X7.5106Y-4.8573
X7.522Y-4.6727
X7.522Y-4.7353
X7.522Y-4.7864
X7.5369Y-4.5439
X7.6251Y-4.6223
X7.6543Y-4.6639
X7.6724Y-4.7168
X7.8255Y-4.5388
X7.8649Y-4.4601
X7.8948Y-4.6636
X7.8988Y-4.7947
X7.9834Y-4.6459
X8.0031Y-4.6931
X8.0149Y-4.6223
X8.2188Y-4.6424
X8.2358Y-4.3518
X8.2495Y-4.8739
T2
X7.1566Y-4.2356
X7.1566Y-4.3356
X7.6061Y-4.714
X7.6061Y-4.814
X7.6736Y-4.4766
X7.7736Y-4.4766
X7.8227Y-4.714
X7.8227Y-4.814
X7.9653Y-4.8085
X8.0653Y-4.8085
X8.1645Y-4.3975
X8.1645Y-4.4975
X8.1645Y-4.5975
X8.1645Y-4.6975
X8.1653Y-4.8085
X8.3102Y-4.3132
X8.3102Y-4.4132
X8.3102Y-4.5132
X8.3102Y-4.6132
X8.3102Y-4.7132
X8.3102Y-4.8132
T0
M30
