M48
; DRILL file {KiCad (6.0.0)} date Fri Mar 25 10:48:29 2022
; FORMAT={-:-/ absolute / inch / decimal}
; #@! TF.CreationDate,2022-03-25T10:48:29+03:00
; #@! TF.GenerationSoftware,Kicad,Pcbnew,(6.0.0)
; #@! TF.FileFunction,Plated,1,2,PTH
FMAT,2
INCH
; #@! TA.AperFunction,Plated,PTH,ViaDrill
T1C0.0118
; #@! TA.AperFunction,Plated,PTH,ComponentDrill
T2C0.0295
; #@! TA.AperFunction,Plated,PTH,ComponentDrill
T3C0.0315
; #@! TA.AperFunction,Plated,PTH,ComponentDrill
T4C0.0394
%
G90
G05
T1
X5.337Y-3.7366
X5.3433Y-3.8972
X5.4004Y-3.361
X5.4437Y-3.7539
X5.4705Y-3.4291
X5.4827Y-3.4681
X5.5102Y-3.5055
X5.5131Y-3.6417
X5.5258Y-3.7085
X5.6039Y-3.5551
X5.6161Y-3.4921
X5.6185Y-3.4492
X5.6654Y-3.6811
X5.6657Y-3.626
X5.7185Y-3.7331
X5.8232Y-3.7276
X5.8429Y-3.4232
X5.9437Y-3.5394
X5.9488Y-3.6909
X5.9634Y-3.8138
X6.0047Y-3.8118
T2
X5.437Y-3.2346
X5.437Y-3.3134
T3
X5.3663Y-3.4585
X5.3663Y-3.5585
T4
X5.4Y-3.7974
X5.4Y-3.8974
X5.5386Y-3.9159
X5.6386Y-3.9159
X5.7386Y-3.9159
X5.8386Y-3.9159
X5.9386Y-3.9159
X6.0386Y-3.9159
T0
M30
