M48
; DRILL file {KiCad (6.0.0)} date Fri Mar 25 10:46:27 2022
; FORMAT={-:-/ absolute / inch / decimal}
; #@! TF.CreationDate,2022-03-25T10:46:27+03:00
; #@! TF.GenerationSoftware,Kicad,Pcbnew,(6.0.0)
; #@! TF.FileFunction,Plated,1,2,PTH
FMAT,2
INCH
; #@! TA.AperFunction,Plated,PTH,ViaDrill
T1C0.0118
; #@! TA.AperFunction,Plated,PTH,ViaDrill
T2C0.0157
; #@! TA.AperFunction,Plated,PTH,ComponentDrill
T3C0.0394
; #@! TA.AperFunction,Plated,PTH,ComponentDrill
T4C0.0433
; #@! TA.AperFunction,Plated,PTH,ComponentDrill
T5C0.0508
; #@! TA.AperFunction,Plated,PTH,ComponentDrill
T6C0.0512
; #@! TA.AperFunction,Plated,PTH,ComponentDrill
T7C0.0520
%
G90
G05
T1
X3.4843Y-2.8559
X3.4858Y-4.6941
X3.489Y-3.4587
X3.4917Y-4.011
X3.4969Y-2.5008
X3.9433Y-3.4236
X3.9567Y-2.8638
X4.135Y-3.2205
X4.1354Y-3.1402
X4.1374Y-2.9858
X4.1425Y-3.3075
X4.1717Y-5.2327
X4.1921Y-4.8819
X4.2673Y-2.2205
X4.3236Y-3.7264
X4.3409Y-2.9831
X4.3614Y-3.0996
X4.3626Y-3.2575
X4.4783Y-2.9283
X4.4917Y-3.2925
X4.5768Y-3.2618
X4.5839Y-4.8941
X4.6248Y-5.2287
X4.6551Y-3.0555
X4.7602Y-3.0776
X4.9079Y-2.9244
X4.9531Y-3.3335
X4.9874Y-2.2122
X5.024Y-2.9268
X5.0382Y-3.0846
X5.0461Y-3.2378
X5.0807Y-3.3358
X5.1677Y-3.287
X5.1728Y-3.0413
X5.1969Y-3.3346
X5.2067Y-3.6874
X5.2579Y-3.2886
X5.2689Y-3.0425
X5.3811Y-3.2906
X5.448Y-3.0748
X5.526Y-3.2906
X5.5996Y-3.4531
X5.6441Y-3.0783
X5.7228Y-2.2071
X5.8197Y-3.4543
X5.8894Y-3.0744
X6.1012Y-3.6594
X6.1543Y-3.078
X6.1953Y-3.2193
X6.211Y-3.4902
X6.4827Y-3.0724
X6.5799Y-3.4366
X6.6012Y-2.7744
X6.9059Y-3.665
X7.7051Y-3.6705
X7.722Y-4.6319
X7.7386Y-4.9787
X7.7732Y-2.7528
X7.7831Y-3.1669
T2
X3.8102Y-3.8165
X4.1575Y-3.5386
X4.3677Y-3.5087
X4.6744Y-3.8154
X4.802Y-3.1744
X5.548Y-3.8142
X6.1028Y-3.1744
X6.1354Y-3.289
X6.3591Y-3.3079
X6.3638Y-3.2669
X6.4079Y-3.8173
X6.6087Y-2.937
X6.6114Y-2.9839
X6.7917Y-3.0807
X6.7942Y-3.0335
X6.863Y-3.3276
X7.1661Y-3.2677
X7.2598Y-3.8197
X7.2846Y-3.1181
X7.4661Y-3.198
X7.4709Y-3.3583
T3
X7.5969Y-2.8008
X7.5969Y-2.9008
X7.5969Y-3.0008
X7.5969Y-3.1008
T4
X4.3299Y-4.663
X4.7299Y-4.663
X4.9205Y-4.663
X5.3205Y-4.663
X5.515Y-4.6669
X5.915Y-4.6669
X6.1094Y-4.663
X6.5094Y-4.663
X6.7079Y-4.663
X7.1079Y-4.663
T5
X3.6578Y-4.1529
X4.522Y-4.1512
X5.387Y-4.1497
X6.2531Y-4.1525
X7.111Y-4.1568
T6
X3.6646Y-3.0533
X3.6646Y-3.2533
X3.7041Y-2.4425
X3.9041Y-2.4425
X4.1041Y-2.4425
X4.4285Y-2.4425
X4.6285Y-2.4425
X4.8285Y-2.4425
X4.8858Y-5.0608
X5.0858Y-5.0608
X5.1575Y-2.4425
X5.2858Y-5.0608
X5.3575Y-2.4425
X5.4858Y-5.0608
X5.5575Y-2.4425
X5.6858Y-5.0608
X5.8813Y-2.4425
X5.8858Y-5.0608
X6.0813Y-2.4425
X6.0858Y-5.0608
X6.2813Y-2.4425
X6.2858Y-5.0608
X6.4858Y-5.0608
X6.6858Y-5.0608
X6.9366Y-5.06
X7.1366Y-5.06
X7.3366Y-5.06
X7.5366Y-5.06
T7
X3.7365Y-3.9166
X3.7365Y-4.3891
X4.2168Y-3.9166
X4.2168Y-4.3891
X4.6008Y-3.915
X4.6008Y-4.3874
X5.0811Y-3.915
X5.0811Y-4.3874
X5.4657Y-3.9135
X5.4657Y-4.3859
X5.9461Y-3.9135
X5.9461Y-4.3859
X6.3319Y-3.9162
X6.3319Y-4.3887
X6.8122Y-3.9162
X6.8122Y-4.3887
X7.1898Y-3.9206
X7.1898Y-4.393
X7.6701Y-3.9206
X7.6701Y-4.393
T3
G00X3.8202Y-4.7984
M15
G01X3.8989Y-4.7984
M16
G05
G00X3.8202Y-5.0346
M15
G01X3.8989Y-5.0346
M16
G05
G00X4.0446Y-4.9559
M15
G01X4.0446Y-4.8772
M16
G05
T0
M30
