%TF.GenerationSoftware,KiCad,Pcbnew,(6.0.0)*%
%TF.CreationDate,2022-03-31T09:21:52+03:00*%
%TF.ProjectId,FirePrevention,46697265-5072-4657-9665-6e74696f6e2e,rev?*%
%TF.SameCoordinates,Original*%
%TF.FileFunction,Soldermask,Top*%
%TF.FilePolarity,Negative*%
%FSLAX46Y46*%
G04 Gerber Fmt 4.6, Leading zero omitted, Abs format (unit mm)*
G04 Created by KiCad (PCBNEW (6.0.0)) date 2022-03-31 09:21:52*
%MOMM*%
%LPD*%
G01*
G04 APERTURE LIST*
G04 Aperture macros list*
%AMRoundRect*
0 Rectangle with rounded corners*
0 $1 Rounding radius*
0 $2 $3 $4 $5 $6 $7 $8 $9 X,Y pos of 4 corners*
0 Add a 4 corners polygon primitive as box body*
4,1,4,$2,$3,$4,$5,$6,$7,$8,$9,$2,$3,0*
0 Add four circle primitives for the rounded corners*
1,1,$1+$1,$2,$3*
1,1,$1+$1,$4,$5*
1,1,$1+$1,$6,$7*
1,1,$1+$1,$8,$9*
0 Add four rect primitives between the rounded corners*
20,1,$1+$1,$2,$3,$4,$5,0*
20,1,$1+$1,$4,$5,$6,$7,0*
20,1,$1+$1,$6,$7,$8,$9,0*
20,1,$1+$1,$8,$9,$2,$3,0*%
G04 Aperture macros list end*
%ADD10R,1.800000X1.800000*%
%ADD11C,1.800000*%
%ADD12R,2.000000X0.900000*%
%ADD13R,0.900000X2.000000*%
%ADD14R,5.000000X5.000000*%
%ADD15RoundRect,0.225000X0.225000X0.250000X-0.225000X0.250000X-0.225000X-0.250000X0.225000X-0.250000X0*%
%ADD16RoundRect,0.218750X0.256250X-0.218750X0.256250X0.218750X-0.256250X0.218750X-0.256250X-0.218750X0*%
%ADD17RoundRect,0.200000X-0.200000X-0.275000X0.200000X-0.275000X0.200000X0.275000X-0.200000X0.275000X0*%
%ADD18RoundRect,0.062500X0.337500X0.062500X-0.337500X0.062500X-0.337500X-0.062500X0.337500X-0.062500X0*%
%ADD19RoundRect,0.062500X0.062500X0.337500X-0.062500X0.337500X-0.062500X-0.337500X0.062500X-0.337500X0*%
%ADD20R,3.350000X3.350000*%
%ADD21RoundRect,0.225000X-0.225000X-0.250000X0.225000X-0.250000X0.225000X0.250000X-0.225000X0.250000X0*%
%ADD22R,0.750000X1.000000*%
%ADD23C,1.270000*%
%ADD24RoundRect,0.200000X0.200000X0.275000X-0.200000X0.275000X-0.200000X-0.275000X0.200000X-0.275000X0*%
%ADD25R,1.380000X0.450000*%
%ADD26R,1.300000X1.650000*%
%ADD27R,1.550000X1.425000*%
%ADD28R,1.900000X1.000000*%
%ADD29R,1.900000X1.800000*%
%ADD30R,0.700000X0.600000*%
%ADD31O,3.900000X1.950000*%
%ADD32RoundRect,0.150000X0.587500X0.150000X-0.587500X0.150000X-0.587500X-0.150000X0.587500X-0.150000X0*%
%ADD33RoundRect,0.200000X0.275000X-0.200000X0.275000X0.200000X-0.275000X0.200000X-0.275000X-0.200000X0*%
%ADD34RoundRect,0.200000X-0.275000X0.200000X-0.275000X-0.200000X0.275000X-0.200000X0.275000X0.200000X0*%
%ADD35C,3.200000*%
%ADD36RoundRect,0.250000X-0.350000X-0.625000X0.350000X-0.625000X0.350000X0.625000X-0.350000X0.625000X0*%
%ADD37O,1.200000X1.750000*%
%ADD38RoundRect,0.150000X0.150000X-0.587500X0.150000X0.587500X-0.150000X0.587500X-0.150000X-0.587500X0*%
%ADD39R,1.500000X2.000000*%
%ADD40R,3.800000X2.000000*%
%ADD41R,1.980000X1.980000*%
%ADD42C,1.980000*%
%ADD43C,1.935000*%
%ADD44RoundRect,0.150000X-0.150000X0.587500X-0.150000X-0.587500X0.150000X-0.587500X0.150000X0.587500X0*%
%ADD45RoundRect,0.250000X0.350000X0.625000X-0.350000X0.625000X-0.350000X-0.625000X0.350000X-0.625000X0*%
%ADD46RoundRect,0.225000X-0.250000X0.225000X-0.250000X-0.225000X0.250000X-0.225000X0.250000X0.225000X0*%
%ADD47R,1.000000X0.750000*%
%ADD48R,2.600000X2.600000*%
%ADD49C,2.600000*%
%ADD50RoundRect,0.218750X0.218750X0.256250X-0.218750X0.256250X-0.218750X-0.256250X0.218750X-0.256250X0*%
%ADD51RoundRect,0.020500X0.764500X0.184500X-0.764500X0.184500X-0.764500X-0.184500X0.764500X-0.184500X0*%
%ADD52RoundRect,0.250000X0.250000X0.475000X-0.250000X0.475000X-0.250000X-0.475000X0.250000X-0.475000X0*%
G04 APERTURE END LIST*
D10*
%TO.C,PS1*%
X116630000Y-116920000D03*
D11*
X95830000Y-116920000D03*
X108630000Y-71920000D03*
X116630000Y-71920000D03*
%TD*%
D12*
%TO.C,U4*%
X156500000Y-81295000D03*
X156500000Y-82565000D03*
X156500000Y-83835000D03*
X156500000Y-85105000D03*
X156500000Y-86375000D03*
X156500000Y-87645000D03*
X156500000Y-88915000D03*
X156500000Y-90185000D03*
X156500000Y-91455000D03*
X156500000Y-92725000D03*
X156500000Y-93995000D03*
X156500000Y-95265000D03*
X156500000Y-96535000D03*
X156500000Y-97805000D03*
D13*
X159285000Y-98805000D03*
X160555000Y-98805000D03*
X161825000Y-98805000D03*
X163095000Y-98805000D03*
X164365000Y-98805000D03*
X165635000Y-98805000D03*
X166905000Y-98805000D03*
X168175000Y-98805000D03*
X169445000Y-98805000D03*
X170715000Y-98805000D03*
D12*
X173500000Y-97805000D03*
X173500000Y-96535000D03*
X173500000Y-95265000D03*
X173500000Y-93995000D03*
X173500000Y-92725000D03*
X173500000Y-91455000D03*
X173500000Y-90185000D03*
X173500000Y-88915000D03*
X173500000Y-87645000D03*
X173500000Y-86375000D03*
X173500000Y-85105000D03*
X173500000Y-83835000D03*
X173500000Y-82565000D03*
X173500000Y-81295000D03*
D14*
X164000000Y-88795000D03*
%TD*%
D15*
%TO.C,C6*%
X194625000Y-80860000D03*
X193075000Y-80860000D03*
%TD*%
D16*
%TO.C,D1*%
X124250000Y-80297500D03*
X124250000Y-78722500D03*
%TD*%
D17*
%TO.C,R4*%
X176775000Y-84800000D03*
X178425000Y-84800000D03*
%TD*%
D18*
%TO.C,U3*%
X186450000Y-90700000D03*
X186450000Y-90200000D03*
X186450000Y-89700000D03*
X186450000Y-89200000D03*
X186450000Y-88700000D03*
X186450000Y-88200000D03*
X186450000Y-87700000D03*
D19*
X185500000Y-86750000D03*
X185000000Y-86750000D03*
X184500000Y-86750000D03*
X184000000Y-86750000D03*
X183500000Y-86750000D03*
X183000000Y-86750000D03*
X182500000Y-86750000D03*
D18*
X181550000Y-87700000D03*
X181550000Y-88200000D03*
X181550000Y-88700000D03*
X181550000Y-89200000D03*
X181550000Y-89700000D03*
X181550000Y-90200000D03*
X181550000Y-90700000D03*
D19*
X182500000Y-91650000D03*
X183000000Y-91650000D03*
X183500000Y-91650000D03*
X184000000Y-91650000D03*
X184500000Y-91650000D03*
X185000000Y-91650000D03*
X185500000Y-91650000D03*
D20*
X184000000Y-89200000D03*
%TD*%
D21*
%TO.C,C5*%
X123225000Y-68500000D03*
X124775000Y-68500000D03*
%TD*%
D22*
%TO.C,S1*%
X141725000Y-88262500D03*
X141725000Y-82262500D03*
X145475000Y-88262500D03*
X145475000Y-82262500D03*
%TD*%
D23*
%TO.C,RV1*%
X128050000Y-102100000D03*
X122950000Y-100500000D03*
%TD*%
D15*
%TO.C,C1*%
X127225000Y-72910000D03*
X125675000Y-72910000D03*
%TD*%
D24*
%TO.C,R9*%
X182725000Y-84600000D03*
X181075000Y-84600000D03*
%TD*%
D16*
%TO.C,D5*%
X146990000Y-106125000D03*
X146990000Y-104550000D03*
%TD*%
D25*
%TO.C,J2*%
X193640000Y-89800000D03*
X193640000Y-89150000D03*
X193640000Y-88500000D03*
X193640000Y-87850000D03*
X193640000Y-87200000D03*
D26*
X196300000Y-91875000D03*
D27*
X193725000Y-86012500D03*
D26*
X196300000Y-85125000D03*
D27*
X193725000Y-90987500D03*
D28*
X196300000Y-86950000D03*
D29*
X196300000Y-89650000D03*
%TD*%
D15*
%TO.C,C3*%
X130125000Y-84810000D03*
X128575000Y-84810000D03*
%TD*%
D30*
%TO.C,D2*%
X190800000Y-91500000D03*
X190800000Y-92900000D03*
%TD*%
D31*
%TO.C,F1*%
X126906750Y-129000000D03*
X126906750Y-107000000D03*
%TD*%
D15*
%TO.C,C14*%
X152800000Y-82815000D03*
X151250000Y-82815000D03*
%TD*%
%TO.C,C4*%
X131975000Y-88350000D03*
X130425000Y-88350000D03*
%TD*%
D32*
%TO.C,Q3*%
X144527500Y-108262500D03*
X144527500Y-106362500D03*
X142652500Y-107312500D03*
%TD*%
D33*
%TO.C,R8*%
X185200000Y-84825000D03*
X185200000Y-83175000D03*
%TD*%
D34*
%TO.C,R10*%
X151200000Y-87075000D03*
X151200000Y-88725000D03*
%TD*%
D15*
%TO.C,C13*%
X152775000Y-84800000D03*
X151225000Y-84800000D03*
%TD*%
D35*
%TO.C,REF\u002A\u002A*%
X193570000Y-71620000D03*
%TD*%
D30*
%TO.C,D3*%
X190800000Y-88800000D03*
X190800000Y-87400000D03*
%TD*%
D36*
%TO.C,J4*%
X179110000Y-126020000D03*
D37*
X181110000Y-126020000D03*
X183110000Y-126020000D03*
%TD*%
D38*
%TO.C,Q2*%
X183550000Y-98237500D03*
X185450000Y-98237500D03*
X184500000Y-96362500D03*
%TD*%
D15*
%TO.C,C7*%
X194650000Y-82860000D03*
X193100000Y-82860000D03*
%TD*%
D39*
%TO.C,U2*%
X136600000Y-91050000D03*
D40*
X134300000Y-97350000D03*
D39*
X134300000Y-91050000D03*
X132000000Y-91050000D03*
%TD*%
D41*
%TO.C,K1*%
X153100000Y-114212500D03*
D42*
X141100000Y-114212500D03*
D43*
X147100000Y-112212500D03*
D42*
X153100000Y-126412500D03*
X141100000Y-126412500D03*
%TD*%
D33*
%TO.C,R2*%
X187800000Y-101325000D03*
X187800000Y-99675000D03*
%TD*%
D36*
%TO.C,J3*%
X178560000Y-114300000D03*
D37*
X180560000Y-114300000D03*
X182560000Y-114300000D03*
%TD*%
D44*
%TO.C,Q1*%
X185550000Y-101362500D03*
X183650000Y-101362500D03*
X184600000Y-103237500D03*
%TD*%
D34*
%TO.C,R3*%
X181500000Y-98175000D03*
X181500000Y-99825000D03*
%TD*%
D45*
%TO.C,J6*%
X195100000Y-113000000D03*
D37*
X193100000Y-113000000D03*
X191100000Y-113000000D03*
%TD*%
D21*
%TO.C,C9*%
X134725000Y-88300000D03*
X136275000Y-88300000D03*
%TD*%
D46*
%TO.C,C11*%
X151200000Y-90725000D03*
X151200000Y-92275000D03*
%TD*%
D21*
%TO.C,C8*%
X123200000Y-70400000D03*
X124750000Y-70400000D03*
%TD*%
D35*
%TO.C,REF\u002A\u002A*%
X112630000Y-128550000D03*
%TD*%
%TO.C,REF\u002A\u002A*%
X194300000Y-128770000D03*
%TD*%
D33*
%TO.C,R12*%
X144790000Y-104337500D03*
X144790000Y-102687500D03*
%TD*%
%TO.C,R11*%
X148890000Y-106137500D03*
X148890000Y-104487500D03*
%TD*%
D47*
%TO.C,S2*%
X177600000Y-106775000D03*
X171600000Y-106775000D03*
X177600000Y-103025000D03*
X171600000Y-103025000D03*
%TD*%
D48*
%TO.C,J1*%
X99295000Y-124500000D03*
D49*
X99295000Y-129500000D03*
%TD*%
D50*
%TO.C,D6*%
X148577500Y-108212500D03*
X147002500Y-108212500D03*
%TD*%
D51*
%TO.C,U5*%
X149370000Y-99150000D03*
X149370000Y-98500000D03*
X149370000Y-97850000D03*
X149370000Y-97200000D03*
X149370000Y-96550000D03*
X149370000Y-95900000D03*
X149370000Y-95250000D03*
X143630000Y-95250000D03*
X143630000Y-95900000D03*
X143630000Y-96550000D03*
X143630000Y-97200000D03*
X143630000Y-97850000D03*
X143630000Y-98500000D03*
X143630000Y-99150000D03*
%TD*%
D39*
%TO.C,U1*%
X131800000Y-75650000D03*
X129500000Y-75650000D03*
D40*
X129500000Y-81950000D03*
D39*
X127200000Y-75650000D03*
%TD*%
D30*
%TO.C,D4*%
X189000000Y-90500000D03*
X189000000Y-91900000D03*
%TD*%
D24*
%TO.C,R6*%
X189350000Y-83000000D03*
X187700000Y-83000000D03*
%TD*%
D48*
%TO.C,J5*%
X161300000Y-125405000D03*
D49*
X166300000Y-125405000D03*
%TD*%
D21*
%TO.C,C12*%
X144125000Y-90700000D03*
X145675000Y-90700000D03*
%TD*%
D24*
%TO.C,R7*%
X189375000Y-84800000D03*
X187725000Y-84800000D03*
%TD*%
D52*
%TO.C,C2*%
X123650000Y-97200000D03*
X121750000Y-97200000D03*
%TD*%
D15*
%TO.C,C10*%
X178775000Y-100500000D03*
X177225000Y-100500000D03*
%TD*%
D34*
%TO.C,R1*%
X124250000Y-75085000D03*
X124250000Y-76735000D03*
%TD*%
D17*
%TO.C,R5*%
X176775000Y-86700000D03*
X178425000Y-86700000D03*
%TD*%
M02*
