%TF.GenerationSoftware,KiCad,Pcbnew,(6.0.0)*%
%TF.CreationDate,2022-03-31T09:21:52+03:00*%
%TF.ProjectId,FirePrevention,46697265-5072-4657-9665-6e74696f6e2e,rev?*%
%TF.SameCoordinates,Original*%
%TF.FileFunction,Copper,L2,Bot*%
%TF.FilePolarity,Positive*%
%FSLAX46Y46*%
G04 Gerber Fmt 4.6, Leading zero omitted, Abs format (unit mm)*
G04 Created by KiCad (PCBNEW (6.0.0)) date 2022-03-31 09:21:52*
%MOMM*%
%LPD*%
G01*
G04 APERTURE LIST*
G04 Aperture macros list*
%AMRoundRect*
0 Rectangle with rounded corners*
0 $1 Rounding radius*
0 $2 $3 $4 $5 $6 $7 $8 $9 X,Y pos of 4 corners*
0 Add a 4 corners polygon primitive as box body*
4,1,4,$2,$3,$4,$5,$6,$7,$8,$9,$2,$3,0*
0 Add four circle primitives for the rounded corners*
1,1,$1+$1,$2,$3*
1,1,$1+$1,$4,$5*
1,1,$1+$1,$6,$7*
1,1,$1+$1,$8,$9*
0 Add four rect primitives between the rounded corners*
20,1,$1+$1,$2,$3,$4,$5,0*
20,1,$1+$1,$4,$5,$6,$7,0*
20,1,$1+$1,$6,$7,$8,$9,0*
20,1,$1+$1,$8,$9,$2,$3,0*%
G04 Aperture macros list end*
%TA.AperFunction,ComponentPad*%
%ADD10R,1.800000X1.800000*%
%TD*%
%TA.AperFunction,ComponentPad*%
%ADD11C,1.800000*%
%TD*%
%TA.AperFunction,ComponentPad*%
%ADD12C,1.270000*%
%TD*%
%TA.AperFunction,ComponentPad*%
%ADD13O,3.900000X1.950000*%
%TD*%
%TA.AperFunction,ComponentPad*%
%ADD14RoundRect,0.250000X-0.350000X-0.625000X0.350000X-0.625000X0.350000X0.625000X-0.350000X0.625000X0*%
%TD*%
%TA.AperFunction,ComponentPad*%
%ADD15O,1.200000X1.750000*%
%TD*%
%TA.AperFunction,ComponentPad*%
%ADD16R,1.980000X1.980000*%
%TD*%
%TA.AperFunction,ComponentPad*%
%ADD17C,1.980000*%
%TD*%
%TA.AperFunction,ComponentPad*%
%ADD18C,1.935000*%
%TD*%
%TA.AperFunction,ComponentPad*%
%ADD19RoundRect,0.250000X0.350000X0.625000X-0.350000X0.625000X-0.350000X-0.625000X0.350000X-0.625000X0*%
%TD*%
%TA.AperFunction,ComponentPad*%
%ADD20R,2.600000X2.600000*%
%TD*%
%TA.AperFunction,ComponentPad*%
%ADD21C,2.600000*%
%TD*%
%TA.AperFunction,ViaPad*%
%ADD22C,0.800000*%
%TD*%
%TA.AperFunction,ViaPad*%
%ADD23C,0.600000*%
%TD*%
%TA.AperFunction,Conductor*%
%ADD24C,1.000000*%
%TD*%
%TA.AperFunction,Conductor*%
%ADD25C,0.250000*%
%TD*%
%TA.AperFunction,Conductor*%
%ADD26C,0.200000*%
%TD*%
G04 APERTURE END LIST*
D10*
%TO.P,PS1,1,VAC_IN_(N)*%
%TO.N,N*%
X116630000Y-116920000D03*
D11*
%TO.P,PS1,2,VAC_IN_(L)*%
%TO.N,Net-(C2-Pad1)*%
X95830000Y-116920000D03*
%TO.P,PS1,3,_+VOUT*%
%TO.N,+12V*%
X108630000Y-71920000D03*
%TO.P,PS1,4,-VOUT*%
%TO.N,GND*%
X116630000Y-71920000D03*
%TD*%
D12*
%TO.P,RV1,1*%
%TO.N,Net-(C2-Pad1)*%
X128050000Y-102100000D03*
%TO.P,RV1,2*%
%TO.N,N*%
X122950000Y-100500000D03*
%TD*%
D13*
%TO.P,F1,P$1*%
%TO.N,L*%
X126906750Y-129000000D03*
%TO.P,F1,P$2*%
%TO.N,Net-(C2-Pad1)*%
X126906750Y-107000000D03*
%TD*%
D14*
%TO.P,J4,1,Pin_1*%
%TO.N,+5V*%
X179110000Y-126020000D03*
D15*
%TO.P,J4,2,Pin_2*%
%TO.N,GND*%
X181110000Y-126020000D03*
%TO.P,J4,3,Pin_3*%
%TO.N,GAS_SENSOR_A*%
X183110000Y-126020000D03*
%TD*%
D16*
%TO.P,K1,A1*%
%TO.N,+5V*%
X153100000Y-114212500D03*
D17*
%TO.P,K1,A2*%
%TO.N,Net-(D5-Pad1)*%
X141100000Y-114212500D03*
D18*
%TO.P,K1,COM*%
%TO.N,+12V*%
X147100000Y-112212500D03*
D17*
%TO.P,K1,NC*%
%TO.N,unconnected-(K1-PadNC)*%
X153100000Y-126412500D03*
%TO.P,K1,NO*%
%TO.N,ALARM*%
X141100000Y-126412500D03*
%TD*%
D14*
%TO.P,J3,1,Pin_1*%
%TO.N,FLAME_SENSOR_A*%
X178560000Y-114300000D03*
D15*
%TO.P,J3,2,Pin_2*%
%TO.N,GND*%
X180560000Y-114300000D03*
%TO.P,J3,3,Pin_3*%
%TO.N,+5V*%
X182560000Y-114300000D03*
%TD*%
D19*
%TO.P,J6,1,Pin_1*%
%TO.N,+3V3*%
X195100000Y-113000000D03*
D15*
%TO.P,J6,2,Pin_2*%
%TO.N,TEMPERATURE_SENSOR*%
X193100000Y-113000000D03*
%TO.P,J6,3,Pin_3*%
%TO.N,GND*%
X191100000Y-113000000D03*
%TD*%
D20*
%TO.P,J1,1,Pin_1*%
%TO.N,L*%
X99295000Y-124500000D03*
D21*
%TO.P,J1,2,Pin_2*%
%TO.N,N*%
X99295000Y-129500000D03*
%TD*%
D20*
%TO.P,J5,1,Pin_1*%
%TO.N,ALARM*%
X161300000Y-125405000D03*
D21*
%TO.P,J5,2,Pin_2*%
%TO.N,GND*%
X166300000Y-125405000D03*
%TD*%
D22*
%TO.N,+12V*%
X123200000Y-72000000D03*
D23*
%TO.N,GND*%
X164380000Y-94500000D03*
X188310000Y-117550000D03*
X182010000Y-108390000D03*
X165780000Y-116140000D03*
X126090000Y-87300000D03*
X149300000Y-101080000D03*
X134900000Y-78490000D03*
X122380000Y-91420000D03*
X129420000Y-90940000D03*
X192680000Y-98090000D03*
X191550000Y-85870000D03*
X138200000Y-107970000D03*
X167700000Y-102380000D03*
X190020000Y-125400000D03*
X152940000Y-94840000D03*
X171610000Y-125040000D03*
X133580000Y-86400000D03*
X141010000Y-101510000D03*
X130960000Y-72980000D03*
X179050000Y-82540000D03*
X96150000Y-71280000D03*
X138990000Y-92710000D03*
X125190000Y-82270000D03*
X192260000Y-104540000D03*
X127270000Y-96280000D03*
X135070000Y-82660000D03*
X136110000Y-94300000D03*
X146110000Y-93050000D03*
X152870000Y-106660000D03*
X127410000Y-78940000D03*
X131050000Y-78560000D03*
X177850000Y-94240000D03*
X139790000Y-97560000D03*
X190620000Y-83820000D03*
X138850000Y-88440000D03*
D22*
%TO.N,+5V*%
X189920000Y-81690000D03*
X196450000Y-93850000D03*
%TO.N,+3V3*%
X137200000Y-85700000D03*
X191510000Y-80650000D03*
D23*
%TO.N,EN*%
X158520000Y-83920000D03*
X183560000Y-95270000D03*
%TO.N,/USB_DN*%
X188120000Y-89627500D03*
X187700000Y-88300000D03*
%TO.N,TEMPERATURE_SENSOR*%
X158500000Y-87700000D03*
%TO.N,/RTS*%
X183200000Y-92700000D03*
X182700000Y-94400000D03*
%TD*%
D24*
%TO.N,+12V*%
X123200000Y-72000000D02*
X123200000Y-88312500D01*
X123200000Y-88312500D02*
X147100000Y-112212500D01*
%TO.N,N*%
X112100000Y-105700000D02*
X117300000Y-100500000D01*
X112100000Y-116695000D02*
X112100000Y-105700000D01*
X117300000Y-100500000D02*
X122950000Y-100500000D01*
X99295000Y-129500000D02*
X112100000Y-116695000D01*
D25*
%TO.N,+5V*%
X189920000Y-82020000D02*
X189920000Y-81690000D01*
X153100000Y-114212500D02*
X174417500Y-114212500D01*
X196450000Y-88550000D02*
X189920000Y-82020000D01*
X186640000Y-123770000D02*
X196450000Y-113960000D01*
X176870000Y-111760000D02*
X180020000Y-111760000D01*
X196450000Y-93850000D02*
X196450000Y-88550000D01*
X179629355Y-126020000D02*
X181879355Y-123770000D01*
X174417500Y-114212500D02*
X176870000Y-111760000D01*
X196450000Y-113960000D02*
X196450000Y-93850000D01*
X180020000Y-111760000D02*
X182560000Y-114300000D01*
X181879355Y-123770000D02*
X186640000Y-123770000D01*
X179110000Y-126020000D02*
X179629355Y-126020000D01*
%TO.N,+3V3*%
X191312511Y-80847489D02*
X142052511Y-80847489D01*
X191510000Y-80650000D02*
X191312511Y-80847489D01*
X189129720Y-80847489D02*
X188747489Y-81229720D01*
X142052511Y-80847489D02*
X137200000Y-85700000D01*
X188747489Y-106647489D02*
X195100000Y-113000000D01*
X188747489Y-81229720D02*
X188747489Y-106647489D01*
%TO.N,EN*%
X182160000Y-95260000D02*
X170820000Y-83920000D01*
X170820000Y-83920000D02*
X158520000Y-83920000D01*
X183550000Y-95260000D02*
X182160000Y-95260000D01*
X183560000Y-95270000D02*
X183550000Y-95260000D01*
D26*
%TO.N,/USB_DN*%
X187700000Y-89207500D02*
X188120000Y-89627500D01*
X187700000Y-88300000D02*
X187700000Y-89207500D01*
D25*
%TO.N,TEMPERATURE_SENSOR*%
X167800000Y-87700000D02*
X193100000Y-113000000D01*
X158500000Y-87700000D02*
X167800000Y-87700000D01*
%TO.N,/RTS*%
X183200000Y-92700000D02*
X183200000Y-93900000D01*
X183200000Y-93900000D02*
X182700000Y-94400000D01*
%TD*%
%TA.AperFunction,Conductor*%
%TO.N,GND*%
G36*
X148672121Y-66670002D02*
G01*
X148718614Y-66723658D01*
X148730000Y-66776000D01*
X148730000Y-79960000D01*
X191133747Y-79960000D01*
X191201868Y-79980002D01*
X191248361Y-80033658D01*
X191258465Y-80103932D01*
X191228971Y-80168512D01*
X191210451Y-80185962D01*
X191117379Y-80257379D01*
X191029139Y-80372375D01*
X191025979Y-80380005D01*
X190978675Y-80494207D01*
X190934127Y-80549488D01*
X190862266Y-80571989D01*
X189169263Y-80571989D01*
X189144681Y-80569568D01*
X189141891Y-80569013D01*
X189129720Y-80566592D01*
X189117549Y-80569013D01*
X189117547Y-80569013D01*
X189114757Y-80569568D01*
X189090177Y-80571989D01*
X142092054Y-80571989D01*
X142067472Y-80569568D01*
X142064682Y-80569013D01*
X142052511Y-80566592D01*
X142040340Y-80569013D01*
X142025379Y-80571989D01*
X142025378Y-80571989D01*
X141945016Y-80587974D01*
X141903046Y-80616018D01*
X141903046Y-80616017D01*
X141903043Y-80616020D01*
X141876889Y-80633495D01*
X141874322Y-80629654D01*
X141874321Y-80629655D01*
X141876888Y-80633496D01*
X141853887Y-80648865D01*
X141846996Y-80659178D01*
X141845409Y-80661553D01*
X141829739Y-80680645D01*
X137390302Y-85120082D01*
X137327990Y-85154108D01*
X137284761Y-85155909D01*
X137208189Y-85145828D01*
X137208188Y-85145828D01*
X137200000Y-85144750D01*
X137056291Y-85163670D01*
X136922375Y-85219139D01*
X136807379Y-85307379D01*
X136719139Y-85422375D01*
X136663670Y-85556291D01*
X136644750Y-85700000D01*
X136663670Y-85843709D01*
X136719139Y-85977625D01*
X136807379Y-86092621D01*
X136922375Y-86180861D01*
X137056291Y-86236330D01*
X137200000Y-86255250D01*
X137343709Y-86236330D01*
X137477625Y-86180861D01*
X137592621Y-86092621D01*
X137680861Y-85977625D01*
X137736330Y-85843709D01*
X137755250Y-85700000D01*
X137744091Y-85615239D01*
X137755030Y-85545091D01*
X137779918Y-85509698D01*
X139375176Y-83914440D01*
X158064901Y-83914440D01*
X158066065Y-83923342D01*
X158066065Y-83923345D01*
X158080468Y-84033489D01*
X158080469Y-84033493D01*
X158081633Y-84042394D01*
X158133605Y-84160510D01*
X158139382Y-84167383D01*
X158139383Y-84167384D01*
X158194039Y-84232405D01*
X158216639Y-84259291D01*
X158324060Y-84330796D01*
X158447233Y-84369278D01*
X158456203Y-84369442D01*
X158456207Y-84369443D01*
X158514942Y-84370519D01*
X158576255Y-84371643D01*
X158638505Y-84354671D01*
X158692092Y-84340062D01*
X158692093Y-84340062D01*
X158700755Y-84337700D01*
X158708405Y-84333003D01*
X158708407Y-84333002D01*
X158803072Y-84274878D01*
X158803075Y-84274875D01*
X158810724Y-84270179D01*
X158820580Y-84259291D01*
X158840806Y-84236945D01*
X158901349Y-84199863D01*
X158934221Y-84195500D01*
X170653694Y-84195500D01*
X170721815Y-84215502D01*
X170742789Y-84232405D01*
X181937229Y-95426845D01*
X181952896Y-95445934D01*
X181961376Y-95458624D01*
X181971689Y-95465515D01*
X181984377Y-95473993D01*
X181982788Y-95476370D01*
X181982790Y-95476371D01*
X181984378Y-95473994D01*
X182010532Y-95491469D01*
X182010534Y-95491472D01*
X182010535Y-95491471D01*
X182052505Y-95519515D01*
X182064674Y-95521936D01*
X182064675Y-95521936D01*
X182132867Y-95535500D01*
X182147828Y-95538476D01*
X182147829Y-95538476D01*
X182160000Y-95540897D01*
X182172171Y-95538476D01*
X182172173Y-95538476D01*
X182174963Y-95537921D01*
X182199543Y-95535500D01*
X183135923Y-95535500D01*
X183204044Y-95555502D01*
X183232374Y-95580425D01*
X183250861Y-95602419D01*
X183250867Y-95602424D01*
X183256639Y-95609291D01*
X183364060Y-95680796D01*
X183487233Y-95719278D01*
X183496203Y-95719442D01*
X183496207Y-95719443D01*
X183554942Y-95720519D01*
X183616255Y-95721643D01*
X183678505Y-95704672D01*
X183732092Y-95690062D01*
X183732093Y-95690062D01*
X183740755Y-95687700D01*
X183748405Y-95683003D01*
X183748407Y-95683002D01*
X183843072Y-95624878D01*
X183843075Y-95624875D01*
X183850724Y-95620179D01*
X183856750Y-95613522D01*
X183931300Y-95531161D01*
X183931303Y-95531157D01*
X183937322Y-95524507D01*
X183993588Y-95408375D01*
X184014997Y-95281120D01*
X184015133Y-95270000D01*
X183996839Y-95142259D01*
X183943428Y-95024788D01*
X183872554Y-94942534D01*
X183865051Y-94933826D01*
X183865049Y-94933824D01*
X183859193Y-94927028D01*
X183750906Y-94856841D01*
X183742311Y-94854271D01*
X183742310Y-94854270D01*
X183635874Y-94822438D01*
X183635872Y-94822438D01*
X183627273Y-94819866D01*
X183618298Y-94819811D01*
X183618297Y-94819811D01*
X183563641Y-94819477D01*
X183498231Y-94819078D01*
X183486475Y-94822438D01*
X183382786Y-94852072D01*
X183382784Y-94852073D01*
X183374155Y-94854539D01*
X183366565Y-94859328D01*
X183284921Y-94910842D01*
X183265019Y-94923399D01*
X183259075Y-94930129D01*
X183259074Y-94930130D01*
X183248671Y-94941909D01*
X183188585Y-94979726D01*
X183154231Y-94984500D01*
X183055111Y-94984500D01*
X182986990Y-94964498D01*
X182940497Y-94910842D01*
X182930393Y-94840568D01*
X182959887Y-94775988D01*
X182976929Y-94761525D01*
X182976168Y-94760609D01*
X182983072Y-94754877D01*
X182990724Y-94750179D01*
X182996750Y-94743522D01*
X183071300Y-94661161D01*
X183071303Y-94661157D01*
X183077322Y-94654507D01*
X183133588Y-94538375D01*
X183154997Y-94411120D01*
X183155133Y-94400000D01*
X183154510Y-94395649D01*
X183170018Y-94326497D01*
X183191121Y-94298495D01*
X183366844Y-94122772D01*
X183385936Y-94107102D01*
X183388307Y-94105518D01*
X183388308Y-94105517D01*
X183398624Y-94098624D01*
X183459515Y-94007495D01*
X183475500Y-93927133D01*
X183475500Y-93927132D01*
X183478476Y-93912172D01*
X183478476Y-93912171D01*
X183480897Y-93900000D01*
X183477921Y-93885037D01*
X183475500Y-93860457D01*
X183475500Y-93115554D01*
X183495502Y-93047433D01*
X183508085Y-93030999D01*
X183571299Y-92961161D01*
X183577322Y-92954507D01*
X183633588Y-92838375D01*
X183654997Y-92711120D01*
X183655133Y-92700000D01*
X183636839Y-92572259D01*
X183583428Y-92454788D01*
X183499193Y-92357028D01*
X183390906Y-92286841D01*
X183382311Y-92284271D01*
X183382310Y-92284270D01*
X183275874Y-92252438D01*
X183275872Y-92252438D01*
X183267273Y-92249866D01*
X183258298Y-92249811D01*
X183258297Y-92249811D01*
X183203641Y-92249477D01*
X183138231Y-92249078D01*
X183126475Y-92252438D01*
X183022786Y-92282072D01*
X183022784Y-92282073D01*
X183014155Y-92284539D01*
X182905019Y-92353399D01*
X182819596Y-92450122D01*
X182815782Y-92458245D01*
X182815781Y-92458247D01*
X182789794Y-92513598D01*
X182764754Y-92566932D01*
X182763374Y-92575798D01*
X182746282Y-92685567D01*
X182746282Y-92685571D01*
X182744901Y-92694440D01*
X182746065Y-92703342D01*
X182746065Y-92703345D01*
X182760468Y-92813489D01*
X182760469Y-92813493D01*
X182761633Y-92822394D01*
X182813605Y-92940510D01*
X182819382Y-92947383D01*
X182819383Y-92947384D01*
X182894951Y-93037283D01*
X182923472Y-93102298D01*
X182924500Y-93118358D01*
X182924500Y-93733694D01*
X182904498Y-93801815D01*
X182887595Y-93822789D01*
X182797783Y-93912601D01*
X182735471Y-93946627D01*
X182707922Y-93949504D01*
X182638231Y-93949078D01*
X182576193Y-93966809D01*
X182522786Y-93982072D01*
X182522784Y-93982073D01*
X182514155Y-93984539D01*
X182497065Y-93995322D01*
X182461418Y-94017814D01*
X182405019Y-94053399D01*
X182399076Y-94060128D01*
X182399075Y-94060129D01*
X182358989Y-94105518D01*
X182319596Y-94150122D01*
X182264754Y-94266932D01*
X182263374Y-94275798D01*
X182246282Y-94385567D01*
X182246282Y-94385571D01*
X182244901Y-94394440D01*
X182246065Y-94403342D01*
X182246065Y-94403345D01*
X182260468Y-94513489D01*
X182260469Y-94513493D01*
X182261633Y-94522394D01*
X182313605Y-94640510D01*
X182396639Y-94739291D01*
X182418155Y-94753613D01*
X182463777Y-94808009D01*
X182472749Y-94878437D01*
X182442220Y-94942534D01*
X182381884Y-94979952D01*
X182348336Y-94984500D01*
X182326306Y-94984500D01*
X182258185Y-94964498D01*
X182237211Y-94947595D01*
X171042772Y-83753156D01*
X171027102Y-83734064D01*
X171025515Y-83731689D01*
X171018624Y-83721376D01*
X170995623Y-83706007D01*
X170997212Y-83703630D01*
X170997210Y-83703629D01*
X170995622Y-83706006D01*
X170969468Y-83688531D01*
X170969466Y-83688528D01*
X170969465Y-83688529D01*
X170937811Y-83667378D01*
X170927495Y-83660485D01*
X170915326Y-83658064D01*
X170915325Y-83658064D01*
X170847133Y-83644500D01*
X170832172Y-83641524D01*
X170832171Y-83641524D01*
X170820000Y-83639103D01*
X170807829Y-83641524D01*
X170805039Y-83642079D01*
X170780457Y-83644500D01*
X158935084Y-83644500D01*
X158866963Y-83624498D01*
X158839630Y-83600746D01*
X158825054Y-83583829D01*
X158825050Y-83583826D01*
X158819193Y-83577028D01*
X158710906Y-83506841D01*
X158702311Y-83504271D01*
X158702310Y-83504270D01*
X158595874Y-83472438D01*
X158595872Y-83472438D01*
X158587273Y-83469866D01*
X158578298Y-83469811D01*
X158578297Y-83469811D01*
X158523641Y-83469477D01*
X158458231Y-83469078D01*
X158446475Y-83472438D01*
X158342786Y-83502072D01*
X158342784Y-83502073D01*
X158334155Y-83504539D01*
X158225019Y-83573399D01*
X158219076Y-83580128D01*
X158219075Y-83580129D01*
X158200867Y-83600746D01*
X158139596Y-83670122D01*
X158135782Y-83678245D01*
X158135781Y-83678247D01*
X158122748Y-83706007D01*
X158084754Y-83786932D01*
X158083374Y-83795798D01*
X158066282Y-83905567D01*
X158066282Y-83905571D01*
X158064901Y-83914440D01*
X139375176Y-83914440D01*
X142129722Y-81159894D01*
X142192034Y-81125868D01*
X142218817Y-81122989D01*
X188343013Y-81122989D01*
X188411134Y-81142991D01*
X188457627Y-81196647D01*
X188464895Y-81230058D01*
X188466592Y-81229720D01*
X188469568Y-81244681D01*
X188471989Y-81269263D01*
X188471989Y-89093319D01*
X188451987Y-89161440D01*
X188398331Y-89207933D01*
X188328057Y-89218037D01*
X188309886Y-89214036D01*
X188195874Y-89179938D01*
X188195872Y-89179938D01*
X188187273Y-89177366D01*
X188178298Y-89177311D01*
X188178297Y-89177311D01*
X188118743Y-89176948D01*
X188075731Y-89176685D01*
X188007733Y-89156267D01*
X187961569Y-89102329D01*
X187950500Y-89050687D01*
X187950500Y-88741076D01*
X187970502Y-88672955D01*
X187990589Y-88650262D01*
X187990724Y-88650179D01*
X188036537Y-88599566D01*
X188071300Y-88561161D01*
X188071303Y-88561157D01*
X188077322Y-88554507D01*
X188133588Y-88438375D01*
X188146490Y-88361689D01*
X188154190Y-88315917D01*
X188154997Y-88311120D01*
X188155133Y-88300000D01*
X188136839Y-88172259D01*
X188130724Y-88158809D01*
X188087145Y-88062962D01*
X188087143Y-88062959D01*
X188083428Y-88054788D01*
X188018869Y-87979863D01*
X188005051Y-87963826D01*
X188005049Y-87963824D01*
X187999193Y-87957028D01*
X187890906Y-87886841D01*
X187882311Y-87884271D01*
X187882310Y-87884270D01*
X187775874Y-87852438D01*
X187775872Y-87852438D01*
X187767273Y-87849866D01*
X187758298Y-87849811D01*
X187758297Y-87849811D01*
X187703641Y-87849477D01*
X187638231Y-87849078D01*
X187626475Y-87852438D01*
X187522786Y-87882072D01*
X187522784Y-87882073D01*
X187514155Y-87884539D01*
X187506565Y-87889328D01*
X187438475Y-87932290D01*
X187405019Y-87953399D01*
X187399076Y-87960128D01*
X187399075Y-87960129D01*
X187348897Y-88016945D01*
X187319596Y-88050122D01*
X187315782Y-88058245D01*
X187315781Y-88058247D01*
X187293445Y-88105821D01*
X187264754Y-88166932D01*
X187263374Y-88175798D01*
X187246282Y-88285567D01*
X187246282Y-88285571D01*
X187244901Y-88294440D01*
X187246065Y-88303342D01*
X187246065Y-88303345D01*
X187260468Y-88413489D01*
X187260469Y-88413493D01*
X187261633Y-88422394D01*
X187313605Y-88540510D01*
X187319382Y-88547383D01*
X187319383Y-88547384D01*
X187390861Y-88632418D01*
X187390864Y-88632420D01*
X187396639Y-88639291D01*
X187404114Y-88644266D01*
X187407482Y-88647278D01*
X187444933Y-88707594D01*
X187449500Y-88741209D01*
X187449500Y-89170415D01*
X187447079Y-89194996D01*
X187444592Y-89207500D01*
X187464034Y-89305241D01*
X187483943Y-89335036D01*
X187519399Y-89388101D01*
X187529714Y-89394993D01*
X187529719Y-89394998D01*
X187530005Y-89395189D01*
X187549094Y-89410856D01*
X187632487Y-89494249D01*
X187666513Y-89556561D01*
X187667892Y-89602727D01*
X187666282Y-89613065D01*
X187666282Y-89613071D01*
X187664901Y-89621940D01*
X187666065Y-89630842D01*
X187666065Y-89630845D01*
X187680468Y-89740989D01*
X187680469Y-89740993D01*
X187681633Y-89749894D01*
X187733605Y-89868010D01*
X187816639Y-89966791D01*
X187924060Y-90038296D01*
X188047233Y-90076778D01*
X188056203Y-90076942D01*
X188056207Y-90076943D01*
X188114942Y-90078019D01*
X188176255Y-90079143D01*
X188238505Y-90062172D01*
X188292092Y-90047562D01*
X188292093Y-90047562D01*
X188300755Y-90045200D01*
X188300781Y-90045297D01*
X188366407Y-90037195D01*
X188430386Y-90067972D01*
X188467570Y-90128453D01*
X188471989Y-90161530D01*
X188471989Y-106607946D01*
X188469568Y-106632528D01*
X188466592Y-106647489D01*
X188471989Y-106674621D01*
X188471989Y-106674622D01*
X188487974Y-106754984D01*
X188548865Y-106846113D01*
X188559181Y-106853006D01*
X188559182Y-106853007D01*
X188561553Y-106854591D01*
X188580645Y-106870261D01*
X193537256Y-111826872D01*
X193571282Y-111889184D01*
X193566217Y-111959999D01*
X193523670Y-112016835D01*
X193457150Y-112041646D01*
X193401379Y-112032108D01*
X193401298Y-112032061D01*
X193394294Y-112029940D01*
X193394290Y-112029938D01*
X193240813Y-111983455D01*
X193240814Y-111983455D01*
X193233807Y-111981333D01*
X193059138Y-111970497D01*
X193051922Y-111971737D01*
X193051920Y-111971737D01*
X192893875Y-111998894D01*
X192893873Y-111998895D01*
X192886660Y-112000134D01*
X192725627Y-112068654D01*
X192719734Y-112072991D01*
X192716428Y-112075424D01*
X192713782Y-112076386D01*
X192713374Y-112076619D01*
X192713334Y-112076549D01*
X192649706Y-112099689D01*
X192580458Y-112084030D01*
X192552652Y-112063036D01*
X168022772Y-87533156D01*
X168007102Y-87514064D01*
X168005515Y-87511689D01*
X167998624Y-87501376D01*
X167975623Y-87486007D01*
X167977212Y-87483630D01*
X167977210Y-87483629D01*
X167975622Y-87486006D01*
X167949468Y-87468531D01*
X167949466Y-87468528D01*
X167949465Y-87468529D01*
X167917811Y-87447378D01*
X167907495Y-87440485D01*
X167895326Y-87438064D01*
X167895325Y-87438064D01*
X167827133Y-87424500D01*
X167812172Y-87421524D01*
X167812171Y-87421524D01*
X167800000Y-87419103D01*
X167787829Y-87421524D01*
X167785039Y-87422079D01*
X167760457Y-87424500D01*
X158915084Y-87424500D01*
X158846963Y-87404498D01*
X158819630Y-87380746D01*
X158805054Y-87363829D01*
X158805050Y-87363826D01*
X158799193Y-87357028D01*
X158690906Y-87286841D01*
X158682311Y-87284271D01*
X158682310Y-87284270D01*
X158575874Y-87252438D01*
X158575872Y-87252438D01*
X158567273Y-87249866D01*
X158558298Y-87249811D01*
X158558297Y-87249811D01*
X158503641Y-87249477D01*
X158438231Y-87249078D01*
X158426475Y-87252438D01*
X158322786Y-87282072D01*
X158322784Y-87282073D01*
X158314155Y-87284539D01*
X158205019Y-87353399D01*
X158199076Y-87360128D01*
X158199075Y-87360129D01*
X158180867Y-87380746D01*
X158119596Y-87450122D01*
X158115782Y-87458245D01*
X158115781Y-87458247D01*
X158102748Y-87486007D01*
X158064754Y-87566932D01*
X158063374Y-87575798D01*
X158046282Y-87685567D01*
X158046282Y-87685571D01*
X158044901Y-87694440D01*
X158046065Y-87703342D01*
X158046065Y-87703345D01*
X158060468Y-87813489D01*
X158060469Y-87813493D01*
X158061633Y-87822394D01*
X158065250Y-87830614D01*
X158091085Y-87889328D01*
X158113605Y-87940510D01*
X158119382Y-87947383D01*
X158119383Y-87947384D01*
X158174039Y-88012405D01*
X158196639Y-88039291D01*
X158304060Y-88110796D01*
X158427233Y-88149278D01*
X158436203Y-88149442D01*
X158436207Y-88149443D01*
X158494942Y-88150519D01*
X158556255Y-88151643D01*
X158618505Y-88134672D01*
X158672092Y-88120062D01*
X158672093Y-88120062D01*
X158680755Y-88117700D01*
X158688405Y-88113003D01*
X158688407Y-88113002D01*
X158783072Y-88054878D01*
X158783075Y-88054875D01*
X158790724Y-88050179D01*
X158796866Y-88043394D01*
X158820806Y-88016945D01*
X158881349Y-87979863D01*
X158914221Y-87975500D01*
X167633694Y-87975500D01*
X167701815Y-87995502D01*
X167722789Y-88012405D01*
X191317095Y-111606711D01*
X191351121Y-111669023D01*
X191354000Y-111695806D01*
X191354000Y-114335402D01*
X191357973Y-114348933D01*
X191367399Y-114350288D01*
X191456537Y-114328806D01*
X191467832Y-114324917D01*
X191649382Y-114242371D01*
X191659724Y-114236424D01*
X191822397Y-114121032D01*
X191831425Y-114113239D01*
X191969342Y-113969169D01*
X191976738Y-113959804D01*
X192084921Y-113792259D01*
X192090417Y-113781655D01*
X192164961Y-113596688D01*
X192170058Y-113579482D01*
X192172725Y-113580272D01*
X192199992Y-113527765D01*
X192261582Y-113492448D01*
X192332488Y-113496036D01*
X192390198Y-113537389D01*
X192409364Y-113571993D01*
X192424369Y-113613331D01*
X192520323Y-113759685D01*
X192647372Y-113880040D01*
X192798702Y-113967939D01*
X192966193Y-114018667D01*
X193140862Y-114029503D01*
X193148078Y-114028263D01*
X193148080Y-114028263D01*
X193306125Y-114001106D01*
X193306127Y-114001105D01*
X193313340Y-113999866D01*
X193442192Y-113945039D01*
X193467640Y-113934211D01*
X193467641Y-113934211D01*
X193474373Y-113931346D01*
X193615324Y-113827617D01*
X193620063Y-113822039D01*
X193620066Y-113822036D01*
X193723893Y-113699824D01*
X193723896Y-113699820D01*
X193728632Y-113694245D01*
X193780317Y-113593026D01*
X193804892Y-113544900D01*
X193804893Y-113544898D01*
X193808219Y-113538384D01*
X193810818Y-113527765D01*
X193833111Y-113436658D01*
X193849815Y-113368394D01*
X193850500Y-113357352D01*
X193850500Y-112681178D01*
X193835343Y-112551172D01*
X193809538Y-112480079D01*
X193786001Y-112415237D01*
X193781560Y-112344380D01*
X193816133Y-112282369D01*
X193878742Y-112248894D01*
X193949510Y-112254583D01*
X193993535Y-112283151D01*
X194312595Y-112602211D01*
X194346621Y-112664523D01*
X194349500Y-112691306D01*
X194349501Y-113175949D01*
X194349501Y-113656518D01*
X194350276Y-113661409D01*
X194350276Y-113661412D01*
X194355386Y-113693675D01*
X194364354Y-113750304D01*
X194421950Y-113863342D01*
X194511658Y-113953050D01*
X194624696Y-114010646D01*
X194634485Y-114012196D01*
X194634487Y-114012197D01*
X194661849Y-114016530D01*
X194718481Y-114025500D01*
X195099922Y-114025500D01*
X195481518Y-114025499D01*
X195486412Y-114024724D01*
X195565506Y-114012198D01*
X195565508Y-114012197D01*
X195575304Y-114010646D01*
X195688342Y-113953050D01*
X195778050Y-113863342D01*
X195835646Y-113750304D01*
X195850500Y-113656519D01*
X195850499Y-112343482D01*
X195849724Y-112338588D01*
X195837198Y-112259494D01*
X195837197Y-112259492D01*
X195835646Y-112249696D01*
X195778050Y-112136658D01*
X195688342Y-112046950D01*
X195575304Y-111989354D01*
X195565515Y-111987804D01*
X195565513Y-111987803D01*
X195537642Y-111983389D01*
X195481519Y-111974500D01*
X195100078Y-111974500D01*
X194718482Y-111974501D01*
X194624696Y-111989354D01*
X194609725Y-111996982D01*
X194539951Y-112010087D01*
X194474166Y-111983389D01*
X194463427Y-111973811D01*
X189059894Y-106570278D01*
X189025868Y-106507966D01*
X189022989Y-106481183D01*
X189022989Y-81396026D01*
X189042991Y-81327905D01*
X189059894Y-81306931D01*
X189206931Y-81159894D01*
X189269243Y-81125868D01*
X189296026Y-81122989D01*
X189405691Y-81122989D01*
X189473812Y-81142991D01*
X189520305Y-81196647D01*
X189530409Y-81266921D01*
X189505653Y-81325692D01*
X189439139Y-81412375D01*
X189383670Y-81546291D01*
X189364750Y-81690000D01*
X189383670Y-81833709D01*
X189439139Y-81967625D01*
X189527379Y-82082621D01*
X189642375Y-82170861D01*
X189650005Y-82174021D01*
X189650006Y-82174022D01*
X189678389Y-82185778D01*
X189716400Y-82211176D01*
X189721376Y-82218624D01*
X189731692Y-82225517D01*
X189731693Y-82225518D01*
X189734064Y-82227102D01*
X189753156Y-82242772D01*
X196137595Y-88627211D01*
X196171621Y-88689523D01*
X196174500Y-88716306D01*
X196174500Y-93305373D01*
X196154498Y-93373494D01*
X196125205Y-93405334D01*
X196057379Y-93457379D01*
X195969139Y-93572375D01*
X195913670Y-93706291D01*
X195894750Y-93850000D01*
X195913670Y-93993709D01*
X195969139Y-94127625D01*
X196057379Y-94242621D01*
X196063929Y-94247647D01*
X196125204Y-94294665D01*
X196167071Y-94352003D01*
X196174500Y-94394627D01*
X196174500Y-113793694D01*
X196154498Y-113861815D01*
X196137595Y-113882789D01*
X186562789Y-123457595D01*
X186500477Y-123491621D01*
X186473694Y-123494500D01*
X181918897Y-123494500D01*
X181894317Y-123492079D01*
X181891527Y-123491524D01*
X181879355Y-123489103D01*
X181867183Y-123491524D01*
X181864393Y-123492079D01*
X181771861Y-123510484D01*
X181703733Y-123556006D01*
X181703732Y-123556007D01*
X181680731Y-123571376D01*
X181673840Y-123581689D01*
X181672253Y-123584064D01*
X181656583Y-123603156D01*
X180017015Y-125242724D01*
X179954703Y-125276750D01*
X179883888Y-125271685D01*
X179827052Y-125229138D01*
X179815653Y-125210832D01*
X179809097Y-125197964D01*
X179788050Y-125156658D01*
X179698342Y-125066950D01*
X179585304Y-125009354D01*
X179575515Y-125007804D01*
X179575513Y-125007803D01*
X179548059Y-125003455D01*
X179491519Y-124994500D01*
X179110078Y-124994500D01*
X178728482Y-124994501D01*
X178723589Y-124995276D01*
X178723588Y-124995276D01*
X178644494Y-125007802D01*
X178644492Y-125007803D01*
X178634696Y-125009354D01*
X178521658Y-125066950D01*
X178431950Y-125156658D01*
X178374354Y-125269696D01*
X178359500Y-125363481D01*
X178359501Y-126676518D01*
X178360276Y-126681411D01*
X178360276Y-126681412D01*
X178367320Y-126725887D01*
X178374354Y-126770304D01*
X178431950Y-126883342D01*
X178521658Y-126973050D01*
X178634696Y-127030646D01*
X178644485Y-127032196D01*
X178644487Y-127032197D01*
X178671849Y-127036530D01*
X178728481Y-127045500D01*
X179109922Y-127045500D01*
X179491518Y-127045499D01*
X179496412Y-127044724D01*
X179575506Y-127032198D01*
X179575508Y-127032197D01*
X179585304Y-127030646D01*
X179698342Y-126973050D01*
X179788050Y-126883342D01*
X179845646Y-126770304D01*
X179847244Y-126760216D01*
X179847400Y-126759886D01*
X179850262Y-126751079D01*
X179851400Y-126751449D01*
X179877654Y-126696063D01*
X179937922Y-126658534D01*
X180008911Y-126659546D01*
X180068084Y-126698777D01*
X180083709Y-126722232D01*
X180170619Y-126890978D01*
X180177069Y-126901024D01*
X180300262Y-127057857D01*
X180308499Y-127066506D01*
X180459123Y-127197212D01*
X180468847Y-127204147D01*
X180641467Y-127304010D01*
X180652331Y-127308984D01*
X180840727Y-127374407D01*
X180841716Y-127374648D01*
X180852008Y-127373180D01*
X180856000Y-127359615D01*
X180856000Y-125892000D01*
X180876002Y-125823879D01*
X180929658Y-125777386D01*
X180982000Y-125766000D01*
X181238000Y-125766000D01*
X181306121Y-125786002D01*
X181352614Y-125839658D01*
X181364000Y-125892000D01*
X181364000Y-127355402D01*
X181367973Y-127368933D01*
X181377399Y-127370288D01*
X181466537Y-127348806D01*
X181477832Y-127344917D01*
X181659382Y-127262371D01*
X181669724Y-127256424D01*
X181832397Y-127141032D01*
X181841425Y-127133239D01*
X181979342Y-126989169D01*
X181986738Y-126979804D01*
X182094921Y-126812259D01*
X182100417Y-126801655D01*
X182174961Y-126616688D01*
X182180058Y-126599482D01*
X182182725Y-126600272D01*
X182209992Y-126547765D01*
X182271582Y-126512448D01*
X182342488Y-126516036D01*
X182400198Y-126557389D01*
X182419364Y-126591993D01*
X182434369Y-126633331D01*
X182530323Y-126779685D01*
X182657372Y-126900040D01*
X182808702Y-126987939D01*
X182976193Y-127038667D01*
X183150862Y-127049503D01*
X183158078Y-127048263D01*
X183158080Y-127048263D01*
X183316125Y-127021106D01*
X183316127Y-127021105D01*
X183323340Y-127019866D01*
X183484373Y-126951346D01*
X183625324Y-126847617D01*
X183630063Y-126842039D01*
X183630066Y-126842036D01*
X183733893Y-126719824D01*
X183733896Y-126719820D01*
X183738632Y-126714245D01*
X183801218Y-126591678D01*
X183814892Y-126564900D01*
X183814893Y-126564898D01*
X183818219Y-126558384D01*
X183820818Y-126547765D01*
X183858480Y-126393848D01*
X183859815Y-126388394D01*
X183860500Y-126377352D01*
X183860500Y-125701178D01*
X183845343Y-125571172D01*
X183820890Y-125503804D01*
X183788128Y-125413548D01*
X183785631Y-125406669D01*
X183689677Y-125260315D01*
X183562628Y-125139960D01*
X183411298Y-125052061D01*
X183243807Y-125001333D01*
X183069138Y-124990497D01*
X183061922Y-124991737D01*
X183061920Y-124991737D01*
X182903875Y-125018894D01*
X182903873Y-125018895D01*
X182896660Y-125020134D01*
X182812985Y-125055738D01*
X182742746Y-125085625D01*
X182735627Y-125088654D01*
X182594676Y-125192383D01*
X182589937Y-125197961D01*
X182589934Y-125197964D01*
X182486107Y-125320176D01*
X182486104Y-125320180D01*
X182481368Y-125325755D01*
X182434361Y-125417812D01*
X182409639Y-125466227D01*
X182360845Y-125517800D01*
X182291916Y-125534806D01*
X182224734Y-125511846D01*
X182180630Y-125456210D01*
X182176517Y-125444396D01*
X182145127Y-125337399D01*
X182140698Y-125326325D01*
X182049381Y-125149022D01*
X182042931Y-125138976D01*
X181919738Y-124982143D01*
X181911501Y-124973494D01*
X181760877Y-124842788D01*
X181751153Y-124835853D01*
X181578533Y-124735990D01*
X181567664Y-124731013D01*
X181564829Y-124730029D01*
X181563603Y-124729154D01*
X181562216Y-124728519D01*
X181562338Y-124728252D01*
X181507038Y-124688789D01*
X181480718Y-124622851D01*
X181494225Y-124553151D01*
X181517065Y-124521906D01*
X181956566Y-124082405D01*
X182018878Y-124048379D01*
X182045661Y-124045500D01*
X186600457Y-124045500D01*
X186625039Y-124047921D01*
X186640000Y-124050897D01*
X186667132Y-124045500D01*
X186667133Y-124045500D01*
X186747495Y-124029515D01*
X186796911Y-123996496D01*
X186815622Y-123983994D01*
X186815623Y-123983993D01*
X186838624Y-123968624D01*
X186847104Y-123955934D01*
X186862771Y-123936845D01*
X196616844Y-114182772D01*
X196635936Y-114167102D01*
X196638307Y-114165518D01*
X196638308Y-114165517D01*
X196648624Y-114158624D01*
X196709515Y-114067495D01*
X196725500Y-113987133D01*
X196725500Y-113987132D01*
X196725956Y-113984841D01*
X196728476Y-113972172D01*
X196728476Y-113972171D01*
X196730897Y-113960000D01*
X196727921Y-113945039D01*
X196725500Y-113920457D01*
X196725500Y-94394627D01*
X196745502Y-94326506D01*
X196774796Y-94294665D01*
X196836071Y-94247647D01*
X196842621Y-94242621D01*
X196930861Y-94127625D01*
X196986330Y-93993709D01*
X197005250Y-93850000D01*
X196986330Y-93706291D01*
X196930861Y-93572375D01*
X196842621Y-93457379D01*
X196774796Y-93405334D01*
X196732929Y-93347997D01*
X196725500Y-93305373D01*
X196725500Y-88589542D01*
X196727921Y-88564962D01*
X196728476Y-88562172D01*
X196730897Y-88550000D01*
X196709516Y-88442506D01*
X196696078Y-88422394D01*
X196663994Y-88374378D01*
X196663993Y-88374377D01*
X196655515Y-88361689D01*
X196648624Y-88351376D01*
X196635936Y-88342898D01*
X196616844Y-88327228D01*
X190415869Y-82126253D01*
X190381843Y-82063941D01*
X190386908Y-81993126D01*
X190395839Y-81974170D01*
X190400861Y-81967625D01*
X190456330Y-81833709D01*
X190475250Y-81690000D01*
X190456330Y-81546291D01*
X190400861Y-81412375D01*
X190334347Y-81325692D01*
X190308746Y-81259473D01*
X190323010Y-81189924D01*
X190372611Y-81139128D01*
X190434309Y-81122989D01*
X191188307Y-81122989D01*
X191236524Y-81132580D01*
X191358657Y-81183168D01*
X191366291Y-81186330D01*
X191510000Y-81205250D01*
X191653709Y-81186330D01*
X191787625Y-81130861D01*
X191902621Y-81042621D01*
X191990861Y-80927625D01*
X192046330Y-80793709D01*
X192065250Y-80650000D01*
X192046330Y-80506291D01*
X191990861Y-80372375D01*
X191902621Y-80257379D01*
X191809549Y-80185962D01*
X191767682Y-80128624D01*
X191763460Y-80057753D01*
X191798224Y-79995850D01*
X191860937Y-79962569D01*
X191886253Y-79960000D01*
X199024000Y-79960000D01*
X199092121Y-79980002D01*
X199138614Y-80033658D01*
X199150000Y-80086000D01*
X199150000Y-133124000D01*
X199129998Y-133192121D01*
X199076342Y-133238614D01*
X199024000Y-133250000D01*
X91376000Y-133250000D01*
X91307879Y-133229998D01*
X91261386Y-133176342D01*
X91250000Y-133124000D01*
X91250000Y-129464440D01*
X97839963Y-129464440D01*
X97840260Y-129469592D01*
X97840260Y-129469596D01*
X97853396Y-129697403D01*
X97853397Y-129697409D01*
X97853694Y-129702562D01*
X97906131Y-129935245D01*
X97908075Y-129940032D01*
X97908076Y-129940036D01*
X97983273Y-130125224D01*
X97995867Y-130156239D01*
X98120493Y-130359609D01*
X98276660Y-130539894D01*
X98460176Y-130692252D01*
X98666112Y-130812591D01*
X98888937Y-130897680D01*
X98894005Y-130898711D01*
X98894008Y-130898712D01*
X99009267Y-130922162D01*
X99122666Y-130945233D01*
X99127839Y-130945423D01*
X99127842Y-130945423D01*
X99355861Y-130953784D01*
X99355865Y-130953784D01*
X99361025Y-130953973D01*
X99366146Y-130953317D01*
X99592489Y-130924321D01*
X99592490Y-130924321D01*
X99597609Y-130923665D01*
X99826068Y-130855125D01*
X100040264Y-130750191D01*
X100121492Y-130692252D01*
X100230242Y-130614681D01*
X100234445Y-130611683D01*
X100241120Y-130605032D01*
X100361926Y-130484646D01*
X100403397Y-130443320D01*
X100437202Y-130396276D01*
X100539564Y-130253823D01*
X100542582Y-130249623D01*
X100550011Y-130234593D01*
X100645969Y-130040437D01*
X100645970Y-130040435D01*
X100648263Y-130035795D01*
X100713541Y-129820938D01*
X100716098Y-129812521D01*
X100716098Y-129812520D01*
X100717600Y-129807577D01*
X100718275Y-129802451D01*
X100748296Y-129574421D01*
X100748297Y-129574414D01*
X100748733Y-129571099D01*
X100749050Y-129558145D01*
X100750389Y-129503364D01*
X100750389Y-129503360D01*
X100750471Y-129500000D01*
X100737340Y-129340285D01*
X100731351Y-129267435D01*
X100731350Y-129267429D01*
X100730927Y-129262284D01*
X100703557Y-129153317D01*
X100692466Y-129109161D01*
X100695271Y-129038220D01*
X100725575Y-128989371D01*
X101122851Y-128592095D01*
X110775028Y-128592095D01*
X110800534Y-128859431D01*
X110801619Y-128863865D01*
X110801620Y-128863871D01*
X110849899Y-129061171D01*
X110864364Y-129120285D01*
X110866076Y-129124511D01*
X110866077Y-129124515D01*
X110932506Y-129288519D01*
X110965182Y-129369192D01*
X111100875Y-129600938D01*
X111207195Y-129733884D01*
X111215225Y-129743925D01*
X111268601Y-129810669D01*
X111464846Y-129993991D01*
X111541288Y-130047021D01*
X111681746Y-130144461D01*
X111681751Y-130144464D01*
X111685499Y-130147064D01*
X111689584Y-130149096D01*
X111689587Y-130149098D01*
X111704247Y-130156391D01*
X111925938Y-130266680D01*
X111930272Y-130268101D01*
X111930275Y-130268102D01*
X112176793Y-130348915D01*
X112176798Y-130348916D01*
X112181126Y-130350335D01*
X112185617Y-130351115D01*
X112185618Y-130351115D01*
X112441936Y-130395620D01*
X112441944Y-130395621D01*
X112445717Y-130396276D01*
X112449554Y-130396467D01*
X112528996Y-130400422D01*
X112529004Y-130400422D01*
X112530567Y-130400500D01*
X112698223Y-130400500D01*
X112700491Y-130400335D01*
X112700503Y-130400335D01*
X112830823Y-130390879D01*
X112897846Y-130386016D01*
X112902301Y-130385032D01*
X112902304Y-130385032D01*
X113155620Y-130329105D01*
X113155624Y-130329104D01*
X113160080Y-130328120D01*
X113356184Y-130253823D01*
X113406941Y-130234593D01*
X113406944Y-130234592D01*
X113411211Y-130232975D01*
X113604824Y-130125432D01*
X113641983Y-130104792D01*
X113641984Y-130104792D01*
X113645976Y-130102574D01*
X113775425Y-130003782D01*
X113855833Y-129942417D01*
X113855837Y-129942413D01*
X113859458Y-129939650D01*
X114047185Y-129747614D01*
X114113466Y-129656554D01*
X114202538Y-129534183D01*
X114202540Y-129534180D01*
X114205225Y-129530491D01*
X114293735Y-129362260D01*
X114328140Y-129296868D01*
X114328143Y-129296862D01*
X114330265Y-129292828D01*
X114337113Y-129273438D01*
X114418165Y-129043916D01*
X114418165Y-129043915D01*
X114419688Y-129039603D01*
X114438380Y-128944769D01*
X124802480Y-128944769D01*
X124812409Y-129159306D01*
X124862728Y-129368094D01*
X124865210Y-129373552D01*
X124865211Y-129373556D01*
X124911721Y-129475849D01*
X124951619Y-129563600D01*
X125075876Y-129738770D01*
X125080199Y-129742909D01*
X125080203Y-129742913D01*
X125226685Y-129883139D01*
X125231015Y-129887284D01*
X125411439Y-130003782D01*
X125610637Y-130084061D01*
X125691242Y-130099802D01*
X125816975Y-130124356D01*
X125816978Y-130124356D01*
X125821421Y-130125224D01*
X125827064Y-130125500D01*
X127935414Y-130125500D01*
X128095545Y-130110222D01*
X128101301Y-130108533D01*
X128101303Y-130108533D01*
X128192370Y-130081817D01*
X128301626Y-130049765D01*
X128306954Y-130047021D01*
X128487226Y-129954175D01*
X128487229Y-129954173D01*
X128492557Y-129951429D01*
X128661448Y-129818763D01*
X128802205Y-129656554D01*
X128849721Y-129574421D01*
X128906746Y-129475849D01*
X128909751Y-129470655D01*
X128980203Y-129267774D01*
X128986076Y-129227272D01*
X129010159Y-129061171D01*
X129010159Y-129061168D01*
X129011020Y-129055231D01*
X129001091Y-128840694D01*
X128994199Y-128812095D01*
X192445028Y-128812095D01*
X192470534Y-129079431D01*
X192471619Y-129083865D01*
X192471620Y-129083871D01*
X192490079Y-129159306D01*
X192534364Y-129340285D01*
X192536076Y-129344511D01*
X192536077Y-129344515D01*
X192629199Y-129574421D01*
X192635182Y-129589192D01*
X192770875Y-129820938D01*
X192823933Y-129887284D01*
X192885225Y-129963925D01*
X192938601Y-130030669D01*
X193134846Y-130213991D01*
X193207865Y-130264646D01*
X193351746Y-130364461D01*
X193351751Y-130364464D01*
X193355499Y-130367064D01*
X193359584Y-130369096D01*
X193359587Y-130369098D01*
X193422708Y-130400500D01*
X193595938Y-130486680D01*
X193600272Y-130488101D01*
X193600275Y-130488102D01*
X193846793Y-130568915D01*
X193846798Y-130568916D01*
X193851126Y-130570335D01*
X193855617Y-130571115D01*
X193855618Y-130571115D01*
X194111936Y-130615620D01*
X194111944Y-130615621D01*
X194115717Y-130616276D01*
X194119554Y-130616467D01*
X194198996Y-130620422D01*
X194199004Y-130620422D01*
X194200567Y-130620500D01*
X194368223Y-130620500D01*
X194370491Y-130620335D01*
X194370503Y-130620335D01*
X194500823Y-130610879D01*
X194567846Y-130606016D01*
X194572301Y-130605032D01*
X194572304Y-130605032D01*
X194825620Y-130549105D01*
X194825624Y-130549104D01*
X194830080Y-130548120D01*
X194997617Y-130484646D01*
X195076941Y-130454593D01*
X195076944Y-130454592D01*
X195081211Y-130452975D01*
X195265997Y-130350335D01*
X195311983Y-130324792D01*
X195311984Y-130324792D01*
X195315976Y-130322574D01*
X195411565Y-130249623D01*
X195525833Y-130162417D01*
X195525837Y-130162413D01*
X195529458Y-130159650D01*
X195532793Y-130156239D01*
X195679636Y-130006025D01*
X195717185Y-129967614D01*
X195821352Y-129824505D01*
X195872538Y-129754183D01*
X195872540Y-129754180D01*
X195875225Y-129750491D01*
X195953908Y-129600938D01*
X195998140Y-129516868D01*
X195998143Y-129516862D01*
X196000265Y-129512828D01*
X196017160Y-129464987D01*
X196088165Y-129263916D01*
X196088165Y-129263915D01*
X196089688Y-129259603D01*
X196117148Y-129120285D01*
X196140739Y-129000594D01*
X196140740Y-129000588D01*
X196141620Y-128996122D01*
X196143878Y-128950766D01*
X196154745Y-128732474D01*
X196154745Y-128732468D01*
X196154972Y-128727905D01*
X196129466Y-128460569D01*
X196122357Y-128431513D01*
X196066721Y-128204149D01*
X196065636Y-128199715D01*
X196023818Y-128096470D01*
X195966531Y-127955037D01*
X195966531Y-127955036D01*
X195964818Y-127950808D01*
X195829125Y-127719062D01*
X195718211Y-127580371D01*
X195664251Y-127512897D01*
X195664250Y-127512895D01*
X195661399Y-127509331D01*
X195465154Y-127326009D01*
X195321131Y-127226096D01*
X195248254Y-127175539D01*
X195248249Y-127175536D01*
X195244501Y-127172936D01*
X195240416Y-127170904D01*
X195240413Y-127170902D01*
X195068560Y-127085407D01*
X195004062Y-127053320D01*
X194999728Y-127051899D01*
X194999725Y-127051898D01*
X194753207Y-126971085D01*
X194753202Y-126971084D01*
X194748874Y-126969665D01*
X194727991Y-126966039D01*
X194488064Y-126924380D01*
X194488056Y-126924379D01*
X194484283Y-126923724D01*
X194475622Y-126923293D01*
X194401004Y-126919578D01*
X194400996Y-126919578D01*
X194399433Y-126919500D01*
X194231777Y-126919500D01*
X194229509Y-126919665D01*
X194229497Y-126919665D01*
X194099177Y-126929121D01*
X194032154Y-126933984D01*
X194027699Y-126934968D01*
X194027696Y-126934968D01*
X193774380Y-126990895D01*
X193774376Y-126990896D01*
X193769920Y-126991880D01*
X193652029Y-127036545D01*
X193523059Y-127085407D01*
X193523056Y-127085408D01*
X193518789Y-127087025D01*
X193421559Y-127141032D01*
X193305416Y-127205544D01*
X193284024Y-127217426D01*
X193272664Y-127226096D01*
X193074167Y-127377583D01*
X193074163Y-127377587D01*
X193070542Y-127380350D01*
X192882815Y-127572386D01*
X192880130Y-127576075D01*
X192770370Y-127726869D01*
X192724775Y-127789509D01*
X192672321Y-127889208D01*
X192601860Y-128023132D01*
X192601857Y-128023138D01*
X192599735Y-128027172D01*
X192598215Y-128031477D01*
X192598213Y-128031481D01*
X192515396Y-128266001D01*
X192510312Y-128280397D01*
X192501742Y-128323878D01*
X192464570Y-128512474D01*
X192458380Y-128543878D01*
X192458153Y-128548431D01*
X192458153Y-128548434D01*
X192446572Y-128781082D01*
X192445028Y-128812095D01*
X128994199Y-128812095D01*
X128952178Y-128637740D01*
X128950772Y-128631906D01*
X128930953Y-128588315D01*
X128892321Y-128503349D01*
X128861881Y-128436400D01*
X128748161Y-128276084D01*
X128741090Y-128266116D01*
X128741089Y-128266115D01*
X128737624Y-128261230D01*
X128733301Y-128257091D01*
X128733297Y-128257087D01*
X128586815Y-128116861D01*
X128586814Y-128116861D01*
X128582485Y-128112716D01*
X128402061Y-127996218D01*
X128202863Y-127915939D01*
X128068900Y-127889778D01*
X127996525Y-127875644D01*
X127996522Y-127875644D01*
X127992079Y-127874776D01*
X127986436Y-127874500D01*
X125878086Y-127874500D01*
X125717955Y-127889778D01*
X125712199Y-127891467D01*
X125712197Y-127891467D01*
X125632699Y-127914789D01*
X125511874Y-127950235D01*
X125506547Y-127952979D01*
X125506546Y-127952979D01*
X125326274Y-128045825D01*
X125326271Y-128045827D01*
X125320943Y-128048571D01*
X125152052Y-128181237D01*
X125011295Y-128343446D01*
X124903749Y-128529345D01*
X124833297Y-128732226D01*
X124832437Y-128738159D01*
X124832436Y-128738162D01*
X124803341Y-128938829D01*
X124802480Y-128944769D01*
X114438380Y-128944769D01*
X114456097Y-128854879D01*
X114470739Y-128780594D01*
X114470740Y-128780588D01*
X114471620Y-128776122D01*
X114473805Y-128732226D01*
X114484745Y-128512474D01*
X114484745Y-128512468D01*
X114484972Y-128507905D01*
X114459466Y-128240569D01*
X114450555Y-128204149D01*
X114396721Y-127984149D01*
X114395636Y-127979715D01*
X114385641Y-127955037D01*
X114296531Y-127735037D01*
X114296531Y-127735036D01*
X114294818Y-127730808D01*
X114159125Y-127499062D01*
X114045070Y-127356443D01*
X113994251Y-127292897D01*
X113994250Y-127292895D01*
X113991399Y-127289331D01*
X113795154Y-127106009D01*
X113664055Y-127015062D01*
X113578254Y-126955539D01*
X113578249Y-126955536D01*
X113574501Y-126952936D01*
X113570416Y-126950904D01*
X113570413Y-126950902D01*
X113434611Y-126883342D01*
X113334062Y-126833320D01*
X113329728Y-126831899D01*
X113329725Y-126831898D01*
X113083207Y-126751085D01*
X113083202Y-126751084D01*
X113078874Y-126749665D01*
X113074382Y-126748885D01*
X112818064Y-126704380D01*
X112818056Y-126704379D01*
X112814283Y-126703724D01*
X112805622Y-126703293D01*
X112731004Y-126699578D01*
X112730996Y-126699578D01*
X112729433Y-126699500D01*
X112561777Y-126699500D01*
X112559509Y-126699665D01*
X112559497Y-126699665D01*
X112429177Y-126709121D01*
X112362154Y-126713984D01*
X112357699Y-126714968D01*
X112357696Y-126714968D01*
X112104380Y-126770895D01*
X112104376Y-126770896D01*
X112099920Y-126771880D01*
X111990055Y-126813504D01*
X111853059Y-126865407D01*
X111853056Y-126865408D01*
X111848789Y-126867025D01*
X111819413Y-126883342D01*
X111637724Y-126984262D01*
X111614024Y-126997426D01*
X111582996Y-127021106D01*
X111404167Y-127157583D01*
X111404163Y-127157587D01*
X111400542Y-127160350D01*
X111397357Y-127163608D01*
X111397356Y-127163609D01*
X111336271Y-127226096D01*
X111212815Y-127352386D01*
X111190088Y-127383609D01*
X111070368Y-127548087D01*
X111054775Y-127569509D01*
X110995341Y-127682475D01*
X110931860Y-127803132D01*
X110931857Y-127803138D01*
X110929735Y-127807172D01*
X110928215Y-127811477D01*
X110928213Y-127811481D01*
X110868804Y-127979715D01*
X110840312Y-128060397D01*
X110815601Y-128185768D01*
X110796067Y-128284879D01*
X110788380Y-128323878D01*
X110788153Y-128328431D01*
X110788153Y-128328434D01*
X110775429Y-128584042D01*
X110775028Y-128592095D01*
X101122851Y-128592095D01*
X103332429Y-126382517D01*
X139955006Y-126382517D01*
X139968716Y-126591678D01*
X140020312Y-126794838D01*
X140108067Y-126985193D01*
X140229042Y-127156369D01*
X140379185Y-127302632D01*
X140383981Y-127305837D01*
X140383984Y-127305839D01*
X140464466Y-127359615D01*
X140553469Y-127419085D01*
X140558772Y-127421363D01*
X140558775Y-127421365D01*
X140731318Y-127495495D01*
X140746056Y-127501827D01*
X140794979Y-127512897D01*
X140944860Y-127546812D01*
X140944865Y-127546813D01*
X140950497Y-127548087D01*
X140956268Y-127548314D01*
X140956270Y-127548314D01*
X141020866Y-127550852D01*
X141159945Y-127556316D01*
X141265091Y-127541071D01*
X141361664Y-127527069D01*
X141361669Y-127527068D01*
X141367385Y-127526239D01*
X141372857Y-127524381D01*
X141372859Y-127524381D01*
X141560406Y-127460717D01*
X141560408Y-127460716D01*
X141565870Y-127458862D01*
X141706065Y-127380350D01*
X141743717Y-127359264D01*
X141743718Y-127359263D01*
X141748754Y-127356443D01*
X141757551Y-127349127D01*
X141905478Y-127226096D01*
X141909910Y-127222410D01*
X142008882Y-127103410D01*
X142040252Y-127065692D01*
X142040252Y-127065691D01*
X142043943Y-127061254D01*
X142146362Y-126878370D01*
X142149618Y-126868780D01*
X142211881Y-126685359D01*
X142211881Y-126685357D01*
X142213739Y-126679885D01*
X142214568Y-126674169D01*
X142214569Y-126674164D01*
X142241467Y-126488644D01*
X142243816Y-126472445D01*
X142245386Y-126412500D01*
X142242631Y-126382517D01*
X151955006Y-126382517D01*
X151968716Y-126591678D01*
X152020312Y-126794838D01*
X152108067Y-126985193D01*
X152229042Y-127156369D01*
X152379185Y-127302632D01*
X152383981Y-127305837D01*
X152383984Y-127305839D01*
X152464466Y-127359615D01*
X152553469Y-127419085D01*
X152558772Y-127421363D01*
X152558775Y-127421365D01*
X152731318Y-127495495D01*
X152746056Y-127501827D01*
X152794979Y-127512897D01*
X152944860Y-127546812D01*
X152944865Y-127546813D01*
X152950497Y-127548087D01*
X152956268Y-127548314D01*
X152956270Y-127548314D01*
X153020866Y-127550852D01*
X153159945Y-127556316D01*
X153265091Y-127541071D01*
X153361664Y-127527069D01*
X153361669Y-127527068D01*
X153367385Y-127526239D01*
X153372857Y-127524381D01*
X153372859Y-127524381D01*
X153560406Y-127460717D01*
X153560408Y-127460716D01*
X153565870Y-127458862D01*
X153706065Y-127380350D01*
X153743717Y-127359264D01*
X153743718Y-127359263D01*
X153748754Y-127356443D01*
X153757551Y-127349127D01*
X153905478Y-127226096D01*
X153909910Y-127222410D01*
X154008882Y-127103410D01*
X154040252Y-127065692D01*
X154040252Y-127065691D01*
X154043943Y-127061254D01*
X154146362Y-126878370D01*
X154149618Y-126868780D01*
X154200183Y-126719820D01*
X159849500Y-126719820D01*
X159858233Y-126763722D01*
X159865127Y-126774040D01*
X159865128Y-126774042D01*
X159868536Y-126779142D01*
X159891496Y-126813504D01*
X159901815Y-126820399D01*
X159930958Y-126839872D01*
X159930960Y-126839873D01*
X159941278Y-126846767D01*
X159985180Y-126855500D01*
X162614820Y-126855500D01*
X162642942Y-126849906D01*
X165219839Y-126849906D01*
X165228553Y-126861427D01*
X165335452Y-126939809D01*
X165343351Y-126944745D01*
X165572905Y-127065519D01*
X165581454Y-127069236D01*
X165826327Y-127154749D01*
X165835336Y-127157163D01*
X166090166Y-127205544D01*
X166099423Y-127206598D01*
X166358607Y-127216783D01*
X166367921Y-127216457D01*
X166625753Y-127188220D01*
X166634930Y-127186519D01*
X166885758Y-127120481D01*
X166894574Y-127117445D01*
X167132880Y-127015062D01*
X167141167Y-127010748D01*
X167361718Y-126874266D01*
X167369268Y-126868780D01*
X167374559Y-126864301D01*
X167382997Y-126851497D01*
X167376935Y-126841145D01*
X166312812Y-125777022D01*
X166298868Y-125769408D01*
X166297035Y-125769539D01*
X166290420Y-125773790D01*
X165226497Y-126837713D01*
X165219839Y-126849906D01*
X162642942Y-126849906D01*
X162658722Y-126846767D01*
X162669040Y-126839873D01*
X162669042Y-126839872D01*
X162698185Y-126820399D01*
X162708504Y-126813504D01*
X162731464Y-126779142D01*
X162734872Y-126774042D01*
X162734873Y-126774040D01*
X162741767Y-126763722D01*
X162750500Y-126719820D01*
X162750500Y-125362211D01*
X164487775Y-125362211D01*
X164500220Y-125621288D01*
X164501356Y-125630543D01*
X164551961Y-125884945D01*
X164554449Y-125893917D01*
X164642095Y-126138033D01*
X164645895Y-126146568D01*
X164768658Y-126375042D01*
X164773666Y-126382904D01*
X164843720Y-126476716D01*
X164854979Y-126485165D01*
X164867397Y-126478393D01*
X165927978Y-125417812D01*
X165934356Y-125406132D01*
X166664408Y-125406132D01*
X166664539Y-125407965D01*
X166668790Y-125414580D01*
X167736094Y-126481884D01*
X167748474Y-126488644D01*
X167756815Y-126482400D01*
X167890832Y-126274048D01*
X167895275Y-126265864D01*
X168001807Y-126029370D01*
X168004997Y-126020605D01*
X168075402Y-125770972D01*
X168077262Y-125761830D01*
X168110187Y-125503019D01*
X168110668Y-125496733D01*
X168112987Y-125408160D01*
X168112836Y-125401851D01*
X168093501Y-125141663D01*
X168092125Y-125132457D01*
X168034878Y-124879467D01*
X168032154Y-124870556D01*
X167938143Y-124628806D01*
X167934132Y-124620397D01*
X167805422Y-124395202D01*
X167800211Y-124387476D01*
X167756996Y-124332658D01*
X167745071Y-124324187D01*
X167733537Y-124330673D01*
X166672022Y-125392188D01*
X166664408Y-125406132D01*
X165934356Y-125406132D01*
X165935592Y-125403868D01*
X165935461Y-125402035D01*
X165931210Y-125395420D01*
X164865816Y-124330026D01*
X164852507Y-124322758D01*
X164842472Y-124329878D01*
X164826937Y-124348556D01*
X164821531Y-124356135D01*
X164686965Y-124577891D01*
X164682736Y-124586192D01*
X164582432Y-124825389D01*
X164579471Y-124834239D01*
X164515628Y-125085625D01*
X164514006Y-125094822D01*
X164488020Y-125352885D01*
X164487775Y-125362211D01*
X162750500Y-125362211D01*
X162750500Y-124090180D01*
X162741767Y-124046278D01*
X162734873Y-124035960D01*
X162734872Y-124035958D01*
X162715399Y-124006815D01*
X162708504Y-123996496D01*
X162698185Y-123989601D01*
X162669042Y-123970128D01*
X162669040Y-123970127D01*
X162658722Y-123963233D01*
X162630852Y-123957689D01*
X165217102Y-123957689D01*
X165221675Y-123967465D01*
X166287188Y-125032978D01*
X166301132Y-125040592D01*
X166302965Y-125040461D01*
X166309580Y-125036210D01*
X167374349Y-123971441D01*
X167380733Y-123959751D01*
X167371321Y-123947641D01*
X167224045Y-123845471D01*
X167216010Y-123840738D01*
X166983376Y-123726016D01*
X166974743Y-123722528D01*
X166727703Y-123643450D01*
X166718643Y-123641274D01*
X166462630Y-123599580D01*
X166453343Y-123598768D01*
X166193992Y-123595373D01*
X166184681Y-123595943D01*
X165927682Y-123630919D01*
X165918546Y-123632860D01*
X165669543Y-123705439D01*
X165660800Y-123708707D01*
X165425252Y-123817296D01*
X165417097Y-123821816D01*
X165226240Y-123946947D01*
X165217102Y-123957689D01*
X162630852Y-123957689D01*
X162614820Y-123954500D01*
X159985180Y-123954500D01*
X159941278Y-123963233D01*
X159930960Y-123970127D01*
X159930958Y-123970128D01*
X159901815Y-123989601D01*
X159891496Y-123996496D01*
X159884601Y-124006815D01*
X159865128Y-124035958D01*
X159865127Y-124035960D01*
X159858233Y-124046278D01*
X159849500Y-124090180D01*
X159849500Y-126719820D01*
X154200183Y-126719820D01*
X154211881Y-126685359D01*
X154211881Y-126685357D01*
X154213739Y-126679885D01*
X154214568Y-126674169D01*
X154214569Y-126674164D01*
X154241467Y-126488644D01*
X154243816Y-126472445D01*
X154245386Y-126412500D01*
X154226206Y-126203770D01*
X154207667Y-126138033D01*
X154197758Y-126102900D01*
X154169310Y-126002030D01*
X154076602Y-125814037D01*
X154049234Y-125777386D01*
X153954641Y-125650711D01*
X153954640Y-125650710D01*
X153951188Y-125646087D01*
X153797267Y-125503804D01*
X153619994Y-125391954D01*
X153586751Y-125378691D01*
X153548629Y-125363482D01*
X153425307Y-125314281D01*
X153419639Y-125313154D01*
X153419637Y-125313153D01*
X153225392Y-125274516D01*
X153225390Y-125274516D01*
X153219725Y-125273389D01*
X153213950Y-125273313D01*
X153213946Y-125273313D01*
X153108868Y-125271938D01*
X153010134Y-125270645D01*
X153004437Y-125271624D01*
X153004436Y-125271624D01*
X152958676Y-125279487D01*
X152803552Y-125306142D01*
X152606899Y-125378691D01*
X152601938Y-125381643D01*
X152601937Y-125381643D01*
X152433898Y-125481616D01*
X152426759Y-125485863D01*
X152269166Y-125624068D01*
X152265599Y-125628593D01*
X152265594Y-125628598D01*
X152148587Y-125777022D01*
X152139398Y-125788678D01*
X152136710Y-125793787D01*
X152044490Y-125969068D01*
X152044488Y-125969073D01*
X152041801Y-125974180D01*
X151979643Y-126174361D01*
X151955006Y-126382517D01*
X142242631Y-126382517D01*
X142226206Y-126203770D01*
X142207667Y-126138033D01*
X142197758Y-126102900D01*
X142169310Y-126002030D01*
X142076602Y-125814037D01*
X142049234Y-125777386D01*
X141954641Y-125650711D01*
X141954640Y-125650710D01*
X141951188Y-125646087D01*
X141797267Y-125503804D01*
X141619994Y-125391954D01*
X141586751Y-125378691D01*
X141548629Y-125363482D01*
X141425307Y-125314281D01*
X141419639Y-125313154D01*
X141419637Y-125313153D01*
X141225392Y-125274516D01*
X141225390Y-125274516D01*
X141219725Y-125273389D01*
X141213950Y-125273313D01*
X141213946Y-125273313D01*
X141108868Y-125271938D01*
X141010134Y-125270645D01*
X141004437Y-125271624D01*
X141004436Y-125271624D01*
X140958676Y-125279487D01*
X140803552Y-125306142D01*
X140606899Y-125378691D01*
X140601938Y-125381643D01*
X140601937Y-125381643D01*
X140433898Y-125481616D01*
X140426759Y-125485863D01*
X140269166Y-125624068D01*
X140265599Y-125628593D01*
X140265594Y-125628598D01*
X140148587Y-125777022D01*
X140139398Y-125788678D01*
X140136710Y-125793787D01*
X140044490Y-125969068D01*
X140044488Y-125969073D01*
X140041801Y-125974180D01*
X139979643Y-126174361D01*
X139955006Y-126382517D01*
X103332429Y-126382517D01*
X111880126Y-117834820D01*
X115579500Y-117834820D01*
X115588233Y-117878722D01*
X115595127Y-117889040D01*
X115595128Y-117889042D01*
X115614601Y-117918185D01*
X115621496Y-117928504D01*
X115631815Y-117935399D01*
X115660958Y-117954872D01*
X115660960Y-117954873D01*
X115671278Y-117961767D01*
X115715180Y-117970500D01*
X117544820Y-117970500D01*
X117588722Y-117961767D01*
X117599040Y-117954873D01*
X117599042Y-117954872D01*
X117628185Y-117935399D01*
X117638504Y-117928504D01*
X117645399Y-117918185D01*
X117664872Y-117889042D01*
X117664873Y-117889040D01*
X117671767Y-117878722D01*
X117680500Y-117834820D01*
X117680500Y-116005180D01*
X117671767Y-115961278D01*
X117664873Y-115950960D01*
X117664872Y-115950958D01*
X117645399Y-115921815D01*
X117638504Y-115911496D01*
X117603039Y-115887799D01*
X117599042Y-115885128D01*
X117599040Y-115885127D01*
X117588722Y-115878233D01*
X117544820Y-115869500D01*
X115715180Y-115869500D01*
X115671278Y-115878233D01*
X115660960Y-115885127D01*
X115660958Y-115885128D01*
X115656961Y-115887799D01*
X115621496Y-115911496D01*
X115614601Y-115921815D01*
X115595128Y-115950958D01*
X115595127Y-115950960D01*
X115588233Y-115961278D01*
X115579500Y-116005180D01*
X115579500Y-117834820D01*
X111880126Y-117834820D01*
X112502698Y-117212248D01*
X112511315Y-117204407D01*
X112517940Y-117200202D01*
X112565850Y-117149183D01*
X112568604Y-117146342D01*
X112588912Y-117126034D01*
X112591554Y-117122628D01*
X112599266Y-117113598D01*
X112625023Y-117086170D01*
X112630448Y-117080393D01*
X112640599Y-117061930D01*
X112651451Y-117045409D01*
X112659503Y-117035029D01*
X112659504Y-117035027D01*
X112664363Y-117028763D01*
X112682455Y-116986954D01*
X112687677Y-116976294D01*
X112705809Y-116943313D01*
X112705809Y-116943312D01*
X112709627Y-116936368D01*
X112714866Y-116915962D01*
X112721270Y-116897259D01*
X112726488Y-116885200D01*
X112729636Y-116877926D01*
X112730876Y-116870100D01*
X112730877Y-116870095D01*
X112736765Y-116832924D01*
X112739171Y-116821304D01*
X112748528Y-116784858D01*
X112748528Y-116784857D01*
X112750500Y-116777177D01*
X112750500Y-116756116D01*
X112752051Y-116736405D01*
X112754107Y-116723424D01*
X112755347Y-116715595D01*
X112751059Y-116670232D01*
X112750500Y-116658375D01*
X112750500Y-114182517D01*
X139955006Y-114182517D01*
X139968716Y-114391678D01*
X140020312Y-114594838D01*
X140108067Y-114785193D01*
X140229042Y-114956369D01*
X140261232Y-114987727D01*
X140357652Y-115081655D01*
X140379185Y-115102632D01*
X140383981Y-115105837D01*
X140383984Y-115105839D01*
X140481472Y-115170978D01*
X140553469Y-115219085D01*
X140558772Y-115221363D01*
X140558775Y-115221365D01*
X140734821Y-115297000D01*
X140746056Y-115301827D01*
X140820479Y-115318667D01*
X140944860Y-115346812D01*
X140944865Y-115346813D01*
X140950497Y-115348087D01*
X140956268Y-115348314D01*
X140956270Y-115348314D01*
X141020866Y-115350852D01*
X141159945Y-115356316D01*
X141265091Y-115341071D01*
X141361664Y-115327069D01*
X141361669Y-115327068D01*
X141367385Y-115326239D01*
X141372857Y-115324381D01*
X141372859Y-115324381D01*
X141560406Y-115260717D01*
X141560408Y-115260716D01*
X141565870Y-115258862D01*
X141640049Y-115217320D01*
X151959500Y-115217320D01*
X151968233Y-115261222D01*
X151975127Y-115271540D01*
X151975128Y-115271542D01*
X151992139Y-115297000D01*
X152001496Y-115311004D01*
X152011815Y-115317899D01*
X152040958Y-115337372D01*
X152040960Y-115337373D01*
X152051278Y-115344267D01*
X152095180Y-115353000D01*
X154104820Y-115353000D01*
X154148722Y-115344267D01*
X154159040Y-115337373D01*
X154159042Y-115337372D01*
X154188185Y-115317899D01*
X154198504Y-115311004D01*
X154207861Y-115297000D01*
X154224872Y-115271542D01*
X154224873Y-115271540D01*
X154231767Y-115261222D01*
X154240500Y-115217320D01*
X154240500Y-114614000D01*
X154260502Y-114545879D01*
X154314158Y-114499386D01*
X154366500Y-114488000D01*
X174377957Y-114488000D01*
X174402539Y-114490421D01*
X174417500Y-114493397D01*
X174444632Y-114488000D01*
X174444633Y-114488000D01*
X174524995Y-114472015D01*
X174566965Y-114443971D01*
X174566965Y-114443972D01*
X174566968Y-114443969D01*
X174593122Y-114426494D01*
X174595689Y-114430335D01*
X174595690Y-114430334D01*
X174593123Y-114426493D01*
X174605811Y-114418015D01*
X174616124Y-114411124D01*
X174624602Y-114398436D01*
X174640272Y-114379344D01*
X175376135Y-113643481D01*
X177809500Y-113643481D01*
X177809501Y-114956518D01*
X177810276Y-114961411D01*
X177810276Y-114961412D01*
X177814444Y-114987727D01*
X177824354Y-115050304D01*
X177881950Y-115163342D01*
X177971658Y-115253050D01*
X178084696Y-115310646D01*
X178094485Y-115312196D01*
X178094487Y-115312197D01*
X178121849Y-115316530D01*
X178178481Y-115325500D01*
X178559922Y-115325500D01*
X178941518Y-115325499D01*
X178946412Y-115324724D01*
X179025506Y-115312198D01*
X179025508Y-115312197D01*
X179035304Y-115310646D01*
X179054854Y-115300685D01*
X179066895Y-115294549D01*
X179148342Y-115253050D01*
X179238050Y-115163342D01*
X179295646Y-115050304D01*
X179297244Y-115040216D01*
X179297400Y-115039886D01*
X179300262Y-115031079D01*
X179301400Y-115031449D01*
X179327654Y-114976063D01*
X179387922Y-114938534D01*
X179458911Y-114939546D01*
X179518084Y-114978777D01*
X179533709Y-115002232D01*
X179620619Y-115170978D01*
X179627069Y-115181024D01*
X179750262Y-115337857D01*
X179758499Y-115346506D01*
X179909123Y-115477212D01*
X179918847Y-115484147D01*
X180091467Y-115584010D01*
X180102331Y-115588984D01*
X180290727Y-115654407D01*
X180291716Y-115654648D01*
X180302008Y-115653180D01*
X180306000Y-115639615D01*
X180306000Y-112964598D01*
X180302027Y-112951067D01*
X180292601Y-112949712D01*
X180203463Y-112971194D01*
X180192168Y-112975083D01*
X180010618Y-113057629D01*
X180000276Y-113063576D01*
X179837603Y-113178968D01*
X179828575Y-113186761D01*
X179690658Y-113330831D01*
X179683262Y-113340196D01*
X179575079Y-113507741D01*
X179569587Y-113518336D01*
X179539487Y-113593026D01*
X179495471Y-113648732D01*
X179428326Y-113671799D01*
X179359370Y-113654902D01*
X179310494Y-113603407D01*
X179298172Y-113565640D01*
X179297199Y-113559498D01*
X179297198Y-113559494D01*
X179295646Y-113549696D01*
X179238050Y-113436658D01*
X179148342Y-113346950D01*
X179035304Y-113289354D01*
X179025515Y-113287804D01*
X179025513Y-113287803D01*
X178998059Y-113283455D01*
X178941519Y-113274500D01*
X178560078Y-113274500D01*
X178178482Y-113274501D01*
X178173589Y-113275276D01*
X178173588Y-113275276D01*
X178094494Y-113287802D01*
X178094492Y-113287803D01*
X178084696Y-113289354D01*
X177971658Y-113346950D01*
X177881950Y-113436658D01*
X177824354Y-113549696D01*
X177822804Y-113559485D01*
X177822803Y-113559487D01*
X177819636Y-113579482D01*
X177809500Y-113643481D01*
X175376135Y-113643481D01*
X176947211Y-112072405D01*
X177009523Y-112038379D01*
X177036306Y-112035500D01*
X179853694Y-112035500D01*
X179921815Y-112055502D01*
X179942789Y-112072405D01*
X180777095Y-112906711D01*
X180811121Y-112969023D01*
X180814000Y-112995806D01*
X180814000Y-115635402D01*
X180817973Y-115648933D01*
X180827399Y-115650288D01*
X180916537Y-115628806D01*
X180927832Y-115624917D01*
X181109382Y-115542371D01*
X181119724Y-115536424D01*
X181282397Y-115421032D01*
X181291425Y-115413239D01*
X181429342Y-115269169D01*
X181436738Y-115259804D01*
X181544921Y-115092259D01*
X181550417Y-115081655D01*
X181624961Y-114896688D01*
X181630058Y-114879482D01*
X181632725Y-114880272D01*
X181659992Y-114827765D01*
X181721582Y-114792448D01*
X181792488Y-114796036D01*
X181850198Y-114837389D01*
X181869364Y-114871993D01*
X181884369Y-114913331D01*
X181980323Y-115059685D01*
X182107372Y-115180040D01*
X182258702Y-115267939D01*
X182426193Y-115318667D01*
X182600862Y-115329503D01*
X182608078Y-115328263D01*
X182608080Y-115328263D01*
X182766125Y-115301106D01*
X182766127Y-115301105D01*
X182773340Y-115299866D01*
X182934373Y-115231346D01*
X183075324Y-115127617D01*
X183080063Y-115122039D01*
X183080066Y-115122036D01*
X183183893Y-114999824D01*
X183183896Y-114999820D01*
X183188632Y-114994245D01*
X183268219Y-114838384D01*
X183270818Y-114827765D01*
X183308480Y-114673848D01*
X183309815Y-114668394D01*
X183310500Y-114657352D01*
X183310500Y-113981178D01*
X183295343Y-113851172D01*
X183274480Y-113793694D01*
X183238128Y-113693548D01*
X183235631Y-113686669D01*
X183139677Y-113540315D01*
X183012628Y-113419960D01*
X182861298Y-113332061D01*
X182837430Y-113324832D01*
X189992000Y-113324832D01*
X189992285Y-113330808D01*
X190006471Y-113479494D01*
X190008730Y-113491228D01*
X190064872Y-113682599D01*
X190069302Y-113693675D01*
X190160619Y-113870978D01*
X190167069Y-113881024D01*
X190290262Y-114037857D01*
X190298499Y-114046506D01*
X190449123Y-114177212D01*
X190458847Y-114184147D01*
X190631467Y-114284010D01*
X190642331Y-114288984D01*
X190830727Y-114354407D01*
X190831716Y-114354648D01*
X190842008Y-114353180D01*
X190846000Y-114339615D01*
X190846000Y-113272115D01*
X190841525Y-113256876D01*
X190840135Y-113255671D01*
X190832452Y-113254000D01*
X190010115Y-113254000D01*
X189994876Y-113258475D01*
X189993671Y-113259865D01*
X189992000Y-113267548D01*
X189992000Y-113324832D01*
X182837430Y-113324832D01*
X182693807Y-113281333D01*
X182519138Y-113270497D01*
X182511922Y-113271737D01*
X182511920Y-113271737D01*
X182353875Y-113298894D01*
X182353873Y-113298895D01*
X182346660Y-113300134D01*
X182269603Y-113332922D01*
X182207632Y-113359291D01*
X182185627Y-113368654D01*
X182179734Y-113372991D01*
X182176428Y-113375424D01*
X182173782Y-113376386D01*
X182173374Y-113376619D01*
X182173334Y-113376549D01*
X182109706Y-113399689D01*
X182040458Y-113384030D01*
X182012652Y-113363036D01*
X181377501Y-112727885D01*
X189992000Y-112727885D01*
X189996475Y-112743124D01*
X189997865Y-112744329D01*
X190005548Y-112746000D01*
X190827885Y-112746000D01*
X190843124Y-112741525D01*
X190844329Y-112740135D01*
X190846000Y-112732452D01*
X190846000Y-111664598D01*
X190842027Y-111651067D01*
X190832601Y-111649712D01*
X190743463Y-111671194D01*
X190732168Y-111675083D01*
X190550618Y-111757629D01*
X190540276Y-111763576D01*
X190377603Y-111878968D01*
X190368575Y-111886761D01*
X190230658Y-112030831D01*
X190223262Y-112040196D01*
X190115079Y-112207741D01*
X190109583Y-112218345D01*
X190035039Y-112403312D01*
X190031645Y-112414770D01*
X189993143Y-112611928D01*
X189992066Y-112620791D01*
X189992000Y-112623500D01*
X189992000Y-112727885D01*
X181377501Y-112727885D01*
X180242772Y-111593156D01*
X180227102Y-111574064D01*
X180225515Y-111571689D01*
X180218624Y-111561376D01*
X180195623Y-111546007D01*
X180197212Y-111543630D01*
X180197210Y-111543629D01*
X180195622Y-111546006D01*
X180169468Y-111528531D01*
X180169466Y-111528528D01*
X180169465Y-111528529D01*
X180137811Y-111507378D01*
X180127495Y-111500485D01*
X180115326Y-111498064D01*
X180115325Y-111498064D01*
X180047133Y-111484500D01*
X180032172Y-111481524D01*
X180032171Y-111481524D01*
X180020000Y-111479103D01*
X180007829Y-111481524D01*
X180005039Y-111482079D01*
X179980457Y-111484500D01*
X176909543Y-111484500D01*
X176884963Y-111482079D01*
X176882173Y-111481524D01*
X176882171Y-111481524D01*
X176870000Y-111479103D01*
X176857829Y-111481524D01*
X176842868Y-111484500D01*
X176842867Y-111484500D01*
X176762505Y-111500485D01*
X176720535Y-111528529D01*
X176720535Y-111528528D01*
X176720532Y-111528531D01*
X176694378Y-111546006D01*
X176691811Y-111542165D01*
X176691810Y-111542166D01*
X176694377Y-111546007D01*
X176671376Y-111561376D01*
X176664485Y-111571689D01*
X176662898Y-111574064D01*
X176647228Y-111593156D01*
X174340289Y-113900095D01*
X174277977Y-113934121D01*
X174251194Y-113937000D01*
X154366500Y-113937000D01*
X154298379Y-113916998D01*
X154251886Y-113863342D01*
X154240500Y-113811000D01*
X154240500Y-113207680D01*
X154231767Y-113163778D01*
X154224873Y-113153460D01*
X154224872Y-113153458D01*
X154205399Y-113124315D01*
X154198504Y-113113996D01*
X154186750Y-113106142D01*
X154159042Y-113087628D01*
X154159040Y-113087627D01*
X154148722Y-113080733D01*
X154104820Y-113072000D01*
X152095180Y-113072000D01*
X152051278Y-113080733D01*
X152040960Y-113087627D01*
X152040958Y-113087628D01*
X152013250Y-113106142D01*
X152001496Y-113113996D01*
X151994601Y-113124315D01*
X151975128Y-113153458D01*
X151975127Y-113153460D01*
X151968233Y-113163778D01*
X151959500Y-113207680D01*
X151959500Y-115217320D01*
X141640049Y-115217320D01*
X141748754Y-115156443D01*
X141909910Y-115022410D01*
X142043943Y-114861254D01*
X142146362Y-114678370D01*
X142149749Y-114668394D01*
X142211881Y-114485359D01*
X142211881Y-114485357D01*
X142213739Y-114479885D01*
X142214568Y-114474169D01*
X142214569Y-114474164D01*
X142243283Y-114276119D01*
X142243816Y-114272445D01*
X142245386Y-114212500D01*
X142226206Y-114003770D01*
X142219835Y-113981178D01*
X142181229Y-113844292D01*
X142169310Y-113802030D01*
X142076602Y-113614037D01*
X142060913Y-113593026D01*
X141954641Y-113450711D01*
X141954640Y-113450710D01*
X141951188Y-113446087D01*
X141828767Y-113332922D01*
X141801507Y-113307723D01*
X141801504Y-113307721D01*
X141797267Y-113303804D01*
X141619994Y-113191954D01*
X141586751Y-113178691D01*
X141523504Y-113153458D01*
X141425307Y-113114281D01*
X141419639Y-113113154D01*
X141419637Y-113113153D01*
X141225392Y-113074516D01*
X141225390Y-113074516D01*
X141219725Y-113073389D01*
X141213950Y-113073313D01*
X141213946Y-113073313D01*
X141108868Y-113071938D01*
X141010134Y-113070645D01*
X141004437Y-113071624D01*
X141004436Y-113071624D01*
X140907509Y-113088279D01*
X140803552Y-113106142D01*
X140606899Y-113178691D01*
X140601938Y-113181643D01*
X140601937Y-113181643D01*
X140435135Y-113280880D01*
X140426759Y-113285863D01*
X140269166Y-113424068D01*
X140265599Y-113428593D01*
X140265594Y-113428598D01*
X140142972Y-113584144D01*
X140139398Y-113588678D01*
X140136710Y-113593787D01*
X140044490Y-113769068D01*
X140044488Y-113769073D01*
X140041801Y-113774180D01*
X140031426Y-113807594D01*
X139982779Y-113964262D01*
X139979643Y-113974361D01*
X139955006Y-114182517D01*
X112750500Y-114182517D01*
X112750500Y-106944769D01*
X124802480Y-106944769D01*
X124812409Y-107159306D01*
X124862728Y-107368094D01*
X124865210Y-107373552D01*
X124865211Y-107373556D01*
X124911721Y-107475849D01*
X124951619Y-107563600D01*
X125075876Y-107738770D01*
X125080199Y-107742909D01*
X125080203Y-107742913D01*
X125226685Y-107883139D01*
X125231015Y-107887284D01*
X125411439Y-108003782D01*
X125610637Y-108084061D01*
X125715008Y-108104443D01*
X125816975Y-108124356D01*
X125816978Y-108124356D01*
X125821421Y-108125224D01*
X125827064Y-108125500D01*
X127935414Y-108125500D01*
X128095545Y-108110222D01*
X128101301Y-108108533D01*
X128101303Y-108108533D01*
X128192370Y-108081817D01*
X128301626Y-108049765D01*
X128306954Y-108047021D01*
X128487226Y-107954175D01*
X128487229Y-107954173D01*
X128492557Y-107951429D01*
X128661448Y-107818763D01*
X128802205Y-107656554D01*
X128909751Y-107470655D01*
X128980203Y-107267774D01*
X128995086Y-107165131D01*
X129010159Y-107061171D01*
X129010159Y-107061168D01*
X129011020Y-107055231D01*
X129001091Y-106840694D01*
X128982922Y-106765303D01*
X128952178Y-106637740D01*
X128950772Y-106631906D01*
X128904141Y-106529345D01*
X128894420Y-106507966D01*
X128861881Y-106436400D01*
X128737624Y-106261230D01*
X128733301Y-106257091D01*
X128733297Y-106257087D01*
X128586815Y-106116861D01*
X128586814Y-106116861D01*
X128582485Y-106112716D01*
X128402061Y-105996218D01*
X128202863Y-105915939D01*
X128068900Y-105889778D01*
X127996525Y-105875644D01*
X127996522Y-105875644D01*
X127992079Y-105874776D01*
X127986436Y-105874500D01*
X125878086Y-105874500D01*
X125717955Y-105889778D01*
X125712199Y-105891467D01*
X125712197Y-105891467D01*
X125632699Y-105914789D01*
X125511874Y-105950235D01*
X125506547Y-105952979D01*
X125506546Y-105952979D01*
X125326274Y-106045825D01*
X125326271Y-106045827D01*
X125320943Y-106048571D01*
X125152052Y-106181237D01*
X125011295Y-106343446D01*
X124903749Y-106529345D01*
X124833297Y-106732226D01*
X124832437Y-106738159D01*
X124832436Y-106738162D01*
X124815555Y-106854591D01*
X124802480Y-106944769D01*
X112750500Y-106944769D01*
X112750500Y-106021636D01*
X112770502Y-105953515D01*
X112787405Y-105932541D01*
X116630983Y-102088963D01*
X127259607Y-102088963D01*
X127276804Y-102264348D01*
X127332429Y-102431564D01*
X127423719Y-102582301D01*
X127546135Y-102709068D01*
X127552028Y-102712924D01*
X127552029Y-102712925D01*
X127583070Y-102733237D01*
X127693595Y-102805562D01*
X127737916Y-102822045D01*
X127852166Y-102864535D01*
X127852168Y-102864536D01*
X127858768Y-102866990D01*
X127865747Y-102867921D01*
X127865750Y-102867922D01*
X127918530Y-102874964D01*
X128033446Y-102890297D01*
X128040457Y-102889659D01*
X128040461Y-102889659D01*
X128201925Y-102874964D01*
X128208946Y-102874325D01*
X128215648Y-102872147D01*
X128215650Y-102872147D01*
X128369848Y-102822045D01*
X128369851Y-102822044D01*
X128376547Y-102819868D01*
X128527917Y-102729633D01*
X128533011Y-102724782D01*
X128533015Y-102724779D01*
X128602642Y-102658473D01*
X128655535Y-102608104D01*
X128753057Y-102461322D01*
X128767584Y-102423080D01*
X128813136Y-102303165D01*
X128813137Y-102303160D01*
X128815636Y-102296582D01*
X128840162Y-102122071D01*
X128840470Y-102100000D01*
X128820826Y-101924873D01*
X128762872Y-101758449D01*
X128669486Y-101609001D01*
X128545312Y-101483957D01*
X128396519Y-101389530D01*
X128344174Y-101370891D01*
X128237139Y-101332777D01*
X128237137Y-101332776D01*
X128230505Y-101330415D01*
X128223517Y-101329582D01*
X128223514Y-101329581D01*
X128104911Y-101315439D01*
X128055518Y-101309549D01*
X128048515Y-101310285D01*
X128048514Y-101310285D01*
X127887258Y-101327234D01*
X127887256Y-101327234D01*
X127880258Y-101327970D01*
X127713434Y-101384761D01*
X127652458Y-101422274D01*
X127569345Y-101473405D01*
X127569342Y-101473407D01*
X127563338Y-101477101D01*
X127558303Y-101482032D01*
X127558300Y-101482034D01*
X127551234Y-101488954D01*
X127437430Y-101600400D01*
X127341967Y-101748529D01*
X127281694Y-101914127D01*
X127259607Y-102088963D01*
X116630983Y-102088963D01*
X117532541Y-101187405D01*
X117594853Y-101153379D01*
X117621636Y-101150500D01*
X122471888Y-101150500D01*
X122540880Y-101171067D01*
X122593595Y-101205562D01*
X122637916Y-101222045D01*
X122752166Y-101264535D01*
X122752168Y-101264536D01*
X122758768Y-101266990D01*
X122765747Y-101267921D01*
X122765750Y-101267922D01*
X122818530Y-101274964D01*
X122933446Y-101290297D01*
X122940457Y-101289659D01*
X122940461Y-101289659D01*
X123101925Y-101274964D01*
X123108946Y-101274325D01*
X123115648Y-101272147D01*
X123115650Y-101272147D01*
X123269848Y-101222045D01*
X123269851Y-101222044D01*
X123276547Y-101219868D01*
X123427917Y-101129633D01*
X123433011Y-101124782D01*
X123433015Y-101124779D01*
X123502642Y-101058473D01*
X123555535Y-101008104D01*
X123653057Y-100861322D01*
X123667584Y-100823080D01*
X123713136Y-100703165D01*
X123713137Y-100703160D01*
X123715636Y-100696582D01*
X123740162Y-100522071D01*
X123740470Y-100500000D01*
X123720826Y-100324873D01*
X123662872Y-100158449D01*
X123569486Y-100009001D01*
X123548165Y-99987530D01*
X123463517Y-99902290D01*
X123445312Y-99883957D01*
X123419929Y-99867848D01*
X123361577Y-99830817D01*
X123296519Y-99789530D01*
X123244174Y-99770891D01*
X123137139Y-99732777D01*
X123137137Y-99732776D01*
X123130505Y-99730415D01*
X123123517Y-99729582D01*
X123123514Y-99729581D01*
X123004911Y-99715439D01*
X122955518Y-99709549D01*
X122948515Y-99710285D01*
X122948514Y-99710285D01*
X122787258Y-99727234D01*
X122787256Y-99727234D01*
X122780258Y-99727970D01*
X122692651Y-99757794D01*
X122620104Y-99782490D01*
X122620101Y-99782491D01*
X122613434Y-99784761D01*
X122599540Y-99793309D01*
X122538572Y-99830817D01*
X122472549Y-99849500D01*
X117381001Y-99849500D01*
X117369360Y-99848951D01*
X117361704Y-99847240D01*
X117293355Y-99849388D01*
X117291756Y-99849438D01*
X117287799Y-99849500D01*
X117259075Y-99849500D01*
X117254812Y-99850038D01*
X117242983Y-99850970D01*
X117197431Y-99852402D01*
X117177193Y-99858281D01*
X117157840Y-99862289D01*
X117154227Y-99862745D01*
X117144808Y-99863935D01*
X117144806Y-99863935D01*
X117136942Y-99864929D01*
X117129570Y-99867848D01*
X117129569Y-99867848D01*
X117094584Y-99881699D01*
X117083354Y-99885544D01*
X117047212Y-99896044D01*
X117039602Y-99898255D01*
X117032783Y-99902288D01*
X117032778Y-99902290D01*
X117021467Y-99908980D01*
X117003708Y-99917680D01*
X116991504Y-99922512D01*
X116984129Y-99925432D01*
X116977715Y-99930092D01*
X116947273Y-99952209D01*
X116937353Y-99958725D01*
X116898135Y-99981919D01*
X116883242Y-99996812D01*
X116868208Y-100009653D01*
X116851163Y-100022037D01*
X116846110Y-100028145D01*
X116822121Y-100057143D01*
X116814131Y-100065923D01*
X111697302Y-105182752D01*
X111688685Y-105190593D01*
X111682060Y-105194798D01*
X111676633Y-105200577D01*
X111676632Y-105200578D01*
X111634151Y-105245816D01*
X111631396Y-105248658D01*
X111611089Y-105268965D01*
X111608660Y-105272096D01*
X111608655Y-105272102D01*
X111608442Y-105272377D01*
X111600745Y-105281390D01*
X111569552Y-105314607D01*
X111565733Y-105321554D01*
X111559404Y-105333066D01*
X111548550Y-105349590D01*
X111535638Y-105366236D01*
X111517546Y-105408045D01*
X111512330Y-105418693D01*
X111490373Y-105458632D01*
X111488402Y-105466311D01*
X111488401Y-105466312D01*
X111485133Y-105479041D01*
X111478727Y-105497750D01*
X111473512Y-105509800D01*
X111473510Y-105509805D01*
X111470365Y-105517074D01*
X111469126Y-105524898D01*
X111463239Y-105562065D01*
X111460831Y-105573690D01*
X111451472Y-105610140D01*
X111451471Y-105610145D01*
X111449500Y-105617823D01*
X111449500Y-105638884D01*
X111447949Y-105658596D01*
X111444653Y-105679405D01*
X111445399Y-105687296D01*
X111448941Y-105724765D01*
X111449500Y-105736623D01*
X111449500Y-116373364D01*
X111429498Y-116441485D01*
X111412595Y-116462459D01*
X99808263Y-128066791D01*
X99745951Y-128100817D01*
X99677112Y-128096470D01*
X99671670Y-128094543D01*
X99671662Y-128094541D01*
X99666794Y-128092817D01*
X99520688Y-128066791D01*
X99437060Y-128051894D01*
X99437056Y-128051894D01*
X99431972Y-128050988D01*
X99348140Y-128049964D01*
X99198640Y-128048137D01*
X99198638Y-128048137D01*
X99193471Y-128048074D01*
X98957698Y-128084153D01*
X98730982Y-128158255D01*
X98726394Y-128160643D01*
X98726390Y-128160645D01*
X98564113Y-128245121D01*
X98519414Y-128268390D01*
X98515281Y-128271493D01*
X98515278Y-128271495D01*
X98412541Y-128348633D01*
X98328675Y-128411602D01*
X98163887Y-128584042D01*
X98160973Y-128588314D01*
X98160972Y-128588315D01*
X98068858Y-128723349D01*
X98029475Y-128781082D01*
X98004509Y-128834867D01*
X97950711Y-128950766D01*
X97929051Y-128997428D01*
X97865309Y-129227272D01*
X97864760Y-129232409D01*
X97849676Y-129373556D01*
X97839963Y-129464440D01*
X91250000Y-129464440D01*
X91250000Y-125814820D01*
X97844500Y-125814820D01*
X97853233Y-125858722D01*
X97860127Y-125869040D01*
X97860128Y-125869042D01*
X97875468Y-125892000D01*
X97886496Y-125908504D01*
X97896815Y-125915399D01*
X97925958Y-125934872D01*
X97925960Y-125934873D01*
X97936278Y-125941767D01*
X97980180Y-125950500D01*
X100609820Y-125950500D01*
X100653722Y-125941767D01*
X100664040Y-125934873D01*
X100664042Y-125934872D01*
X100693185Y-125915399D01*
X100703504Y-125908504D01*
X100714532Y-125892000D01*
X100729872Y-125869042D01*
X100729873Y-125869040D01*
X100736767Y-125858722D01*
X100745500Y-125814820D01*
X100745500Y-123185180D01*
X100736767Y-123141278D01*
X100729873Y-123130960D01*
X100729872Y-123130958D01*
X100710399Y-123101815D01*
X100703504Y-123091496D01*
X100693185Y-123084601D01*
X100664042Y-123065128D01*
X100664040Y-123065127D01*
X100653722Y-123058233D01*
X100609820Y-123049500D01*
X97980180Y-123049500D01*
X97936278Y-123058233D01*
X97925960Y-123065127D01*
X97925958Y-123065128D01*
X97896815Y-123084601D01*
X97886496Y-123091496D01*
X97879601Y-123101815D01*
X97860128Y-123130958D01*
X97860127Y-123130960D01*
X97853233Y-123141278D01*
X97844500Y-123185180D01*
X97844500Y-125814820D01*
X91250000Y-125814820D01*
X91250000Y-116905262D01*
X94774520Y-116905262D01*
X94775036Y-116911406D01*
X94787677Y-117061938D01*
X94791759Y-117110553D01*
X94793458Y-117116478D01*
X94820920Y-117212248D01*
X94848544Y-117308586D01*
X94851359Y-117314063D01*
X94851360Y-117314066D01*
X94872247Y-117354707D01*
X94942712Y-117491818D01*
X95070677Y-117653270D01*
X95227564Y-117786791D01*
X95407398Y-117887297D01*
X95502238Y-117918113D01*
X95597471Y-117949056D01*
X95597475Y-117949057D01*
X95603329Y-117950959D01*
X95807894Y-117975351D01*
X95814029Y-117974879D01*
X95814031Y-117974879D01*
X95886625Y-117969293D01*
X96013300Y-117959546D01*
X96019230Y-117957890D01*
X96019232Y-117957890D01*
X96205797Y-117905800D01*
X96205796Y-117905800D01*
X96211725Y-117904145D01*
X96217214Y-117901372D01*
X96217220Y-117901370D01*
X96390116Y-117814033D01*
X96395610Y-117811258D01*
X96557951Y-117684424D01*
X96692564Y-117528472D01*
X96713387Y-117491818D01*
X96791276Y-117354707D01*
X96794323Y-117349344D01*
X96859351Y-117153863D01*
X96885171Y-116949474D01*
X96885583Y-116920000D01*
X96865480Y-116714970D01*
X96805935Y-116517749D01*
X96709218Y-116335849D01*
X96635859Y-116245902D01*
X96582906Y-116180975D01*
X96582903Y-116180972D01*
X96579011Y-116176200D01*
X96561786Y-116161950D01*
X96425025Y-116048811D01*
X96425021Y-116048809D01*
X96420275Y-116044882D01*
X96239055Y-115946897D01*
X96042254Y-115885977D01*
X96036129Y-115885333D01*
X96036128Y-115885333D01*
X95843498Y-115865087D01*
X95843496Y-115865087D01*
X95837369Y-115864443D01*
X95750529Y-115872346D01*
X95638342Y-115882555D01*
X95638339Y-115882556D01*
X95632203Y-115883114D01*
X95434572Y-115941280D01*
X95252002Y-116036726D01*
X95247201Y-116040586D01*
X95247198Y-116040588D01*
X95236971Y-116048811D01*
X95091447Y-116165815D01*
X94959024Y-116323630D01*
X94956056Y-116329028D01*
X94956053Y-116329033D01*
X94902991Y-116425554D01*
X94859776Y-116504162D01*
X94797484Y-116700532D01*
X94796798Y-116706649D01*
X94796797Y-116706653D01*
X94794916Y-116723424D01*
X94774520Y-116905262D01*
X91250000Y-116905262D01*
X91250000Y-88250796D01*
X122547240Y-88250796D01*
X122547489Y-88258719D01*
X122549438Y-88320730D01*
X122549500Y-88324688D01*
X122549500Y-88353425D01*
X122549995Y-88357342D01*
X122550039Y-88357691D01*
X122550971Y-88369524D01*
X122552403Y-88415069D01*
X122554615Y-88422683D01*
X122554616Y-88422688D01*
X122558278Y-88435292D01*
X122562289Y-88454656D01*
X122564929Y-88475558D01*
X122567848Y-88482929D01*
X122567848Y-88482931D01*
X122581702Y-88517920D01*
X122585541Y-88529131D01*
X122598256Y-88572898D01*
X122608099Y-88589542D01*
X122608981Y-88591033D01*
X122617676Y-88608781D01*
X122625432Y-88628371D01*
X122652218Y-88665238D01*
X122658725Y-88675146D01*
X122677883Y-88707542D01*
X122677887Y-88707547D01*
X122681919Y-88714365D01*
X122696812Y-88729258D01*
X122709653Y-88744292D01*
X122722037Y-88761337D01*
X122728145Y-88766390D01*
X122757143Y-88790379D01*
X122765923Y-88798369D01*
X145952696Y-111985142D01*
X145986722Y-112047454D01*
X145988728Y-112089046D01*
X145977595Y-112183109D01*
X145991033Y-112388143D01*
X146041612Y-112587295D01*
X146044029Y-112592538D01*
X146113450Y-112743124D01*
X146127635Y-112773895D01*
X146246224Y-112941694D01*
X146393405Y-113085072D01*
X146398201Y-113088277D01*
X146398204Y-113088279D01*
X146529413Y-113175949D01*
X146564251Y-113199227D01*
X146569554Y-113201505D01*
X146569557Y-113201507D01*
X146733022Y-113271737D01*
X146753039Y-113280337D01*
X146826251Y-113296903D01*
X146947809Y-113324409D01*
X146947814Y-113324410D01*
X146953446Y-113325684D01*
X146959217Y-113325911D01*
X146959219Y-113325911D01*
X147021281Y-113328349D01*
X147158762Y-113333751D01*
X147261726Y-113318822D01*
X147356396Y-113305096D01*
X147356401Y-113305095D01*
X147362110Y-113304267D01*
X147367574Y-113302412D01*
X147367579Y-113302411D01*
X147551208Y-113240078D01*
X147551213Y-113240076D01*
X147556680Y-113238220D01*
X147600166Y-113213867D01*
X147666544Y-113176693D01*
X147735955Y-113137821D01*
X147752195Y-113124315D01*
X147889500Y-113010118D01*
X147893932Y-113006432D01*
X147944425Y-112945721D01*
X148021627Y-112852897D01*
X148021629Y-112852894D01*
X148025321Y-112848455D01*
X148113329Y-112691306D01*
X148122896Y-112674223D01*
X148122897Y-112674221D01*
X148125720Y-112669180D01*
X148127576Y-112663713D01*
X148127578Y-112663708D01*
X148189911Y-112480079D01*
X148189912Y-112480074D01*
X148191767Y-112474610D01*
X148192595Y-112468901D01*
X148192596Y-112468896D01*
X148219527Y-112283151D01*
X148221251Y-112271262D01*
X148222790Y-112212500D01*
X148203989Y-112007888D01*
X148201453Y-111998894D01*
X148149784Y-111815692D01*
X148148215Y-111810128D01*
X148057336Y-111625844D01*
X147968874Y-111507378D01*
X147937849Y-111465831D01*
X147937848Y-111465830D01*
X147934396Y-111461207D01*
X147783511Y-111321731D01*
X147609736Y-111212087D01*
X147418890Y-111135947D01*
X147413230Y-111134821D01*
X147413226Y-111134820D01*
X147223032Y-111096988D01*
X147223027Y-111096988D01*
X147217364Y-111095861D01*
X147211589Y-111095785D01*
X147211585Y-111095785D01*
X147108636Y-111094437D01*
X147011907Y-111093171D01*
X147006214Y-111094149D01*
X147006204Y-111094150D01*
X146981233Y-111098441D01*
X146910709Y-111090263D01*
X146870802Y-111063356D01*
X123887405Y-88079959D01*
X123853379Y-88017647D01*
X123850500Y-87990864D01*
X123850500Y-71959075D01*
X123835071Y-71836942D01*
X123774568Y-71684129D01*
X123758560Y-71662095D01*
X123682623Y-71557577D01*
X123677963Y-71551163D01*
X123551326Y-71446400D01*
X123402613Y-71376421D01*
X123394830Y-71374936D01*
X123394826Y-71374935D01*
X123248956Y-71347109D01*
X123248954Y-71347109D01*
X123241170Y-71345624D01*
X123159155Y-71350784D01*
X123085051Y-71355446D01*
X123085049Y-71355446D01*
X123077140Y-71355944D01*
X123069604Y-71358393D01*
X123069602Y-71358393D01*
X123027637Y-71372028D01*
X122920829Y-71406732D01*
X122782060Y-71494798D01*
X122776633Y-71500577D01*
X122776632Y-71500578D01*
X122754967Y-71523649D01*
X122669552Y-71614607D01*
X122665735Y-71621551D01*
X122665733Y-71621553D01*
X122625685Y-71694400D01*
X122590373Y-71758632D01*
X122588403Y-71766304D01*
X122588402Y-71766307D01*
X122552725Y-71905262D01*
X122549500Y-71917823D01*
X122549500Y-88231500D01*
X122548951Y-88243140D01*
X122547240Y-88250796D01*
X91250000Y-88250796D01*
X91250000Y-73081406D01*
X115833423Y-73081406D01*
X115838704Y-73088461D01*
X116015080Y-73191527D01*
X116024363Y-73195974D01*
X116231003Y-73274883D01*
X116240901Y-73277759D01*
X116457653Y-73321857D01*
X116467883Y-73323076D01*
X116688914Y-73331182D01*
X116699223Y-73330714D01*
X116918623Y-73302608D01*
X116928688Y-73300468D01*
X117140557Y-73236905D01*
X117150152Y-73233144D01*
X117348778Y-73135838D01*
X117357636Y-73130559D01*
X117415097Y-73089572D01*
X117423497Y-73078874D01*
X117416510Y-73065721D01*
X116642811Y-72292021D01*
X116628868Y-72284408D01*
X116627034Y-72284539D01*
X116620420Y-72288790D01*
X115840180Y-73069031D01*
X115833423Y-73081406D01*
X91250000Y-73081406D01*
X91250000Y-71905262D01*
X107574520Y-71905262D01*
X107591759Y-72110553D01*
X107593458Y-72116478D01*
X107642868Y-72288790D01*
X107648544Y-72308586D01*
X107651359Y-72314063D01*
X107651360Y-72314066D01*
X107715666Y-72439192D01*
X107742712Y-72491818D01*
X107870677Y-72653270D01*
X108027564Y-72786791D01*
X108207398Y-72887297D01*
X108302238Y-72918113D01*
X108397471Y-72949056D01*
X108397475Y-72949057D01*
X108403329Y-72950959D01*
X108607894Y-72975351D01*
X108614029Y-72974879D01*
X108614031Y-72974879D01*
X108670039Y-72970569D01*
X108813300Y-72959546D01*
X108819230Y-72957890D01*
X108819232Y-72957890D01*
X109005797Y-72905800D01*
X109005796Y-72905800D01*
X109011725Y-72904145D01*
X109017214Y-72901372D01*
X109017220Y-72901370D01*
X109190116Y-72814033D01*
X109195610Y-72811258D01*
X109357951Y-72684424D01*
X109430400Y-72600491D01*
X109488540Y-72533134D01*
X109488540Y-72533133D01*
X109492564Y-72528472D01*
X109513387Y-72491818D01*
X109591276Y-72354707D01*
X109594323Y-72349344D01*
X109659351Y-72153863D01*
X109685171Y-71949474D01*
X109685583Y-71920000D01*
X109682704Y-71890638D01*
X115217893Y-71890638D01*
X115230627Y-72111468D01*
X115232061Y-72121670D01*
X115280685Y-72337439D01*
X115283773Y-72347292D01*
X115366986Y-72552220D01*
X115371634Y-72561421D01*
X115460097Y-72705781D01*
X115470553Y-72715242D01*
X115479331Y-72711458D01*
X116257979Y-71932811D01*
X116264356Y-71921132D01*
X116994408Y-71921132D01*
X116994539Y-71922966D01*
X116998790Y-71929580D01*
X117776307Y-72707096D01*
X117788313Y-72713652D01*
X117800052Y-72704684D01*
X117838010Y-72651859D01*
X117843321Y-72643020D01*
X117941318Y-72444737D01*
X117945117Y-72435142D01*
X118009415Y-72223517D01*
X118011594Y-72213436D01*
X118040702Y-71992338D01*
X118041221Y-71985663D01*
X118042744Y-71923364D01*
X118042550Y-71916646D01*
X118024279Y-71694400D01*
X118022596Y-71684238D01*
X117968710Y-71469708D01*
X117965389Y-71459953D01*
X117877193Y-71257118D01*
X117872315Y-71248020D01*
X117799224Y-71135038D01*
X117788538Y-71125835D01*
X117778973Y-71130238D01*
X117002021Y-71907189D01*
X116994408Y-71921132D01*
X116264356Y-71921132D01*
X116265592Y-71918868D01*
X116265461Y-71917034D01*
X116261210Y-71910420D01*
X115483862Y-71133073D01*
X115472330Y-71126776D01*
X115460048Y-71136399D01*
X115404467Y-71217877D01*
X115399379Y-71226833D01*
X115306252Y-71427459D01*
X115302689Y-71437146D01*
X115243581Y-71650280D01*
X115241650Y-71660400D01*
X115218145Y-71880349D01*
X115217893Y-71890638D01*
X109682704Y-71890638D01*
X109665480Y-71714970D01*
X109605935Y-71517749D01*
X109509218Y-71335849D01*
X109435859Y-71245902D01*
X109382906Y-71180975D01*
X109382903Y-71180972D01*
X109379011Y-71176200D01*
X109329255Y-71135038D01*
X109225025Y-71048811D01*
X109225021Y-71048809D01*
X109220275Y-71044882D01*
X109039055Y-70946897D01*
X108842254Y-70885977D01*
X108836129Y-70885333D01*
X108836128Y-70885333D01*
X108643498Y-70865087D01*
X108643496Y-70865087D01*
X108637369Y-70864443D01*
X108550529Y-70872346D01*
X108438342Y-70882555D01*
X108438339Y-70882556D01*
X108432203Y-70883114D01*
X108234572Y-70941280D01*
X108052002Y-71036726D01*
X108047201Y-71040586D01*
X108047198Y-71040588D01*
X107941172Y-71125835D01*
X107891447Y-71165815D01*
X107759024Y-71323630D01*
X107756056Y-71329028D01*
X107756053Y-71329033D01*
X107696618Y-71437146D01*
X107659776Y-71504162D01*
X107597484Y-71700532D01*
X107596798Y-71706649D01*
X107596797Y-71706653D01*
X107577314Y-71880349D01*
X107574520Y-71905262D01*
X91250000Y-71905262D01*
X91250000Y-70760711D01*
X115835508Y-70760711D01*
X115842251Y-70773040D01*
X116617189Y-71547979D01*
X116631132Y-71555592D01*
X116632966Y-71555461D01*
X116639580Y-71551210D01*
X117418994Y-70771795D01*
X117426011Y-70758944D01*
X117418237Y-70748274D01*
X117415902Y-70746430D01*
X117407320Y-70740729D01*
X117213678Y-70633833D01*
X117204272Y-70629606D01*
X116995772Y-70555772D01*
X116985809Y-70553140D01*
X116768047Y-70514350D01*
X116757796Y-70513381D01*
X116536616Y-70510679D01*
X116526332Y-70511399D01*
X116307693Y-70544855D01*
X116297666Y-70547244D01*
X116087426Y-70615961D01*
X116077916Y-70619958D01*
X115881725Y-70722089D01*
X115873007Y-70727578D01*
X115843961Y-70749386D01*
X115835508Y-70760711D01*
X91250000Y-70760711D01*
X91250000Y-66776000D01*
X91270002Y-66707879D01*
X91323658Y-66661386D01*
X91376000Y-66650000D01*
X148604000Y-66650000D01*
X148672121Y-66670002D01*
G37*
%TD.AperFunction*%
%TD*%
M02*
