%TF.GenerationSoftware,KiCad,Pcbnew,(6.0.0)*%
%TF.CreationDate,2022-03-25T10:46:11+03:00*%
%TF.ProjectId,LaundryPCB,4c61756e-6472-4795-9043-422e6b696361,rev?*%
%TF.SameCoordinates,Original*%
%TF.FileFunction,Paste,Top*%
%TF.FilePolarity,Positive*%
%FSLAX46Y46*%
G04 Gerber Fmt 4.6, Leading zero omitted, Abs format (unit mm)*
G04 Created by KiCad (PCBNEW (6.0.0)) date 2022-03-25 10:46:11*
%MOMM*%
%LPD*%
G01*
G04 APERTURE LIST*
G04 Aperture macros list*
%AMRoundRect*
0 Rectangle with rounded corners*
0 $1 Rounding radius*
0 $2 $3 $4 $5 $6 $7 $8 $9 X,Y pos of 4 corners*
0 Add a 4 corners polygon primitive as box body*
4,1,4,$2,$3,$4,$5,$6,$7,$8,$9,$2,$3,0*
0 Add four circle primitives for the rounded corners*
1,1,$1+$1,$2,$3*
1,1,$1+$1,$4,$5*
1,1,$1+$1,$6,$7*
1,1,$1+$1,$8,$9*
0 Add four rect primitives between the rounded corners*
20,1,$1+$1,$2,$3,$4,$5,0*
20,1,$1+$1,$4,$5,$6,$7,0*
20,1,$1+$1,$6,$7,$8,$9,0*
20,1,$1+$1,$8,$9,$2,$3,0*%
G04 Aperture macros list end*
%ADD10RoundRect,0.218750X-0.218750X-0.256250X0.218750X-0.256250X0.218750X0.256250X-0.218750X0.256250X0*%
%ADD11RoundRect,0.200000X0.200000X0.275000X-0.200000X0.275000X-0.200000X-0.275000X0.200000X-0.275000X0*%
%ADD12RoundRect,0.218750X0.218750X0.256250X-0.218750X0.256250X-0.218750X-0.256250X0.218750X-0.256250X0*%
%ADD13R,2.000000X1.500000*%
%ADD14R,2.000000X3.800000*%
%ADD15RoundRect,0.225000X0.225000X0.250000X-0.225000X0.250000X-0.225000X-0.250000X0.225000X-0.250000X0*%
%ADD16RoundRect,0.200000X-0.200000X-0.275000X0.200000X-0.275000X0.200000X0.275000X-0.200000X0.275000X0*%
%ADD17RoundRect,0.150000X-0.150000X0.587500X-0.150000X-0.587500X0.150000X-0.587500X0.150000X0.587500X0*%
%ADD18R,1.000000X0.750000*%
%ADD19RoundRect,0.225000X-0.225000X-0.250000X0.225000X-0.250000X0.225000X0.250000X-0.225000X0.250000X0*%
%ADD20R,0.750000X1.000000*%
%ADD21R,2.000000X0.900000*%
%ADD22R,0.900000X2.000000*%
%ADD23R,5.000000X5.000000*%
%ADD24RoundRect,0.225000X-0.250000X0.225000X-0.250000X-0.225000X0.250000X-0.225000X0.250000X0.225000X0*%
%ADD25RoundRect,0.200000X-0.275000X0.200000X-0.275000X-0.200000X0.275000X-0.200000X0.275000X0.200000X0*%
%ADD26RoundRect,0.020500X-0.764500X-0.184500X0.764500X-0.184500X0.764500X0.184500X-0.764500X0.184500X0*%
%ADD27RoundRect,0.225000X0.250000X-0.225000X0.250000X0.225000X-0.250000X0.225000X-0.250000X-0.225000X0*%
G04 APERTURE END LIST*
D10*
%TO.C,D14*%
X184610000Y-95682500D03*
X186185000Y-95682500D03*
%TD*%
D11*
%TO.C,R11*%
X165232500Y-92382500D03*
X163582500Y-92382500D03*
%TD*%
D12*
%TO.C,D9*%
X160895000Y-93282500D03*
X159320000Y-93282500D03*
%TD*%
%TO.C,D5*%
X94552500Y-93052500D03*
X92977500Y-93052500D03*
%TD*%
D13*
%TO.C,U1*%
X124910000Y-78140000D03*
D14*
X131210000Y-80440000D03*
D13*
X124910000Y-80440000D03*
X124910000Y-82740000D03*
%TD*%
D12*
%TO.C,D13*%
X182485000Y-93422500D03*
X180910000Y-93422500D03*
%TD*%
D10*
%TO.C,D6*%
X96787500Y-95592500D03*
X98362500Y-95592500D03*
%TD*%
D15*
%TO.C,C8*%
X166250000Y-70940000D03*
X164700000Y-70940000D03*
%TD*%
D16*
%TO.C,R9*%
X145235000Y-91040000D03*
X146885000Y-91040000D03*
%TD*%
D11*
%TO.C,R13*%
X186622500Y-92482500D03*
X184972500Y-92482500D03*
%TD*%
%TO.C,R10*%
X160932500Y-95682500D03*
X159282500Y-95682500D03*
%TD*%
D17*
%TO.C,Q5*%
X190347500Y-93645000D03*
X188447500Y-93645000D03*
X189397500Y-95520000D03*
%TD*%
%TO.C,Q1*%
X125057500Y-93445000D03*
X123157500Y-93445000D03*
X124107500Y-95320000D03*
%TD*%
D18*
%TO.C,S1*%
X149457500Y-72595000D03*
X155457500Y-72595000D03*
X149457500Y-76345000D03*
X155457500Y-76345000D03*
%TD*%
D19*
%TO.C,C3*%
X107110000Y-85610000D03*
X108660000Y-85610000D03*
%TD*%
D17*
%TO.C,Q3*%
X146757500Y-93425000D03*
X144857500Y-93425000D03*
X145807500Y-95300000D03*
%TD*%
D20*
%TO.C,S2*%
X196535000Y-83140000D03*
X196535000Y-89140000D03*
X192785000Y-83140000D03*
X192785000Y-89140000D03*
%TD*%
D12*
%TO.C,D4*%
X116347500Y-85640000D03*
X114772500Y-85640000D03*
%TD*%
D21*
%TO.C,U5*%
X170360000Y-69040000D03*
X170360000Y-70310000D03*
X170360000Y-71580000D03*
X170360000Y-72850000D03*
X170360000Y-74120000D03*
X170360000Y-75390000D03*
X170360000Y-76660000D03*
X170360000Y-77930000D03*
X170360000Y-79200000D03*
X170360000Y-80470000D03*
X170360000Y-81740000D03*
X170360000Y-83010000D03*
X170360000Y-84280000D03*
X170360000Y-85550000D03*
D22*
X173145000Y-86550000D03*
X174415000Y-86550000D03*
X175685000Y-86550000D03*
X176955000Y-86550000D03*
X178225000Y-86550000D03*
X179495000Y-86550000D03*
X180765000Y-86550000D03*
X182035000Y-86550000D03*
X183305000Y-86550000D03*
X184575000Y-86550000D03*
D21*
X187360000Y-85550000D03*
X187360000Y-84280000D03*
X187360000Y-83010000D03*
X187360000Y-81740000D03*
X187360000Y-80470000D03*
X187360000Y-79200000D03*
X187360000Y-77930000D03*
X187360000Y-76660000D03*
X187360000Y-75390000D03*
X187360000Y-74120000D03*
X187360000Y-72850000D03*
X187360000Y-71580000D03*
X187360000Y-70310000D03*
X187360000Y-69040000D03*
D23*
X177860000Y-76540000D03*
%TD*%
D24*
%TO.C,C2*%
X134260000Y-79565000D03*
X134260000Y-81115000D03*
%TD*%
D17*
%TO.C,Q2*%
X102335000Y-93385000D03*
X100435000Y-93385000D03*
X101385000Y-95260000D03*
%TD*%
D10*
%TO.C,D8*%
X141120000Y-95632500D03*
X142695000Y-95632500D03*
%TD*%
D24*
%TO.C,C7*%
X147257500Y-73495000D03*
X147257500Y-75045000D03*
%TD*%
D15*
%TO.C,C9*%
X166270000Y-68855000D03*
X164720000Y-68855000D03*
%TD*%
D10*
%TO.C,D3*%
X119027500Y-95570000D03*
X120602500Y-95570000D03*
%TD*%
D16*
%TO.C,R3*%
X123535000Y-91140000D03*
X125185000Y-91140000D03*
%TD*%
D25*
%TO.C,R7*%
X158057500Y-71845000D03*
X158057500Y-73495000D03*
%TD*%
D12*
%TO.C,D1*%
X116845000Y-93030000D03*
X115270000Y-93030000D03*
%TD*%
D19*
%TO.C,C5*%
X188785000Y-89840000D03*
X190335000Y-89840000D03*
%TD*%
D13*
%TO.C,U4*%
X107710000Y-78140000D03*
X107710000Y-80440000D03*
D14*
X114010000Y-80440000D03*
D13*
X107710000Y-82740000D03*
%TD*%
D16*
%TO.C,R6*%
X100735000Y-91040000D03*
X102385000Y-91040000D03*
%TD*%
%TO.C,R4*%
X110835000Y-85640000D03*
X112485000Y-85640000D03*
%TD*%
D26*
%TO.C,U3*%
X145870000Y-80330000D03*
X145870000Y-80980000D03*
X145870000Y-81630000D03*
X145870000Y-82280000D03*
X145870000Y-82930000D03*
X145870000Y-83580000D03*
X145870000Y-84230000D03*
X151610000Y-84230000D03*
X151610000Y-83580000D03*
X151610000Y-82930000D03*
X151610000Y-82280000D03*
X151610000Y-81630000D03*
X151610000Y-80980000D03*
X151610000Y-80330000D03*
%TD*%
D11*
%TO.C,R1*%
X116882500Y-95570000D03*
X115232500Y-95570000D03*
%TD*%
%TO.C,R5*%
X94590000Y-95592500D03*
X92940000Y-95592500D03*
%TD*%
%TO.C,R12*%
X182502500Y-95782500D03*
X180852500Y-95782500D03*
%TD*%
D26*
%TO.C,U2*%
X157730000Y-83040000D03*
X157730000Y-83690000D03*
X157730000Y-84340000D03*
X157730000Y-84990000D03*
X157730000Y-85640000D03*
X157730000Y-86290000D03*
X157730000Y-86940000D03*
X163470000Y-86940000D03*
X163470000Y-86290000D03*
X163470000Y-85640000D03*
X163470000Y-84990000D03*
X163470000Y-84340000D03*
X163470000Y-83690000D03*
X163470000Y-83040000D03*
%TD*%
D11*
%TO.C,R8*%
X139072500Y-95632500D03*
X137422500Y-95632500D03*
%TD*%
D12*
%TO.C,D7*%
X139035000Y-93092500D03*
X137460000Y-93092500D03*
%TD*%
D27*
%TO.C,C4*%
X116860000Y-80515000D03*
X116860000Y-78965000D03*
%TD*%
D24*
%TO.C,C1*%
X122060000Y-82765000D03*
X122060000Y-84315000D03*
%TD*%
D17*
%TO.C,Q4*%
X168957500Y-93507500D03*
X167057500Y-93507500D03*
X168007500Y-95382500D03*
%TD*%
D24*
%TO.C,C6*%
X158057500Y-75220000D03*
X158057500Y-76770000D03*
%TD*%
D10*
%TO.C,D10*%
X163120000Y-95682500D03*
X164695000Y-95682500D03*
%TD*%
M02*
