M48
; DRILL file {KiCad (6.0.0)} date Thu Mar 31 09:22:03 2022
; FORMAT={-:-/ absolute / inch / decimal}
; #@! TF.CreationDate,2022-03-31T09:22:03+03:00
; #@! TF.GenerationSoftware,Kicad,Pcbnew,(6.0.0)
; #@! TF.FileFunction,Plated,1,2,PTH
FMAT,2
INCH
; #@! TA.AperFunction,Plated,PTH,ViaDrill
T1C0.0118
; #@! TA.AperFunction,Plated,PTH,ViaDrill
T2C0.0157
; #@! TA.AperFunction,Plated,PTH,ComponentDrill
T3C0.0280
; #@! TA.AperFunction,Plated,PTH,ComponentDrill
T4C0.0295
; #@! TA.AperFunction,Plated,PTH,ComponentDrill
T5C0.0472
; #@! TA.AperFunction,Plated,PTH,ComponentDrill
T6C0.0508
; #@! TA.AperFunction,Plated,PTH,ComponentDrill
T7C0.0512
; #@! TA.AperFunction,Plated,PTH,ComponentDrill
T8C0.0520
%
G90
G05
T1
X3.7854Y-2.8063
X4.8181Y-3.5992
X4.9287Y-3.239
X4.9642Y-3.437
X5.0106Y-3.7906
X5.0161Y-3.1079
X5.0953Y-3.5803
X5.1559Y-2.8732
X5.1594Y-3.0929
X5.2591Y-3.4016
X5.311Y-3.0902
X5.3177Y-3.2543
X5.3587Y-3.7126
X5.4409Y-4.2508
X5.4665Y-3.4819
X5.472Y-3.65
X5.5035Y-3.8409
X5.5516Y-3.9965
X5.7524Y-3.6634
X5.878Y-3.9795
X6.0185Y-4.1992
X6.0213Y-3.7339
X6.2402Y-3.4528
X6.2409Y-3.3039
X6.4717Y-3.7205
X6.5268Y-4.5724
X6.6024Y-4.0307
X6.7563Y-4.9228
X7.002Y-3.7102
X7.0492Y-3.2496
X7.1657Y-4.2673
X7.1929Y-3.7165
X7.2126Y-3.6496
X7.2268Y-3.7508
X7.3898Y-3.4764
X7.4063Y-3.5286
X7.4138Y-4.628
X7.4811Y-4.937
X7.5047Y-3.3
X7.5413Y-3.3807
X7.5693Y-4.1157
X7.5858Y-3.8618
T2
X4.8504Y-2.8346
X5.4016Y-3.374
X7.4772Y-3.2161
X7.5398Y-3.1752
X7.7343Y-3.6949
T3
X4.8406Y-3.9567
X5.0413Y-4.0197
T4
X7.0299Y-4.5
X7.0516Y-4.9614
X7.1087Y-4.5
X7.1303Y-4.9614
X7.1874Y-4.5
X7.2091Y-4.9614
X7.5236Y-4.4488
X7.6024Y-4.4488
X7.6811Y-4.4488
T5
X3.7728Y-4.6031
X4.2768Y-2.8315
X4.5917Y-2.8315
X4.5917Y-4.6031
T6
X5.7913Y-4.4178
T7
X3.9093Y-4.9016
X3.9093Y-5.0984
X4.9963Y-4.2126
X4.9963Y-5.0787
X6.3504Y-4.9372
X6.5472Y-4.9372
T8
X5.5551Y-4.4966
X5.5551Y-4.9769
X6.0276Y-4.4966
X6.0276Y-4.9769
T0
M30
