%TF.GenerationSoftware,KiCad,Pcbnew,(6.0.0)*%
%TF.CreationDate,2022-03-25T10:47:18+03:00*%
%TF.ProjectId,SmartTap,536d6172-7454-4617-902e-6b696361645f,1*%
%TF.SameCoordinates,Original*%
%TF.FileFunction,Legend,Bot*%
%TF.FilePolarity,Positive*%
%FSLAX46Y46*%
G04 Gerber Fmt 4.6, Leading zero omitted, Abs format (unit mm)*
G04 Created by KiCad (PCBNEW (6.0.0)) date 2022-03-25 10:47:18*
%MOMM*%
%LPD*%
G01*
G04 APERTURE LIST*
%ADD10C,0.100000*%
%ADD11C,0.120000*%
%ADD12C,0.127000*%
%ADD13C,1.226190*%
%ADD14C,0.472311*%
%ADD15C,0.240000*%
G04 APERTURE END LIST*
D10*
X206246666Y-116636190D02*
X205937142Y-116636190D01*
X206103809Y-116826666D01*
X206032380Y-116826666D01*
X205984761Y-116850476D01*
X205960952Y-116874285D01*
X205937142Y-116921904D01*
X205937142Y-117040952D01*
X205960952Y-117088571D01*
X205984761Y-117112380D01*
X206032380Y-117136190D01*
X206175238Y-117136190D01*
X206222857Y-117112380D01*
X206246666Y-117088571D01*
X197790952Y-114890000D02*
X197838571Y-114866190D01*
X197910000Y-114866190D01*
X197981428Y-114890000D01*
X198029047Y-114937619D01*
X198052857Y-114985238D01*
X198076666Y-115080476D01*
X198076666Y-115151904D01*
X198052857Y-115247142D01*
X198029047Y-115294761D01*
X197981428Y-115342380D01*
X197910000Y-115366190D01*
X197862380Y-115366190D01*
X197790952Y-115342380D01*
X197767142Y-115318571D01*
X197767142Y-115151904D01*
X197862380Y-115151904D01*
X197552857Y-115366190D02*
X197552857Y-114866190D01*
X197267142Y-115366190D01*
X197267142Y-114866190D01*
X197029047Y-115366190D02*
X197029047Y-114866190D01*
X196910000Y-114866190D01*
X196838571Y-114890000D01*
X196790952Y-114937619D01*
X196767142Y-114985238D01*
X196743333Y-115080476D01*
X196743333Y-115151904D01*
X196767142Y-115247142D01*
X196790952Y-115294761D01*
X196838571Y-115342380D01*
X196910000Y-115366190D01*
X197029047Y-115366190D01*
X186315238Y-120644285D02*
X186481904Y-120644285D01*
X186481904Y-120906190D02*
X186481904Y-120406190D01*
X186243809Y-120406190D01*
X186053333Y-120406190D02*
X186053333Y-120810952D01*
X186029523Y-120858571D01*
X186005714Y-120882380D01*
X185958095Y-120906190D01*
X185862857Y-120906190D01*
X185815238Y-120882380D01*
X185791428Y-120858571D01*
X185767619Y-120810952D01*
X185767619Y-120406190D01*
X185291428Y-120906190D02*
X185529523Y-120906190D01*
X185529523Y-120406190D01*
X184886666Y-120906190D02*
X185124761Y-120906190D01*
X185124761Y-120406190D01*
X196010000Y-115175714D02*
X195629047Y-115175714D01*
X195819523Y-115366190D02*
X195819523Y-114985238D01*
X195438571Y-114866190D02*
X195129047Y-114866190D01*
X195295714Y-115056666D01*
X195224285Y-115056666D01*
X195176666Y-115080476D01*
X195152857Y-115104285D01*
X195129047Y-115151904D01*
X195129047Y-115270952D01*
X195152857Y-115318571D01*
X195176666Y-115342380D01*
X195224285Y-115366190D01*
X195367142Y-115366190D01*
X195414761Y-115342380D01*
X195438571Y-115318571D01*
X194914761Y-115318571D02*
X194890952Y-115342380D01*
X194914761Y-115366190D01*
X194938571Y-115342380D01*
X194914761Y-115318571D01*
X194914761Y-115366190D01*
X194724285Y-114866190D02*
X194390952Y-114866190D01*
X194605238Y-115366190D01*
X194271904Y-114866190D02*
X194105238Y-115366190D01*
X193938571Y-114866190D01*
X206212857Y-114073809D02*
X206189047Y-114050000D01*
X206141428Y-114026190D01*
X206022380Y-114026190D01*
X205974761Y-114050000D01*
X205950952Y-114073809D01*
X205927142Y-114121428D01*
X205927142Y-114169047D01*
X205950952Y-114240476D01*
X206236666Y-114526190D01*
X205927142Y-114526190D01*
X199083333Y-117524285D02*
X199011904Y-117548095D01*
X198988095Y-117571904D01*
X198964285Y-117619523D01*
X198964285Y-117690952D01*
X198988095Y-117738571D01*
X199011904Y-117762380D01*
X199059523Y-117786190D01*
X199250000Y-117786190D01*
X199250000Y-117286190D01*
X199083333Y-117286190D01*
X199035714Y-117310000D01*
X199011904Y-117333809D01*
X198988095Y-117381428D01*
X198988095Y-117429047D01*
X199011904Y-117476666D01*
X199035714Y-117500476D01*
X199083333Y-117524285D01*
X199250000Y-117524285D01*
X198654761Y-117286190D02*
X198559523Y-117286190D01*
X198511904Y-117310000D01*
X198464285Y-117357619D01*
X198440476Y-117452857D01*
X198440476Y-117619523D01*
X198464285Y-117714761D01*
X198511904Y-117762380D01*
X198559523Y-117786190D01*
X198654761Y-117786190D01*
X198702380Y-117762380D01*
X198750000Y-117714761D01*
X198773809Y-117619523D01*
X198773809Y-117452857D01*
X198750000Y-117357619D01*
X198702380Y-117310000D01*
X198654761Y-117286190D01*
X198297619Y-117286190D02*
X198011904Y-117286190D01*
X198154761Y-117786190D02*
X198154761Y-117286190D01*
X197916666Y-117286190D02*
X197630952Y-117286190D01*
X197773809Y-117786190D02*
X197773809Y-117286190D01*
X197369047Y-117286190D02*
X197273809Y-117286190D01*
X197226190Y-117310000D01*
X197178571Y-117357619D01*
X197154761Y-117452857D01*
X197154761Y-117619523D01*
X197178571Y-117714761D01*
X197226190Y-117762380D01*
X197273809Y-117786190D01*
X197369047Y-117786190D01*
X197416666Y-117762380D01*
X197464285Y-117714761D01*
X197488095Y-117619523D01*
X197488095Y-117452857D01*
X197464285Y-117357619D01*
X197416666Y-117310000D01*
X197369047Y-117286190D01*
X196940476Y-117786190D02*
X196940476Y-117286190D01*
X196773809Y-117643333D01*
X196607142Y-117286190D01*
X196607142Y-117786190D01*
X196369047Y-117595714D02*
X195988095Y-117595714D01*
X195750000Y-117786190D02*
X195750000Y-117286190D01*
X195226190Y-117786190D02*
X195392857Y-117548095D01*
X195511904Y-117786190D02*
X195511904Y-117286190D01*
X195321428Y-117286190D01*
X195273809Y-117310000D01*
X195250000Y-117333809D01*
X195226190Y-117381428D01*
X195226190Y-117452857D01*
X195250000Y-117500476D01*
X195273809Y-117524285D01*
X195321428Y-117548095D01*
X195511904Y-117548095D01*
X205984761Y-119232857D02*
X205984761Y-119566190D01*
X206103809Y-119042380D02*
X206222857Y-119399523D01*
X205913333Y-119399523D01*
X207850952Y-123300000D02*
X207898571Y-123276190D01*
X207970000Y-123276190D01*
X208041428Y-123300000D01*
X208089047Y-123347619D01*
X208112857Y-123395238D01*
X208136666Y-123490476D01*
X208136666Y-123561904D01*
X208112857Y-123657142D01*
X208089047Y-123704761D01*
X208041428Y-123752380D01*
X207970000Y-123776190D01*
X207922380Y-123776190D01*
X207850952Y-123752380D01*
X207827142Y-123728571D01*
X207827142Y-123561904D01*
X207922380Y-123561904D01*
X207612857Y-123776190D02*
X207612857Y-123276190D01*
X207327142Y-123776190D01*
X207327142Y-123276190D01*
X207089047Y-123776190D02*
X207089047Y-123276190D01*
X206970000Y-123276190D01*
X206898571Y-123300000D01*
X206850952Y-123347619D01*
X206827142Y-123395238D01*
X206803333Y-123490476D01*
X206803333Y-123561904D01*
X206827142Y-123657142D01*
X206850952Y-123704761D01*
X206898571Y-123752380D01*
X206970000Y-123776190D01*
X207089047Y-123776190D01*
X203052857Y-123565714D02*
X202671904Y-123565714D01*
X202862380Y-123756190D02*
X202862380Y-123375238D01*
X202195714Y-123256190D02*
X202433809Y-123256190D01*
X202457619Y-123494285D01*
X202433809Y-123470476D01*
X202386190Y-123446666D01*
X202267142Y-123446666D01*
X202219523Y-123470476D01*
X202195714Y-123494285D01*
X202171904Y-123541904D01*
X202171904Y-123660952D01*
X202195714Y-123708571D01*
X202219523Y-123732380D01*
X202267142Y-123756190D01*
X202386190Y-123756190D01*
X202433809Y-123732380D01*
X202457619Y-123708571D01*
X202029047Y-123256190D02*
X201862380Y-123756190D01*
X201695714Y-123256190D01*
X183932857Y-121196190D02*
X184170952Y-121196190D01*
X184170952Y-120696190D01*
X183670952Y-120696190D02*
X183575714Y-120696190D01*
X183528095Y-120720000D01*
X183480476Y-120767619D01*
X183456666Y-120862857D01*
X183456666Y-121029523D01*
X183480476Y-121124761D01*
X183528095Y-121172380D01*
X183575714Y-121196190D01*
X183670952Y-121196190D01*
X183718571Y-121172380D01*
X183766190Y-121124761D01*
X183790000Y-121029523D01*
X183790000Y-120862857D01*
X183766190Y-120767619D01*
X183718571Y-120720000D01*
X183670952Y-120696190D01*
X183290000Y-120696190D02*
X183170952Y-121196190D01*
X183075714Y-120839047D01*
X182980476Y-121196190D01*
X182861428Y-120696190D01*
X182077142Y-121008571D02*
X182100952Y-121032380D01*
X182172380Y-121056190D01*
X182220000Y-121056190D01*
X182291428Y-121032380D01*
X182339047Y-120984761D01*
X182362857Y-120937142D01*
X182386666Y-120841904D01*
X182386666Y-120770476D01*
X182362857Y-120675238D01*
X182339047Y-120627619D01*
X182291428Y-120580000D01*
X182220000Y-120556190D01*
X182172380Y-120556190D01*
X182100952Y-120580000D01*
X182077142Y-120603809D01*
X181862857Y-121056190D02*
X181862857Y-120556190D01*
X181862857Y-120794285D02*
X181577142Y-120794285D01*
X181577142Y-121056190D02*
X181577142Y-120556190D01*
X181053333Y-121056190D02*
X181220000Y-120818095D01*
X181339047Y-121056190D02*
X181339047Y-120556190D01*
X181148571Y-120556190D01*
X181100952Y-120580000D01*
X181077142Y-120603809D01*
X181053333Y-120651428D01*
X181053333Y-120722857D01*
X181077142Y-120770476D01*
X181100952Y-120794285D01*
X181148571Y-120818095D01*
X181339047Y-120818095D01*
X180577142Y-120580000D02*
X180624761Y-120556190D01*
X180696190Y-120556190D01*
X180767619Y-120580000D01*
X180815238Y-120627619D01*
X180839047Y-120675238D01*
X180862857Y-120770476D01*
X180862857Y-120841904D01*
X180839047Y-120937142D01*
X180815238Y-120984761D01*
X180767619Y-121032380D01*
X180696190Y-121056190D01*
X180648571Y-121056190D01*
X180577142Y-121032380D01*
X180553333Y-121008571D01*
X180553333Y-120841904D01*
X180648571Y-120841904D01*
X208624285Y-110185714D02*
X208243333Y-110185714D01*
X208433809Y-110376190D02*
X208433809Y-109995238D01*
X207767142Y-109876190D02*
X208005238Y-109876190D01*
X208029047Y-110114285D01*
X208005238Y-110090476D01*
X207957619Y-110066666D01*
X207838571Y-110066666D01*
X207790952Y-110090476D01*
X207767142Y-110114285D01*
X207743333Y-110161904D01*
X207743333Y-110280952D01*
X207767142Y-110328571D01*
X207790952Y-110352380D01*
X207838571Y-110376190D01*
X207957619Y-110376190D01*
X208005238Y-110352380D01*
X208029047Y-110328571D01*
X207600476Y-109876190D02*
X207433809Y-110376190D01*
X207267142Y-109876190D01*
X206957619Y-110566666D02*
X206981428Y-110542857D01*
X207029047Y-110471428D01*
X207052857Y-110423809D01*
X207076666Y-110352380D01*
X207100476Y-110233333D01*
X207100476Y-110138095D01*
X207076666Y-110019047D01*
X207052857Y-109947619D01*
X207029047Y-109900000D01*
X206981428Y-109828571D01*
X206957619Y-109804761D01*
X206505238Y-110376190D02*
X206790952Y-110376190D01*
X206648095Y-110376190D02*
X206648095Y-109876190D01*
X206695714Y-109947619D01*
X206743333Y-109995238D01*
X206790952Y-110019047D01*
X206338571Y-110566666D02*
X206314761Y-110542857D01*
X206267142Y-110471428D01*
X206243333Y-110423809D01*
X206219523Y-110352380D01*
X206195714Y-110233333D01*
X206195714Y-110138095D01*
X206219523Y-110019047D01*
X206243333Y-109947619D01*
X206267142Y-109900000D01*
X206314761Y-109828571D01*
X206338571Y-109804761D01*
X205622380Y-123776190D02*
X205622380Y-123276190D01*
X205431904Y-123276190D01*
X205384285Y-123300000D01*
X205360476Y-123323809D01*
X205336666Y-123371428D01*
X205336666Y-123442857D01*
X205360476Y-123490476D01*
X205384285Y-123514285D01*
X205431904Y-123538095D01*
X205622380Y-123538095D01*
X205170000Y-123276190D02*
X205050952Y-123776190D01*
X204955714Y-123419047D01*
X204860476Y-123776190D01*
X204741428Y-123276190D01*
X204550952Y-123776190D02*
X204550952Y-123276190D01*
X204384285Y-123633333D01*
X204217619Y-123276190D01*
X204217619Y-123776190D01*
%TO.C,U6*%
X200159246Y-113231984D02*
X200159246Y-113636746D01*
X200135436Y-113684365D01*
X200111627Y-113708174D01*
X200064008Y-113731984D01*
X199968770Y-113731984D01*
X199921151Y-113708174D01*
X199897341Y-113684365D01*
X199873532Y-113636746D01*
X199873532Y-113231984D01*
X199421151Y-113231984D02*
X199516389Y-113231984D01*
X199564008Y-113255794D01*
X199587817Y-113279603D01*
X199635436Y-113351032D01*
X199659246Y-113446270D01*
X199659246Y-113636746D01*
X199635436Y-113684365D01*
X199611627Y-113708174D01*
X199564008Y-113731984D01*
X199468770Y-113731984D01*
X199421151Y-113708174D01*
X199397341Y-113684365D01*
X199373532Y-113636746D01*
X199373532Y-113517698D01*
X199397341Y-113470079D01*
X199421151Y-113446270D01*
X199468770Y-113422460D01*
X199564008Y-113422460D01*
X199611627Y-113446270D01*
X199635436Y-113470079D01*
X199659246Y-113517698D01*
%TO.C,R6*%
X190304484Y-121822460D02*
X190066389Y-121655794D01*
X190304484Y-121536746D02*
X189804484Y-121536746D01*
X189804484Y-121727222D01*
X189828294Y-121774841D01*
X189852103Y-121798651D01*
X189899722Y-121822460D01*
X189971151Y-121822460D01*
X190018770Y-121798651D01*
X190042579Y-121774841D01*
X190066389Y-121727222D01*
X190066389Y-121536746D01*
X189804484Y-122251032D02*
X189804484Y-122155794D01*
X189828294Y-122108174D01*
X189852103Y-122084365D01*
X189923532Y-122036746D01*
X190018770Y-122012936D01*
X190209246Y-122012936D01*
X190256865Y-122036746D01*
X190280674Y-122060555D01*
X190304484Y-122108174D01*
X190304484Y-122203413D01*
X190280674Y-122251032D01*
X190256865Y-122274841D01*
X190209246Y-122298651D01*
X190090198Y-122298651D01*
X190042579Y-122274841D01*
X190018770Y-122251032D01*
X189994960Y-122203413D01*
X189994960Y-122108174D01*
X190018770Y-122060555D01*
X190042579Y-122036746D01*
X190090198Y-122012936D01*
%TO.C,R14*%
X203299722Y-111831984D02*
X203466389Y-111593889D01*
X203585436Y-111831984D02*
X203585436Y-111331984D01*
X203394960Y-111331984D01*
X203347341Y-111355794D01*
X203323532Y-111379603D01*
X203299722Y-111427222D01*
X203299722Y-111498651D01*
X203323532Y-111546270D01*
X203347341Y-111570079D01*
X203394960Y-111593889D01*
X203585436Y-111593889D01*
X202823532Y-111831984D02*
X203109246Y-111831984D01*
X202966389Y-111831984D02*
X202966389Y-111331984D01*
X203014008Y-111403413D01*
X203061627Y-111451032D01*
X203109246Y-111474841D01*
X202394960Y-111498651D02*
X202394960Y-111831984D01*
X202514008Y-111308174D02*
X202633055Y-111665317D01*
X202323532Y-111665317D01*
%TO.C,R2*%
X190304484Y-123422460D02*
X190066389Y-123255794D01*
X190304484Y-123136746D02*
X189804484Y-123136746D01*
X189804484Y-123327222D01*
X189828294Y-123374841D01*
X189852103Y-123398651D01*
X189899722Y-123422460D01*
X189971151Y-123422460D01*
X190018770Y-123398651D01*
X190042579Y-123374841D01*
X190066389Y-123327222D01*
X190066389Y-123136746D01*
X189852103Y-123612936D02*
X189828294Y-123636746D01*
X189804484Y-123684365D01*
X189804484Y-123803413D01*
X189828294Y-123851032D01*
X189852103Y-123874841D01*
X189899722Y-123898651D01*
X189947341Y-123898651D01*
X190018770Y-123874841D01*
X190304484Y-123589127D01*
X190304484Y-123898651D01*
%TO.C,U4*%
X202190952Y-118176190D02*
X202190952Y-118580952D01*
X202167142Y-118628571D01*
X202143333Y-118652380D01*
X202095714Y-118676190D01*
X202000476Y-118676190D01*
X201952857Y-118652380D01*
X201929047Y-118628571D01*
X201905238Y-118580952D01*
X201905238Y-118176190D01*
X201452857Y-118342857D02*
X201452857Y-118676190D01*
X201571904Y-118152380D02*
X201690952Y-118509523D01*
X201381428Y-118509523D01*
%TO.C,J1*%
X184844960Y-110831984D02*
X184844960Y-111189127D01*
X184868770Y-111260555D01*
X184916389Y-111308174D01*
X184987817Y-111331984D01*
X185035436Y-111331984D01*
X184344960Y-111331984D02*
X184630674Y-111331984D01*
X184487817Y-111331984D02*
X184487817Y-110831984D01*
X184535436Y-110903413D01*
X184583055Y-110951032D01*
X184630674Y-110974841D01*
%TO.C,C1*%
X188061627Y-111384365D02*
X188085436Y-111408174D01*
X188156865Y-111431984D01*
X188204484Y-111431984D01*
X188275913Y-111408174D01*
X188323532Y-111360555D01*
X188347341Y-111312936D01*
X188371151Y-111217698D01*
X188371151Y-111146270D01*
X188347341Y-111051032D01*
X188323532Y-111003413D01*
X188275913Y-110955794D01*
X188204484Y-110931984D01*
X188156865Y-110931984D01*
X188085436Y-110955794D01*
X188061627Y-110979603D01*
X187585436Y-111431984D02*
X187871151Y-111431984D01*
X187728294Y-111431984D02*
X187728294Y-110931984D01*
X187775913Y-111003413D01*
X187823532Y-111051032D01*
X187871151Y-111074841D01*
%TO.C,C4*%
X192061627Y-115884365D02*
X192085436Y-115908174D01*
X192156865Y-115931984D01*
X192204484Y-115931984D01*
X192275913Y-115908174D01*
X192323532Y-115860555D01*
X192347341Y-115812936D01*
X192371151Y-115717698D01*
X192371151Y-115646270D01*
X192347341Y-115551032D01*
X192323532Y-115503413D01*
X192275913Y-115455794D01*
X192204484Y-115431984D01*
X192156865Y-115431984D01*
X192085436Y-115455794D01*
X192061627Y-115479603D01*
X191633055Y-115598651D02*
X191633055Y-115931984D01*
X191752103Y-115408174D02*
X191871151Y-115765317D01*
X191561627Y-115765317D01*
%TO.C,C14*%
X194028571Y-116058571D02*
X194052380Y-116034761D01*
X194076190Y-115963333D01*
X194076190Y-115915714D01*
X194052380Y-115844285D01*
X194004761Y-115796666D01*
X193957142Y-115772857D01*
X193861904Y-115749047D01*
X193790476Y-115749047D01*
X193695238Y-115772857D01*
X193647619Y-115796666D01*
X193600000Y-115844285D01*
X193576190Y-115915714D01*
X193576190Y-115963333D01*
X193600000Y-116034761D01*
X193623809Y-116058571D01*
X194076190Y-116534761D02*
X194076190Y-116249047D01*
X194076190Y-116391904D02*
X193576190Y-116391904D01*
X193647619Y-116344285D01*
X193695238Y-116296666D01*
X193719047Y-116249047D01*
X193742857Y-116963333D02*
X194076190Y-116963333D01*
X193552380Y-116844285D02*
X193909523Y-116725238D01*
X193909523Y-117034761D01*
%TO.C,U1*%
X190459246Y-112231984D02*
X190459246Y-112636746D01*
X190435436Y-112684365D01*
X190411627Y-112708174D01*
X190364008Y-112731984D01*
X190268770Y-112731984D01*
X190221151Y-112708174D01*
X190197341Y-112684365D01*
X190173532Y-112636746D01*
X190173532Y-112231984D01*
X189673532Y-112731984D02*
X189959246Y-112731984D01*
X189816389Y-112731984D02*
X189816389Y-112231984D01*
X189864008Y-112303413D01*
X189911627Y-112351032D01*
X189959246Y-112374841D01*
%TO.C,R1*%
X193061627Y-113331984D02*
X193228294Y-113093889D01*
X193347341Y-113331984D02*
X193347341Y-112831984D01*
X193156865Y-112831984D01*
X193109246Y-112855794D01*
X193085436Y-112879603D01*
X193061627Y-112927222D01*
X193061627Y-112998651D01*
X193085436Y-113046270D01*
X193109246Y-113070079D01*
X193156865Y-113093889D01*
X193347341Y-113093889D01*
X192585436Y-113331984D02*
X192871151Y-113331984D01*
X192728294Y-113331984D02*
X192728294Y-112831984D01*
X192775913Y-112903413D01*
X192823532Y-112951032D01*
X192871151Y-112974841D01*
%TO.C,C15*%
X205099722Y-113484365D02*
X205123532Y-113508174D01*
X205194960Y-113531984D01*
X205242579Y-113531984D01*
X205314008Y-113508174D01*
X205361627Y-113460555D01*
X205385436Y-113412936D01*
X205409246Y-113317698D01*
X205409246Y-113246270D01*
X205385436Y-113151032D01*
X205361627Y-113103413D01*
X205314008Y-113055794D01*
X205242579Y-113031984D01*
X205194960Y-113031984D01*
X205123532Y-113055794D01*
X205099722Y-113079603D01*
X204623532Y-113531984D02*
X204909246Y-113531984D01*
X204766389Y-113531984D02*
X204766389Y-113031984D01*
X204814008Y-113103413D01*
X204861627Y-113151032D01*
X204909246Y-113174841D01*
X204171151Y-113031984D02*
X204409246Y-113031984D01*
X204433055Y-113270079D01*
X204409246Y-113246270D01*
X204361627Y-113222460D01*
X204242579Y-113222460D01*
X204194960Y-113246270D01*
X204171151Y-113270079D01*
X204147341Y-113317698D01*
X204147341Y-113436746D01*
X204171151Y-113484365D01*
X204194960Y-113508174D01*
X204242579Y-113531984D01*
X204361627Y-113531984D01*
X204409246Y-113508174D01*
X204433055Y-113484365D01*
%TO.C,R15*%
X204999722Y-117631984D02*
X205166389Y-117393889D01*
X205285436Y-117631984D02*
X205285436Y-117131984D01*
X205094960Y-117131984D01*
X205047341Y-117155794D01*
X205023532Y-117179603D01*
X204999722Y-117227222D01*
X204999722Y-117298651D01*
X205023532Y-117346270D01*
X205047341Y-117370079D01*
X205094960Y-117393889D01*
X205285436Y-117393889D01*
X204523532Y-117631984D02*
X204809246Y-117631984D01*
X204666389Y-117631984D02*
X204666389Y-117131984D01*
X204714008Y-117203413D01*
X204761627Y-117251032D01*
X204809246Y-117274841D01*
X204071151Y-117131984D02*
X204309246Y-117131984D01*
X204333055Y-117370079D01*
X204309246Y-117346270D01*
X204261627Y-117322460D01*
X204142579Y-117322460D01*
X204094960Y-117346270D01*
X204071151Y-117370079D01*
X204047341Y-117417698D01*
X204047341Y-117536746D01*
X204071151Y-117584365D01*
X204094960Y-117608174D01*
X204142579Y-117631984D01*
X204261627Y-117631984D01*
X204309246Y-117608174D01*
X204333055Y-117584365D01*
%TO.C,L1*%
X199093333Y-116696190D02*
X199331428Y-116696190D01*
X199331428Y-116196190D01*
X198664761Y-116696190D02*
X198950476Y-116696190D01*
X198807619Y-116696190D02*
X198807619Y-116196190D01*
X198855238Y-116267619D01*
X198902857Y-116315238D01*
X198950476Y-116339047D01*
%TO.C,R3*%
X188811627Y-118831984D02*
X188978294Y-118593889D01*
X189097341Y-118831984D02*
X189097341Y-118331984D01*
X188906865Y-118331984D01*
X188859246Y-118355794D01*
X188835436Y-118379603D01*
X188811627Y-118427222D01*
X188811627Y-118498651D01*
X188835436Y-118546270D01*
X188859246Y-118570079D01*
X188906865Y-118593889D01*
X189097341Y-118593889D01*
X188644960Y-118331984D02*
X188335436Y-118331984D01*
X188502103Y-118522460D01*
X188430674Y-118522460D01*
X188383055Y-118546270D01*
X188359246Y-118570079D01*
X188335436Y-118617698D01*
X188335436Y-118736746D01*
X188359246Y-118784365D01*
X188383055Y-118808174D01*
X188430674Y-118831984D01*
X188573532Y-118831984D01*
X188621151Y-118808174D01*
X188644960Y-118784365D01*
D11*
%TO.C,D2*%
X184643294Y-121120794D02*
X186113294Y-121120794D01*
X186113294Y-121120794D02*
X186113294Y-123405794D01*
X184643294Y-123405794D02*
X184643294Y-121120794D01*
%TO.C,U6*%
X201478294Y-114045794D02*
X200678294Y-114045794D01*
X201478294Y-117165794D02*
X199678294Y-117165794D01*
X201478294Y-117165794D02*
X202278294Y-117165794D01*
X201478294Y-114045794D02*
X202278294Y-114045794D01*
%TO.C,R6*%
X187916036Y-122983294D02*
X188390552Y-122983294D01*
X187916036Y-124028294D02*
X188390552Y-124028294D01*
%TO.C,R14*%
X201941036Y-112283294D02*
X202415552Y-112283294D01*
X201941036Y-113328294D02*
X202415552Y-113328294D01*
%TO.C,R2*%
X187916036Y-121383294D02*
X188390552Y-121383294D01*
X187916036Y-122428294D02*
X188390552Y-122428294D01*
D12*
%TO.C,U4*%
X190845794Y-122255794D02*
X192545794Y-123905794D01*
X192545794Y-118105794D02*
X190845794Y-119755794D01*
X192545794Y-123905794D02*
X194545794Y-123905794D01*
X197245794Y-123905794D02*
X199645794Y-123905794D01*
X194545794Y-118105794D02*
X192545794Y-118105794D01*
X190845794Y-119755794D02*
X190845794Y-122255794D01*
X201045794Y-122705794D02*
X201045794Y-118105794D01*
X201045794Y-118105794D02*
X197245794Y-118105794D01*
D13*
X196558889Y-119105794D02*
G75*
G03*
X196558889Y-119105794I-613095J0D01*
G01*
D14*
X200851949Y-123475794D02*
G75*
G03*
X200851949Y-123475794I-236155J0D01*
G01*
D15*
X201865794Y-119705794D02*
G75*
G03*
X201865794Y-119705794I-120000J0D01*
G01*
D13*
X196558889Y-122905794D02*
G75*
G03*
X196558889Y-122905794I-613095J0D01*
G01*
D11*
%TO.C,J1*%
X184218294Y-120115794D02*
X185988294Y-120115794D01*
X185988294Y-120115794D02*
X185988294Y-119735794D01*
X181938294Y-112495794D02*
X181678294Y-112495794D01*
X185988294Y-112495794D02*
X184218294Y-112495794D01*
X181678294Y-120115794D02*
X181938294Y-120115794D01*
X185988294Y-112495794D02*
X185988294Y-112875794D01*
%TO.C,C1*%
X188186130Y-111745794D02*
X187970458Y-111745794D01*
X188186130Y-112465794D02*
X187970458Y-112465794D01*
%TO.C,C4*%
X192618294Y-116097958D02*
X192618294Y-116313630D01*
X193338294Y-116097958D02*
X193338294Y-116313630D01*
%TO.C,D1*%
X181043294Y-124203294D02*
X181043294Y-121918294D01*
X182513294Y-121918294D02*
X182513294Y-124203294D01*
X182513294Y-124203294D02*
X181043294Y-124203294D01*
%TO.C,C14*%
X195038294Y-116297958D02*
X195038294Y-116513630D01*
X194318294Y-116297958D02*
X194318294Y-116513630D01*
%TO.C,U1*%
X190338294Y-114905794D02*
X190338294Y-116705794D01*
X187218294Y-114905794D02*
X187218294Y-114105794D01*
X187218294Y-114905794D02*
X187218294Y-115705794D01*
X190338294Y-114905794D02*
X190338294Y-114105794D01*
%TO.C,R1*%
X191255794Y-112968536D02*
X191255794Y-113443052D01*
X192300794Y-112968536D02*
X192300794Y-113443052D01*
%TO.C,C15*%
X205138294Y-111877958D02*
X205138294Y-112093630D01*
X204418294Y-111877958D02*
X204418294Y-112093630D01*
%TO.C,D4*%
X184300794Y-124178294D02*
X182830794Y-124178294D01*
X182830794Y-124178294D02*
X182830794Y-121893294D01*
X184300794Y-121893294D02*
X184300794Y-124178294D01*
%TO.C,R15*%
X204155794Y-115193536D02*
X204155794Y-115668052D01*
X205200794Y-115193536D02*
X205200794Y-115668052D01*
%TO.C,L1*%
X197103015Y-115895794D02*
X197428573Y-115895794D01*
X197103015Y-116915794D02*
X197428573Y-116915794D01*
%TO.C,R3*%
X188491036Y-119283294D02*
X188965552Y-119283294D01*
X188491036Y-120328294D02*
X188965552Y-120328294D01*
%TD*%
M02*
