%TF.GenerationSoftware,KiCad,Pcbnew,(6.0.0)*%
%TF.CreationDate,2022-03-25T10:47:18+03:00*%
%TF.ProjectId,SmartTap,536d6172-7454-4617-902e-6b696361645f,1*%
%TF.SameCoordinates,Original*%
%TF.FileFunction,Copper,L1,Top*%
%TF.FilePolarity,Positive*%
%FSLAX46Y46*%
G04 Gerber Fmt 4.6, Leading zero omitted, Abs format (unit mm)*
G04 Created by KiCad (PCBNEW (6.0.0)) date 2022-03-25 10:47:18*
%MOMM*%
%LPD*%
G01*
G04 APERTURE LIST*
G04 Aperture macros list*
%AMRoundRect*
0 Rectangle with rounded corners*
0 $1 Rounding radius*
0 $2 $3 $4 $5 $6 $7 $8 $9 X,Y pos of 4 corners*
0 Add a 4 corners polygon primitive as box body*
4,1,4,$2,$3,$4,$5,$6,$7,$8,$9,$2,$3,0*
0 Add four circle primitives for the rounded corners*
1,1,$1+$1,$2,$3*
1,1,$1+$1,$4,$5*
1,1,$1+$1,$6,$7*
1,1,$1+$1,$8,$9*
0 Add four rect primitives between the rounded corners*
20,1,$1+$1,$2,$3,$4,$5,0*
20,1,$1+$1,$4,$5,$6,$7,0*
20,1,$1+$1,$6,$7,$8,$9,0*
20,1,$1+$1,$8,$9,$2,$3,0*%
G04 Aperture macros list end*
%TA.AperFunction,SMDPad,CuDef*%
%ADD10RoundRect,0.218750X-0.218750X-0.256250X0.218750X-0.256250X0.218750X0.256250X-0.218750X0.256250X0*%
%TD*%
%TA.AperFunction,SMDPad,CuDef*%
%ADD11RoundRect,0.140000X-0.140000X-0.170000X0.140000X-0.170000X0.140000X0.170000X-0.140000X0.170000X0*%
%TD*%
%TA.AperFunction,SMDPad,CuDef*%
%ADD12RoundRect,0.200000X0.275000X-0.200000X0.275000X0.200000X-0.275000X0.200000X-0.275000X-0.200000X0*%
%TD*%
%TA.AperFunction,SMDPad,CuDef*%
%ADD13RoundRect,0.225000X0.225000X0.250000X-0.225000X0.250000X-0.225000X-0.250000X0.225000X-0.250000X0*%
%TD*%
%TA.AperFunction,SMDPad,CuDef*%
%ADD14RoundRect,0.225000X0.250000X-0.225000X0.250000X0.225000X-0.250000X0.225000X-0.250000X-0.225000X0*%
%TD*%
%TA.AperFunction,SMDPad,CuDef*%
%ADD15RoundRect,0.200000X-0.200000X-0.275000X0.200000X-0.275000X0.200000X0.275000X-0.200000X0.275000X0*%
%TD*%
%TA.AperFunction,SMDPad,CuDef*%
%ADD16RoundRect,0.200000X-0.338157X0.035705X-0.138157X-0.310705X0.338157X-0.035705X0.138157X0.310705X0*%
%TD*%
%TA.AperFunction,SMDPad,CuDef*%
%ADD17RoundRect,0.062500X-0.375000X-0.062500X0.375000X-0.062500X0.375000X0.062500X-0.375000X0.062500X0*%
%TD*%
%TA.AperFunction,SMDPad,CuDef*%
%ADD18RoundRect,0.062500X-0.062500X-0.375000X0.062500X-0.375000X0.062500X0.375000X-0.062500X0.375000X0*%
%TD*%
%TA.AperFunction,SMDPad,CuDef*%
%ADD19R,3.100000X3.100000*%
%TD*%
%TA.AperFunction,ComponentPad*%
%ADD20O,1.700000X1.700000*%
%TD*%
%TA.AperFunction,SMDPad,CuDef*%
%ADD21RoundRect,0.225000X-0.296936X-0.157969X0.125926X-0.311878X0.296936X0.157969X-0.125926X0.311878X0*%
%TD*%
%TA.AperFunction,ComponentPad*%
%ADD22R,1.700000X1.700000*%
%TD*%
%TA.AperFunction,SMDPad,CuDef*%
%ADD23R,0.400000X1.900000*%
%TD*%
%TA.AperFunction,ComponentPad*%
%ADD24R,1.600000X1.600000*%
%TD*%
%TA.AperFunction,ComponentPad*%
%ADD25C,1.600000*%
%TD*%
%TA.AperFunction,ViaPad*%
%ADD26C,0.600000*%
%TD*%
%TA.AperFunction,Conductor*%
%ADD27C,0.250000*%
%TD*%
G04 APERTURE END LIST*
D10*
%TO.P,D3,1,K*%
%TO.N,Net-(D3-Pad1)*%
X187390794Y-121705794D03*
%TO.P,D3,2,A*%
%TO.N,+3.7V_BAT*%
X188965794Y-121705794D03*
%TD*%
D11*
%TO.P,C3,1*%
%TO.N,GND*%
X181323294Y-113705794D03*
%TO.P,C3,2*%
%TO.N,+3.7V_BAT*%
X182283294Y-113705794D03*
%TD*%
D12*
%TO.P,R8,1*%
%TO.N,BOTTOM_IR*%
X195978294Y-119255794D03*
%TO.P,R8,2*%
%TO.N,GND*%
X195978294Y-117605794D03*
%TD*%
%TO.P,R9,1*%
%TO.N,GND*%
X204678294Y-118430794D03*
%TO.P,R9,2*%
%TO.N,Net-(J5-Pad3)*%
X204678294Y-116780794D03*
%TD*%
D13*
%TO.P,C2,1*%
%TO.N,GND*%
X191483294Y-116725794D03*
%TO.P,C2,2*%
%TO.N,Net-(C2-Pad2)*%
X189933294Y-116725794D03*
%TD*%
D14*
%TO.P,C5,1*%
%TO.N,GND*%
X181478294Y-117080794D03*
%TO.P,C5,2*%
%TO.N,+3.7V_BAT*%
X181478294Y-115530794D03*
%TD*%
D15*
%TO.P,R5,1*%
%TO.N,Net-(D3-Pad1)*%
X187328294Y-123505794D03*
%TO.P,R5,2*%
%TO.N,GND*%
X188978294Y-123505794D03*
%TD*%
D16*
%TO.P,R4,1*%
%TO.N,Net-(C6-Pad1)*%
X184253294Y-109305794D03*
%TO.P,R4,2*%
%TO.N,+3.7V_BAT*%
X185078294Y-110734736D03*
%TD*%
D17*
%TO.P,U2,1,PD3*%
%TO.N,unconnected-(U2-Pad1)*%
X183565794Y-114655794D03*
%TO.P,U2,2,PD4*%
%TO.N,unconnected-(U2-Pad2)*%
X183565794Y-115155794D03*
%TO.P,U2,3,PE0*%
%TO.N,unconnected-(U2-Pad3)*%
X183565794Y-115655794D03*
%TO.P,U2,4,VCC*%
%TO.N,+3.7V_BAT*%
X183565794Y-116155794D03*
%TO.P,U2,5,GND*%
%TO.N,GND*%
X183565794Y-116655794D03*
%TO.P,U2,6,PE1*%
%TO.N,unconnected-(U2-Pad6)*%
X183565794Y-117155794D03*
%TO.P,U2,7,XTAL1/PB6*%
%TO.N,Net-(U2-Pad7)*%
X183565794Y-117655794D03*
%TO.P,U2,8,XTAL2/PB7*%
%TO.N,Net-(U2-Pad8)*%
X183565794Y-118155794D03*
D18*
%TO.P,U2,9,PD5*%
%TO.N,unconnected-(U2-Pad9)*%
X184253294Y-118843294D03*
%TO.P,U2,10,PD6*%
%TO.N,unconnected-(U2-Pad10)*%
X184753294Y-118843294D03*
%TO.P,U2,11,PD7*%
%TO.N,unconnected-(U2-Pad11)*%
X185253294Y-118843294D03*
%TO.P,U2,12,PB0*%
%TO.N,unconnected-(U2-Pad12)*%
X185753294Y-118843294D03*
%TO.P,U2,13,PB1*%
%TO.N,SERVO_PWM*%
X186253294Y-118843294D03*
%TO.P,U2,14,PB2*%
%TO.N,unconnected-(U2-Pad14)*%
X186753294Y-118843294D03*
%TO.P,U2,15,PB3*%
%TO.N,unconnected-(U2-Pad15)*%
X187253294Y-118843294D03*
%TO.P,U2,16,PB4*%
%TO.N,unconnected-(U2-Pad16)*%
X187753294Y-118843294D03*
D17*
%TO.P,U2,17,PB5*%
%TO.N,unconnected-(U2-Pad17)*%
X188440794Y-118155794D03*
%TO.P,U2,18,AVCC*%
%TO.N,+3.7V_BAT*%
X188440794Y-117655794D03*
%TO.P,U2,19,PE2*%
%TO.N,unconnected-(U2-Pad19)*%
X188440794Y-117155794D03*
%TO.P,U2,20,AREF*%
%TO.N,Net-(C2-Pad2)*%
X188440794Y-116655794D03*
%TO.P,U2,21,GND*%
%TO.N,GND*%
X188440794Y-116155794D03*
%TO.P,U2,22,PE3*%
%TO.N,unconnected-(U2-Pad22)*%
X188440794Y-115655794D03*
%TO.P,U2,23,PC0*%
%TO.N,BOTTOM_IR*%
X188440794Y-115155794D03*
%TO.P,U2,24,PC1*%
%TO.N,SIDE_IR*%
X188440794Y-114655794D03*
D18*
%TO.P,U2,25,PC2*%
%TO.N,unconnected-(U2-Pad25)*%
X187753294Y-113968294D03*
%TO.P,U2,26,PC3*%
%TO.N,+3.7V_BAT*%
X187253294Y-113968294D03*
%TO.P,U2,27,PC4*%
%TO.N,Net-(D4-Pad2)*%
X186753294Y-113968294D03*
%TO.P,U2,28,PC5*%
%TO.N,unconnected-(U2-Pad28)*%
X186253294Y-113968294D03*
%TO.P,U2,29,~{RESET}/PC6*%
%TO.N,Net-(C6-Pad1)*%
X185753294Y-113968294D03*
%TO.P,U2,30,PD0*%
%TO.N,RX*%
X185253294Y-113968294D03*
%TO.P,U2,31,PD1*%
%TO.N,TX*%
X184753294Y-113968294D03*
%TO.P,U2,32,PD2*%
%TO.N,unconnected-(U2-Pad32)*%
X184253294Y-113968294D03*
D19*
%TO.P,U2,33,GND*%
%TO.N,GND*%
X186003294Y-116405794D03*
%TD*%
D20*
%TO.P,J6,1,Pin_1*%
%TO.N,Net-(C6-Pad1)*%
X181778294Y-110123294D03*
%TO.P,J6,2,Pin_2*%
%TO.N,GND*%
X181778294Y-107583294D03*
%TD*%
D21*
%TO.P,C6,1*%
%TO.N,Net-(C6-Pad1)*%
X188850032Y-111540728D03*
%TO.P,C6,2*%
%TO.N,DTR*%
X190306556Y-112070860D03*
%TD*%
D22*
%TO.P,J3,1,Pin_1*%
%TO.N,DTR*%
X211078294Y-109555794D03*
D20*
%TO.P,J3,2,Pin_2*%
%TO.N,TX*%
X211078294Y-112095794D03*
%TO.P,J3,3,Pin_3*%
%TO.N,RX*%
X211078294Y-114635794D03*
%TO.P,J3,4,Pin_4*%
%TO.N,+5V*%
X211078294Y-117175794D03*
%TO.P,J3,5,Pin_5*%
%TO.N,GND*%
X211078294Y-119715794D03*
%TO.P,J3,6,Pin_6*%
X211078294Y-122255794D03*
%TD*%
D22*
%TO.P,J4,1,Pin_1*%
%TO.N,+5V_BOOSTED*%
X202318294Y-122135794D03*
D20*
%TO.P,J4,2,Pin_2*%
%TO.N,SERVO_PWM*%
X204858294Y-122135794D03*
%TO.P,J4,3,Pin_3*%
%TO.N,GND*%
X207398294Y-122135794D03*
%TD*%
D22*
%TO.P,J5,1,Pin_1*%
%TO.N,+5V_BOOSTED*%
X207378294Y-111695794D03*
D20*
%TO.P,J5,2,Pin_2*%
%TO.N,SIDE_IR*%
X207378294Y-114235794D03*
%TO.P,J5,3,Pin_3*%
%TO.N,Net-(J5-Pad3)*%
X207378294Y-116775794D03*
%TO.P,J5,4,Pin_4*%
%TO.N,+5V_BOOSTED*%
X207378294Y-119315794D03*
%TD*%
D12*
%TO.P,R7,1*%
%TO.N,GND*%
X195978294Y-123430794D03*
%TO.P,R7,2*%
%TO.N,Net-(R7-Pad2)*%
X195978294Y-121780794D03*
%TD*%
D22*
%TO.P,J2,1,Pin_1*%
%TO.N,+3.7V_BAT*%
X194908294Y-113705794D03*
D20*
%TO.P,J2,2,Pin_2*%
%TO.N,GND*%
X197448294Y-113705794D03*
%TD*%
D23*
%TO.P,Y1,1,1*%
%TO.N,Net-(U2-Pad8)*%
X183678294Y-121105794D03*
%TO.P,Y1,2,2*%
%TO.N,GND*%
X182478294Y-121105794D03*
%TO.P,Y1,3,3*%
%TO.N,Net-(U2-Pad7)*%
X181278294Y-121105794D03*
%TD*%
D12*
%TO.P,R10,1*%
%TO.N,SIDE_IR*%
X204678294Y-115105794D03*
%TO.P,R10,2*%
%TO.N,GND*%
X204678294Y-113455794D03*
%TD*%
D24*
%TO.P,U4,1*%
%TO.N,+5V_BOOSTED*%
X198695794Y-119735794D03*
D25*
%TO.P,U4,2*%
%TO.N,BOTTOM_IR*%
X198695794Y-122275794D03*
%TO.P,U4,3*%
%TO.N,Net-(R7-Pad2)*%
X193195794Y-122275794D03*
%TO.P,U4,4*%
%TO.N,+5V_BOOSTED*%
X193195794Y-119735794D03*
%TD*%
D26*
%TO.N,GND*%
X199768294Y-113285794D03*
X188198294Y-120805794D03*
X209188294Y-110535794D03*
X209538294Y-123795794D03*
X200528294Y-118455794D03*
X200628294Y-121785794D03*
X208758294Y-117915794D03*
X181208294Y-112085794D03*
X191438294Y-115415794D03*
X190768294Y-123375794D03*
X181018294Y-118445794D03*
X198768294Y-115285794D03*
%TO.N,+3.7V_BAT*%
X191058294Y-121575794D03*
X193678294Y-117405794D03*
X186478294Y-110515794D03*
X188627794Y-114031294D03*
X191058294Y-120275794D03*
%TO.N,+5V*%
X189238294Y-118704367D03*
X191058294Y-118685794D03*
X184433274Y-120230814D03*
X185808294Y-120195794D03*
%TO.N,BOTTOM_IR*%
X190527794Y-115731294D03*
X194878294Y-119805794D03*
%TO.N,SIDE_IR*%
X202778294Y-118005794D03*
%TO.N,Net-(C6-Pad1)*%
X183678294Y-110705794D03*
X185899604Y-112177104D03*
%TO.N,+5V_BOOSTED*%
X203278294Y-119205794D03*
X203578294Y-117405794D03*
X194419883Y-118464205D03*
%TO.N,Net-(D4-Pad2)*%
X186408369Y-112685869D03*
%TD*%
D27*
%TO.N,GND*%
X189108294Y-123375794D02*
X188978294Y-123505794D01*
X198768294Y-115285794D02*
X198768294Y-115025794D01*
X183565794Y-116655794D02*
X185753294Y-116655794D01*
X204678294Y-113455794D02*
X204838294Y-113455794D01*
X182558294Y-117085794D02*
X181483294Y-117085794D01*
X198768294Y-115025794D02*
X197448294Y-113705794D01*
X191438294Y-115415794D02*
X191438294Y-116680794D01*
X188198294Y-120805794D02*
X188198294Y-122725794D01*
X191438294Y-116680794D02*
X191483294Y-116725794D01*
X186253294Y-116155794D02*
X186003294Y-116405794D01*
X182988294Y-116655794D02*
X182558294Y-117085794D01*
X188198294Y-122725794D02*
X188978294Y-123505794D01*
X188440794Y-116155794D02*
X186253294Y-116155794D01*
X181483294Y-117085794D02*
X181478294Y-117080794D01*
X185753294Y-116655794D02*
X186003294Y-116405794D01*
X183565794Y-116655794D02*
X182988294Y-116655794D01*
%TO.N,+3.7V_BAT*%
X182283294Y-113700794D02*
X182283294Y-113705794D01*
X187530486Y-113206274D02*
X187253294Y-113483466D01*
X190928294Y-121705794D02*
X191058294Y-121575794D01*
X188440794Y-117655794D02*
X193428294Y-117655794D01*
X185078294Y-110734736D02*
X185078294Y-110905794D01*
X186478294Y-110515794D02*
X185297236Y-110515794D01*
X191058294Y-120275794D02*
X191058294Y-120025794D01*
X185078294Y-110905794D02*
X182283294Y-113700794D01*
X182283294Y-114725794D02*
X181478294Y-115530794D01*
X187978774Y-113206274D02*
X187530486Y-113206274D01*
X182103294Y-116155794D02*
X183565794Y-116155794D01*
X188965794Y-121705794D02*
X190928294Y-121705794D01*
X188627794Y-114031294D02*
X188627794Y-113855294D01*
X188627794Y-113855294D02*
X187978774Y-113206274D01*
X187253294Y-113483466D02*
X187253294Y-113968294D01*
X185297236Y-110515794D02*
X185078294Y-110734736D01*
X181478294Y-115530794D02*
X182103294Y-116155794D01*
X182283294Y-113705794D02*
X182283294Y-114725794D01*
X191058294Y-120025794D02*
X193678294Y-117405794D01*
X193428294Y-117655794D02*
X193678294Y-117405794D01*
%TO.N,+5V*%
X184433274Y-120230814D02*
X184468294Y-120195794D01*
X191039721Y-118704367D02*
X191058294Y-118685794D01*
X189238294Y-118704367D02*
X191039721Y-118704367D01*
X184468294Y-120195794D02*
X185808294Y-120195794D01*
%TO.N,Net-(D3-Pad1)*%
X187390794Y-121705794D02*
X187390794Y-123443294D01*
X187390794Y-123443294D02*
X187328294Y-123505794D01*
%TO.N,SERVO_PWM*%
X189328774Y-120906274D02*
X188658294Y-120235794D01*
X203628774Y-120906274D02*
X189328774Y-120906274D01*
X186253294Y-119214985D02*
X186253294Y-118843294D01*
X187274103Y-120235794D02*
X186253294Y-119214985D01*
X188658294Y-120235794D02*
X187274103Y-120235794D01*
X204858294Y-122135794D02*
X203628774Y-120906274D01*
%TO.N,Net-(R7-Pad2)*%
X195978294Y-121780794D02*
X195483294Y-122275794D01*
X195483294Y-122275794D02*
X193195794Y-122275794D01*
%TO.N,BOTTOM_IR*%
X195428294Y-119805794D02*
X195978294Y-119255794D01*
X189302805Y-115530305D02*
X188928294Y-115155794D01*
X190326805Y-115530305D02*
X189302805Y-115530305D01*
X188928294Y-115155794D02*
X188440794Y-115155794D01*
X190527794Y-115731294D02*
X190326805Y-115530305D01*
X194878294Y-119805794D02*
X195428294Y-119805794D01*
%TO.N,Net-(J5-Pad3)*%
X207378294Y-116775794D02*
X204683294Y-116775794D01*
X204683294Y-116775794D02*
X204678294Y-116780794D01*
%TO.N,SIDE_IR*%
X201478294Y-118005794D02*
X200238294Y-116765794D01*
X191568294Y-114655794D02*
X188440794Y-114655794D01*
X207378294Y-114235794D02*
X205848294Y-114235794D01*
X204978294Y-115105794D02*
X204678294Y-115105794D01*
X202778294Y-118005794D02*
X201478294Y-118005794D01*
X205848294Y-114235794D02*
X204978294Y-115105794D01*
X200238294Y-116765794D02*
X193678294Y-116765794D01*
X193678294Y-116765794D02*
X191568294Y-114655794D01*
%TO.N,Net-(C2-Pad2)*%
X189863294Y-116655794D02*
X189933294Y-116725794D01*
X188440794Y-116655794D02*
X189863294Y-116655794D01*
%TO.N,Net-(C6-Pad1)*%
X183678294Y-109880794D02*
X183678294Y-110705794D01*
X188273284Y-111540728D02*
X188850032Y-111540728D01*
X184253294Y-109305794D02*
X183678294Y-109880794D01*
X185753294Y-112323414D02*
X185753294Y-113968294D01*
X186698350Y-109965794D02*
X188273284Y-111540728D01*
X184418294Y-109965794D02*
X186698350Y-109965794D01*
X183678294Y-110705794D02*
X184418294Y-109965794D01*
X185899604Y-112177104D02*
X185753294Y-112323414D01*
%TO.N,DTR*%
X204419272Y-112305794D02*
X190541490Y-112305794D01*
X211078294Y-109555794D02*
X207169272Y-109555794D01*
X190541490Y-112305794D02*
X190306556Y-112070860D01*
X207169272Y-109555794D02*
X204419272Y-112305794D01*
%TO.N,+5V_BOOSTED*%
X203278294Y-119205794D02*
X203388294Y-119315794D01*
X203278294Y-119205794D02*
X202748294Y-119735794D01*
X203278294Y-119205794D02*
X203578294Y-118905794D01*
X202748294Y-119735794D02*
X198695794Y-119735794D01*
X194419883Y-118464205D02*
X193195794Y-119688294D01*
X203388294Y-119315794D02*
X207378294Y-119315794D01*
X203578294Y-118905794D02*
X203578294Y-117405794D01*
X193195794Y-119688294D02*
X193195794Y-119735794D01*
%TO.N,Net-(D4-Pad2)*%
X186408369Y-112685869D02*
X186753294Y-113030794D01*
X186753294Y-113030794D02*
X186753294Y-113968294D01*
%TO.N,TX*%
X194168294Y-115925794D02*
X191279763Y-113037263D01*
X210228294Y-112945794D02*
X206405077Y-112945794D01*
X191279763Y-113037263D02*
X189077622Y-113037263D01*
X211078294Y-112095794D02*
X210228294Y-112945794D01*
X201858294Y-115925794D02*
X194168294Y-115925794D01*
X185866866Y-111116058D02*
X185396416Y-111387672D01*
X204969597Y-114381274D02*
X203402814Y-114381274D01*
X187146153Y-111105794D02*
X185877130Y-111105794D01*
X203402814Y-114381274D02*
X201858294Y-115925794D01*
X185396416Y-111387672D02*
X184753294Y-112030794D01*
X185877130Y-111105794D02*
X185866866Y-111116058D01*
X189077622Y-113037263D02*
X187146153Y-111105794D01*
X206405077Y-112945794D02*
X204969597Y-114381274D01*
X184753294Y-112030794D02*
X184753294Y-113968294D01*
%TO.N,RX*%
X206275077Y-115485794D02*
X210228294Y-115485794D01*
X188815001Y-113406783D02*
X190969283Y-113406783D01*
X185148294Y-112158374D02*
X185623305Y-111683363D01*
X203067334Y-116365794D02*
X203682814Y-115750314D01*
X190969283Y-113406783D02*
X193928294Y-116365794D01*
X193928294Y-116365794D02*
X203067334Y-116365794D01*
X185983656Y-111475314D02*
X186879955Y-111475314D01*
X185253294Y-113968294D02*
X185148294Y-113863294D01*
X206010557Y-115750314D02*
X206275077Y-115485794D01*
X185148294Y-113863294D02*
X185148294Y-112158374D01*
X188164972Y-112756754D02*
X188815001Y-113406783D01*
X203682814Y-115750314D02*
X206010557Y-115750314D01*
X210228294Y-115485794D02*
X211078294Y-114635794D01*
X185623305Y-111683363D02*
X185983656Y-111475314D01*
X186879955Y-111475314D02*
X188161395Y-112756754D01*
X188161395Y-112756754D02*
X188164972Y-112756754D01*
%TO.N,Net-(U2-Pad7)*%
X181278294Y-119205794D02*
X181278294Y-121105794D01*
X182828294Y-117655794D02*
X181278294Y-119205794D01*
X183565794Y-117655794D02*
X182828294Y-117655794D01*
%TO.N,Net-(U2-Pad8)*%
X183678294Y-118268294D02*
X183678294Y-121105794D01*
X183565794Y-118155794D02*
X183678294Y-118268294D01*
%TD*%
%TA.AperFunction,Conductor*%
%TO.N,GND*%
G36*
X182621376Y-116851238D02*
G01*
X182642561Y-116885532D01*
X182689303Y-116998376D01*
X182697490Y-117012557D01*
X182778881Y-117118629D01*
X182790804Y-117130551D01*
X182824831Y-117192862D01*
X182819768Y-117263678D01*
X182777223Y-117320515D01*
X182736038Y-117338347D01*
X182736465Y-117339521D01*
X182726103Y-117343292D01*
X182715249Y-117345206D01*
X182705705Y-117350716D01*
X182702428Y-117351909D01*
X182699260Y-117353386D01*
X182688610Y-117356240D01*
X182665715Y-117372272D01*
X182657750Y-117377849D01*
X182648477Y-117383756D01*
X182634925Y-117391580D01*
X182565930Y-117408317D01*
X182498838Y-117385096D01*
X182471647Y-117350518D01*
X182455429Y-117336465D01*
X182447746Y-117334794D01*
X181750409Y-117334794D01*
X181735170Y-117339269D01*
X181733965Y-117340659D01*
X181732294Y-117348342D01*
X181732294Y-118020679D01*
X181736769Y-118035918D01*
X181760093Y-118056128D01*
X181779078Y-118066495D01*
X181813103Y-118128808D01*
X181808037Y-118199624D01*
X181779077Y-118244685D01*
X181062079Y-118961683D01*
X181053975Y-118969110D01*
X181025100Y-118993339D01*
X181019587Y-119002888D01*
X181006255Y-119025979D01*
X181000349Y-119035250D01*
X180978740Y-119066110D01*
X180975886Y-119076760D01*
X180974409Y-119079928D01*
X180973217Y-119083204D01*
X180967706Y-119092749D01*
X180961756Y-119126493D01*
X180961164Y-119129852D01*
X180958786Y-119140579D01*
X180949030Y-119176987D01*
X180949991Y-119187972D01*
X180949991Y-119187974D01*
X180952314Y-119214522D01*
X180952794Y-119225504D01*
X180952794Y-119944506D01*
X180931559Y-120014509D01*
X180905891Y-120052924D01*
X180889427Y-120077563D01*
X180887006Y-120089732D01*
X180887006Y-120089733D01*
X180883039Y-120109679D01*
X180877794Y-120136046D01*
X180877794Y-122075542D01*
X180889427Y-122134025D01*
X180933742Y-122200346D01*
X181000063Y-122244661D01*
X181012232Y-122247082D01*
X181012233Y-122247082D01*
X181052478Y-122255087D01*
X181058546Y-122256294D01*
X181498042Y-122256294D01*
X181504110Y-122255087D01*
X181544355Y-122247082D01*
X181544356Y-122247082D01*
X181556525Y-122244661D01*
X181622846Y-122200346D01*
X181625126Y-122203758D01*
X181667361Y-122180695D01*
X181738176Y-122185760D01*
X181795012Y-122228307D01*
X181812126Y-122259587D01*
X181824969Y-122293846D01*
X181833508Y-122309443D01*
X181910009Y-122411518D01*
X181922570Y-122424079D01*
X182024645Y-122500580D01*
X182040240Y-122509118D01*
X182160688Y-122554272D01*
X182175943Y-122557899D01*
X182226808Y-122563425D01*
X182233622Y-122563794D01*
X182260179Y-122563794D01*
X182275418Y-122559319D01*
X182276623Y-122557929D01*
X182278294Y-122550246D01*
X182278294Y-119665910D01*
X182273819Y-119650671D01*
X182272429Y-119649466D01*
X182264746Y-119647795D01*
X182233625Y-119647795D01*
X182226804Y-119648165D01*
X182175942Y-119653689D01*
X182160690Y-119657315D01*
X182040240Y-119702470D01*
X182024645Y-119711008D01*
X181922570Y-119787509D01*
X181910009Y-119800070D01*
X181830620Y-119905999D01*
X181773761Y-119948514D01*
X181702943Y-119953540D01*
X181640649Y-119919480D01*
X181606659Y-119857149D01*
X181603794Y-119830434D01*
X181603794Y-119392810D01*
X181623796Y-119324689D01*
X181640699Y-119303715D01*
X182723352Y-118221062D01*
X182785664Y-118187036D01*
X182856479Y-118192101D01*
X182913315Y-118234648D01*
X182936026Y-118285577D01*
X182939959Y-118305348D01*
X182943054Y-118320911D01*
X182949948Y-118331228D01*
X182949948Y-118331229D01*
X182992451Y-118394839D01*
X183001182Y-118407906D01*
X183011498Y-118414799D01*
X183077860Y-118459141D01*
X183077862Y-118459142D01*
X183088177Y-118466034D01*
X183100344Y-118468454D01*
X183100346Y-118468455D01*
X183135227Y-118475393D01*
X183164893Y-118481294D01*
X183226794Y-118481294D01*
X183294915Y-118501296D01*
X183341408Y-118554952D01*
X183352794Y-118607294D01*
X183352794Y-119830434D01*
X183332792Y-119898555D01*
X183279136Y-119945048D01*
X183208862Y-119955152D01*
X183144282Y-119925658D01*
X183125968Y-119905999D01*
X183046579Y-119800070D01*
X183034018Y-119787509D01*
X182931943Y-119711008D01*
X182916348Y-119702470D01*
X182795900Y-119657316D01*
X182780645Y-119653689D01*
X182729780Y-119648163D01*
X182722966Y-119647794D01*
X182696409Y-119647794D01*
X182681170Y-119652269D01*
X182679965Y-119653659D01*
X182678294Y-119661342D01*
X182678294Y-122545678D01*
X182682769Y-122560917D01*
X182684159Y-122562122D01*
X182691842Y-122563793D01*
X182722963Y-122563793D01*
X182729784Y-122563423D01*
X182780646Y-122557899D01*
X182795898Y-122554273D01*
X182916348Y-122509118D01*
X182931943Y-122500580D01*
X183034018Y-122424079D01*
X183046579Y-122411518D01*
X183123080Y-122309443D01*
X183131619Y-122293846D01*
X183144462Y-122259587D01*
X183187103Y-122202822D01*
X183253664Y-122178122D01*
X183323013Y-122193329D01*
X183333284Y-122201031D01*
X183333742Y-122200346D01*
X183400063Y-122244661D01*
X183412232Y-122247082D01*
X183412233Y-122247082D01*
X183452478Y-122255087D01*
X183458546Y-122256294D01*
X183898042Y-122256294D01*
X183904110Y-122255087D01*
X183944355Y-122247082D01*
X183944356Y-122247082D01*
X183956525Y-122244661D01*
X184022846Y-122200346D01*
X184067161Y-122134025D01*
X184078794Y-122075542D01*
X184078794Y-120815837D01*
X184098796Y-120747716D01*
X184152452Y-120701223D01*
X184222726Y-120691119D01*
X184242359Y-120695568D01*
X184352431Y-120729956D01*
X184361403Y-120730120D01*
X184361406Y-120730121D01*
X184426737Y-120731318D01*
X184495773Y-120732584D01*
X184504807Y-120730121D01*
X184625432Y-120697235D01*
X184625434Y-120697234D01*
X184634091Y-120694874D01*
X184756265Y-120619859D01*
X184807967Y-120562739D01*
X184868511Y-120525658D01*
X184901383Y-120521294D01*
X185369330Y-120521294D01*
X185437451Y-120541296D01*
X185458703Y-120559992D01*
X185458797Y-120559887D01*
X185465484Y-120565866D01*
X185471264Y-120572742D01*
X185522308Y-120606720D01*
X185559515Y-120631487D01*
X185590607Y-120652184D01*
X185727451Y-120694936D01*
X185736423Y-120695100D01*
X185736426Y-120695101D01*
X185801757Y-120696298D01*
X185870793Y-120697564D01*
X185879827Y-120695101D01*
X186000452Y-120662215D01*
X186000454Y-120662214D01*
X186009111Y-120659854D01*
X186131285Y-120584839D01*
X186138372Y-120577010D01*
X186221472Y-120485201D01*
X186227494Y-120478548D01*
X186279759Y-120370673D01*
X186286089Y-120357608D01*
X186286089Y-120357607D01*
X186290004Y-120349527D01*
X186313790Y-120208148D01*
X186313941Y-120195794D01*
X186302968Y-120119173D01*
X186294890Y-120062762D01*
X186294889Y-120062759D01*
X186293617Y-120053876D01*
X186290192Y-120046344D01*
X186290272Y-119975700D01*
X186328724Y-119916017D01*
X186393338Y-119886597D01*
X186463600Y-119896781D01*
X186500223Y-119922240D01*
X187029992Y-120452009D01*
X187037419Y-120460113D01*
X187061648Y-120488988D01*
X187071197Y-120494501D01*
X187094288Y-120507833D01*
X187103559Y-120513739D01*
X187134419Y-120535348D01*
X187145069Y-120538202D01*
X187148237Y-120539679D01*
X187151513Y-120540871D01*
X187161058Y-120546382D01*
X187194802Y-120552332D01*
X187198161Y-120552924D01*
X187208888Y-120555302D01*
X187245296Y-120565058D01*
X187256281Y-120564097D01*
X187256283Y-120564097D01*
X187282831Y-120561774D01*
X187293813Y-120561294D01*
X188471278Y-120561294D01*
X188539399Y-120581296D01*
X188560373Y-120598199D01*
X188779541Y-120817367D01*
X188813567Y-120879679D01*
X188808502Y-120950494D01*
X188765955Y-121007330D01*
X188710158Y-121030910D01*
X188640502Y-121041942D01*
X188625666Y-121044292D01*
X188625665Y-121044292D01*
X188615874Y-121045843D01*
X188497543Y-121106136D01*
X188403636Y-121200043D01*
X188343343Y-121318374D01*
X188327794Y-121416548D01*
X188327794Y-121995040D01*
X188343343Y-122093214D01*
X188403636Y-122211545D01*
X188497543Y-122305452D01*
X188506373Y-122309951D01*
X188506377Y-122309954D01*
X188552170Y-122333286D01*
X188603786Y-122382034D01*
X188620852Y-122450949D01*
X188597952Y-122518150D01*
X188542354Y-122562303D01*
X188532648Y-122565787D01*
X188492049Y-122578510D01*
X188478306Y-122584715D01*
X188344720Y-122665618D01*
X188332851Y-122674925D01*
X188222425Y-122785351D01*
X188213118Y-122797220D01*
X188132215Y-122930806D01*
X188126009Y-122944551D01*
X188106350Y-123007284D01*
X188066893Y-123066306D01*
X188001789Y-123094626D01*
X187931709Y-123083253D01*
X187878903Y-123035797D01*
X187873849Y-123026807D01*
X187860846Y-123001286D01*
X187860843Y-123001282D01*
X187856344Y-122992452D01*
X187766636Y-122902744D01*
X187765355Y-122902091D01*
X187724878Y-122849597D01*
X187716294Y-122803886D01*
X187716294Y-122455401D01*
X187736296Y-122387280D01*
X187785091Y-122343135D01*
X187850208Y-122309956D01*
X187850214Y-122309952D01*
X187859045Y-122305452D01*
X187952952Y-122211545D01*
X188013245Y-122093214D01*
X188028794Y-121995040D01*
X188028794Y-121416548D01*
X188013245Y-121318374D01*
X187952952Y-121200043D01*
X187859045Y-121106136D01*
X187740714Y-121045843D01*
X187642540Y-121030294D01*
X187139048Y-121030294D01*
X187040874Y-121045843D01*
X186922543Y-121106136D01*
X186828636Y-121200043D01*
X186768343Y-121318374D01*
X186752794Y-121416548D01*
X186752794Y-121995040D01*
X186768343Y-122093214D01*
X186828636Y-122211545D01*
X186922543Y-122305452D01*
X186931374Y-122309952D01*
X186931380Y-122309956D01*
X186996497Y-122343135D01*
X187048112Y-122391883D01*
X187065294Y-122455401D01*
X187065294Y-122736189D01*
X187045292Y-122804310D01*
X186996497Y-122848456D01*
X186898785Y-122898243D01*
X186898783Y-122898244D01*
X186889952Y-122902744D01*
X186800244Y-122992452D01*
X186742648Y-123105490D01*
X186741098Y-123115279D01*
X186741097Y-123115281D01*
X186740216Y-123120842D01*
X186727794Y-123199275D01*
X186727795Y-123812312D01*
X186728570Y-123817205D01*
X186728570Y-123817206D01*
X186741012Y-123895766D01*
X186742648Y-123906098D01*
X186800244Y-124019136D01*
X186889793Y-124108685D01*
X186923819Y-124170997D01*
X186918754Y-124241812D01*
X186876207Y-124298648D01*
X186809687Y-124323459D01*
X186800698Y-124323780D01*
X181225318Y-124323780D01*
X181208101Y-124321826D01*
X181202477Y-124321816D01*
X181188650Y-124318637D01*
X181174811Y-124321769D01*
X181173818Y-124321767D01*
X181161690Y-124321160D01*
X181044570Y-124309626D01*
X181020348Y-124304808D01*
X180894024Y-124266488D01*
X180871205Y-124257037D01*
X180754785Y-124194811D01*
X180734248Y-124181088D01*
X180632205Y-124097346D01*
X180614738Y-124079880D01*
X180611749Y-124076237D01*
X180530994Y-123977839D01*
X180517272Y-123957303D01*
X180504370Y-123933165D01*
X180455043Y-123840885D01*
X180445590Y-123818065D01*
X180445590Y-123818064D01*
X180407268Y-123691738D01*
X180402451Y-123667522D01*
X180390865Y-123549900D01*
X180390284Y-123537868D01*
X180393437Y-123524157D01*
X180390305Y-123510318D01*
X180390314Y-123505426D01*
X180388294Y-123487350D01*
X180388294Y-117784446D01*
X180408296Y-117716325D01*
X180461952Y-117669832D01*
X180532226Y-117659728D01*
X180596806Y-117689222D01*
X180621438Y-117718143D01*
X180646082Y-117757967D01*
X180655118Y-117769368D01*
X180765723Y-117879780D01*
X180777134Y-117888792D01*
X180910174Y-117970798D01*
X180923355Y-117976945D01*
X181072108Y-118026285D01*
X181085484Y-118029152D01*
X181176391Y-118038466D01*
X181182807Y-118038794D01*
X181206179Y-118038794D01*
X181221418Y-118034319D01*
X181222623Y-118032929D01*
X181224294Y-118025246D01*
X181224294Y-116952794D01*
X181244296Y-116884673D01*
X181297952Y-116838180D01*
X181350294Y-116826794D01*
X182443179Y-116826794D01*
X182490654Y-116812854D01*
X182561650Y-116812854D01*
X182621376Y-116851238D01*
G37*
%TD.AperFunction*%
%TA.AperFunction,Conductor*%
G36*
X211798242Y-105921111D02*
G01*
X211938491Y-105948005D01*
X211964056Y-105955793D01*
X212095486Y-106011665D01*
X212118835Y-106024670D01*
X212235526Y-106107007D01*
X212255603Y-106124642D01*
X212273351Y-106143931D01*
X212352302Y-106229739D01*
X212368210Y-106251215D01*
X212440564Y-106374338D01*
X212451585Y-106398685D01*
X212496346Y-106534306D01*
X212501983Y-106560431D01*
X212515879Y-106690699D01*
X212516477Y-106702122D01*
X212513415Y-106715440D01*
X212516547Y-106729281D01*
X212516539Y-106734175D01*
X212518558Y-106752243D01*
X212518558Y-119017530D01*
X212498556Y-119085651D01*
X212444900Y-119132144D01*
X212374626Y-119142248D01*
X212310046Y-119112754D01*
X212281514Y-119077073D01*
X212276393Y-119067523D01*
X212160720Y-118888720D01*
X212154430Y-118880551D01*
X212011100Y-118723034D01*
X212003567Y-118716009D01*
X211836433Y-118584016D01*
X211827846Y-118578311D01*
X211641411Y-118475393D01*
X211631999Y-118471163D01*
X211440325Y-118403287D01*
X211382789Y-118361693D01*
X211356873Y-118295595D01*
X211370807Y-118225979D01*
X211420166Y-118174948D01*
X211448500Y-118163156D01*
X211454084Y-118161597D01*
X211454093Y-118161594D01*
X211460019Y-118159939D01*
X211465508Y-118157166D01*
X211465514Y-118157164D01*
X211598538Y-118089968D01*
X211643904Y-118067052D01*
X211659392Y-118054952D01*
X211767104Y-117970798D01*
X211806245Y-117940218D01*
X211832733Y-117909532D01*
X211936834Y-117788928D01*
X211936834Y-117788927D01*
X211940858Y-117784266D01*
X211961681Y-117747612D01*
X211991454Y-117695201D01*
X212042617Y-117605138D01*
X212107645Y-117409657D01*
X212133465Y-117205268D01*
X212133729Y-117186362D01*
X212133828Y-117179316D01*
X212133828Y-117179312D01*
X212133877Y-117175794D01*
X212113774Y-116970764D01*
X212054229Y-116773543D01*
X211957512Y-116591643D01*
X211867513Y-116481294D01*
X211831200Y-116436769D01*
X211831197Y-116436766D01*
X211827305Y-116431994D01*
X211798188Y-116407906D01*
X211673319Y-116304605D01*
X211673315Y-116304603D01*
X211668569Y-116300676D01*
X211487349Y-116202691D01*
X211290548Y-116141771D01*
X211284423Y-116141127D01*
X211284422Y-116141127D01*
X211091792Y-116120881D01*
X211091790Y-116120881D01*
X211085663Y-116120237D01*
X211008425Y-116127266D01*
X210886636Y-116138349D01*
X210886633Y-116138350D01*
X210880497Y-116138908D01*
X210682866Y-116197074D01*
X210677401Y-116199931D01*
X210616790Y-116231618D01*
X210500296Y-116292520D01*
X210495495Y-116296380D01*
X210495492Y-116296382D01*
X210375046Y-116393223D01*
X210339741Y-116421609D01*
X210207318Y-116579424D01*
X210204350Y-116584822D01*
X210204347Y-116584827D01*
X210145553Y-116691774D01*
X210108070Y-116759956D01*
X210045778Y-116956326D01*
X210045092Y-116962443D01*
X210045091Y-116962447D01*
X210029517Y-117101294D01*
X210022814Y-117161056D01*
X210023330Y-117167200D01*
X210038841Y-117351909D01*
X210040053Y-117366347D01*
X210041752Y-117372272D01*
X210091058Y-117544222D01*
X210096838Y-117564380D01*
X210099653Y-117569857D01*
X210099654Y-117569860D01*
X210174927Y-117716325D01*
X210191006Y-117747612D01*
X210318971Y-117909064D01*
X210323664Y-117913058D01*
X210323665Y-117913059D01*
X210456706Y-118026285D01*
X210475858Y-118042585D01*
X210481236Y-118045591D01*
X210481238Y-118045592D01*
X210560640Y-118089968D01*
X210655692Y-118143091D01*
X210720731Y-118164223D01*
X210779336Y-118204296D01*
X210806974Y-118269692D01*
X210794868Y-118339649D01*
X210746862Y-118391956D01*
X210720940Y-118403821D01*
X210555162Y-118458006D01*
X210545653Y-118462003D01*
X210356757Y-118560336D01*
X210348032Y-118565830D01*
X210177727Y-118693699D01*
X210170020Y-118700542D01*
X210022884Y-118854511D01*
X210016398Y-118862521D01*
X209896392Y-119038443D01*
X209891294Y-119047417D01*
X209801632Y-119240577D01*
X209798069Y-119250264D01*
X209742683Y-119449977D01*
X209744206Y-119458401D01*
X209756586Y-119461794D01*
X211206294Y-119461794D01*
X211274415Y-119481796D01*
X211320908Y-119535452D01*
X211332294Y-119587794D01*
X211332294Y-123574311D01*
X211336358Y-123588153D01*
X211349772Y-123590187D01*
X211356478Y-123589328D01*
X211366556Y-123587186D01*
X211570549Y-123525985D01*
X211580136Y-123522227D01*
X211771389Y-123428533D01*
X211780239Y-123423258D01*
X211953622Y-123299586D01*
X211961494Y-123292933D01*
X212112346Y-123142606D01*
X212119024Y-123134759D01*
X212243297Y-122961814D01*
X212248607Y-122952977D01*
X212279601Y-122890266D01*
X212327715Y-122838059D01*
X212396416Y-122820152D01*
X212463892Y-122842230D01*
X212508721Y-122897285D01*
X212518558Y-122946093D01*
X212518558Y-123486775D01*
X212516605Y-123503983D01*
X212516595Y-123509612D01*
X212513415Y-123523441D01*
X212516547Y-123537281D01*
X212516545Y-123538269D01*
X212515938Y-123550400D01*
X212504401Y-123667519D01*
X212499582Y-123691744D01*
X212461262Y-123818064D01*
X212451809Y-123840885D01*
X212402483Y-123933165D01*
X212389580Y-123957303D01*
X212375858Y-123977839D01*
X212295104Y-124076237D01*
X212292114Y-124079880D01*
X212274647Y-124097346D01*
X212172604Y-124181088D01*
X212152067Y-124194811D01*
X212035647Y-124257037D01*
X212012828Y-124266488D01*
X211886504Y-124304808D01*
X211862280Y-124309626D01*
X211770781Y-124318637D01*
X211744663Y-124321209D01*
X211732630Y-124321790D01*
X211718918Y-124318637D01*
X211705078Y-124321769D01*
X211700190Y-124321760D01*
X211682114Y-124323780D01*
X196865810Y-124323780D01*
X196797689Y-124303778D01*
X196751196Y-124250122D01*
X196741092Y-124179848D01*
X196770586Y-124115268D01*
X196776715Y-124108685D01*
X196809163Y-124076237D01*
X196818470Y-124064368D01*
X196899373Y-123930782D01*
X196905579Y-123917037D01*
X196952550Y-123767150D01*
X196955163Y-123754100D01*
X196960207Y-123699208D01*
X196956819Y-123687670D01*
X196955429Y-123686465D01*
X196947746Y-123684794D01*
X195013410Y-123684794D01*
X194998171Y-123689269D01*
X194996966Y-123690659D01*
X194996003Y-123695088D01*
X195001426Y-123754109D01*
X195004037Y-123767145D01*
X195051009Y-123917037D01*
X195057215Y-123930782D01*
X195138118Y-124064368D01*
X195147425Y-124076237D01*
X195179873Y-124108685D01*
X195213899Y-124170997D01*
X195208834Y-124241812D01*
X195166287Y-124298648D01*
X195099767Y-124323459D01*
X195090778Y-124323780D01*
X189900822Y-124323780D01*
X189832701Y-124303778D01*
X189786208Y-124250122D01*
X189776104Y-124179848D01*
X189793047Y-124132508D01*
X189824370Y-124080788D01*
X189830579Y-124067037D01*
X189877550Y-123917150D01*
X189880163Y-123904100D01*
X189886028Y-123840273D01*
X189886294Y-123834485D01*
X189886294Y-123777909D01*
X189881819Y-123762670D01*
X189880429Y-123761465D01*
X189872746Y-123759794D01*
X188850294Y-123759794D01*
X188782173Y-123739792D01*
X188735680Y-123686136D01*
X188724294Y-123633794D01*
X188724294Y-123377794D01*
X188744296Y-123309673D01*
X188797952Y-123263180D01*
X188850294Y-123251794D01*
X189868178Y-123251794D01*
X189883417Y-123247319D01*
X189884622Y-123245929D01*
X189886293Y-123238246D01*
X189886293Y-123177089D01*
X189886030Y-123171340D01*
X189880162Y-123107479D01*
X189877551Y-123094443D01*
X189830579Y-122944551D01*
X189824373Y-122930806D01*
X189743470Y-122797220D01*
X189734163Y-122785351D01*
X189623737Y-122674925D01*
X189611868Y-122665618D01*
X189478282Y-122584715D01*
X189464543Y-122578512D01*
X189408462Y-122560938D01*
X189349440Y-122521481D01*
X189321119Y-122456378D01*
X189332491Y-122386298D01*
X189379946Y-122333491D01*
X189388937Y-122328437D01*
X189425208Y-122309956D01*
X189425214Y-122309952D01*
X189434045Y-122305452D01*
X189527952Y-122211545D01*
X189584741Y-122100091D01*
X189633490Y-122048476D01*
X189697008Y-122031294D01*
X190818536Y-122031294D01*
X190856109Y-122037027D01*
X190977451Y-122074936D01*
X190986423Y-122075100D01*
X190986426Y-122075101D01*
X191051757Y-122076298D01*
X191120793Y-122077564D01*
X191129827Y-122075101D01*
X191250452Y-122042215D01*
X191250454Y-122042214D01*
X191259111Y-122039854D01*
X191381285Y-121964839D01*
X191477494Y-121858548D01*
X191540004Y-121729527D01*
X191563790Y-121588148D01*
X191563941Y-121575794D01*
X191551301Y-121487533D01*
X191544890Y-121442762D01*
X191544889Y-121442759D01*
X191543617Y-121433876D01*
X191539903Y-121425707D01*
X191539902Y-121425704D01*
X191532728Y-121409926D01*
X191522740Y-121339635D01*
X191552341Y-121275103D01*
X191612131Y-121236819D01*
X191647428Y-121231774D01*
X192539725Y-121231774D01*
X192607846Y-121251776D01*
X192654339Y-121305432D01*
X192664443Y-121375706D01*
X192634949Y-121440286D01*
X192618677Y-121455971D01*
X192607098Y-121465281D01*
X192492394Y-121557505D01*
X192366274Y-121707810D01*
X192363310Y-121713202D01*
X192363307Y-121713206D01*
X192302236Y-121824294D01*
X192271750Y-121879748D01*
X192269889Y-121885615D01*
X192269888Y-121885617D01*
X192249371Y-121950294D01*
X192212422Y-122066772D01*
X192190551Y-122261757D01*
X192206969Y-122457277D01*
X192261052Y-122645885D01*
X192263870Y-122651368D01*
X192347917Y-122814907D01*
X192347920Y-122814911D01*
X192350738Y-122820395D01*
X192472612Y-122974163D01*
X192477305Y-122978157D01*
X192477306Y-122978158D01*
X192600793Y-123083253D01*
X192622032Y-123101329D01*
X192627410Y-123104335D01*
X192627412Y-123104336D01*
X192658292Y-123121594D01*
X192793307Y-123197051D01*
X192979912Y-123257683D01*
X193174740Y-123280915D01*
X193180875Y-123280443D01*
X193180877Y-123280443D01*
X193364228Y-123266335D01*
X193364232Y-123266334D01*
X193370370Y-123265862D01*
X193559350Y-123213097D01*
X193734483Y-123124631D01*
X193744041Y-123117164D01*
X193865070Y-123022606D01*
X193889097Y-123003834D01*
X193904974Y-122985441D01*
X194013279Y-122859967D01*
X194013279Y-122859966D01*
X194017303Y-122855305D01*
X194027100Y-122838059D01*
X194111173Y-122690066D01*
X194111175Y-122690061D01*
X194114219Y-122684703D01*
X194116166Y-122678850D01*
X194117415Y-122676045D01*
X194163395Y-122621949D01*
X194232522Y-122601294D01*
X195033160Y-122601294D01*
X195101281Y-122621296D01*
X195147774Y-122674952D01*
X195157878Y-122745226D01*
X195140936Y-122792565D01*
X195057217Y-122930802D01*
X195051009Y-122944551D01*
X195004038Y-123094438D01*
X195001425Y-123107488D01*
X194996381Y-123162380D01*
X194999769Y-123173918D01*
X195001159Y-123175123D01*
X195008842Y-123176794D01*
X196943178Y-123176794D01*
X196958417Y-123172319D01*
X196959622Y-123170929D01*
X196960585Y-123166500D01*
X196955162Y-123107479D01*
X196952551Y-123094443D01*
X196905579Y-122944551D01*
X196899373Y-122930806D01*
X196818470Y-122797220D01*
X196809163Y-122785351D01*
X196698737Y-122674925D01*
X196686868Y-122665618D01*
X196553282Y-122584715D01*
X196539537Y-122578509D01*
X196476804Y-122558850D01*
X196417782Y-122519393D01*
X196389462Y-122454289D01*
X196400835Y-122384209D01*
X196448291Y-122331403D01*
X196457281Y-122326349D01*
X196482802Y-122313346D01*
X196482806Y-122313343D01*
X196491636Y-122308844D01*
X196581344Y-122219136D01*
X196638940Y-122106098D01*
X196642819Y-122081610D01*
X196649432Y-122039854D01*
X196653794Y-122012313D01*
X196653793Y-121549276D01*
X196638940Y-121455490D01*
X196634437Y-121446653D01*
X196634436Y-121446649D01*
X196618298Y-121414976D01*
X196605194Y-121345199D01*
X196631895Y-121279415D01*
X196689923Y-121238509D01*
X196730565Y-121231774D01*
X198039725Y-121231774D01*
X198107846Y-121251776D01*
X198154339Y-121305432D01*
X198164443Y-121375706D01*
X198134949Y-121440286D01*
X198118677Y-121455971D01*
X198107098Y-121465281D01*
X197992394Y-121557505D01*
X197866274Y-121707810D01*
X197863310Y-121713202D01*
X197863307Y-121713206D01*
X197802236Y-121824294D01*
X197771750Y-121879748D01*
X197769889Y-121885615D01*
X197769888Y-121885617D01*
X197749371Y-121950294D01*
X197712422Y-122066772D01*
X197690551Y-122261757D01*
X197706969Y-122457277D01*
X197761052Y-122645885D01*
X197763870Y-122651368D01*
X197847917Y-122814907D01*
X197847920Y-122814911D01*
X197850738Y-122820395D01*
X197972612Y-122974163D01*
X197977305Y-122978157D01*
X197977306Y-122978158D01*
X198100793Y-123083253D01*
X198122032Y-123101329D01*
X198127410Y-123104335D01*
X198127412Y-123104336D01*
X198158292Y-123121594D01*
X198293307Y-123197051D01*
X198479912Y-123257683D01*
X198674740Y-123280915D01*
X198680875Y-123280443D01*
X198680877Y-123280443D01*
X198864228Y-123266335D01*
X198864232Y-123266334D01*
X198870370Y-123265862D01*
X199059350Y-123213097D01*
X199234483Y-123124631D01*
X199244041Y-123117164D01*
X199365070Y-123022606D01*
X199389097Y-123003834D01*
X199404974Y-122985441D01*
X199513279Y-122859967D01*
X199513279Y-122859966D01*
X199517303Y-122855305D01*
X199614219Y-122684703D01*
X199676152Y-122498526D01*
X199700743Y-122303865D01*
X199701135Y-122275794D01*
X199681988Y-122080522D01*
X199680207Y-122074623D01*
X199680206Y-122074618D01*
X199627059Y-121898587D01*
X199625278Y-121892688D01*
X199533164Y-121719447D01*
X199409155Y-121567396D01*
X199273120Y-121454859D01*
X199233382Y-121396026D01*
X199231759Y-121325047D01*
X199268768Y-121264460D01*
X199332658Y-121233499D01*
X199353435Y-121231774D01*
X201141794Y-121231774D01*
X201209915Y-121251776D01*
X201256408Y-121305432D01*
X201267794Y-121357774D01*
X201267794Y-123005542D01*
X201269001Y-123011610D01*
X201272625Y-123029827D01*
X201279427Y-123064025D01*
X201323742Y-123130346D01*
X201390063Y-123174661D01*
X201402232Y-123177082D01*
X201402233Y-123177082D01*
X201442478Y-123185087D01*
X201448546Y-123186294D01*
X203188042Y-123186294D01*
X203194110Y-123185087D01*
X203234355Y-123177082D01*
X203234356Y-123177082D01*
X203246525Y-123174661D01*
X203312846Y-123130346D01*
X203357161Y-123064025D01*
X203363964Y-123029827D01*
X203367587Y-123011610D01*
X203368794Y-123005542D01*
X203368794Y-121410810D01*
X203388796Y-121342689D01*
X203442452Y-121296196D01*
X203512726Y-121286092D01*
X203577306Y-121315586D01*
X203583889Y-121321715D01*
X203856551Y-121594377D01*
X203890577Y-121656689D01*
X203887558Y-121721570D01*
X203825778Y-121916326D01*
X203825092Y-121922443D01*
X203825091Y-121922447D01*
X203805937Y-122093214D01*
X203802814Y-122121056D01*
X203803330Y-122127200D01*
X203818677Y-122309956D01*
X203820053Y-122326347D01*
X203821752Y-122332272D01*
X203875052Y-122518150D01*
X203876838Y-122524380D01*
X203879653Y-122529857D01*
X203879654Y-122529860D01*
X203968191Y-122702135D01*
X203971006Y-122707612D01*
X204098971Y-122869064D01*
X204103664Y-122873058D01*
X204103665Y-122873059D01*
X204197569Y-122952977D01*
X204255858Y-123002585D01*
X204261236Y-123005591D01*
X204261238Y-123005592D01*
X204291681Y-123022606D01*
X204435692Y-123103091D01*
X204501985Y-123124631D01*
X204625765Y-123164850D01*
X204625769Y-123164851D01*
X204631623Y-123166753D01*
X204836188Y-123191145D01*
X204842323Y-123190673D01*
X204842325Y-123190673D01*
X204914919Y-123185087D01*
X205041594Y-123175340D01*
X205047524Y-123173684D01*
X205047526Y-123173684D01*
X205234091Y-123121594D01*
X205234090Y-123121594D01*
X205240019Y-123119939D01*
X205245508Y-123117166D01*
X205245514Y-123117164D01*
X205418410Y-123029827D01*
X205423904Y-123027052D01*
X205439639Y-123014759D01*
X205581395Y-122904007D01*
X205586245Y-122900218D01*
X205594836Y-122890266D01*
X205716834Y-122748928D01*
X205716834Y-122748927D01*
X205720858Y-122744266D01*
X205725447Y-122736189D01*
X205776746Y-122645885D01*
X205822617Y-122565138D01*
X205828374Y-122547831D01*
X205846790Y-122492472D01*
X205887272Y-122434148D01*
X205952860Y-122406969D01*
X206022731Y-122419564D01*
X206074700Y-122467935D01*
X206089265Y-122504545D01*
X206096858Y-122538238D01*
X206099939Y-122548069D01*
X206180064Y-122745397D01*
X206184707Y-122754588D01*
X206295988Y-122936182D01*
X206302071Y-122944493D01*
X206441507Y-123105461D01*
X206448874Y-123112677D01*
X206612728Y-123248710D01*
X206621175Y-123254625D01*
X206805050Y-123362073D01*
X206814336Y-123366523D01*
X207013295Y-123442497D01*
X207023193Y-123445373D01*
X207126544Y-123466400D01*
X207140593Y-123465204D01*
X207144294Y-123454859D01*
X207144294Y-123454311D01*
X207652294Y-123454311D01*
X207656358Y-123468153D01*
X207669772Y-123470187D01*
X207676478Y-123469328D01*
X207686556Y-123467186D01*
X207890549Y-123405985D01*
X207900136Y-123402227D01*
X208091389Y-123308533D01*
X208100239Y-123303258D01*
X208273622Y-123179586D01*
X208281494Y-123172933D01*
X208432346Y-123022606D01*
X208439024Y-123014759D01*
X208563297Y-122841814D01*
X208568607Y-122832977D01*
X208662964Y-122642061D01*
X208666763Y-122632466D01*
X208699791Y-122523760D01*
X209746551Y-122523760D01*
X209776859Y-122658240D01*
X209779939Y-122668069D01*
X209860064Y-122865397D01*
X209864707Y-122874588D01*
X209975988Y-123056182D01*
X209982071Y-123064493D01*
X210121507Y-123225461D01*
X210128874Y-123232677D01*
X210292728Y-123368710D01*
X210301175Y-123374625D01*
X210485050Y-123482073D01*
X210494336Y-123486523D01*
X210693295Y-123562497D01*
X210703193Y-123565373D01*
X210806544Y-123586400D01*
X210820593Y-123585204D01*
X210824294Y-123574859D01*
X210824294Y-122527909D01*
X210819819Y-122512670D01*
X210818429Y-122511465D01*
X210810746Y-122509794D01*
X209761519Y-122509794D01*
X209747988Y-122513767D01*
X209746551Y-122523760D01*
X208699791Y-122523760D01*
X208728671Y-122428704D01*
X208730849Y-122418631D01*
X208732280Y-122407756D01*
X208730069Y-122393572D01*
X208716911Y-122389794D01*
X207670409Y-122389794D01*
X207655170Y-122394269D01*
X207653965Y-122395659D01*
X207652294Y-122403342D01*
X207652294Y-123454311D01*
X207144294Y-123454311D01*
X207144294Y-121989977D01*
X209742683Y-121989977D01*
X209744206Y-121998401D01*
X209756586Y-122001794D01*
X210806179Y-122001794D01*
X210821418Y-121997319D01*
X210822623Y-121995929D01*
X210824294Y-121988246D01*
X210824294Y-119987909D01*
X210819819Y-119972670D01*
X210818429Y-119971465D01*
X210810746Y-119969794D01*
X209761519Y-119969794D01*
X209747988Y-119973767D01*
X209746551Y-119983760D01*
X209776859Y-120118240D01*
X209779939Y-120128069D01*
X209860064Y-120325397D01*
X209864707Y-120334588D01*
X209975988Y-120516182D01*
X209982071Y-120524493D01*
X210121507Y-120685461D01*
X210128874Y-120692677D01*
X210292728Y-120828710D01*
X210301175Y-120834625D01*
X210370773Y-120875295D01*
X210419497Y-120926934D01*
X210432568Y-120996717D01*
X210405837Y-121062488D01*
X210365381Y-121095847D01*
X210356756Y-121100336D01*
X210348032Y-121105830D01*
X210177727Y-121233699D01*
X210170020Y-121240542D01*
X210022884Y-121394511D01*
X210016398Y-121402521D01*
X209896392Y-121578443D01*
X209891294Y-121587417D01*
X209801632Y-121780577D01*
X209798069Y-121790264D01*
X209742683Y-121989977D01*
X207144294Y-121989977D01*
X207144294Y-121863679D01*
X207652294Y-121863679D01*
X207656769Y-121878918D01*
X207658159Y-121880123D01*
X207665842Y-121881794D01*
X208716638Y-121881794D01*
X208730169Y-121877821D01*
X208731474Y-121868741D01*
X208689508Y-121701669D01*
X208686188Y-121691918D01*
X208601266Y-121496608D01*
X208596399Y-121487533D01*
X208480720Y-121308720D01*
X208474430Y-121300551D01*
X208331100Y-121143034D01*
X208323567Y-121136009D01*
X208156433Y-121004016D01*
X208147846Y-120998311D01*
X207961411Y-120895393D01*
X207951999Y-120891163D01*
X207751253Y-120820074D01*
X207741282Y-120817440D01*
X207670131Y-120804766D01*
X207656834Y-120806226D01*
X207652294Y-120820783D01*
X207652294Y-121863679D01*
X207144294Y-121863679D01*
X207144294Y-120818896D01*
X207140376Y-120805552D01*
X207126100Y-120803565D01*
X207087618Y-120809454D01*
X207077582Y-120811845D01*
X206875162Y-120878006D01*
X206865653Y-120882003D01*
X206676757Y-120980336D01*
X206668032Y-120985830D01*
X206497727Y-121113699D01*
X206490020Y-121120542D01*
X206342884Y-121274511D01*
X206336398Y-121282521D01*
X206216392Y-121458443D01*
X206211294Y-121467417D01*
X206121632Y-121660577D01*
X206118069Y-121670264D01*
X206089306Y-121773979D01*
X206051827Y-121834277D01*
X205987699Y-121864740D01*
X205917280Y-121855697D01*
X205862930Y-121810018D01*
X205847267Y-121776727D01*
X205846437Y-121773979D01*
X205834229Y-121733543D01*
X205737512Y-121551643D01*
X205648711Y-121442762D01*
X205611200Y-121396769D01*
X205611197Y-121396766D01*
X205607305Y-121391994D01*
X205602556Y-121388065D01*
X205453319Y-121264605D01*
X205453315Y-121264603D01*
X205448569Y-121260676D01*
X205267349Y-121162691D01*
X205070548Y-121101771D01*
X205064423Y-121101127D01*
X205064422Y-121101127D01*
X204871792Y-121080881D01*
X204871790Y-121080881D01*
X204865663Y-121080237D01*
X204778823Y-121088140D01*
X204666636Y-121098349D01*
X204666633Y-121098350D01*
X204660497Y-121098908D01*
X204462866Y-121157074D01*
X204457402Y-121159931D01*
X204453075Y-121161679D01*
X204382422Y-121168654D01*
X204316776Y-121133950D01*
X203872885Y-120690059D01*
X203865458Y-120681955D01*
X203848315Y-120661525D01*
X203848316Y-120661525D01*
X203841229Y-120653080D01*
X203831056Y-120647207D01*
X203808589Y-120634235D01*
X203799318Y-120628329D01*
X203777489Y-120613044D01*
X203768458Y-120606720D01*
X203757808Y-120603866D01*
X203754640Y-120602389D01*
X203751364Y-120601197D01*
X203741819Y-120595686D01*
X203706933Y-120589535D01*
X203704716Y-120589144D01*
X203693989Y-120586766D01*
X203657581Y-120577010D01*
X203646596Y-120577971D01*
X203646594Y-120577971D01*
X203620046Y-120580294D01*
X203609064Y-120580774D01*
X199822294Y-120580774D01*
X199754173Y-120560772D01*
X199707680Y-120507116D01*
X199696294Y-120454774D01*
X199696294Y-120187294D01*
X199716296Y-120119173D01*
X199769952Y-120072680D01*
X199822294Y-120061294D01*
X202728584Y-120061294D01*
X202739566Y-120061774D01*
X202766114Y-120064097D01*
X202766116Y-120064097D01*
X202777101Y-120065058D01*
X202813509Y-120055302D01*
X202824236Y-120052924D01*
X202827595Y-120052332D01*
X202861339Y-120046382D01*
X202870884Y-120040871D01*
X202874160Y-120039679D01*
X202877328Y-120038202D01*
X202887978Y-120035348D01*
X202918838Y-120013739D01*
X202928109Y-120007833D01*
X202951200Y-119994501D01*
X202960749Y-119988988D01*
X202984973Y-119960119D01*
X202992400Y-119952015D01*
X203200857Y-119743558D01*
X203263169Y-119709532D01*
X203292258Y-119706674D01*
X203340793Y-119707564D01*
X203390046Y-119694136D01*
X203470449Y-119672216D01*
X203470452Y-119672215D01*
X203479111Y-119669854D01*
X203495295Y-119659917D01*
X203561220Y-119641294D01*
X206287505Y-119641294D01*
X206355626Y-119661296D01*
X206399572Y-119709700D01*
X206471562Y-119849777D01*
X206491006Y-119887612D01*
X206618971Y-120049064D01*
X206623664Y-120053058D01*
X206623665Y-120053059D01*
X206731347Y-120144703D01*
X206775858Y-120182585D01*
X206781236Y-120185591D01*
X206781238Y-120185592D01*
X206824602Y-120209827D01*
X206955692Y-120283091D01*
X207030504Y-120307399D01*
X207145765Y-120344850D01*
X207145769Y-120344851D01*
X207151623Y-120346753D01*
X207356188Y-120371145D01*
X207362323Y-120370673D01*
X207362325Y-120370673D01*
X207418333Y-120366363D01*
X207561594Y-120355340D01*
X207567524Y-120353684D01*
X207567526Y-120353684D01*
X207741169Y-120305202D01*
X207760019Y-120299939D01*
X207765508Y-120297166D01*
X207765514Y-120297164D01*
X207898246Y-120230116D01*
X207943904Y-120207052D01*
X207952095Y-120200653D01*
X208037283Y-120134097D01*
X208106245Y-120080218D01*
X208117442Y-120067247D01*
X208236834Y-119928928D01*
X208236834Y-119928927D01*
X208240858Y-119924266D01*
X208244041Y-119918664D01*
X208311411Y-119800070D01*
X208342617Y-119745138D01*
X208407645Y-119549657D01*
X208433465Y-119345268D01*
X208433753Y-119324689D01*
X208433828Y-119319316D01*
X208433828Y-119319312D01*
X208433877Y-119315794D01*
X208413774Y-119110764D01*
X208354229Y-118913543D01*
X208257512Y-118731643D01*
X208156095Y-118607294D01*
X208131200Y-118576769D01*
X208131197Y-118576766D01*
X208127305Y-118571994D01*
X208110080Y-118557744D01*
X207973319Y-118444605D01*
X207973315Y-118444603D01*
X207968569Y-118440676D01*
X207787349Y-118342691D01*
X207590548Y-118281771D01*
X207584423Y-118281127D01*
X207584422Y-118281127D01*
X207391792Y-118260881D01*
X207391790Y-118260881D01*
X207385663Y-118260237D01*
X207301777Y-118267871D01*
X207186636Y-118278349D01*
X207186633Y-118278350D01*
X207180497Y-118278908D01*
X206982866Y-118337074D01*
X206977401Y-118339931D01*
X206920101Y-118369887D01*
X206800296Y-118432520D01*
X206795495Y-118436380D01*
X206795492Y-118436382D01*
X206694981Y-118517195D01*
X206639741Y-118561609D01*
X206507318Y-118719424D01*
X206504350Y-118724822D01*
X206504347Y-118724827D01*
X206431376Y-118857563D01*
X206408070Y-118899956D01*
X206406208Y-118905825D01*
X206403779Y-118911493D01*
X206401752Y-118910624D01*
X206367636Y-118961275D01*
X206302434Y-118989369D01*
X206287195Y-118990294D01*
X205754149Y-118990294D01*
X205686028Y-118970292D01*
X205639535Y-118916636D01*
X205629431Y-118846362D01*
X205633914Y-118826616D01*
X205652551Y-118767144D01*
X205655163Y-118754100D01*
X205660207Y-118699208D01*
X205656819Y-118687670D01*
X205655429Y-118686465D01*
X205647746Y-118684794D01*
X204550294Y-118684794D01*
X204482173Y-118664792D01*
X204435680Y-118611136D01*
X204424294Y-118558794D01*
X204424294Y-118302794D01*
X204444296Y-118234673D01*
X204497952Y-118188180D01*
X204550294Y-118176794D01*
X205643178Y-118176794D01*
X205658417Y-118172319D01*
X205659622Y-118170929D01*
X205660585Y-118166500D01*
X205655162Y-118107479D01*
X205652551Y-118094443D01*
X205605579Y-117944551D01*
X205599373Y-117930806D01*
X205518470Y-117797220D01*
X205509163Y-117785351D01*
X205398737Y-117674925D01*
X205386868Y-117665618D01*
X205253282Y-117584715D01*
X205239537Y-117578509D01*
X205176804Y-117558850D01*
X205117782Y-117519393D01*
X205089462Y-117454289D01*
X205100835Y-117384209D01*
X205148291Y-117331403D01*
X205157281Y-117326349D01*
X205182802Y-117313346D01*
X205182806Y-117313343D01*
X205191636Y-117308844D01*
X205281344Y-117219136D01*
X205288477Y-117205138D01*
X205306334Y-117170091D01*
X205355083Y-117118476D01*
X205418601Y-117101294D01*
X206287505Y-117101294D01*
X206355626Y-117121296D01*
X206399572Y-117169700D01*
X206487433Y-117340659D01*
X206491006Y-117347612D01*
X206618971Y-117509064D01*
X206623664Y-117513058D01*
X206623665Y-117513059D01*
X206724981Y-117599285D01*
X206775858Y-117642585D01*
X206781236Y-117645591D01*
X206781238Y-117645592D01*
X206834786Y-117675519D01*
X206955692Y-117743091D01*
X207036564Y-117769368D01*
X207145765Y-117804850D01*
X207145769Y-117804851D01*
X207151623Y-117806753D01*
X207356188Y-117831145D01*
X207362323Y-117830673D01*
X207362325Y-117830673D01*
X207418333Y-117826363D01*
X207561594Y-117815340D01*
X207567524Y-117813684D01*
X207567526Y-117813684D01*
X207754091Y-117761594D01*
X207754090Y-117761594D01*
X207760019Y-117759939D01*
X207765508Y-117757166D01*
X207765514Y-117757164D01*
X207928318Y-117674925D01*
X207943904Y-117667052D01*
X207952557Y-117660292D01*
X208082901Y-117558456D01*
X208106245Y-117540218D01*
X208117611Y-117527051D01*
X208236834Y-117388928D01*
X208236834Y-117388927D01*
X208240858Y-117384266D01*
X208244504Y-117377849D01*
X208283704Y-117308844D01*
X208342617Y-117205138D01*
X208407645Y-117009657D01*
X208433465Y-116805268D01*
X208433877Y-116775794D01*
X208413774Y-116570764D01*
X208354229Y-116373543D01*
X208257512Y-116191643D01*
X208127305Y-116031994D01*
X208122553Y-116028063D01*
X208120584Y-116026080D01*
X208086775Y-115963651D01*
X208092086Y-115892853D01*
X208134829Y-115836165D01*
X208201435Y-115811585D01*
X208209988Y-115811294D01*
X210208584Y-115811294D01*
X210219566Y-115811774D01*
X210246114Y-115814097D01*
X210246116Y-115814097D01*
X210257101Y-115815058D01*
X210293509Y-115805302D01*
X210304236Y-115802924D01*
X210307595Y-115802332D01*
X210341339Y-115796382D01*
X210350884Y-115790871D01*
X210354160Y-115789679D01*
X210357328Y-115788202D01*
X210367978Y-115785348D01*
X210398838Y-115763739D01*
X210408109Y-115757833D01*
X210431200Y-115744501D01*
X210440749Y-115738988D01*
X210464979Y-115710111D01*
X210472405Y-115702009D01*
X210537416Y-115636998D01*
X210599728Y-115602972D01*
X210665445Y-115606260D01*
X210851623Y-115666753D01*
X211056188Y-115691145D01*
X211062323Y-115690673D01*
X211062325Y-115690673D01*
X211118333Y-115686363D01*
X211261594Y-115675340D01*
X211267524Y-115673684D01*
X211267526Y-115673684D01*
X211454091Y-115621594D01*
X211454090Y-115621594D01*
X211460019Y-115619939D01*
X211465508Y-115617166D01*
X211465514Y-115617164D01*
X211638410Y-115529827D01*
X211643904Y-115527052D01*
X211674887Y-115502846D01*
X211741554Y-115450760D01*
X211806245Y-115400218D01*
X211843501Y-115357057D01*
X211936834Y-115248928D01*
X211936834Y-115248927D01*
X211940858Y-115244266D01*
X211946819Y-115233774D01*
X211998886Y-115142118D01*
X212042617Y-115065138D01*
X212107645Y-114869657D01*
X212133465Y-114665268D01*
X212133877Y-114635794D01*
X212113774Y-114430764D01*
X212054229Y-114233543D01*
X211957512Y-114051643D01*
X211882602Y-113959794D01*
X211831200Y-113896769D01*
X211831197Y-113896766D01*
X211827305Y-113891994D01*
X211753122Y-113830624D01*
X211673319Y-113764605D01*
X211673315Y-113764603D01*
X211668569Y-113760676D01*
X211487349Y-113662691D01*
X211290548Y-113601771D01*
X211284423Y-113601127D01*
X211284422Y-113601127D01*
X211091792Y-113580881D01*
X211091790Y-113580881D01*
X211085663Y-113580237D01*
X210998823Y-113588140D01*
X210886636Y-113598349D01*
X210886633Y-113598350D01*
X210880497Y-113598908D01*
X210682866Y-113657074D01*
X210500296Y-113752520D01*
X210495495Y-113756380D01*
X210495492Y-113756382D01*
X210406288Y-113828104D01*
X210339741Y-113881609D01*
X210207318Y-114039424D01*
X210204350Y-114044822D01*
X210204347Y-114044827D01*
X210135612Y-114169857D01*
X210108070Y-114219956D01*
X210045778Y-114416326D01*
X210045092Y-114422443D01*
X210045091Y-114422447D01*
X210026885Y-114584759D01*
X210022814Y-114621056D01*
X210023330Y-114627200D01*
X210039412Y-114818710D01*
X210040053Y-114826347D01*
X210041752Y-114832272D01*
X210089722Y-114999564D01*
X210089271Y-115070559D01*
X210050509Y-115130040D01*
X209985743Y-115159123D01*
X209968603Y-115160294D01*
X208243279Y-115160294D01*
X208175158Y-115140292D01*
X208128665Y-115086636D01*
X208118561Y-115016362D01*
X208147897Y-114951963D01*
X208161225Y-114936523D01*
X208224223Y-114863538D01*
X208236834Y-114848928D01*
X208236834Y-114848927D01*
X208240858Y-114844266D01*
X208245672Y-114835793D01*
X208296066Y-114747082D01*
X208342617Y-114665138D01*
X208407645Y-114469657D01*
X208433465Y-114265268D01*
X208433877Y-114235794D01*
X208413774Y-114030764D01*
X208354229Y-113833543D01*
X208257512Y-113651643D01*
X208127305Y-113491994D01*
X208122553Y-113488063D01*
X208120584Y-113486080D01*
X208086775Y-113423651D01*
X208092086Y-113352853D01*
X208134829Y-113296165D01*
X208201435Y-113271585D01*
X208209988Y-113271294D01*
X210208584Y-113271294D01*
X210219566Y-113271774D01*
X210246114Y-113274097D01*
X210246116Y-113274097D01*
X210257101Y-113275058D01*
X210293509Y-113265302D01*
X210304236Y-113262924D01*
X210309941Y-113261918D01*
X210341339Y-113256382D01*
X210350884Y-113250871D01*
X210354160Y-113249679D01*
X210357328Y-113248202D01*
X210367978Y-113245348D01*
X210398838Y-113223739D01*
X210408109Y-113217833D01*
X210431200Y-113204501D01*
X210440749Y-113198988D01*
X210464979Y-113170111D01*
X210472405Y-113162009D01*
X210537416Y-113096998D01*
X210599728Y-113062972D01*
X210665445Y-113066260D01*
X210851623Y-113126753D01*
X211056188Y-113151145D01*
X211062323Y-113150673D01*
X211062325Y-113150673D01*
X211118333Y-113146363D01*
X211261594Y-113135340D01*
X211267524Y-113133684D01*
X211267526Y-113133684D01*
X211454091Y-113081594D01*
X211454090Y-113081594D01*
X211460019Y-113079939D01*
X211465508Y-113077166D01*
X211465514Y-113077164D01*
X211614338Y-113001987D01*
X211643904Y-112987052D01*
X211666305Y-112969551D01*
X211749018Y-112904928D01*
X211806245Y-112860218D01*
X211819944Y-112844348D01*
X211936834Y-112708928D01*
X211936834Y-112708927D01*
X211940858Y-112704266D01*
X211961544Y-112667853D01*
X211990783Y-112616382D01*
X212042617Y-112525138D01*
X212107645Y-112329657D01*
X212133465Y-112125268D01*
X212133706Y-112108007D01*
X212133828Y-112099316D01*
X212133828Y-112099312D01*
X212133877Y-112095794D01*
X212113774Y-111890764D01*
X212054229Y-111693543D01*
X211957512Y-111511643D01*
X211872597Y-111407527D01*
X211831200Y-111356769D01*
X211831197Y-111356766D01*
X211827305Y-111351994D01*
X211822556Y-111348065D01*
X211673319Y-111224605D01*
X211673315Y-111224603D01*
X211668569Y-111220676D01*
X211487349Y-111122691D01*
X211290548Y-111061771D01*
X211284423Y-111061127D01*
X211284422Y-111061127D01*
X211091792Y-111040881D01*
X211091790Y-111040881D01*
X211085663Y-111040237D01*
X211024007Y-111045848D01*
X210886636Y-111058349D01*
X210886633Y-111058350D01*
X210880497Y-111058908D01*
X210682866Y-111117074D01*
X210500296Y-111212520D01*
X210495495Y-111216380D01*
X210495492Y-111216382D01*
X210357650Y-111327210D01*
X210339741Y-111341609D01*
X210207318Y-111499424D01*
X210204350Y-111504822D01*
X210204347Y-111504827D01*
X210162532Y-111580889D01*
X210108070Y-111679956D01*
X210045778Y-111876326D01*
X210045092Y-111882443D01*
X210045091Y-111882447D01*
X210026857Y-112045008D01*
X210022814Y-112081056D01*
X210025077Y-112108007D01*
X210033622Y-112209758D01*
X210040053Y-112286347D01*
X210047303Y-112311632D01*
X210089722Y-112459564D01*
X210089271Y-112530559D01*
X210050509Y-112590040D01*
X209985743Y-112619123D01*
X209968603Y-112620294D01*
X208554794Y-112620294D01*
X208486673Y-112600292D01*
X208440180Y-112546636D01*
X208428794Y-112494294D01*
X208428794Y-110826046D01*
X208420299Y-110783337D01*
X208419582Y-110779733D01*
X208419582Y-110779732D01*
X208417161Y-110767563D01*
X208372846Y-110701242D01*
X208306525Y-110656927D01*
X208294356Y-110654506D01*
X208294355Y-110654506D01*
X208254110Y-110646501D01*
X208248042Y-110645294D01*
X206844289Y-110645294D01*
X206776168Y-110625292D01*
X206729675Y-110571636D01*
X206719571Y-110501362D01*
X206749065Y-110436782D01*
X206755194Y-110430199D01*
X207267194Y-109918199D01*
X207329506Y-109884173D01*
X207356289Y-109881294D01*
X209901794Y-109881294D01*
X209969915Y-109901296D01*
X210016408Y-109954952D01*
X210027794Y-110007294D01*
X210027794Y-110425542D01*
X210039427Y-110484025D01*
X210083742Y-110550346D01*
X210150063Y-110594661D01*
X210162232Y-110597082D01*
X210162233Y-110597082D01*
X210202478Y-110605087D01*
X210208546Y-110606294D01*
X211948042Y-110606294D01*
X211954110Y-110605087D01*
X211994355Y-110597082D01*
X211994356Y-110597082D01*
X212006525Y-110594661D01*
X212072846Y-110550346D01*
X212117161Y-110484025D01*
X212128794Y-110425542D01*
X212128794Y-108686046D01*
X212117161Y-108627563D01*
X212072846Y-108561242D01*
X212006525Y-108516927D01*
X211994356Y-108514506D01*
X211994355Y-108514506D01*
X211954110Y-108506501D01*
X211948042Y-108505294D01*
X210208546Y-108505294D01*
X210202478Y-108506501D01*
X210162233Y-108514506D01*
X210162232Y-108514506D01*
X210150063Y-108516927D01*
X210083742Y-108561242D01*
X210039427Y-108627563D01*
X210027794Y-108686046D01*
X210027794Y-109104294D01*
X210007792Y-109172415D01*
X209954136Y-109218908D01*
X209901794Y-109230294D01*
X207522174Y-109230294D01*
X207454053Y-109210292D01*
X207407560Y-109156636D01*
X207397456Y-109086362D01*
X207426950Y-109021782D01*
X207458203Y-108995741D01*
X207605010Y-108909226D01*
X207605012Y-108909225D01*
X207606157Y-108908550D01*
X208364147Y-108417201D01*
X208411325Y-108383682D01*
X209099444Y-107894785D01*
X209099465Y-107894770D01*
X209100524Y-107894017D01*
X209123460Y-107876204D01*
X209812875Y-107340781D01*
X209812885Y-107340773D01*
X209813951Y-107339945D01*
X210503133Y-106755992D01*
X211165194Y-106144720D01*
X211166512Y-106143931D01*
X211166769Y-106143684D01*
X211166772Y-106143682D01*
X211166774Y-106143679D01*
X211167028Y-106143435D01*
X211170718Y-106137799D01*
X211190084Y-106119043D01*
X211286846Y-106043854D01*
X211309562Y-106029791D01*
X211438280Y-105967918D01*
X211463458Y-105958960D01*
X211567724Y-105933933D01*
X211602325Y-105925628D01*
X211628826Y-105922181D01*
X211687514Y-105920828D01*
X211771609Y-105918889D01*
X211798242Y-105921111D01*
G37*
%TD.AperFunction*%
%TA.AperFunction,Conductor*%
G36*
X194956458Y-117111296D02*
G01*
X195002951Y-117164952D01*
X195013055Y-117235226D01*
X195008572Y-117254972D01*
X195004037Y-117269444D01*
X195001425Y-117282488D01*
X194996381Y-117337380D01*
X194999769Y-117348918D01*
X195001159Y-117350123D01*
X195008842Y-117351794D01*
X196943178Y-117351794D01*
X196958417Y-117347319D01*
X196959622Y-117345929D01*
X196960585Y-117341500D01*
X196955162Y-117282479D01*
X196952552Y-117269449D01*
X196948016Y-117254972D01*
X196946733Y-117183987D01*
X196984031Y-117123576D01*
X197048068Y-117092921D01*
X197068251Y-117091294D01*
X200051278Y-117091294D01*
X200119399Y-117111296D01*
X200140373Y-117128199D01*
X201234183Y-118222009D01*
X201241610Y-118230113D01*
X201265839Y-118258988D01*
X201275388Y-118264501D01*
X201298479Y-118277833D01*
X201307750Y-118283739D01*
X201338610Y-118305348D01*
X201349260Y-118308202D01*
X201352428Y-118309679D01*
X201355704Y-118310871D01*
X201365249Y-118316382D01*
X201395859Y-118321779D01*
X201402352Y-118322924D01*
X201413079Y-118325302D01*
X201449487Y-118335058D01*
X201460463Y-118334098D01*
X201460466Y-118334098D01*
X201487037Y-118331773D01*
X201498018Y-118331294D01*
X202339330Y-118331294D01*
X202407451Y-118351296D01*
X202428703Y-118369992D01*
X202428797Y-118369887D01*
X202435484Y-118375866D01*
X202441264Y-118382742D01*
X202479067Y-118407906D01*
X202521846Y-118436382D01*
X202560607Y-118462184D01*
X202697451Y-118504936D01*
X202706423Y-118505100D01*
X202706426Y-118505101D01*
X202771757Y-118506298D01*
X202840793Y-118507564D01*
X202849827Y-118505101D01*
X202970452Y-118472215D01*
X202970454Y-118472214D01*
X202979111Y-118469854D01*
X202986758Y-118465159D01*
X202986762Y-118465157D01*
X203060866Y-118419657D01*
X203129383Y-118401059D01*
X203197078Y-118422456D01*
X203242459Y-118477056D01*
X203252794Y-118527032D01*
X203252794Y-118597466D01*
X203232792Y-118665587D01*
X203179136Y-118712080D01*
X203161419Y-118718615D01*
X203129478Y-118727744D01*
X203071823Y-118744222D01*
X202950574Y-118820724D01*
X202944632Y-118827452D01*
X202944631Y-118827453D01*
X202918039Y-118857563D01*
X202855671Y-118928182D01*
X202794741Y-119057957D01*
X202790257Y-119086757D01*
X202774498Y-119187974D01*
X202772685Y-119199617D01*
X202773023Y-119202203D01*
X202753132Y-119267009D01*
X202737068Y-119286694D01*
X202650373Y-119373389D01*
X202588061Y-119407415D01*
X202561278Y-119410294D01*
X199822294Y-119410294D01*
X199754173Y-119390292D01*
X199707680Y-119336636D01*
X199696294Y-119284294D01*
X199696294Y-118916046D01*
X199694714Y-118908104D01*
X199687082Y-118869733D01*
X199687082Y-118869732D01*
X199684661Y-118857563D01*
X199640346Y-118791242D01*
X199574025Y-118746927D01*
X199561856Y-118744506D01*
X199561855Y-118744506D01*
X199521610Y-118736501D01*
X199515542Y-118735294D01*
X197876046Y-118735294D01*
X197869978Y-118736501D01*
X197829733Y-118744506D01*
X197829732Y-118744506D01*
X197817563Y-118746927D01*
X197751242Y-118791242D01*
X197706927Y-118857563D01*
X197704506Y-118869732D01*
X197704506Y-118869733D01*
X197696874Y-118908104D01*
X197695294Y-118916046D01*
X197695294Y-120454774D01*
X197675292Y-120522895D01*
X197621636Y-120569388D01*
X197569294Y-120580774D01*
X194063365Y-120580774D01*
X193995244Y-120560772D01*
X193948751Y-120507116D01*
X193938647Y-120436842D01*
X193967983Y-120372443D01*
X193969104Y-120371145D01*
X193995404Y-120340675D01*
X194013279Y-120319967D01*
X194013279Y-120319966D01*
X194017303Y-120315305D01*
X194023043Y-120305202D01*
X194078177Y-120208148D01*
X194114219Y-120144703D01*
X194168738Y-119980814D01*
X194209218Y-119922491D01*
X194274806Y-119895311D01*
X194344677Y-119907906D01*
X194396646Y-119956276D01*
X194403624Y-119969841D01*
X194444076Y-120061774D01*
X194449014Y-120072997D01*
X194454791Y-120079870D01*
X194454792Y-120079871D01*
X194535484Y-120175866D01*
X194541264Y-120182742D01*
X194660607Y-120262184D01*
X194797451Y-120304936D01*
X194806423Y-120305100D01*
X194806426Y-120305101D01*
X194871757Y-120306298D01*
X194940793Y-120307564D01*
X194949827Y-120305101D01*
X195070452Y-120272215D01*
X195070454Y-120272214D01*
X195079111Y-120269854D01*
X195201285Y-120194839D01*
X195208115Y-120187294D01*
X195221289Y-120172739D01*
X195281832Y-120135657D01*
X195314704Y-120131294D01*
X195408584Y-120131294D01*
X195419566Y-120131774D01*
X195446114Y-120134097D01*
X195446116Y-120134097D01*
X195457101Y-120135058D01*
X195493509Y-120125302D01*
X195504236Y-120122924D01*
X195510094Y-120121891D01*
X195541339Y-120116382D01*
X195550884Y-120110871D01*
X195554160Y-120109679D01*
X195557328Y-120108202D01*
X195567978Y-120105348D01*
X195598838Y-120083739D01*
X195608109Y-120077833D01*
X195631200Y-120064501D01*
X195640749Y-120058988D01*
X195664973Y-120030119D01*
X195672400Y-120022014D01*
X195801217Y-119893198D01*
X195863529Y-119859173D01*
X195890312Y-119856294D01*
X196246080Y-119856293D01*
X196284812Y-119856293D01*
X196289706Y-119855518D01*
X196368800Y-119842992D01*
X196368802Y-119842991D01*
X196378598Y-119841440D01*
X196400199Y-119830434D01*
X196445283Y-119807462D01*
X196491636Y-119783844D01*
X196581344Y-119694136D01*
X196638940Y-119581098D01*
X196641997Y-119561800D01*
X196646033Y-119536312D01*
X196653794Y-119487313D01*
X196653793Y-119024276D01*
X196650260Y-119001969D01*
X196640492Y-118940288D01*
X196640491Y-118940286D01*
X196638940Y-118930490D01*
X196634336Y-118921453D01*
X196613495Y-118880551D01*
X196581344Y-118817452D01*
X196491636Y-118727744D01*
X196482806Y-118723245D01*
X196482802Y-118723242D01*
X196457281Y-118710239D01*
X196405665Y-118661491D01*
X196388599Y-118592577D01*
X196411499Y-118525375D01*
X196467097Y-118481222D01*
X196476804Y-118477738D01*
X196539537Y-118458079D01*
X196553282Y-118451873D01*
X196686868Y-118370970D01*
X196698737Y-118361663D01*
X196809163Y-118251237D01*
X196818470Y-118239368D01*
X196899373Y-118105782D01*
X196905579Y-118092037D01*
X196952550Y-117942150D01*
X196955163Y-117929100D01*
X196960207Y-117874208D01*
X196956819Y-117862670D01*
X196955429Y-117861465D01*
X196947746Y-117859794D01*
X195013410Y-117859794D01*
X194998171Y-117864269D01*
X194996966Y-117865659D01*
X194996003Y-117870088D01*
X195001426Y-117929109D01*
X195004037Y-117942145D01*
X195035041Y-118041080D01*
X195036325Y-118112065D01*
X194999028Y-118172475D01*
X194934991Y-118203132D01*
X194864546Y-118194301D01*
X194819354Y-118161007D01*
X194758143Y-118089968D01*
X194758140Y-118089965D01*
X194752283Y-118083168D01*
X194631978Y-118005190D01*
X194494622Y-117964112D01*
X194485646Y-117964057D01*
X194485645Y-117964057D01*
X194425438Y-117963689D01*
X194351259Y-117963236D01*
X194213412Y-118002633D01*
X194092163Y-118079135D01*
X194086221Y-118085863D01*
X194086220Y-118085864D01*
X194067131Y-118107479D01*
X193997260Y-118186593D01*
X193936330Y-118316368D01*
X193930892Y-118351296D01*
X193916364Y-118444605D01*
X193914274Y-118458028D01*
X193914612Y-118460613D01*
X193894720Y-118525419D01*
X193878657Y-118545104D01*
X193661556Y-118762205D01*
X193599244Y-118796231D01*
X193535203Y-118793475D01*
X193408003Y-118754100D01*
X193403833Y-118752809D01*
X193403830Y-118752808D01*
X193397946Y-118750987D01*
X193391821Y-118750343D01*
X193391820Y-118750343D01*
X193208941Y-118731121D01*
X193208940Y-118731121D01*
X193202813Y-118730477D01*
X193178110Y-118732725D01*
X193121640Y-118737864D01*
X193051987Y-118724118D01*
X193000823Y-118674897D01*
X192984392Y-118605828D01*
X193007910Y-118538840D01*
X193021126Y-118523288D01*
X193600856Y-117943558D01*
X193663168Y-117909532D01*
X193692260Y-117906674D01*
X193740793Y-117907564D01*
X193809648Y-117888792D01*
X193870452Y-117872215D01*
X193870454Y-117872214D01*
X193879111Y-117869854D01*
X194001285Y-117794839D01*
X194035387Y-117757164D01*
X194091472Y-117695201D01*
X194097494Y-117688548D01*
X194137906Y-117605138D01*
X194156089Y-117567608D01*
X194156089Y-117567607D01*
X194160004Y-117559527D01*
X194183790Y-117418148D01*
X194183941Y-117405794D01*
X194163617Y-117263876D01*
X194159900Y-117255701D01*
X194159010Y-117252657D01*
X194159090Y-117181660D01*
X194197540Y-117121977D01*
X194262154Y-117092556D01*
X194279946Y-117091294D01*
X194888337Y-117091294D01*
X194956458Y-117111296D01*
G37*
%TD.AperFunction*%
%TA.AperFunction,Conductor*%
G36*
X191449399Y-115001296D02*
G01*
X191470373Y-115018199D01*
X192001542Y-115549368D01*
X192035568Y-115611680D01*
X192030503Y-115682495D01*
X191987956Y-115739331D01*
X191921436Y-115764142D01*
X191872779Y-115758056D01*
X191864480Y-115755303D01*
X191851104Y-115752436D01*
X191760197Y-115743122D01*
X191755168Y-115742865D01*
X191740170Y-115747269D01*
X191738965Y-115748659D01*
X191737294Y-115756342D01*
X191737294Y-116453679D01*
X191741769Y-116468918D01*
X191743159Y-116470123D01*
X191750842Y-116471794D01*
X192423179Y-116471794D01*
X192438418Y-116467319D01*
X192439623Y-116465929D01*
X192441294Y-116458246D01*
X192441294Y-116430356D01*
X192440957Y-116423841D01*
X192431400Y-116331737D01*
X192428505Y-116318333D01*
X192426296Y-116311712D01*
X192423710Y-116240763D01*
X192459894Y-116179679D01*
X192523357Y-116147853D01*
X192593953Y-116155391D01*
X192634914Y-116182740D01*
X193324202Y-116872028D01*
X193358228Y-116934340D01*
X193353163Y-117005155D01*
X193329549Y-117044530D01*
X193309357Y-117067394D01*
X193255671Y-117128182D01*
X193195362Y-117256636D01*
X193194795Y-117257843D01*
X193147738Y-117311005D01*
X193080740Y-117330294D01*
X192537549Y-117330294D01*
X192469428Y-117310292D01*
X192422935Y-117256636D01*
X192412831Y-117186362D01*
X192417956Y-117164625D01*
X192428785Y-117131977D01*
X192431652Y-117118604D01*
X192440966Y-117027697D01*
X192441294Y-117021281D01*
X192441294Y-116997909D01*
X192436819Y-116982670D01*
X192435429Y-116981465D01*
X192427746Y-116979794D01*
X191355294Y-116979794D01*
X191287173Y-116959792D01*
X191240680Y-116906136D01*
X191229294Y-116853794D01*
X191229294Y-115760909D01*
X191224819Y-115745670D01*
X191223429Y-115744465D01*
X191215746Y-115742794D01*
X191212856Y-115742794D01*
X191206339Y-115743131D01*
X191158193Y-115748127D01*
X191088372Y-115735263D01*
X191036590Y-115686692D01*
X191020462Y-115640663D01*
X191017494Y-115619939D01*
X191013117Y-115589376D01*
X191003123Y-115567394D01*
X190987979Y-115534087D01*
X190953778Y-115458866D01*
X190907202Y-115404812D01*
X190866054Y-115357057D01*
X190866051Y-115357054D01*
X190860194Y-115350257D01*
X190739889Y-115272279D01*
X190602533Y-115231201D01*
X190597065Y-115231168D01*
X190534251Y-115202057D01*
X190496201Y-115142118D01*
X190496597Y-115071123D01*
X190535312Y-115011611D01*
X190600057Y-114982479D01*
X190617293Y-114981294D01*
X191381278Y-114981294D01*
X191449399Y-115001296D01*
G37*
%TD.AperFunction*%
%TA.AperFunction,Conductor*%
G36*
X183104127Y-107349296D02*
G01*
X183113287Y-107355777D01*
X183241425Y-107455294D01*
X183738156Y-107841072D01*
X183806328Y-107894017D01*
X183807387Y-107894770D01*
X183807408Y-107894785D01*
X184469101Y-108364907D01*
X184513048Y-108420667D01*
X184519872Y-108491335D01*
X184487408Y-108554474D01*
X184425961Y-108590038D01*
X184402719Y-108593449D01*
X184307144Y-108598458D01*
X184297884Y-108602013D01*
X184297882Y-108602013D01*
X184262953Y-108615421D01*
X184218497Y-108632486D01*
X183687592Y-108939006D01*
X183683740Y-108942125D01*
X183683736Y-108942128D01*
X183653754Y-108966407D01*
X183613798Y-108998762D01*
X183608397Y-109007079D01*
X183608396Y-109007080D01*
X183593389Y-109030189D01*
X183544702Y-109105160D01*
X183533124Y-109148369D01*
X183516532Y-109210292D01*
X183511866Y-109227704D01*
X183512385Y-109237608D01*
X183514660Y-109281008D01*
X183518506Y-109354395D01*
X183551834Y-109441220D01*
X183557572Y-109511981D01*
X183523297Y-109575465D01*
X183462079Y-109636683D01*
X183453975Y-109644110D01*
X183425100Y-109668339D01*
X183419587Y-109677888D01*
X183406255Y-109700979D01*
X183400349Y-109710250D01*
X183378740Y-109741110D01*
X183375886Y-109751760D01*
X183374409Y-109754928D01*
X183373217Y-109758204D01*
X183367706Y-109767749D01*
X183361756Y-109801493D01*
X183361164Y-109804852D01*
X183358786Y-109815579D01*
X183349030Y-109851987D01*
X183349991Y-109862972D01*
X183349991Y-109862974D01*
X183352314Y-109889522D01*
X183352794Y-109900504D01*
X183352794Y-110270536D01*
X183332792Y-110338657D01*
X183321236Y-110353943D01*
X183255671Y-110428182D01*
X183194741Y-110557957D01*
X183187403Y-110605087D01*
X183177896Y-110666150D01*
X183172685Y-110699617D01*
X183173849Y-110708519D01*
X183173849Y-110708522D01*
X183179915Y-110754909D01*
X183191274Y-110841773D01*
X183249014Y-110972997D01*
X183254791Y-110979870D01*
X183254792Y-110979871D01*
X183332818Y-111072694D01*
X183341264Y-111082742D01*
X183380852Y-111109094D01*
X183449788Y-111154982D01*
X183460607Y-111162184D01*
X183597451Y-111204936D01*
X183606423Y-111205100D01*
X183606426Y-111205101D01*
X183671757Y-111206298D01*
X183740793Y-111207564D01*
X183749827Y-111205101D01*
X183870452Y-111172215D01*
X183870454Y-111172214D01*
X183879111Y-111169854D01*
X184001285Y-111094839D01*
X184021330Y-111072694D01*
X184091472Y-110995201D01*
X184097494Y-110988548D01*
X184152562Y-110874887D01*
X184200264Y-110822304D01*
X184268822Y-110803858D01*
X184336470Y-110825405D01*
X184376897Y-110872352D01*
X184377534Y-110871984D01*
X184377534Y-110871985D01*
X184429574Y-110962121D01*
X184446311Y-111031113D01*
X184423091Y-111098205D01*
X184409549Y-111114213D01*
X182365373Y-113158389D01*
X182303061Y-113192415D01*
X182276279Y-113195294D01*
X182119866Y-113195295D01*
X182103394Y-113195295D01*
X182099306Y-113195833D01*
X182095325Y-113196094D01*
X182026042Y-113180590D01*
X181987525Y-113147591D01*
X181973775Y-113129865D01*
X181869220Y-113025310D01*
X181856793Y-113015670D01*
X181729514Y-112940398D01*
X181715078Y-112934151D01*
X181594689Y-112899175D01*
X181580589Y-112899215D01*
X181577294Y-112906485D01*
X181577294Y-114499352D01*
X181581267Y-114512883D01*
X181589165Y-114514018D01*
X181715078Y-114477437D01*
X181736791Y-114468041D01*
X181738174Y-114471238D01*
X181791707Y-114457677D01*
X181859030Y-114480218D01*
X181903479Y-114535578D01*
X181910942Y-114606182D01*
X181876079Y-114672683D01*
X181705373Y-114843389D01*
X181643061Y-114877415D01*
X181616278Y-114880294D01*
X181194806Y-114880294D01*
X181134443Y-114889854D01*
X181104959Y-114894524D01*
X181104957Y-114894525D01*
X181095168Y-114896075D01*
X180975074Y-114957266D01*
X180879766Y-115052574D01*
X180818575Y-115172668D01*
X180817025Y-115182457D01*
X180817024Y-115182459D01*
X180816425Y-115186240D01*
X180802794Y-115272306D01*
X180802794Y-115789282D01*
X180818575Y-115888920D01*
X180879766Y-116009014D01*
X180891068Y-116020316D01*
X180925094Y-116082628D01*
X180920029Y-116153443D01*
X180877482Y-116210279D01*
X180868276Y-116216556D01*
X180776115Y-116273587D01*
X180764720Y-116282618D01*
X180654308Y-116393223D01*
X180645296Y-116404634D01*
X180621554Y-116443151D01*
X180568782Y-116490644D01*
X180498710Y-116502068D01*
X180433586Y-116473794D01*
X180394087Y-116414800D01*
X180388294Y-116377035D01*
X180388294Y-114265081D01*
X180408296Y-114196960D01*
X180461952Y-114150467D01*
X180532226Y-114140363D01*
X180596806Y-114169857D01*
X180622748Y-114200942D01*
X180663170Y-114269294D01*
X180672810Y-114281720D01*
X180777368Y-114386278D01*
X180789795Y-114395918D01*
X180917074Y-114471190D01*
X180931510Y-114477437D01*
X181051899Y-114512413D01*
X181065999Y-114512373D01*
X181069294Y-114505103D01*
X181069294Y-112912236D01*
X181065321Y-112898705D01*
X181057423Y-112897570D01*
X180931510Y-112934151D01*
X180917074Y-112940398D01*
X180789795Y-113015670D01*
X180777368Y-113025310D01*
X180672810Y-113129868D01*
X180663170Y-113142294D01*
X180622748Y-113210646D01*
X180570855Y-113259098D01*
X180501005Y-113271804D01*
X180435374Y-113244729D01*
X180394799Y-113186469D01*
X180388294Y-113146507D01*
X180388294Y-108360971D01*
X180408296Y-108292850D01*
X180461952Y-108246357D01*
X180532226Y-108236253D01*
X180596806Y-108265747D01*
X180621727Y-108295136D01*
X180675988Y-108383682D01*
X180682071Y-108391993D01*
X180821507Y-108552961D01*
X180828874Y-108560177D01*
X180992728Y-108696210D01*
X181001175Y-108702125D01*
X181185050Y-108809573D01*
X181194336Y-108814023D01*
X181393295Y-108889997D01*
X181408160Y-108894316D01*
X181407583Y-108896302D01*
X181462554Y-108925376D01*
X181497404Y-108987230D01*
X181493282Y-109058107D01*
X181451495Y-109115503D01*
X181410224Y-109136522D01*
X181388783Y-109142832D01*
X181388778Y-109142834D01*
X181382866Y-109144574D01*
X181200296Y-109240020D01*
X181195495Y-109243880D01*
X181195492Y-109243882D01*
X181046534Y-109363647D01*
X181039741Y-109369109D01*
X180907318Y-109526924D01*
X180904350Y-109532322D01*
X180904347Y-109532327D01*
X180833470Y-109661253D01*
X180808070Y-109707456D01*
X180745778Y-109903826D01*
X180745092Y-109909943D01*
X180745091Y-109909947D01*
X180740043Y-109954952D01*
X180722814Y-110108556D01*
X180740053Y-110313847D01*
X180741752Y-110319772D01*
X180791809Y-110494341D01*
X180796838Y-110511880D01*
X180799653Y-110517357D01*
X180799654Y-110517360D01*
X180884174Y-110681819D01*
X180891006Y-110695112D01*
X181018971Y-110856564D01*
X181023664Y-110860558D01*
X181023665Y-110860559D01*
X181164562Y-110980471D01*
X181175858Y-110990085D01*
X181181236Y-110993091D01*
X181181238Y-110993092D01*
X181219636Y-111014552D01*
X181355692Y-111090591D01*
X181445991Y-111119931D01*
X181545765Y-111152350D01*
X181545769Y-111152351D01*
X181551623Y-111154253D01*
X181756188Y-111178645D01*
X181762323Y-111178173D01*
X181762325Y-111178173D01*
X181818333Y-111173863D01*
X181961594Y-111162840D01*
X181967524Y-111161184D01*
X181967526Y-111161184D01*
X182154091Y-111109094D01*
X182154090Y-111109094D01*
X182160019Y-111107439D01*
X182165508Y-111104666D01*
X182165514Y-111104664D01*
X182338410Y-111017327D01*
X182343904Y-111014552D01*
X182365537Y-110997651D01*
X182501395Y-110891507D01*
X182506245Y-110887718D01*
X182517321Y-110874887D01*
X182636834Y-110736428D01*
X182636834Y-110736427D01*
X182640858Y-110731766D01*
X182652340Y-110711555D01*
X182679457Y-110663820D01*
X182742617Y-110552638D01*
X182807645Y-110357157D01*
X182833465Y-110152768D01*
X182833877Y-110123294D01*
X182813774Y-109918264D01*
X182754229Y-109721043D01*
X182657512Y-109539143D01*
X182584153Y-109449196D01*
X182531200Y-109384269D01*
X182531197Y-109384266D01*
X182527305Y-109379494D01*
X182510080Y-109365244D01*
X182373319Y-109252105D01*
X182373315Y-109252103D01*
X182368569Y-109248176D01*
X182187349Y-109150191D01*
X182136477Y-109134444D01*
X182077319Y-109095193D01*
X182048771Y-109030189D01*
X182059899Y-108960070D01*
X182107170Y-108907098D01*
X182137529Y-108893393D01*
X182270549Y-108853485D01*
X182280136Y-108849727D01*
X182471389Y-108756033D01*
X182480239Y-108750758D01*
X182653622Y-108627086D01*
X182661494Y-108620433D01*
X182812346Y-108470106D01*
X182819024Y-108462259D01*
X182943297Y-108289314D01*
X182948607Y-108280477D01*
X183042964Y-108089561D01*
X183046763Y-108079966D01*
X183108671Y-107876204D01*
X183110849Y-107866131D01*
X183112280Y-107855256D01*
X183110069Y-107841072D01*
X183096911Y-107837294D01*
X181650294Y-107837294D01*
X181582173Y-107817292D01*
X181535680Y-107763636D01*
X181524294Y-107711294D01*
X181524294Y-107455294D01*
X181544296Y-107387173D01*
X181597952Y-107340680D01*
X181650294Y-107329294D01*
X183036006Y-107329294D01*
X183104127Y-107349296D01*
G37*
%TD.AperFunction*%
%TA.AperFunction,Conductor*%
G36*
X193813111Y-112651296D02*
G01*
X193859604Y-112704952D01*
X193868569Y-112781875D01*
X193859417Y-112827888D01*
X193857794Y-112836046D01*
X193857794Y-114575542D01*
X193859001Y-114581610D01*
X193860876Y-114591034D01*
X193869427Y-114634025D01*
X193913742Y-114700346D01*
X193980063Y-114744661D01*
X193992232Y-114747082D01*
X193992233Y-114747082D01*
X194030035Y-114754601D01*
X194038546Y-114756294D01*
X195778042Y-114756294D01*
X195786553Y-114754601D01*
X195824355Y-114747082D01*
X195824356Y-114747082D01*
X195836525Y-114744661D01*
X195902846Y-114700346D01*
X195947161Y-114634025D01*
X195955713Y-114591034D01*
X195957587Y-114581610D01*
X195958794Y-114575542D01*
X195958794Y-114292546D01*
X195978796Y-114224425D01*
X196032452Y-114177932D01*
X196102726Y-114167828D01*
X196167306Y-114197322D01*
X196201537Y-114245142D01*
X196230064Y-114315397D01*
X196234707Y-114324588D01*
X196345988Y-114506182D01*
X196352071Y-114514493D01*
X196491507Y-114675461D01*
X196498874Y-114682677D01*
X196662728Y-114818710D01*
X196671175Y-114824625D01*
X196855050Y-114932073D01*
X196864336Y-114936523D01*
X197063295Y-115012497D01*
X197073193Y-115015373D01*
X197176544Y-115036400D01*
X197190593Y-115035204D01*
X197194294Y-115024859D01*
X197194294Y-115024311D01*
X197702294Y-115024311D01*
X197706358Y-115038153D01*
X197719772Y-115040187D01*
X197726478Y-115039328D01*
X197736556Y-115037186D01*
X197940549Y-114975985D01*
X197950136Y-114972227D01*
X198141389Y-114878533D01*
X198150239Y-114873258D01*
X198323622Y-114749586D01*
X198331494Y-114742933D01*
X198482346Y-114592606D01*
X198489024Y-114584759D01*
X198613297Y-114411814D01*
X198618607Y-114402977D01*
X198712964Y-114212061D01*
X198716763Y-114202466D01*
X198778671Y-113998704D01*
X198780849Y-113988631D01*
X198782280Y-113977756D01*
X198780069Y-113963572D01*
X198766911Y-113959794D01*
X197720409Y-113959794D01*
X197705170Y-113964269D01*
X197703965Y-113965659D01*
X197702294Y-113973342D01*
X197702294Y-115024311D01*
X197194294Y-115024311D01*
X197194294Y-113577794D01*
X197214296Y-113509673D01*
X197267952Y-113463180D01*
X197320294Y-113451794D01*
X198766638Y-113451794D01*
X198780169Y-113447821D01*
X198781474Y-113438741D01*
X198739508Y-113271669D01*
X198736188Y-113261918D01*
X198651266Y-113066608D01*
X198646399Y-113057533D01*
X198530720Y-112878720D01*
X198524430Y-112870551D01*
X198498535Y-112842093D01*
X198467483Y-112778247D01*
X198475879Y-112707749D01*
X198521056Y-112652980D01*
X198591729Y-112631294D01*
X203730132Y-112631294D01*
X203798253Y-112651296D01*
X203844746Y-112704952D01*
X203854850Y-112775226D01*
X203837908Y-112822565D01*
X203757217Y-112955802D01*
X203751009Y-112969551D01*
X203704038Y-113119438D01*
X203701425Y-113132488D01*
X203696381Y-113187380D01*
X203699769Y-113198918D01*
X203701159Y-113200123D01*
X203708842Y-113201794D01*
X204806294Y-113201794D01*
X204874415Y-113221796D01*
X204920908Y-113275452D01*
X204932294Y-113327794D01*
X204932294Y-113583794D01*
X204912292Y-113651915D01*
X204858636Y-113698408D01*
X204806294Y-113709794D01*
X203713410Y-113709794D01*
X203698171Y-113714269D01*
X203696966Y-113715659D01*
X203696003Y-113720088D01*
X203701426Y-113779109D01*
X203704037Y-113792145D01*
X203735359Y-113892095D01*
X203736643Y-113963080D01*
X203699346Y-114023491D01*
X203635309Y-114054147D01*
X203615125Y-114055774D01*
X203422527Y-114055774D01*
X203411546Y-114055295D01*
X203384984Y-114052971D01*
X203384982Y-114052971D01*
X203374007Y-114052011D01*
X203337597Y-114061766D01*
X203326890Y-114064140D01*
X203289769Y-114070686D01*
X203280226Y-114076195D01*
X203276954Y-114077386D01*
X203273781Y-114078866D01*
X203263130Y-114081720D01*
X203232270Y-114103329D01*
X203222999Y-114109235D01*
X203199908Y-114122567D01*
X203190359Y-114128080D01*
X203183273Y-114136525D01*
X203166129Y-114156956D01*
X203158703Y-114165059D01*
X201760373Y-115563389D01*
X201698061Y-115597415D01*
X201671278Y-115600294D01*
X194355310Y-115600294D01*
X194287189Y-115580292D01*
X194266215Y-115563389D01*
X191549215Y-112846389D01*
X191515189Y-112784077D01*
X191520254Y-112713262D01*
X191562801Y-112656426D01*
X191629321Y-112631615D01*
X191638310Y-112631294D01*
X193744990Y-112631294D01*
X193813111Y-112651296D01*
G37*
%TD.AperFunction*%
%TD*%
M02*
