%TF.GenerationSoftware,KiCad,Pcbnew,(6.0.0)*%
%TF.CreationDate,2022-03-25T10:47:18+03:00*%
%TF.ProjectId,SmartTap,536d6172-7454-4617-902e-6b696361645f,1*%
%TF.SameCoordinates,Original*%
%TF.FileFunction,Legend,Top*%
%TF.FilePolarity,Positive*%
%FSLAX46Y46*%
G04 Gerber Fmt 4.6, Leading zero omitted, Abs format (unit mm)*
G04 Created by KiCad (PCBNEW (6.0.0)) date 2022-03-25 10:47:18*
%MOMM*%
%LPD*%
G01*
G04 APERTURE LIST*
%ADD10C,0.100000*%
%ADD11C,0.125000*%
%ADD12C,0.120000*%
%ADD13C,0.127000*%
%ADD14C,0.200000*%
G04 APERTURE END LIST*
D10*
X209252579Y-116612936D02*
X209252579Y-116993889D01*
X209062103Y-116803413D02*
X209443055Y-116803413D01*
X209562103Y-117470079D02*
X209562103Y-117231984D01*
X209324008Y-117208174D01*
X209347817Y-117231984D01*
X209371627Y-117279603D01*
X209371627Y-117398651D01*
X209347817Y-117446270D01*
X209324008Y-117470079D01*
X209276389Y-117493889D01*
X209157341Y-117493889D01*
X209109722Y-117470079D01*
X209085913Y-117446270D01*
X209062103Y-117398651D01*
X209062103Y-117279603D01*
X209085913Y-117231984D01*
X209109722Y-117208174D01*
X209562103Y-117636746D02*
X209062103Y-117803413D01*
X209562103Y-117970079D01*
X205727142Y-119391032D02*
X205393809Y-119391032D01*
X205917619Y-119271984D02*
X205560476Y-119152936D01*
X205560476Y-119462460D01*
X182214484Y-112161984D02*
X182047817Y-111923889D01*
X181928770Y-112161984D02*
X181928770Y-111661984D01*
X182119246Y-111661984D01*
X182166865Y-111685794D01*
X182190674Y-111709603D01*
X182214484Y-111757222D01*
X182214484Y-111828651D01*
X182190674Y-111876270D01*
X182166865Y-111900079D01*
X182119246Y-111923889D01*
X181928770Y-111923889D01*
X182404960Y-112138174D02*
X182476389Y-112161984D01*
X182595436Y-112161984D01*
X182643055Y-112138174D01*
X182666865Y-112114365D01*
X182690674Y-112066746D01*
X182690674Y-112019127D01*
X182666865Y-111971508D01*
X182643055Y-111947698D01*
X182595436Y-111923889D01*
X182500198Y-111900079D01*
X182452579Y-111876270D01*
X182428770Y-111852460D01*
X182404960Y-111804841D01*
X182404960Y-111757222D01*
X182428770Y-111709603D01*
X182452579Y-111685794D01*
X182500198Y-111661984D01*
X182619246Y-111661984D01*
X182690674Y-111685794D01*
X182833532Y-111661984D02*
X183119246Y-111661984D01*
X182976389Y-112161984D02*
X182976389Y-111661984D01*
X197874008Y-124048174D02*
X197945436Y-124071984D01*
X198064484Y-124071984D01*
X198112103Y-124048174D01*
X198135913Y-124024365D01*
X198159722Y-123976746D01*
X198159722Y-123929127D01*
X198135913Y-123881508D01*
X198112103Y-123857698D01*
X198064484Y-123833889D01*
X197969246Y-123810079D01*
X197921627Y-123786270D01*
X197897817Y-123762460D01*
X197874008Y-123714841D01*
X197874008Y-123667222D01*
X197897817Y-123619603D01*
X197921627Y-123595794D01*
X197969246Y-123571984D01*
X198088294Y-123571984D01*
X198159722Y-123595794D01*
X198374008Y-123810079D02*
X198540674Y-123810079D01*
X198612103Y-124071984D02*
X198374008Y-124071984D01*
X198374008Y-123571984D01*
X198612103Y-123571984D01*
X199112103Y-124071984D02*
X198945436Y-123833889D01*
X198826389Y-124071984D02*
X198826389Y-123571984D01*
X199016865Y-123571984D01*
X199064484Y-123595794D01*
X199088294Y-123619603D01*
X199112103Y-123667222D01*
X199112103Y-123738651D01*
X199088294Y-123786270D01*
X199064484Y-123810079D01*
X199016865Y-123833889D01*
X198826389Y-123833889D01*
X199254960Y-123571984D02*
X199421627Y-124071984D01*
X199588294Y-123571984D01*
X199850198Y-123571984D02*
X199945436Y-123571984D01*
X199993055Y-123595794D01*
X200040674Y-123643413D01*
X200064484Y-123738651D01*
X200064484Y-123905317D01*
X200040674Y-124000555D01*
X199993055Y-124048174D01*
X199945436Y-124071984D01*
X199850198Y-124071984D01*
X199802579Y-124048174D01*
X199754960Y-124000555D01*
X199731151Y-123905317D01*
X199731151Y-123738651D01*
X199754960Y-123643413D01*
X199802579Y-123595794D01*
X199850198Y-123571984D01*
X200278770Y-123738651D02*
X200659722Y-123881508D01*
X200278770Y-124024365D01*
X200897817Y-123738651D02*
X201278770Y-123881508D01*
X200897817Y-124024365D01*
X205602579Y-110491508D02*
X205602579Y-110872460D01*
X205412103Y-110681984D02*
X205793055Y-110681984D01*
X205912103Y-111348651D02*
X205912103Y-111110555D01*
X205674008Y-111086746D01*
X205697817Y-111110555D01*
X205721627Y-111158174D01*
X205721627Y-111277222D01*
X205697817Y-111324841D01*
X205674008Y-111348651D01*
X205626389Y-111372460D01*
X205507341Y-111372460D01*
X205459722Y-111348651D01*
X205435913Y-111324841D01*
X205412103Y-111277222D01*
X205412103Y-111158174D01*
X205435913Y-111110555D01*
X205459722Y-111086746D01*
X205912103Y-111515317D02*
X205412103Y-111681984D01*
X205912103Y-111848651D01*
X205221627Y-112158174D02*
X205245436Y-112134365D01*
X205316865Y-112086746D01*
X205364484Y-112062936D01*
X205435913Y-112039127D01*
X205554960Y-112015317D01*
X205650198Y-112015317D01*
X205769246Y-112039127D01*
X205840674Y-112062936D01*
X205888294Y-112086746D01*
X205959722Y-112134365D01*
X205983532Y-112158174D01*
X205412103Y-112610555D02*
X205412103Y-112324841D01*
X205412103Y-112467698D02*
X205912103Y-112467698D01*
X205840674Y-112420079D01*
X205793055Y-112372460D01*
X205769246Y-112324841D01*
X205221627Y-112777222D02*
X205245436Y-112801032D01*
X205316865Y-112848651D01*
X205364484Y-112872460D01*
X205435913Y-112896270D01*
X205554960Y-112920079D01*
X205650198Y-112920079D01*
X205769246Y-112896270D01*
X205840674Y-112872460D01*
X205888294Y-112848651D01*
X205959722Y-112801032D01*
X205983532Y-112777222D01*
X209059722Y-119471984D02*
X209035913Y-119448174D01*
X209012103Y-119376746D01*
X209012103Y-119329127D01*
X209035913Y-119257698D01*
X209083532Y-119210079D01*
X209131151Y-119186270D01*
X209226389Y-119162460D01*
X209297817Y-119162460D01*
X209393055Y-119186270D01*
X209440674Y-119210079D01*
X209488294Y-119257698D01*
X209512103Y-119329127D01*
X209512103Y-119376746D01*
X209488294Y-119448174D01*
X209464484Y-119471984D01*
X209512103Y-119614841D02*
X209512103Y-119900555D01*
X209012103Y-119757698D02*
X209512103Y-119757698D01*
X209035913Y-120043413D02*
X209012103Y-120114841D01*
X209012103Y-120233889D01*
X209035913Y-120281508D01*
X209059722Y-120305317D01*
X209107341Y-120329127D01*
X209154960Y-120329127D01*
X209202579Y-120305317D01*
X209226389Y-120281508D01*
X209250198Y-120233889D01*
X209274008Y-120138651D01*
X209297817Y-120091032D01*
X209321627Y-120067222D01*
X209369246Y-120043413D01*
X209416865Y-120043413D01*
X209464484Y-120067222D01*
X209488294Y-120091032D01*
X209512103Y-120138651D01*
X209512103Y-120257698D01*
X209488294Y-120329127D01*
X207137341Y-123665794D02*
X207089722Y-123641984D01*
X207018294Y-123641984D01*
X206946865Y-123665794D01*
X206899246Y-123713413D01*
X206875436Y-123761032D01*
X206851627Y-123856270D01*
X206851627Y-123927698D01*
X206875436Y-124022936D01*
X206899246Y-124070555D01*
X206946865Y-124118174D01*
X207018294Y-124141984D01*
X207065913Y-124141984D01*
X207137341Y-124118174D01*
X207161151Y-124094365D01*
X207161151Y-123927698D01*
X207065913Y-123927698D01*
X207375436Y-124141984D02*
X207375436Y-123641984D01*
X207661151Y-124141984D01*
X207661151Y-123641984D01*
X207899246Y-124141984D02*
X207899246Y-123641984D01*
X208018294Y-123641984D01*
X208089722Y-123665794D01*
X208137341Y-123713413D01*
X208161151Y-123761032D01*
X208184960Y-123856270D01*
X208184960Y-123927698D01*
X208161151Y-124022936D01*
X208137341Y-124070555D01*
X208089722Y-124118174D01*
X208018294Y-124141984D01*
X207899246Y-124141984D01*
D11*
X198670952Y-116350714D02*
X199051904Y-116350714D01*
X199290000Y-116350714D02*
X199670952Y-116350714D01*
X199909047Y-116350714D02*
X200290000Y-116350714D01*
X200528095Y-116350714D02*
X200909047Y-116350714D01*
X198706666Y-117203333D02*
X198944761Y-117203333D01*
X198659047Y-117346190D02*
X198825714Y-116846190D01*
X198992380Y-117346190D01*
X199159047Y-117155714D02*
X199540000Y-117155714D01*
X199706666Y-116846190D02*
X199992380Y-116846190D01*
X199849523Y-117346190D02*
X199849523Y-116846190D01*
X200135238Y-117203333D02*
X200373333Y-117203333D01*
X200087619Y-117346190D02*
X200254285Y-116846190D01*
X200420952Y-117346190D01*
X200587619Y-117346190D02*
X200587619Y-116846190D01*
X200778095Y-116846190D01*
X200825714Y-116870000D01*
X200849523Y-116893809D01*
X200873333Y-116941428D01*
X200873333Y-117012857D01*
X200849523Y-117060476D01*
X200825714Y-117084285D01*
X200778095Y-117108095D01*
X200587619Y-117108095D01*
X198670952Y-117960714D02*
X199051904Y-117960714D01*
X199290000Y-117960714D02*
X199670952Y-117960714D01*
X199909047Y-117960714D02*
X200290000Y-117960714D01*
X200528095Y-117960714D02*
X200909047Y-117960714D01*
D10*
X201555436Y-123921508D02*
X201936389Y-123921508D01*
X201745913Y-124111984D02*
X201745913Y-123731032D01*
X202412579Y-123611984D02*
X202174484Y-123611984D01*
X202150674Y-123850079D01*
X202174484Y-123826270D01*
X202222103Y-123802460D01*
X202341151Y-123802460D01*
X202388770Y-123826270D01*
X202412579Y-123850079D01*
X202436389Y-123897698D01*
X202436389Y-124016746D01*
X202412579Y-124064365D01*
X202388770Y-124088174D01*
X202341151Y-124111984D01*
X202222103Y-124111984D01*
X202174484Y-124088174D01*
X202150674Y-124064365D01*
X202579246Y-123611984D02*
X202745913Y-124111984D01*
X202912579Y-123611984D01*
X209062103Y-114522460D02*
X209300198Y-114355794D01*
X209062103Y-114236746D02*
X209562103Y-114236746D01*
X209562103Y-114427222D01*
X209538294Y-114474841D01*
X209514484Y-114498651D01*
X209466865Y-114522460D01*
X209395436Y-114522460D01*
X209347817Y-114498651D01*
X209324008Y-114474841D01*
X209300198Y-114427222D01*
X209300198Y-114236746D01*
X209562103Y-114689127D02*
X209062103Y-115022460D01*
X209562103Y-115022460D02*
X209062103Y-114689127D01*
X209512103Y-111714841D02*
X209512103Y-112000555D01*
X209012103Y-111857698D02*
X209512103Y-111857698D01*
X209512103Y-112119603D02*
X209012103Y-112452936D01*
X209512103Y-112452936D02*
X209012103Y-112119603D01*
X200852579Y-112378174D02*
X200924008Y-112401984D01*
X201043055Y-112401984D01*
X201090674Y-112378174D01*
X201114484Y-112354365D01*
X201138294Y-112306746D01*
X201138294Y-112259127D01*
X201114484Y-112211508D01*
X201090674Y-112187698D01*
X201043055Y-112163889D01*
X200947817Y-112140079D01*
X200900198Y-112116270D01*
X200876389Y-112092460D01*
X200852579Y-112044841D01*
X200852579Y-111997222D01*
X200876389Y-111949603D01*
X200900198Y-111925794D01*
X200947817Y-111901984D01*
X201066865Y-111901984D01*
X201138294Y-111925794D01*
X201352579Y-112401984D02*
X201352579Y-111901984D01*
X201590674Y-112401984D02*
X201590674Y-111901984D01*
X201709722Y-111901984D01*
X201781151Y-111925794D01*
X201828770Y-111973413D01*
X201852579Y-112021032D01*
X201876389Y-112116270D01*
X201876389Y-112187698D01*
X201852579Y-112282936D01*
X201828770Y-112330555D01*
X201781151Y-112378174D01*
X201709722Y-112401984D01*
X201590674Y-112401984D01*
X202090674Y-112140079D02*
X202257341Y-112140079D01*
X202328770Y-112401984D02*
X202090674Y-112401984D01*
X202090674Y-111901984D01*
X202328770Y-111901984D01*
X202543055Y-112211508D02*
X202924008Y-112211508D01*
X203162103Y-112401984D02*
X203162103Y-111901984D01*
X203685913Y-112401984D02*
X203519246Y-112163889D01*
X203400198Y-112401984D02*
X203400198Y-111901984D01*
X203590674Y-111901984D01*
X203638294Y-111925794D01*
X203662103Y-111949603D01*
X203685913Y-111997222D01*
X203685913Y-112068651D01*
X203662103Y-112116270D01*
X203638294Y-112140079D01*
X203590674Y-112163889D01*
X203400198Y-112163889D01*
X203900198Y-112068651D02*
X204281151Y-112211508D01*
X203900198Y-112354365D01*
X204519246Y-112068651D02*
X204900198Y-112211508D01*
X204519246Y-112354365D01*
X197057341Y-115345794D02*
X197009722Y-115321984D01*
X196938294Y-115321984D01*
X196866865Y-115345794D01*
X196819246Y-115393413D01*
X196795436Y-115441032D01*
X196771627Y-115536270D01*
X196771627Y-115607698D01*
X196795436Y-115702936D01*
X196819246Y-115750555D01*
X196866865Y-115798174D01*
X196938294Y-115821984D01*
X196985913Y-115821984D01*
X197057341Y-115798174D01*
X197081151Y-115774365D01*
X197081151Y-115607698D01*
X196985913Y-115607698D01*
X197295436Y-115821984D02*
X197295436Y-115321984D01*
X197581151Y-115821984D01*
X197581151Y-115321984D01*
X197819246Y-115821984D02*
X197819246Y-115321984D01*
X197938294Y-115321984D01*
X198009722Y-115345794D01*
X198057341Y-115393413D01*
X198081151Y-115441032D01*
X198104960Y-115536270D01*
X198104960Y-115607698D01*
X198081151Y-115702936D01*
X198057341Y-115750555D01*
X198009722Y-115798174D01*
X197938294Y-115821984D01*
X197819246Y-115821984D01*
X205866190Y-114122936D02*
X205890000Y-114146746D01*
X205913809Y-114194365D01*
X205913809Y-114313413D01*
X205890000Y-114361032D01*
X205866190Y-114384841D01*
X205818571Y-114408651D01*
X205770952Y-114408651D01*
X205699523Y-114384841D01*
X205413809Y-114099127D01*
X205413809Y-114408651D01*
X205913809Y-116699127D02*
X205913809Y-117008651D01*
X205723333Y-116841984D01*
X205723333Y-116913413D01*
X205699523Y-116961032D01*
X205675714Y-116984841D01*
X205628095Y-117008651D01*
X205509047Y-117008651D01*
X205461428Y-116984841D01*
X205437619Y-116961032D01*
X205413809Y-116913413D01*
X205413809Y-116770555D01*
X205437619Y-116722936D01*
X205461428Y-116699127D01*
X209052103Y-108944365D02*
X209552103Y-108944365D01*
X209552103Y-109063413D01*
X209528294Y-109134841D01*
X209480674Y-109182460D01*
X209433055Y-109206270D01*
X209337817Y-109230079D01*
X209266389Y-109230079D01*
X209171151Y-109206270D01*
X209123532Y-109182460D01*
X209075913Y-109134841D01*
X209052103Y-109063413D01*
X209052103Y-108944365D01*
X209552103Y-109372936D02*
X209552103Y-109658651D01*
X209052103Y-109515794D02*
X209552103Y-109515794D01*
X209052103Y-110111032D02*
X209290198Y-109944365D01*
X209052103Y-109825317D02*
X209552103Y-109825317D01*
X209552103Y-110015794D01*
X209528294Y-110063413D01*
X209504484Y-110087222D01*
X209456865Y-110111032D01*
X209385436Y-110111032D01*
X209337817Y-110087222D01*
X209314008Y-110063413D01*
X209290198Y-110015794D01*
X209290198Y-109825317D01*
X204215913Y-124121984D02*
X204215913Y-123621984D01*
X204406389Y-123621984D01*
X204454008Y-123645794D01*
X204477817Y-123669603D01*
X204501627Y-123717222D01*
X204501627Y-123788651D01*
X204477817Y-123836270D01*
X204454008Y-123860079D01*
X204406389Y-123883889D01*
X204215913Y-123883889D01*
X204668294Y-123621984D02*
X204787341Y-124121984D01*
X204882579Y-123764841D01*
X204977817Y-124121984D01*
X205096865Y-123621984D01*
X205287341Y-124121984D02*
X205287341Y-123621984D01*
X205454008Y-123979127D01*
X205620674Y-123621984D01*
X205620674Y-124121984D01*
X193798294Y-115581508D02*
X194179246Y-115581508D01*
X193988770Y-115771984D02*
X193988770Y-115391032D01*
X194369722Y-115271984D02*
X194679246Y-115271984D01*
X194512579Y-115462460D01*
X194584008Y-115462460D01*
X194631627Y-115486270D01*
X194655436Y-115510079D01*
X194679246Y-115557698D01*
X194679246Y-115676746D01*
X194655436Y-115724365D01*
X194631627Y-115748174D01*
X194584008Y-115771984D01*
X194441151Y-115771984D01*
X194393532Y-115748174D01*
X194369722Y-115724365D01*
X194893532Y-115724365D02*
X194917341Y-115748174D01*
X194893532Y-115771984D01*
X194869722Y-115748174D01*
X194893532Y-115724365D01*
X194893532Y-115771984D01*
X195084008Y-115271984D02*
X195417341Y-115271984D01*
X195203055Y-115771984D01*
X195536389Y-115271984D02*
X195703055Y-115771984D01*
X195869722Y-115271984D01*
X209448294Y-121884841D02*
X209472103Y-121837222D01*
X209472103Y-121765794D01*
X209448294Y-121694365D01*
X209400674Y-121646746D01*
X209353055Y-121622936D01*
X209257817Y-121599127D01*
X209186389Y-121599127D01*
X209091151Y-121622936D01*
X209043532Y-121646746D01*
X208995913Y-121694365D01*
X208972103Y-121765794D01*
X208972103Y-121813413D01*
X208995913Y-121884841D01*
X209019722Y-121908651D01*
X209186389Y-121908651D01*
X209186389Y-121813413D01*
X208972103Y-122122936D02*
X209472103Y-122122936D01*
X208972103Y-122408651D01*
X209472103Y-122408651D01*
X208972103Y-122646746D02*
X209472103Y-122646746D01*
X209472103Y-122765794D01*
X209448294Y-122837222D01*
X209400674Y-122884841D01*
X209353055Y-122908651D01*
X209257817Y-122932460D01*
X209186389Y-122932460D01*
X209091151Y-122908651D01*
X209043532Y-122884841D01*
X208995913Y-122837222D01*
X208972103Y-122765794D01*
X208972103Y-122646746D01*
%TO.C,D3*%
X185609246Y-121931984D02*
X185609246Y-121431984D01*
X185728294Y-121431984D01*
X185799722Y-121455794D01*
X185847341Y-121503413D01*
X185871151Y-121551032D01*
X185894960Y-121646270D01*
X185894960Y-121717698D01*
X185871151Y-121812936D01*
X185847341Y-121860555D01*
X185799722Y-121908174D01*
X185728294Y-121931984D01*
X185609246Y-121931984D01*
X186061627Y-121431984D02*
X186371151Y-121431984D01*
X186204484Y-121622460D01*
X186275913Y-121622460D01*
X186323532Y-121646270D01*
X186347341Y-121670079D01*
X186371151Y-121717698D01*
X186371151Y-121836746D01*
X186347341Y-121884365D01*
X186323532Y-121908174D01*
X186275913Y-121931984D01*
X186133055Y-121931984D01*
X186085436Y-121908174D01*
X186061627Y-121884365D01*
%TO.C,C3*%
X181194960Y-112984365D02*
X181171151Y-113008174D01*
X181099722Y-113031984D01*
X181052103Y-113031984D01*
X180980674Y-113008174D01*
X180933055Y-112960555D01*
X180909246Y-112912936D01*
X180885436Y-112817698D01*
X180885436Y-112746270D01*
X180909246Y-112651032D01*
X180933055Y-112603413D01*
X180980674Y-112555794D01*
X181052103Y-112531984D01*
X181099722Y-112531984D01*
X181171151Y-112555794D01*
X181194960Y-112579603D01*
X181361627Y-112531984D02*
X181671151Y-112531984D01*
X181504484Y-112722460D01*
X181575913Y-112722460D01*
X181623532Y-112746270D01*
X181647341Y-112770079D01*
X181671151Y-112817698D01*
X181671151Y-112936746D01*
X181647341Y-112984365D01*
X181623532Y-113008174D01*
X181575913Y-113031984D01*
X181433055Y-113031984D01*
X181385436Y-113008174D01*
X181361627Y-112984365D01*
%TO.C,R8*%
X194584960Y-117801984D02*
X194418294Y-117563889D01*
X194299246Y-117801984D02*
X194299246Y-117301984D01*
X194489722Y-117301984D01*
X194537341Y-117325794D01*
X194561151Y-117349603D01*
X194584960Y-117397222D01*
X194584960Y-117468651D01*
X194561151Y-117516270D01*
X194537341Y-117540079D01*
X194489722Y-117563889D01*
X194299246Y-117563889D01*
X194870674Y-117516270D02*
X194823055Y-117492460D01*
X194799246Y-117468651D01*
X194775436Y-117421032D01*
X194775436Y-117397222D01*
X194799246Y-117349603D01*
X194823055Y-117325794D01*
X194870674Y-117301984D01*
X194965913Y-117301984D01*
X195013532Y-117325794D01*
X195037341Y-117349603D01*
X195061151Y-117397222D01*
X195061151Y-117421032D01*
X195037341Y-117468651D01*
X195013532Y-117492460D01*
X194965913Y-117516270D01*
X194870674Y-117516270D01*
X194823055Y-117540079D01*
X194799246Y-117563889D01*
X194775436Y-117611508D01*
X194775436Y-117706746D01*
X194799246Y-117754365D01*
X194823055Y-117778174D01*
X194870674Y-117801984D01*
X194965913Y-117801984D01*
X195013532Y-117778174D01*
X195037341Y-117754365D01*
X195061151Y-117706746D01*
X195061151Y-117611508D01*
X195037341Y-117563889D01*
X195013532Y-117540079D01*
X194965913Y-117516270D01*
%TO.C,R9*%
X203324960Y-116911984D02*
X203158294Y-116673889D01*
X203039246Y-116911984D02*
X203039246Y-116411984D01*
X203229722Y-116411984D01*
X203277341Y-116435794D01*
X203301151Y-116459603D01*
X203324960Y-116507222D01*
X203324960Y-116578651D01*
X203301151Y-116626270D01*
X203277341Y-116650079D01*
X203229722Y-116673889D01*
X203039246Y-116673889D01*
X203563055Y-116911984D02*
X203658294Y-116911984D01*
X203705913Y-116888174D01*
X203729722Y-116864365D01*
X203777341Y-116792936D01*
X203801151Y-116697698D01*
X203801151Y-116507222D01*
X203777341Y-116459603D01*
X203753532Y-116435794D01*
X203705913Y-116411984D01*
X203610674Y-116411984D01*
X203563055Y-116435794D01*
X203539246Y-116459603D01*
X203515436Y-116507222D01*
X203515436Y-116626270D01*
X203539246Y-116673889D01*
X203563055Y-116697698D01*
X203610674Y-116721508D01*
X203705913Y-116721508D01*
X203753532Y-116697698D01*
X203777341Y-116673889D01*
X203801151Y-116626270D01*
%TO.C,C2*%
X189874960Y-118004365D02*
X189851151Y-118028174D01*
X189779722Y-118051984D01*
X189732103Y-118051984D01*
X189660674Y-118028174D01*
X189613055Y-117980555D01*
X189589246Y-117932936D01*
X189565436Y-117837698D01*
X189565436Y-117766270D01*
X189589246Y-117671032D01*
X189613055Y-117623413D01*
X189660674Y-117575794D01*
X189732103Y-117551984D01*
X189779722Y-117551984D01*
X189851151Y-117575794D01*
X189874960Y-117599603D01*
X190065436Y-117599603D02*
X190089246Y-117575794D01*
X190136865Y-117551984D01*
X190255913Y-117551984D01*
X190303532Y-117575794D01*
X190327341Y-117599603D01*
X190351151Y-117647222D01*
X190351151Y-117694841D01*
X190327341Y-117766270D01*
X190041627Y-118051984D01*
X190351151Y-118051984D01*
%TO.C,C5*%
X181834960Y-118474365D02*
X181811151Y-118498174D01*
X181739722Y-118521984D01*
X181692103Y-118521984D01*
X181620674Y-118498174D01*
X181573055Y-118450555D01*
X181549246Y-118402936D01*
X181525436Y-118307698D01*
X181525436Y-118236270D01*
X181549246Y-118141032D01*
X181573055Y-118093413D01*
X181620674Y-118045794D01*
X181692103Y-118021984D01*
X181739722Y-118021984D01*
X181811151Y-118045794D01*
X181834960Y-118069603D01*
X182287341Y-118021984D02*
X182049246Y-118021984D01*
X182025436Y-118260079D01*
X182049246Y-118236270D01*
X182096865Y-118212460D01*
X182215913Y-118212460D01*
X182263532Y-118236270D01*
X182287341Y-118260079D01*
X182311151Y-118307698D01*
X182311151Y-118426746D01*
X182287341Y-118474365D01*
X182263532Y-118498174D01*
X182215913Y-118521984D01*
X182096865Y-118521984D01*
X182049246Y-118498174D01*
X182025436Y-118474365D01*
%TO.C,R5*%
X185894960Y-123731984D02*
X185728294Y-123493889D01*
X185609246Y-123731984D02*
X185609246Y-123231984D01*
X185799722Y-123231984D01*
X185847341Y-123255794D01*
X185871151Y-123279603D01*
X185894960Y-123327222D01*
X185894960Y-123398651D01*
X185871151Y-123446270D01*
X185847341Y-123470079D01*
X185799722Y-123493889D01*
X185609246Y-123493889D01*
X186347341Y-123231984D02*
X186109246Y-123231984D01*
X186085436Y-123470079D01*
X186109246Y-123446270D01*
X186156865Y-123422460D01*
X186275913Y-123422460D01*
X186323532Y-123446270D01*
X186347341Y-123470079D01*
X186371151Y-123517698D01*
X186371151Y-123636746D01*
X186347341Y-123684365D01*
X186323532Y-123708174D01*
X186275913Y-123731984D01*
X186156865Y-123731984D01*
X186109246Y-123708174D01*
X186085436Y-123684365D01*
%TO.C,R4*%
X185819220Y-111843347D02*
X185555835Y-111720484D01*
X185571784Y-111986204D02*
X185321784Y-111553191D01*
X185486741Y-111457953D01*
X185539885Y-111454763D01*
X185572410Y-111463478D01*
X185616839Y-111492813D01*
X185652553Y-111554672D01*
X185655743Y-111607816D01*
X185647028Y-111640340D01*
X185617694Y-111684769D01*
X185452737Y-111780007D01*
X186023707Y-111340386D02*
X186190374Y-111629061D01*
X185825371Y-111234953D02*
X185900844Y-111603771D01*
X186168899Y-111449009D01*
%TO.C,U2*%
X188197341Y-119301984D02*
X188197341Y-119706746D01*
X188221151Y-119754365D01*
X188244960Y-119778174D01*
X188292579Y-119801984D01*
X188387817Y-119801984D01*
X188435436Y-119778174D01*
X188459246Y-119754365D01*
X188483055Y-119706746D01*
X188483055Y-119301984D01*
X188697341Y-119349603D02*
X188721151Y-119325794D01*
X188768770Y-119301984D01*
X188887817Y-119301984D01*
X188935436Y-119325794D01*
X188959246Y-119349603D01*
X188983055Y-119397222D01*
X188983055Y-119444841D01*
X188959246Y-119516270D01*
X188673532Y-119801984D01*
X188983055Y-119801984D01*
%TO.C,J6*%
X180781627Y-106101984D02*
X180781627Y-106459127D01*
X180757817Y-106530555D01*
X180710198Y-106578174D01*
X180638770Y-106601984D01*
X180591151Y-106601984D01*
X181234008Y-106101984D02*
X181138770Y-106101984D01*
X181091151Y-106125794D01*
X181067341Y-106149603D01*
X181019722Y-106221032D01*
X180995913Y-106316270D01*
X180995913Y-106506746D01*
X181019722Y-106554365D01*
X181043532Y-106578174D01*
X181091151Y-106601984D01*
X181186389Y-106601984D01*
X181234008Y-106578174D01*
X181257817Y-106554365D01*
X181281627Y-106506746D01*
X181281627Y-106387698D01*
X181257817Y-106340079D01*
X181234008Y-106316270D01*
X181186389Y-106292460D01*
X181091151Y-106292460D01*
X181043532Y-106316270D01*
X181019722Y-106340079D01*
X180995913Y-106387698D01*
%TO.C,C6*%
X191517594Y-112645176D02*
X191531824Y-112675693D01*
X191529768Y-112750957D01*
X191513481Y-112795705D01*
X191466678Y-112854682D01*
X191405644Y-112883143D01*
X191352753Y-112889230D01*
X191255115Y-112879030D01*
X191187994Y-112854600D01*
X191106643Y-112799653D01*
X191070039Y-112760993D01*
X191041579Y-112699959D01*
X191043635Y-112624695D01*
X191059922Y-112579947D01*
X191106725Y-112520970D01*
X191137242Y-112506740D01*
X191239075Y-112087727D02*
X191206502Y-112177222D01*
X191212589Y-112230113D01*
X191226819Y-112260630D01*
X191277653Y-112329807D01*
X191359004Y-112384754D01*
X191537994Y-112449900D01*
X191590884Y-112443814D01*
X191621401Y-112429583D01*
X191660061Y-112392979D01*
X191692635Y-112303485D01*
X191686548Y-112250594D01*
X191672317Y-112220077D01*
X191635714Y-112181417D01*
X191523845Y-112140700D01*
X191470955Y-112146787D01*
X191440438Y-112161017D01*
X191401777Y-112197621D01*
X191369204Y-112287116D01*
X191375291Y-112340007D01*
X191389521Y-112370524D01*
X191426125Y-112409184D01*
%TO.C,J3*%
X210911627Y-107131984D02*
X210911627Y-107489127D01*
X210887817Y-107560555D01*
X210840198Y-107608174D01*
X210768770Y-107631984D01*
X210721151Y-107631984D01*
X211102103Y-107131984D02*
X211411627Y-107131984D01*
X211244960Y-107322460D01*
X211316389Y-107322460D01*
X211364008Y-107346270D01*
X211387817Y-107370079D01*
X211411627Y-107417698D01*
X211411627Y-107536746D01*
X211387817Y-107584365D01*
X211364008Y-107608174D01*
X211316389Y-107631984D01*
X211173532Y-107631984D01*
X211125913Y-107608174D01*
X211102103Y-107584365D01*
%TO.C,J4*%
X201171627Y-120391984D02*
X201171627Y-120749127D01*
X201147817Y-120820555D01*
X201100198Y-120868174D01*
X201028770Y-120891984D01*
X200981151Y-120891984D01*
X201624008Y-120558651D02*
X201624008Y-120891984D01*
X201504960Y-120368174D02*
X201385913Y-120725317D01*
X201695436Y-120725317D01*
%TO.C,J5*%
X208011627Y-109531984D02*
X208011627Y-109889127D01*
X207987817Y-109960555D01*
X207940198Y-110008174D01*
X207868770Y-110031984D01*
X207821151Y-110031984D01*
X208487817Y-109531984D02*
X208249722Y-109531984D01*
X208225913Y-109770079D01*
X208249722Y-109746270D01*
X208297341Y-109722460D01*
X208416389Y-109722460D01*
X208464008Y-109746270D01*
X208487817Y-109770079D01*
X208511627Y-109817698D01*
X208511627Y-109936746D01*
X208487817Y-109984365D01*
X208464008Y-110008174D01*
X208416389Y-110031984D01*
X208297341Y-110031984D01*
X208249722Y-110008174D01*
X208225913Y-109984365D01*
%TO.C,R7*%
X194584960Y-123881984D02*
X194418294Y-123643889D01*
X194299246Y-123881984D02*
X194299246Y-123381984D01*
X194489722Y-123381984D01*
X194537341Y-123405794D01*
X194561151Y-123429603D01*
X194584960Y-123477222D01*
X194584960Y-123548651D01*
X194561151Y-123596270D01*
X194537341Y-123620079D01*
X194489722Y-123643889D01*
X194299246Y-123643889D01*
X194751627Y-123381984D02*
X195084960Y-123381984D01*
X194870674Y-123881984D01*
%TO.C,J2*%
X199151627Y-114061984D02*
X199151627Y-114419127D01*
X199127817Y-114490555D01*
X199080198Y-114538174D01*
X199008770Y-114561984D01*
X198961151Y-114561984D01*
X199365913Y-114109603D02*
X199389722Y-114085794D01*
X199437341Y-114061984D01*
X199556389Y-114061984D01*
X199604008Y-114085794D01*
X199627817Y-114109603D01*
X199651627Y-114157222D01*
X199651627Y-114204841D01*
X199627817Y-114276270D01*
X199342103Y-114561984D01*
X199651627Y-114561984D01*
%TO.C,Y1*%
X182340198Y-122793889D02*
X182340198Y-123031984D01*
X182173532Y-122531984D02*
X182340198Y-122793889D01*
X182506865Y-122531984D01*
X182935436Y-123031984D02*
X182649722Y-123031984D01*
X182792579Y-123031984D02*
X182792579Y-122531984D01*
X182744960Y-122603413D01*
X182697341Y-122651032D01*
X182649722Y-122674841D01*
%TO.C,R10*%
X202896865Y-115411984D02*
X202730198Y-115173889D01*
X202611151Y-115411984D02*
X202611151Y-114911984D01*
X202801627Y-114911984D01*
X202849246Y-114935794D01*
X202873055Y-114959603D01*
X202896865Y-115007222D01*
X202896865Y-115078651D01*
X202873055Y-115126270D01*
X202849246Y-115150079D01*
X202801627Y-115173889D01*
X202611151Y-115173889D01*
X203373055Y-115411984D02*
X203087341Y-115411984D01*
X203230198Y-115411984D02*
X203230198Y-114911984D01*
X203182579Y-114983413D01*
X203134960Y-115031032D01*
X203087341Y-115054841D01*
X203682579Y-114911984D02*
X203730198Y-114911984D01*
X203777817Y-114935794D01*
X203801627Y-114959603D01*
X203825436Y-115007222D01*
X203849246Y-115102460D01*
X203849246Y-115221508D01*
X203825436Y-115316746D01*
X203801627Y-115364365D01*
X203777817Y-115388174D01*
X203730198Y-115411984D01*
X203682579Y-115411984D01*
X203634960Y-115388174D01*
X203611151Y-115364365D01*
X203587341Y-115316746D01*
X203563532Y-115221508D01*
X203563532Y-115102460D01*
X203587341Y-115007222D01*
X203611151Y-114959603D01*
X203634960Y-114935794D01*
X203682579Y-114911984D01*
D12*
%TO.C,D3*%
X186693294Y-122440794D02*
X188978294Y-122440794D01*
X188978294Y-120970794D02*
X186693294Y-120970794D01*
X186693294Y-120970794D02*
X186693294Y-122440794D01*
%TO.C,C3*%
X181695458Y-114065794D02*
X181911130Y-114065794D01*
X181695458Y-113345794D02*
X181911130Y-113345794D01*
%TO.C,R8*%
X196500794Y-118668052D02*
X196500794Y-118193536D01*
X195455794Y-118668052D02*
X195455794Y-118193536D01*
%TO.C,R9*%
X205200794Y-117843052D02*
X205200794Y-117368536D01*
X204155794Y-117843052D02*
X204155794Y-117368536D01*
%TO.C,C2*%
X190848874Y-116215794D02*
X190567714Y-116215794D01*
X190848874Y-117235794D02*
X190567714Y-117235794D01*
%TO.C,C5*%
X180968294Y-116446374D02*
X180968294Y-116165214D01*
X181988294Y-116446374D02*
X181988294Y-116165214D01*
%TO.C,R5*%
X187916036Y-124028294D02*
X188390552Y-124028294D01*
X187916036Y-122983294D02*
X188390552Y-122983294D01*
%TO.C,R4*%
X184094667Y-110076044D02*
X184331925Y-110486986D01*
X184999663Y-109553544D02*
X185236921Y-109964486D01*
%TO.C,U2*%
X188138294Y-119015794D02*
X188613294Y-119015794D01*
X183868294Y-113795794D02*
X183393294Y-113795794D01*
X183393294Y-119015794D02*
X183393294Y-118540794D01*
X188613294Y-113795794D02*
X188613294Y-114270794D01*
X183868294Y-119015794D02*
X183393294Y-119015794D01*
X188613294Y-119015794D02*
X188613294Y-118540794D01*
X188138294Y-113795794D02*
X188613294Y-113795794D01*
%TO.C,J6*%
X183108294Y-108853294D02*
X183108294Y-107523294D01*
X183108294Y-110123294D02*
X183108294Y-111453294D01*
X183108294Y-111453294D02*
X181778294Y-111453294D01*
X183108294Y-108853294D02*
X181678294Y-108853294D01*
%TO.C,C6*%
X189271762Y-112236956D02*
X189535966Y-112333118D01*
X189620622Y-111278470D02*
X189884826Y-111374632D01*
%TO.C,J3*%
X209748294Y-123585794D02*
X212408294Y-123585794D01*
X209748294Y-110825794D02*
X209748294Y-123585794D01*
X209748294Y-108225794D02*
X211078294Y-108225794D01*
X209748294Y-110825794D02*
X212408294Y-110825794D01*
X212408294Y-110825794D02*
X212408294Y-123585794D01*
X209748294Y-109555794D02*
X209748294Y-108225794D01*
%TO.C,J4*%
X202318294Y-123465794D02*
X200988294Y-123465794D01*
X208728294Y-123465794D02*
X208728294Y-120805794D01*
X203588294Y-120805794D02*
X208728294Y-120805794D01*
X203588294Y-123465794D02*
X208728294Y-123465794D01*
X203588294Y-123465794D02*
X203588294Y-120805794D01*
X200988294Y-123465794D02*
X200988294Y-122135794D01*
%TO.C,J5*%
X206048294Y-112965794D02*
X206048294Y-120645794D01*
X206048294Y-112965794D02*
X208708294Y-112965794D01*
X206048294Y-110365794D02*
X207378294Y-110365794D01*
X206048294Y-120645794D02*
X208708294Y-120645794D01*
X206048294Y-111695794D02*
X206048294Y-110365794D01*
X208708294Y-112965794D02*
X208708294Y-120645794D01*
%TO.C,R7*%
X196500794Y-122843052D02*
X196500794Y-122368536D01*
X195455794Y-122843052D02*
X195455794Y-122368536D01*
%TO.C,J2*%
X196178294Y-115035794D02*
X196178294Y-112375794D01*
X196178294Y-112375794D02*
X198778294Y-112375794D01*
X194908294Y-115035794D02*
X193578294Y-115035794D01*
X193578294Y-115035794D02*
X193578294Y-113705794D01*
X196178294Y-115035794D02*
X198778294Y-115035794D01*
X198778294Y-115035794D02*
X198778294Y-112375794D01*
D13*
%TO.C,Y1*%
X180758294Y-120455794D02*
X180758294Y-121755794D01*
X184198294Y-120455794D02*
X184198294Y-121755794D01*
D14*
X184678294Y-121105794D02*
G75*
G03*
X184678294Y-121105794I-100000J0D01*
G01*
D12*
%TO.C,R10*%
X205200794Y-114518052D02*
X205200794Y-114043536D01*
X204155794Y-114518052D02*
X204155794Y-114043536D01*
%TD*%
M02*
